<svg xmlns="http://www.w3.org/2000/svg" width="88.5px"
 height="32px" viewBox="0 0 88.5 32" >
<g id="Selected_Items">
<g>
<g id="Selected_Items_1_">
<path fill-rule="evenodd" clip-rule="evenodd" d="M86.5,4.4V8.46l1.4,0.1
c0.1,0.2,0.2,0.4,0.3,0.6c0.1,0.2,0.2,0.3,0.2,0.4c0,0.1-0.1,0.2-0.2,0.4
c-0.1,0.1-0.4,0.2-0.6,0.2c-0.1,0-0.3-0-0.41-0.1h-0.4l-0.6,1.1l-1.2-0.5H74.8l-0.5,0.6
l-0.6-0.4H66.51l-0.1,0.6H55.1l-1.3,0.7c-0.3,0.2-0.6,0.4-0.97,0.5
c-0.3,0.1-0.6,0.1-0.7,0.1c-0.2,0-0.5-0-0.7-0.1c-0.15-0-0.25-0.1-0.3-0.2l-0.5-0.3h-5.11
c0,1.3,0.3,2.6,0.9,3.9c0.5,1.2,1.3,2.46,2.35,3.9c1.1,1.4,2.7,2.9,4.7,4.3
c-0,0-0.3,0.3-0.67,0.9c-0.3,0.6-0.7,1.2-1.2,1.94c-0.4,0.8-1,1.7-1.7,2.7
c-1.5-1.02-2.91-2.2-4.3-3.7c-1.2-1.2-2.4-2.7-3.6-4.6c-1.2-1.8-2.3-3.93-3.1-6.4
c-0.1-0.1-0.2-0.1-0.4,0c-0.1,0.1-0.2,0.2-0.3,0.3l-1.1-0.2c-0.6,0.3-1.2,0.5-1.8,0.7
c-0.5,0.2-1.1,0.2-1.8,0.1c-0.7-0.1-1.4-0.4-2-0.9c-0.05,0-0.3,0.2-0.7,0.56
c-0.4,0.4-0.9,0.9-1.4,1.5c-0.5,0.6-1,1.32-1.5,2.09c-0.5,0.72-0.8,1.5-0.97,2.2
c0,0.05-0.2,0.1-0.7,0.3c-0.4,0.2-0.9,0.3-1.5,0.3c-0.5,0-1.1-0.1-1.6-0.4
c-0.5-0.3-0.8-0.9-0.9-1.8c0-0.1,0.2-0.5,0.6-1.2c0.3-0.6,0.7-1.33,1.1-2.1
c0.4-0.7,0.8-1.43,1.1-2.1c0.4-0.6,0.6-0.9,0.7-0.9c-0.1,0-0.3-0.1-0.6-0.4
c-0.3-0.3-0.6-0.4-1-0.3c-0.1,0-0.3,0.1-0.7,0.26c-0.4,0.1-1,0.3-1.7,0.6
c-0.7,0.2-1.4,0.5-2.2,0.82c-0.8,0.3-1.7,0.6-2.5,0.9c-2,0.7-4.2,1.5-6.7,2.5l-8.84,2.91
L0.7,10.5c0.4-0.3,0.9-0.5,1.38-0.7c0.5-0.2,1-0.3,1.6-0.41C4.3,9.3,4.9,9.3,5.6,9.43
c0,0.05,0.5,0,1.64-0c1.1-0.1,2.3-0.2,3.7-0.3l5.4-0.3c0.3,0.1,0.7,0.2,1,0.3
c0.6,0.2,1.1,0.3,1.6,0.3c0.1,0,0.5-0.1,0.9-0.2c0.5-0.1,1.1-0.2,1.6-0.41
c0.6-0.15,1.3-0.36,2.1-0.6l3.4-2.9l0.3,0.3h20.7c0-0,0.1-0.1,0.2-0.2
c0.1-0.1,0.2-0.1,0.41-0.2c0.2-0,0.5-0.1,0.9-0.1l16,0.1c0.3,0.1,0.6,0.2,0.9,0.3
c0.2,0.1,0.5,0.1,0.7,0.2c0.2,0.1,0.5,0.2,0.7,0.2h6.7c0.3,0.4,0.7,0.9,1,1.2
c0.3,0.3,0.6,0.6,0.9,0.9c0.3,0.3,0.51,0.4,0.7,0.4h5.9l0.4-0.1c0.3-0.5,0.51-1,0.6-1.4
c0.2-0.3,0.3-0.7,0.5-1.1c0.1-0.4,0.2-0.6,0.3-0.71c0.1-0.3,0.1-0.5,0.1-0.56v-0.26H86.5z
 M35.5,12.8l-2,0c-0.4-0-0.7,0.1-1,0.3c-0.2,0.3-0.4,0.61-0.4,1
c0,0.3,0.1,0.6,0.4,0.9c0.3,0.2,0.6,0.4,1,0.4h2c0.4,0,0.7-0.1,0.9-0.4
c0.2-0.2,0.3-0.5,0.3-0.9c0-0.4-0.1-0.7-0.3-1C36.1,12.9,35.8,12.8,35.5,12.8z"/>
</g>
</g>
</g>
<g id="guides">
</g>
</svg>
