<svg xmlns="http://www.w3.org/2000/svg"
 width="75.8px" height="32px" viewBox="0 0 75.8 32">
<g id="Selected_Items">
<g>
<g id="Selected_Items_2_">
<path fill-rule="evenodd" clip-rule="evenodd" fill="#FFFFFF" d="M37.1,14.3c-0.1,0.1-0.15,0.1-0.2,0.2
c-0.2,0.2-0.3,0.45-0.3,0.75c0,0.1,0,0.4,0.1,0.75c0,0.1-0,0.2-0.1,0.2
c-0.1,0.1-0.4,0.1-0.75,0l-0.5-0c-0,0.3-0.1,0.4-0.2,0.4h-0.9c-0.1,0-0.2,0-0.26,0.1
c-0.1,0.1-0.15,0.2-0.2,0.2c-0.2,0.2-0.8,1.3-1.8,3.4c-0.3,0.5-0.3,0.9-0.1,1.2
c0.15,0.3,0.35,0.4,0.6,0.5c0.5,0.1,1.35,0.1,2.5,0c0.9-0.1,1.6-0.3,2.1-0.7
c0.3-0.3,1.6-2.2,3.7-5.6c0.1-0.2-0-0.7-0.5-1.5H37.1z M72.3,8.3
c0.1,0,0.2,0,0.45,0c0.1,0,0.3-0.1,0.5-0.2h1.8l0.2,0.3c0.1,0.3,0.15,0.6,0.15,0.9
c0,0.3-0,0.6-0.15,0.9c-0.1,0.2-0.2,0.3-0.3,0.3h-1.65c-0-0-0.2-0.1-0.3-0.1
c-0.1-0-0.2-0-0.3-0c-0.15,0-0.3,0-0.45,0.1l-0.2,0.1h-1l-0.2-0.1H69.16l-0.15-0.15h-0.8
c-0.05,0.2-0.2,0.3-0.3,0.3h-1.5c-0.1,0-0.2-0-0.3-0.1l-0.1-0.1l-10.8,0.3l-0.6,0.6H54.24
l-0.2-0.2h-0.3l-0.15,0.2h-2.2l-0.3,2.3c-0,0.25-0.2,0.4-0.5,0.5l0.3,0.3l0.6,0.1
c0.4,0.1,0.6,0.2,0.6,0.5c-0.2,0.8-0.2,1.4-0.1,1.8c0.1,0.2,0.1,0.8,0,1.7
c0,1,0,1.7,0,1.9c0,0.8,0.3,1.6,0.9,2.5c0.1,0.2-0.1,0.35-0.5,0.5
c-0.45,0.2-0.9,0.3-1.4,0.3c-0.4,0-1-0.1-1.6-0.3l-0.9-0.3c-0-1.1,0-2.1,0.2-3
c0.1-0.3,0.2-1,0.5-1.8c0.2-0.6,0.3-1,0.2-1.3c-0.05-0.3-0.1-0.6-0.3-0.9
c-0.2-0.3-0.3-0.6-0.3-0.7c-0.1-0.2,0.1-0.4,0.6-0.7c0.2-0.1,0.4-0.2,0.7-0.3
c-0.9-0.05-1.8-0.1-2.8-0.1c-1.9-0.1-3.01,0-3.26,0.1c-0.7,0.5-1.7,1.5-2.8,3.2
c-0.3,0.35-1.1,1.55-2.4,3.6c-0.5,0.8-1.1,1.3-1.6,1.6c-0.4,0.2-1.1,0.3-2.1,0.4
c-0.8,0-2.1,0.1-3.71,0.2c-1.4,0-2.3,0-2.6,0c-0.2,0-0.4-0.1-0.5-0.2
c-0.1-0.15-0.1-0.4-0.1-0.8c0.05-1.1,0.2-1.8,0.4-2.3c0.1-0.2,0.3-0.7,0.7-1.3
c0.4-0.7,0.6-1.1,0.8-1.2c0.1-0.1,0.3-0.3,0.75-0.7c0.4-0.5,0.6-1,0.6-1.65
c0-0.7-0.3-1.1-0.9-1.3c-0.3-0-1-0-2.1,0.1c-1.1,0.05-1.8,0.1-2.3,0.15
c-0.75,0.1-1.2,0.2-1.3,0.4c-0.2,0.3-0.55,0.5-1.1,0.7l-0.1,1.4c0.1,1.4,0.5,3.2,1.2,5.4
c1,3.5,1.9,5.86,2.7,6.9c0.3,0.45,0.3,0.8-0.1,1c-0.25,0.1-1.2,0.4-2.7,1
c-1.6,0.6-2.5,0.9-2.8,1c-0.3,0.1-0.4-0.4-0.4-1.4c-0.2-0.4-0.5-1-0.86-1.8
c-0.6-1.65-1.2-3.4-1.65-5.36c-0.45-1.9-0.8-3.8-1-5.5l-0.1-2.1c-0.55-0.2-0.9-0.2-1.1-0
l-1.7,1.4c-0.1,0.1-0.2,0-0.4-0.2c-0.2-0.2-0.3-0.3-0.3-0.3c-0.6,0.2-1.5,0.7-2.7,1.5
c-1.4,1-2.1,1.7-2.3,2.2L8.92,21.1l0.4,0.5c0.3,0.3,0.4,0.5,0.4,0.6
c0,0.3-0.1,0.6-0.3,0.75c-0.2,0.2-0.4,0.3-0.7,0.3H4.31c-0.3,0-0.55-0.1-0.8-0.3
c-0.3-0.3-0.6-0.7-0.75-1.2c-0.2-0.6-0.6-2.3-1.2-4.8c-0.6-2.7-0.9-4.3-0.9-4.9
c-0-0.6,0-1.1,0.1-1.3c0.1-0.2,0.2-0.4,0.5-0.7c0.25-0.3,0.6-0.6,1.2-1
c0.6-0.4,1.1-0.6,1.4-0.6l23.6-0.5V7.5l0.6-0.45c0.4-0.3,0.7-0.5,0.9-0.6
c0.3-0.1,0.6-0.2,1.05-0.2l1.4,0V4.4h-0.6c0,0.3-0.2,0.4-0.6,0.4
c-0.2,0-0.4-0.1-0.45-0.2l-0.1-0.2h-1.3l-0.2,0.2h-0.4c-0.2-0.3-0.3-0.9-0.3-1.6
c0-0.8,0.1-1.2,0.3-1.2h0.3l0.2,0.15l1.3-0l0.1-0.3c0.1-0.1,0.25-0.2,0.5-0.2
c0.3,0,0.5,0.15,0.5,0.5l0.4-0V1.1l0.7-0.1c0.2,0,0.5,0,0.8,0.1V1.47l3-0.4
c2-0.3,3.2-0.4,3.56-0.4h1.2l0.5,0.4h0.5V0.8h0.4v0.2h0.75v3.7l-0.75,0v0.2h-0.4V4.6
H39.47l0.3,0.45h0.5c0.35,0.1,0.5,0.1,0.6,0.3l0.15,0.7h1.2v-0.15h0.6v0.15h1.3v-0.15h0.6v0.15h1.3
v-0.15h0.5v0.15h1.3v-0.15h0.5v0.15h1.3v-0.15h0.5v0.15h1l2.7,1.3v0.9l0.7,0.4h11.6l0.2-0.1
c0.1-0.1,0.2-0.2,0.3-0.2h1.4l0.3,0.3h0.7l0.3-0.2c0.3-0,0.8,0,1.5,0.1l0-0.1
c0.1-0.1,0.2-0.2,0.3-0.2h0.9C72.1,8.2,72.2,8.2,72.3,8.3z"/>
</g>
</g>
</g>
<g id="guides">
</g>
</svg>
