<svg xmlns="http://www.w3.org/2000/svg" width="109.5px"
 height="32px" viewBox="0 0 109.5 32">
<g id="Selected_Items">
<g>
<g id="Selected_Items_3_">
<path fill-rule="evenodd" clip-rule="evenodd" fill="#FFFFFF" d="M109.3,11.3c0.1,0.1,0.1,0.3,0.2,0.4
c0.1,0.18,0.1,0.3,0.1,0.5c0,0.3-0.2,0.6-0.5,1.08l-0.1,0.2H68v0.7h3.01v2.6l0.4,0.4
c0.2,0.18,0.3,0.5,0.3,0.9c0,0.2-0,0.3-0.1,0.3c-0.1,0-0.1,0-0.1,0.1v0.1
c0,0.3-0.1,0.5-0.2,0.5c-0.1,0-0.2,0-0.3,0c-0.18,0-0.8,0-1.8,0c-1,0-2.5,0-4.6,0
c-2.11,0-5.1,0-9.03,0c-0.1,0.1-0.2,0.2-0.2,0.4c0.1,0,0.1,0,0.2,0.1l0.27,0.3l-0.2,0.6h-1.5
l-0.2-0.2c-0.1-0.1-0.2-0.5-0.5-1.2c-0.3-0.6-0.3-1.08-0.1-1.5c0-0.3,0.2-0.5,0.5-0.5h0.1
c0.6,0,1,0.09,1.2,0.27c0.36,0,0.8-0.1,1.3-0.3l-7.5-0.1c-0.1,0-0.4,0.1-1,0.3
c-0.5,0.1-1.1,0.3-1.8,0.5c-0.6,0.2-1.3,0.3-1.9,0.5c-0.5,0.1-0.8,0.2-0.9,0.31v2.7
l-8.8,0.9v-2.8c-0.5,0-0.7,0.1-0.8,0.2c-0.1,0.1-0.3,0.3-0.6,0.5
c-0.31,0.3-0.7,0.5-1.2,0.6c-0.5,0.18-1.1,0.2-1.8,0.2c-0.7-0.1-1.4-0.3-2.3-0.8
c-0.1,0-0.1,0-0.2,0.1c-0.1,0-0.18,0-0.3,0c0,0.3-0,0.7-0,1.2
c-0.1,0.5-0.1,1-0.27,1.5c-0.1,0.5-0.2,1-0.5,1.5c-0.2,0.4-0.3,0.7-0.54,0.8
c-0.4,0.2-1,0.3-1.8,0.2c-0.8-0.1-1.7-0.2-2.7-0.3c-1-0.1-1.8-0.3-2.6-0.4
c-0.8-0.2-1.3-0.4-1.5-0.5c-0.18-0.1-0.5-0.5-1.08-1.2c-0.4-0.3-0.8-0.7-1.2-1
c-0.4-0.3-0.6-0.5-0.7-0.54H9.5c-0.2,1.39-0.3,2.2-0.4,2.5c-0,0.2-0.1,0.3-0.2,0.3
c-0.1,0.18-0.2,0.3-0.5,0.3c-0.2,0-0.6-0.1-1.3-0.3c-0.5,0-1,0-1.5,0
c-0.5-0-0.9-0-1,0c-0.2,0-0.5,0-0.8,0.1c-0.3,0.1-0.7,0.2-1.2,0.2
c-0.4,0.1-0.8,0.2-1.2,0.3c-0.5,0.1-0.8,0.1-0.9,0.2H0.2c-0.1,0-0.1-0-0.1-0.1
C0,24.7,0,24.5,0,24.2c0-0.3,0-0.8,0-1.5c0-0.72,0-1.7,0-3c0.1-1.2,0.2-2.3,0.2-3.4
c0-1.2,0-2,0-2.5c0-0.2,0.3-0.4,0.8-0.7c0.5-0.2,1.6-0.3,3.4-0.2h1l0.1-0.1l0.1-0.1
c0.1,0,0.1-0,0.2-0.1c0.1-0.1,0.2-0.1,0.3-0.2h9.2c0.2,0,0.4,0.1,0.6,0.3
c0.5,0.3,0.8,0.7,1,1h10.4c0.1-0.2,0.18-0.5,0.3-1c0.1-0.4,0.2-0.7,0.2-1v-0.2
h0.1c0.3-0.1,0.8-0.2,1.5-0.27c0.7-0,1.1-0.1,1.2-0.2c0.1,0,0.3-0,0.4-0.1
c0-0.1,0.1-0.1,0.2-0.2h3.2V9.85h-1.2c-0.1,0-0.5,0.1-1,0.2c-0.5,0.1-1.1,0.2-1.9,0.2
c-0.7,0.1-1.39,0.1-2.2,0.2c-0.7,0-1.4-0-1.9-0.1l-0.1-0.2v-0.1
c-0.1-0.7-0.1-1.3-0.1-1.66c0-0.4,0-0.8,0-1c0-0.2,0-0.3,0.1-0.4l0.1-0.1h0.2l0.8-0.1
c0.6-0,1.2-0.1,1.9-0.1c0.72-0.1,1.4-0.1,2.2-0.1c0.7,0,1.2,0,1.5,0.1
c0.5,0,1,0,1.5,0c0.6,0,1.2,0,1.9,0c0.6,0,1.1-0,1.7-0c0.5-0.1,0.8-0.1,1.1-0.1V5.8
c-0.1-0-0.1-0.09-0.1-0.2V5l3.2-0.2h0l0.4,1.08c0,0.1-0,0.09-0.1,0.1
c-0.1,0.1-0.1,0.2-0.3,0.2v0.2h5.6c0.4-0.1,1.1-0.2,1.9-0.3c0.8-0.1,1.7-0.2,2.5-0.27
c0.8-0.1,1.6-0.1,2.4-0.2c0.7-0,1.1,0,1.3,0.2l0.2,0.1l0.1,4.4h-0.2
c-4.7,0-7.19-0.2-7.5-0.5v0.2c-0.18-0.1-0.5-0.2-1.1-0.2c-0.5-0.1-1.2-0.04-1.9,0v0.9h63.7
v0.2C109.1,11,109.2,11.2,109.3,11.3z M31.9,17.7h-2.2c-0.6,0-0.9,0.27-0.9,0.8
c0,0.6,0.3,1,0.9,1h2.2c0.6,0,0.9-0.3,0.9-1C32.8,18,32.5,17.7,31.9,17.7z
 M19.3,21.4c0.36,0.7,0.9,1.2,1.7,1.2c0.6,0.18,1.4,0.1,2.3-0.3c0.4-0.2,0.9-0.6,1.4-1.2
c0.2-0.3,0.3-0.7,0.4-1.2c0.1-0.5,0-0.9-0.2-1.2c-0.1-0.5-0.6-0.8-1.4-1
c-1.1-0.2-1.9-0.2-2.5,0.1c-0.4,0.2-0.7,0.4-0.9,0.6c-0.2,0.2-0.4,0.4-0.6,0.8
C19,19.9,18.9,20.7,19.3,21.4z"/>
</g>
</g>
</g>
<g id="guides">
</g>
</svg>
