<svg xmlns="http://www.w3.org/2000/svg" width="90px"
 height="32px" viewBox="0 0 90 32">
<g id="Selected_Items">
<g>
<g id="Selected_Items_4_">
<path fill-rule="evenodd" clip-rule="evenodd" fill="#FFFFFF" d="M81.8,2.1c0.3-0,0.6-0,0.96-0
c0-0,0-0.1,0-0.1c0.1,0,0.1,0,0.1,0c0.2,0,0.4,0,0.6,0c0,0,0.1,0,0.1,0
l0.04,0c0,0,0,0,0,0c0,0,0.1,0,0.1,0c0,0,0.1,0,0.1,0
c0,0,0.1,0.1,0.1,0.1c0.03,0,0,0.1,0,0.1c0,0,0,0.1,0,0.1
c0,0,0,0.1,0,0.1c0,0,0,0.1,0,0.1v0c0,0.03,0,0.1,0,0.1c0,0,0,0.1,0,0.1
c0,0,0,0.1,0,0.1c0,0,0,0.1,0,0.1c0,0,0,0.1,0,0.1c0,0,0,0.1,0,0.1
c0,0,0,0.1,0,0.1v0c0,0,0,0.1,0,0.1c0,0,0,0.1,0,0.1c0,0,0,0.1,0,0.1
c0,0,0,0.1,0,0.1s0,0.1,0,0.1c0,0,0,0.1,0,0.1v0.1c0,0,0,0,0,0
c0,0,0,0.1,0,0.1c0,0,0,0.1,0,0.1c-0,0-0,0.1-0,0.1c0,0,0,0.1,0,0.1
c-0,0-0.1,0.04-0.1,0.04c0,0,0,0.1,0,0.1c-0,0-0,0-0,0V4.37
c0,0,0,0.1,0,0.1c0,0,0,0.1,0,0.1s0,0.1,0,0.1c0,0,0,0.1,0,0.1c0,0,0,0.1,0,0.1v0
c0,0,0,0.1,0,0.1c0,0,0,0.1,0,0.1c0,0,0,0.1,0,0.1c0,0,0,0.1,0,0.1s0,0.1,0,0.1
c0,0,0,0.1,0,0.1l0,0c0,0,0,0,0,0c0,0,0.1,0.1,0.1,0.1
c0,0,0,0.1,0,0.1s0,0.1,0,0.1c0,0,0,0.1,0,0.1c0,0,0,0.1,0,0.1
c-0,0-0,0.1-0,0.1c0,0-0,0.1-0,0.1v0c0,0,0,0.1,0,0.1c0,0,0,0.1,0,0.1
c0,0,0,0.1,0,0.1c0,0,0,0.1,0,0.1c0,0,0,0.1,0,0.1c0,0,0,0.1,0,0.1c0,0,0,0.1,0,0.1
v0c0,0,0,0.1,0,0.1c0,0.03,0,0.1,0,0.1c0,0,0,0.1,0,0.1c0,0,0,0.1,0,0.1
c0,0,0,0.1,0,0.1c0,0,0,0.1,0,0.1c0,0.03,0,0.1,0,0.1v0c0,0,0,0.1,0,0.1
c0,0,0,0.1,0,0.1c0,0,0,0.1,0,0.1c0,0,0,0.1,0,0.1s0,0.1,0,0.1c0,0,0,0.1,0,0.1
c0,0,0,0.1,0,0.1V7.92c0,0,0,0.1,0,0.1c0,0,0,0.1,0,0.1s0,0.1,0,0.1c0,0,0,0.1,0,0.1
s0,0.1,0,0.1c0,0,0,0.1,0,0.1c0,0,0,0.1,0,0.1v0c1.6,0,3.1,0,4.7,0
c0.1,0,0.1,0.1,0.2,0.1l0,0c0,0,0.1,0,0.1,0V8.63c0.1,0,0.11,0.1,0.2,0.1
c0,0,0,0,0,0c0,0,0.1,0.1,0.1,0.1c0,0,0,0.1,0,0.1c0,0,0,0.1,0,0.1
s0,0.1,0,0.1c0,0,0,0.1,0,0.1s0,0.1,0,0.1s0,0.1,0,0.1v0c0,0,0,0.1,0,0.1
c0,0,0,0.1,0,0.1c0,0,0,0.1,0,0.1c0,0,0,0.1,0,0.1c0,0,0,0.1,0,0.1s0,0.1,0,0.1
c0,0,0,0.1,0,0.1v0c0,0,0,0.1,0,0.1s0,0.1,0,0.1c0,0.03,0,0.1,0,0.1c0,0,0,0.1,0,0.1
c0,0,0,0.1,0,0.1c0,0,0,0.1,0,0.1c0,0,0,0.1,0,0.1v0c0,0,0,0.1,0,0.1
c0,0,0,0.1,0,0.1s0,0.1,0,0.1c0,0,0,0.1,0,0.1c0,0,0,0.1,0,0.1c0,0,0,0.1,0,0.1
c0,0,0,0.1,0,0.1v0c0,0,0,0.1,0,0.1c0,0,0,0.1,0,0.1c0,0,0,0.1,0,0.1
c0,0,0,0.1,0,0.1s0,0.1,0,0.1c0,0,0,0.1,0,0.1c-0,0-0,0.1-0,0.1l-0,0
c0,0,0,0.1,0,0.1c0,0.03,0,0.1,0,0.1c0,0-0,0.1-0,0.1c0,0,0,0.1,0,0.1
c-0,0-0.1,0-0.1,0c0,0-0,0-0,0c-0.1,0-0.1,0-0.1,0c-1.4,0-2.7,0-4.1,0
c-0.1,0-0.1,0-0.1,0c-0.1,0-0.11,0-0.2,0c-0,0-0.1,0-0.1,0
c0,0,0,0,0.1,0v-0c0.1,0,0.1,0.1,0.2,0.1c0,0,0.1,0,0.1,0
c0,0,0,0.1,0,0.1c0,0,0,0.1,0,0.1c0,0,0,0.1,0,0.1c0,0,0,0.1,0,0.1
c0,0,0,0.1,0,0.1c0,0,0,0.1,0,0.1c0,0,0,0.1,0,0.1v0c0,0,0,0.1,0,0.1
c0,0,0,0.1,0,0.1s0,0.1,0,0.1s-0,0.1-0,0.1c0,0-0,0.1-0,0.1L85.1,13.6v0
c0,0,0,0.1,0,0.1l-0,0.1c0,0,0.1,0,0.1,0c0,0,0.1,0.1,0.1,0.1
c0,0,0,0,0,0c0,0,0,0.1,0,0.1c0,0,0,0.1,0,0.1s0,0.1,0,0.1
c0,0,0.1,0,0.1,0c0,0,0.1,0.1,0.1,0.1c0,0,0,0,0,0c0,0,0,0.1,0,0.1
c0,0,0,0.1,0,0.1s0,0.1,0,0.1s0,0.1,0,0.1c0,0,0,0.1,0,0.1c-0,0-0,0.1-0,0.1
s-0,0.1-0,0.1c0,0-0,0-0,0c0,0,0,0.1,0,0.1c0,0,0,0.1,0,0.1
c0,0,0,0.1,0,0.1c0,0,0,0.1,0,0.1c0,0,0,0.1,0,0.1c0,0,0,0.1,0,0.1c0,0,0,0.1,0,0.1
v0c0,0,0,0.1,0,0.1c0,0,0,0.1,0,0.1s0,0.1,0,0.1c0,0,0,0.1,0,0.1c0,0,0,0.1,0,0.1
c0,0,0,0.1,0,0.1c0,0,0,0.1,0,0.1v0c0,0,0,0.1,0,0.1s0,0.1,0,0.1c0,0,0,0.1,0,0.1
c0,0,0,0.1,0,0.1c0,0,0,0.1,0,0.1s0,0.1,0,0.1c0,0,0,0.1,0,0.1v0c0,0,0,0.1,0,0.1
c0,0,0,0.1,0,0.1c0,0,0,0.1,0,0.1c0,0,0,0.1,0,0.1c0,0,0,0.1,0,0.1s0,0.1,0,0.1
c0,0,0,0.1,0,0.1v0c0,0,0,0.1,0,0.1c0,0,0,0.1,0,0.1c0,0,0,0.1,0,0.1
c0,0,0,0.1,0,0.1s0,0.1,0,0.1c0,0,0,0.1,0,0.1s0,0.1,0,0.1v0c0,0,0,0.1,0,0.1
c0,0.03,0,0.1,0,0.1c0,0,0,0.1,0,0.1c0,0,0,0.1,0,0.1c0,0,0,0.1,0,0.1s0,0.1,0,0.1
s0,0.1,0,0.1v0c0,0,0,0.1,0,0.1c0,0,0,0.1,0,0.1s0,0.1,0,0.1s0,0.1,0,0.1s0,0.1,0,0.1
s0,0.1,0,0.1s0,0.1,0,0.1v0c0,0,0,0.1,0,0.1s0,0.1,0,0.1c0,0,0,0.1,0,0.1
c0,0-0,0.1-0.04,0.1c0,0-0,0.1-0,0.1l-0.1,0.1c-0.1,0-0.1,0-0.1,0h-0v0
c-0,0-0.1,0-0.1,0c0,0-0,0-0,0c-0.1,0-0.1,0-0.1,0c-0.6,0-1.3,0-1.9,0
c-0.1,0-0.1,0-0.1,0c-0.1,0-0.2,0-0.2,0c-0.1,0-0.1-0-0.21-0c-0-0-0-0.1-0-0.1
c-0-0-0.1-0.1-0.1-0.1v-0c0-0,0-0.1,0-0.1c-0-0-0.1-0.1-0.1-0.1v-0
c0-0,0-0.1,0-0.1s0-0.1,0-0.1c0-0,0-0.1,0-0.1c0-0,0-0.1,0-0.1v-0c-9,0-18,0-27.1,0
c-0,0-0.1,0.1-0.1,0.1c0,0,0,0.1,0,0.1c0,0,0,0.1,0,0.1c0,0,0,0.1,0,0.1
c0,0,0,0.1,0,0.1c0,0,0,0.1,0,0.1c0,0.03,0,0.1,0,0.1v0
c-0,0-0.1,0.1-0.1,0.1C55,19.9,55,19.96,55,20v0c-0,0-0.1,0-0.1,0l-0,0
c-0.1,0-0.1,0-0.1,0c-0.3,0-0.7,0-1,0c-0.1,0-0.1-0-0.21-0c-0-0-0-0.1-0-0.1
c-0-0-0.1-0.1-0.1-0.1c0-0,0-0.1,0-0.1v-0c0,0-0,0-0,0
c-0.1,0-0.1,0-0.1,0c-0.1,0-0.1-0-0.2-0c-0-0-0.1-0.1-0.1-0.1
c-0-0-0.1-0.1-0.1-0.1c-0.03,0-0.1-0-0.1-0c0-0-0-0.1-0-0.1
c0-0,0-0.1,0-0.1c0-0,0-0.1,0-0.1c0-0,0-0.1,0-0.1c0-0,0-0.1,0-0.1c0-0,0-0.1,0-0.1
s0-0.1,0-0.1v-0c0-0,0-0.1,0-0.1c0-0,0-0.1,0-0.1s0-0.1,0-0.1c0-0,0-0.1,0-0.1
s0-0.1,0-0.1c0-0,0-0.1,0-0.1s0-0.1,0-0.1v-0c0-0,0-0.1,0-0.1c0-0,0-0.1,0-0.1
s0-0.1,0-0.1v-0c-0-0-0-0.1-0-0.1c0-0-0-0.1-0-0.1c0-0-0-0.1-0-0.1
c-0,0-0.1-0-0.1-0c0-0,0-0.1,0-0.1c-0-0-0-0.1-0-0.1
c0-0-0-0.1-0.04-0.1c0-0-0-0.1-0-0.1c-0-0-0-0.1-0-0.1
c-0-0-0-0.1-0-0.1c-0-0-0-0.1-0-0.1l-0.04-0c0-0,0-0.1,0-0.1v-0
c-0.1-0-0.1-0.1-0.1-0.1c-0.1-0-0.1-0.1-0.1-0.1s-0.1-0-0.1-0
c-0.03,0-0,0.1-0,0.1c-0,0-0,0-0,0h-0c0,0-0,0.1-0,0.1
c0,0,0,0.1,0,0.1c0,0,0,0.1,0,0.1c0,0,0,0.1,0,0.1c0,0,0,0.1,0,0.1s0,0.1,0,0.1
c0,0,0,0.1,0,0.1v0c0,0,0,0.1,0,0.1c0,0,0,0.1,0,0.1c0,0,0,0.1,0,0.1
c0,0,0,0.1,0,0.1s0,0.1,0,0.1c0,0,0,0.1,0,0.1s0,0.1,0,0.1v0c0,0,0,0.1,0,0.1
c0,0.03,0,0.1,0,0.1c0,0,0,0.1,0,0.1c0,0,0,0.1,0,0.1c0,0,0,0.1,0,0.1s0,0.1,0,0.1
c-0,0-0,0.1-0,0.1l-0,0c-0,0-0,0.1-0,0.1c-0,0-0,0-0,0
c0,0,0,0.1,0,0.1v0c0,0,0,0.1,0,0.1s0,0.1,0,0.1s0,0.1,0,0.1s0,0.1,0,0.1
c0,0,0,0.1,0,0.1c-0,0-0,0.1-0,0.1c-0,0-0.04,0.1-0.04,0.1l-0,0
c-0,0-0.1,0.1-0.1,0.1v0c0,0,0,0.1,0,0.1c0,0,0,0.1,0,0.1c0,0,0,0.1,0,0.1
c0,0-0,0.1-0,0.1c0,0-0,0.1-0,0.1l-0,0c0,0,0,0.1,0,0.1
c-0,0-0,0.1-0,0.1c0,0,0,0.1,0,0.1c-0,0-0.1,0.1-0.1,0.1
c-0.1,0-0.1,0.1-0.1,0.1c0,0-0,0.1-0,0.1c-0.1,0-0.1,0-0.1,0
c-0.1,0-0.3,0-0.4,0c-0.1-0-0.1-0-0.1-0c-0,0-0.1,0-0.1,0c-0.1,0-0.1-0-0.2-0
c-0-0-0-0.1-0-0.1c-0-0-0.1-0.1-0.1-0.1c-0-0-0.1-0-0.1-0
c-0-0-0-0.1-0-0.1c-0-0-0.1-0.1-0.1-0.1c0-0.03,0-0.1,0-0.1v-0
c0-0,0-0.1,0-0.1c0-0,0-0.1,0-0.1c0-0,0-0.1,0-0.1c0-0,0-0.1,0-0.1c0-0,0-0.1,0-0.1
c0-0,0-0.1,0-0.1c0-0,0-0.1,0-0.1c0.03,0,0.1-0,0.1-0c0-0,0-0.1,0-0.1
c0-0,0-0.1,0-0.1c0-0,0-0.1,0-0.1c0-0.02,0-0,0-0.1c-0-0-0.1-0-0.1-0
c-0.1,0-0.1,0-0.2,0c-0.1-0-0.1-0.04-0.2-0c-0,0-0.1,0-0.1,0s-0.1,0-0.1,0
c-0.1,0-0.1,0.1-0.2,0.1c-0,0-0.1,0.1-0.1,0.1c-0,0-0.1,0-0.1,0
c-0.1,0-0.1,0.1-0.2,0.1c-0,0-0.1,0.1-0.1,0.1c-0.1,0-0.1,0.1-0.1,0.1
c-0.1,0-0.2,0.1-0.2,0.1c-0,0-0.1,0-0.1,0c0,0-0,0-0,0
c-0.1,0-0.1,0-0.1,0c-0.1,0-0.2,0-0.25,0l-0,0c-0.1,0-0.1,0-0.1,0
c-0.1,0-0.2,0.1-0.3,0.1c-0,0-0.1,0-0.1,0c-0.1,0-0.1,0-0.1,0c-0,0-0.1,0-0.1,0
c-0.1,0-0.1-0-0.2-0c-0,0-0.1-0-0.1-0c-0.2,0-0.39-0-0.6-0c-0.1,0-0.1,0-0.1,0
l-0-0c-1.5,0-2.95-0-4.4-0c-0.1,0-0.1-0-0.2-0c-0-0-0.1-0.1-0.1-0.1
c-0-0-0.1-0.1-0.1-0.1v-0c0-0,0-0.1,0-0.1s-0-0.1-0-0.1
c-0-0-0.1-0.1-0.1-0.1c0-0-0-0.1-0-0.1c-0-0-0-0.1-0-0.1
c-0-0-0-0.1-0-0.1c-0-0-0.1-0.1-0.1-0.1l-0-0v-0c-0,0-0.1,0-0.1,0
l-0,0c-0.1,0-0.1,0-0.1,0c-0.1,0-0.2,0.1-0.3,0.1v0c-0,0-0,0.1-0,0.1
c-0,0-0.1,0.1-0.1,0.1c-0,0-0.1,0.1-0.1,0.1c0,0,0,0.1,0,0.1c0,0,0,0.1,0,0.1
s-0,0.1-0,0.1c0,0-0,0.1-0,0.1c0,0-0,0.04-0,0.04c0,0.03,0,0.1,0,0.1
c-0,0-0.1,0.1-0.1,0.1c0,0,0,0.1,0,0.1c0,0,0,0.1,0,0.1c0,0,0,0.1,0,0.1
c0,0-0,0.1-0,0.1c0,0-0,0.1-0,0.1c0,0-0,0-0,0c0,0,0,0.1,0,0.1
c-0,0-0.1,0.1-0.1,0.1c0,0,0,0.1,0,0.1c0,0-0,0.1-0,0.1c0,0,0,0.1,0,0.1
c-0,0-0.1,0.1-0.1,0.1c-0,0-0,0.1-0,0.1c0,0-0,0-0,0
c0,0,0,0.1,0,0.1c0,0,0,0.1,0,0.1s0,0.1,0,0.1c0,0-0,0.1-0,0.1c0,0,0,0.1,0,0.1
c-0,0-0.1,0.1-0.1,0.1c-0,0-0.04,0.1-0.04,0.1c0,0-0,0-0,0
c0,0,0,0.1,0,0.1c0,0,0,0.1,0,0.1c0,0-0,0.1-0,0.1c0,0,0,0.1,0,0.1
c-0,0-0.1,0.1-0.1,0.1c0,0,0,0.1,0,0.1c-0,0-0,0.1-0,0.1
c0,0-0,0.04-0,0.04c0,0,0,0.1,0,0.1c0,0,0,0.1,0,0.1c0,0,0,0.1,0,0.1
s-0,0.1-0,0.1c0,0,0,0.1,0,0.1c-0,0.03-0.1,0.1-0.1,0.1c-0,0-0,0.1-0,0.1
c0,0-0,0-0,0c0,0.03,0,0.1,0,0.1c0,0,0,0.1,0,0.1c0,0,0,0.1,0,0.1
s-0,0.1-0,0.1c0,0,0,0.1,0,0.1c-0,0-0.1,0.1-0.1,0.1c-0,0-0,0.1-0,0.1
s-0,0-0.04,0c0,0,0,0.1,0,0.1s0,0.1,0,0.1c0,0-0,0.1-0,0.1c0,0,0,0.1,0,0.1
c-0,0.03-0.1,0.1-0.1,0.1c0,0,0,0.1,0,0.1c-0,0-0,0.1-0,0.1s-0,0-0,0
c0,0,0,0.1,0,0.1c0,0,0,0.1,0,0.1c0,0-0,0.1-0.04,0.1c0,0,0,0.1,0,0.1
c-0,0.03-0.1,0.1-0.1,0.1c0,0,0,0.1,0,0.1c0,0,0,0.1,0,0.1v0
c-0,0.03-0.1,0.1-0.1,0.1c0,0,0,0.1,0,0.1c0,0-0,0.1-0,0.1c0,0,0,0.1,0,0.1
c-0,0-0.1,0.1-0.1,0.1c0,0,0,0.1,0,0.1s0,0.1,0,0.1v0c-0,0.03-0.1,0.1-0.1,0.1
c0,0,0,0.1,0,0.1c0,0,0,0.1,0,0.1s-0,0.1-0,0.1c0,0,0,0.1,0,0.1
c-0,0-0.1,0.1-0.1,0.1c0,0,0,0.1,0,0.1v0c0,0,0,0.1,0,0.1
c-0,0-0.1,0.1-0.1,0.1c0,0,0,0.1,0,0.1c0,0-0,0.1-0,0.1c0,0,0,0.1,0,0.1
c-0,0-0.1,0.1-0.1,0.1c-0,0.03-0,0.1-0,0.1c0,0-0,0-0,0
c0,0,0,0.1,0,0.1c0,0,0,0.1,0,0.1s-0,0.1-0,0.1c0,0,0,0.1,0,0.1
c-0,0-0.1,0.1-0.1,0.1c-0,0.03-0,0.1-0,0.1l-0,0c0,0,0.1,0,0.1,0
c0,0,0.1,0,0.1,0c0,0,0,0.1,0,0.1c0,0,0,0.1,0,0.1
c0,0,0,0.1,0,0.1c0,0,0.1,0.1,0.1,0.1c0,0,0,0.1,0,0.1
c0,0,0,0.1,0,0.1c0,0,0,0.1,0,0.1c0,0,0.1,0,0.1,0c0,0,0,0.1,0,0.1
c0,0,0,0.1,0,0.1s0,0.1,0,0.1c0,0,0,0.1,0,0.1c0,0,0,0.1,0,0.1s0,0.1,0,0.1
c0,0,0,0.1,0,0.1v0c0,0,0,0.1,0,0.1c-0,0-0.1,0.1-0.1,0.1c0,0-0,0.1-0,0.1
c0,0,0,0.1,0,0.1c-0.1,0-0.1,0.1-0.1,0.1c-0,0-0,0.1-0,0.1
c0,0-0,0.1-0,0.1c0,0-0,0-0,0c-0,0-0.1,0.1-0.1,0.1
c-0,0-0.1,0-0.1,0h-0c-0,0-0.1,0.1-0.1,0.1c-0,0-0.1,0-0.1,0
c-0.1,0-0.1,0-0.1,0c-0.2,0-0.4,0-0.7,0l-0,0c-0.1,0-0.1,0-0.1,0c-0.39,0-0.8,0-1.1,0
c-0.1,0-0.1,0-0.1,0l-0-0c-0.2,0-0.4-0-0.6-0c-0.1,0-0.1-0-0.2-0l-0-0
c-0.1,0-0.2-0-0.25-0c-0.1,0-0.1,0-0.1,0l-0-0c-0.1,0-0.11-0-0.2-0
c-0.1,0-0.1-0-0.2-0l-0.1-0.1c-0.1,0-0.1-0-0.2-0c-0.1-0-0.2-0.1-0.2-0.1
c-0.1-0-0.1-0.1-0.1-0.1c-0.1-0-0.1-0.1-0.2-0.1c-0,0-0.1-0-0.1-0
c-0-0-0.1-0.1-0.1-0.1c-0-0-0-0.1-0-0.1c-0.1-0-0.1-0.1-0.1-0.1
c-0.1-0-0.1-0.1-0.2-0.1c0-0-0-0.1-0-0.1c-0-0-0.1-0.1-0.1-0.1
c-0-0-0.1-0.1-0.1-0.1c-0,0-0.1-0-0.1-0c0-0-0-0.1-0-0.1
c0-0-0-0.1-0-0.1c-0-0-0.1-0.1-0.1-0.1c0-0-0-0.1-0-0.1
c0-0-0-0.1-0-0.1v-0.1l-0-0c-0-0-0-0-0-0c-0,0-0.1-0-0.1-0
c0-0-0-0.1-0-0.1c0-0.03,0-0.1,0-0.1c0-0,0-0.1,0-0.1c0-0.03,0-0.1,0-0.1
c0-0,0-0.1,0-0.1c-0-0-0.1-0.1-0.1-0.1c0-0,0-0.1,0-0.1v-0c0-0,0-0.1,0-0.1
c0-0,0-0.1,0-0.1c0-0,0-0.1,0-0.1c0-0,0-0.1,0-0.1c0-0,0-0.1,0-0.1c0-0,0-0.1,0-0.1
c0-0,0-0.1,0-0.1v-0c0-0,0-0.1,0-0.1c0-0,0-0.1,0-0.1c0-0,0-0.1,0-0.1
s0-0.1,0-0.1s0-0.1,0-0.1c0-0,0-0.1,0-0.1c0-0,0-0.1,0-0.1v-0c0-0,0-0.1,0-0.1
c0-0,0-0.1,0-0.1c0-0,0-0.1,0-0.1c0-0.03,0-0.1,0-0.1
c0-0,0-0.1,0-0.1c0.03-0,0-0.1,0-0.1c0-0.03,0-0.1,0-0.1v-0.04
c0-0,0-0.1,0-0.1c0-0,0-0.1,0-0.1c0-0,0-0.1,0-0.1
c0.03-0,0-0.1,0-0.1c0-0,0-0.1,0-0.1c0-0,0-0.1,0-0.1c0-0,0-0.1,0-0.1
c0,0,0.1-0,0.1-0c0-0,0-0.1,0-0.1c0-0,0-0.1,0-0.1
c0-0,0-0.1,0-0.1c0-0,0-0.1,0-0.1c0-0,0-0.1,0-0.1
c0-0,0.1-0.1,0.1-0.1c0-0,0-0.1,0-0.1c0,0,0-0,0-0c0-0,0-0.1,0-0.1
c0-0,0-0.1,0-0.1c0-0,0-0.1,0-0.1c0-0,0-0.1,0-0.1
c0-0,0-0.1,0-0.1c0-0,0.04-0.1,0.04-0.1c0-0,0.1-0.1,0.1-0.1l0-0
c0-0,0-0.1,0-0.1c0-0,0-0.1,0-0.1c0-0,0-0.1,0-0.1c0-0,0-0.1,0-0.1
c0-0,0.1-0.1,0.1-0.1c0-0,0-0.1,0-0.1c0.03-0,0.1-0.1,0.1-0.1v-0.04
c0-0,0-0.1,0-0.1c0-0,0-0.1,0-0.1c0-0,0-0.1,0-0.1
c0-0,0.04-0.1,0.04-0.1c0.03-0,0-0.1,0-0.1c0-0,0-0.1,0-0.1
c0-0,0-0.1,0-0.1c0,0,0.1-0,0.1-0c0-0,0-0.1,0-0.1c0-0,0-0.1,0-0.1
c0-0,0-0.1,0-0.1c0-0,0-0.1,0-0.1c0-0,0-0.1,0-0.1c0-0,0-0.1,0-0.1
c0-0.03,0-0.1,0-0.1v-0c0-0,0-0.1,0-0.1c0-0,0-0.1,0-0.1
c0-0,0-0.1,0-0.1s0-0.1,0-0.1c0-0,0-0.1,0-0.1c0-0,0-0.1,0-0.1
c0-0,0-0.1,0-0.1v-0c0-0,0-0.1,0-0.1c0-0,0-0.1,0-0.1
c0-0.03,0-0.1,0-0.1s0-0.1,0-0.1c0-0,0-0.1,0-0.1s0-0.1,0-0.1
c0-0,0.1-0.1,0.1-0.1v-0c0-0,0-0.1,0-0.1c0-0,0-0.1,0-0.1
c0.03-0,0-0.1,0-0.1s0-0.1,0-0.1c0-0,0-0.1,0-0.1c0-0,0-0.1,0-0.1
c0-0,0-0.1,0-0.1v-0c0-0,0-0.1,0-0.1c0-0,0.04-0.1,0.04-0.1c0.03-0,0-0.1,0-0.1
c0-0,0-0.1,0-0.1s0-0.1,0-0.1c0-0,0-0.1,0-0.1c0-0,0-0.1,0-0.1v-0
c0.03-0,0-0.1,0-0.1c0-0,0-0.1,0-0.1c0-0,0-0.1,0-0.1c0-0,0-0.1,0-0.1
c0-0,0-0.1,0-0.1c0-0,0-0.1,0-0.1c0-0,0.1-0.1,0.1-0.1l0-0c0-0,0-0.1,0-0.1
c0-0,0-0.1,0-0.1c0-0,0-0.1,0-0.1c0-0,0-0.1,0-0.1c0-0,0-0.1,0-0.1
c0-0,0-0.1,0-0.1s0-0.1,0-0.1l-0-0v-0.3c-0,0-0-0-0-0v-0l-0-0v-0
h-0v-0.1h-0v-0.1c-0,0-0-0-0-0l-0-0v-0c-0,0-0-0-0-0
l-0-0c0-0-0-0-0.04-0v-0h-0v-0.04l-0-0v-0h-0l-0-0
c0-0-0-0-0-0l-0-0h-0c0-0-0-0-0-0c-0-0-0.1-0-0.1-0
h-0l-0-0c-0,0-0-0-0-0c-0,0-0.1,0-0.1,0c0-0-0-0-0-0
c-0-0-0.1-0-0.1-0h-0c-0-0-0.1-0-0.1-0l-0-0h-0.04l-0-0
c-0-0-0.1-0-0.1-0h-0l-0-0c-0,0-0.1,0-0.1,0h-0.1l-0-0
c-0,0-0.1,0-0.1,0H32.2l-0-0c-0,0-0.1,0-0.1,0c-0,0-0.1,0-0.1,0h-0l-0-0
c-0,0-0.1,0-0.1,0h-0.1l-0-0c-0,0-0.1,0-0.1,0s-0.1,0-0.1,0c-0-0-0.1-0-0.1-0
h-0l-0-0H31.28l-0-0c-0,0-0.1,0-0.1,0c-0.15,0-0.3,0-0.5,0c-0,0-0.1,0-0.1,0h-0.4
c-0,0-0.1,0-0.1,0h-0c-0,0-0.1,0-0.1,0h-0c-0.1,0-0.2,0-0.3,0h-0
c-0,0-0.1,0-0.1,0h-0c-0,0-0,0-0,0c-0,0-0.1,0-0.1,0
c0,0-0,0-0,0h-0.1c-0,0-0.1,0-0.1,0h-0c-0,0-0.1,0-0.1,0h-0
c-0,0-0.1,0-0.1,0h-0.1c-0,0-0.1,0-0.1,0h-0.1c-0,0-0.1,0-0.1,0H28.44
c-0,0-0,0-0,0h-0.04c-0,0-0.1,0-0.1,0c-0,0-0.1,0-0.1,0h-0.1
c-0,0-0.1,0-0.1,0h-0.1c-0,0-0.1,0-0.1,0h-0c-0,0-0.1,0-0.1,0h-0
c-0,0-0.1,0-0.1,0H27.52c-0,0-0.1,0-0.1,0c-0,0-0.1,0-0.1,0l-0,0
h-0.1c-0,0-0.1,0-0.1,0h-0c-0,0-0.1,0-0.1,0h-0.1c0,0-0,0-0,0
s-0.1,0-0.1,0h-0.1c0,0-0,0-0,0c-0,0-0.1,0-0.1,0.04h-0
c-0,0-0.1,0-0.1,0h-0c-0,0-0.1,0-0.1,0h-0c-0.03,0-0.1,0-0.1,0h-0.1
c0,0-0,0-0,0c-0,0-0.1,0-0.1,0h-0.1c0,0-0,0-0,0
c-0,0-0.1,0-0.1,0h-0c-0,0-0.1,0-0.1,0h-0c-0,0-0.04,0-0.04,0
c-0,0-0.1,0-0.1,0h-0c-0,0-0.1,0-0.1,0H25.35c-0,0-0.1,0-0.1,0h-0
c-0,0-0.1,0-0.1,0h-0c-0,0-0.1,0-0.1,0h-0.1c0,0-0,0-0,0
c-0,0-0.1,0-0.1,0l-0,0h-0.1c-0,0-0.1,0-0.1,0h-0
c-0,0-0.1,0-0.1,0h-0.1c-0,0-0.1,0-0.1,0c-0,0-0.1,0-0.1,0H24.18
c-0,0-0,0-0,0.04h-0c-0,0-0.1,0-0.1,0c-0,0-0,0-0,0
c-0,0-0.1,0-0.1,0c-0,0-0.1,0-0.1,0c-0,0-0.1,0-0.1,0h-0
c-0.03,0-0.1,0-0.1,0h-0c-0,0-0.1,0-0.1,0h-0c-0,0-0.1,0-0.1,0h-0
c-0,0-0.1,0-0.1,0h-0c-0,0-0.04,0-0.04,0h-0l-0,0c-0,0-0,0-0,0
H22.97c-0,0-0.1,0-0.1,0h-0c-0,0-0.1,0-0.1,0h-0c-0,0-0.1,0-0.1,0
h-0c-0,0-0.1,0-0.1,0.04h-0.1c-0,0-0.1,0-0.1,0h-0c-0,0-0.1,0-0.1,0
h-0c-0,0-0.1,0-0.1,0H22.05c-0,0-0.1,0-0.1,0h-0.1c-0,0-0.1,0-0.1,0
h-0.1c-0,0-0.1,0-0.1,0h-0c-0,0-0,0-0,0h-0c-0,0-0.1,0-0.1,0
h-0.1c-0.03,0-0.1,0-0.1,0h-0.1c-0,0-0.1,0-0.1,0.04h-0c-0.1,0-0.1,0-0.1,0
h-0c-0,0-0.1,0-0.1,0h-0.1c-0,0-0.1,0-0.1,0h-0c-0,0-0,0-0,0
c-0,0-0.1,0-0.1,0h-0c-0,0-0.1,0-0.1,0.04h-0.1c-0,0-0.1,0-0.1,0h-0.1
c-0,0-0.1,0-0.1,0h-0c-0,0-0.1,0-0.1,0h-0.1c-0,0-0.1,0-0.1,0h-0.1
c-0,0-0.1,0-0.1,0h-0.1c-0,0-0.1,0-0.1,0h-0.1c-0,0-0.1,0-0.1,0h-0
c-0,0-0,0-0,0h-0c-0,0-0.1,0-0.1,0s-0.1,0-0.1,0h-0
c-0,0-0.1,0-0.1,0H18.5c-0,0-0.1,0-0.1,0h-0.1c-0,0-0.1,0-0.1,0h-0
c-0,0-0,0-0,0h-0l-0,0c-0,0-0.1,0-0.1,0h-0
c-0,0-0,0-0,0c-0.03,0-0.1,0-0.1,0h-0c-0,0-0.1,0-0.1,0h-0
c-0.03,0-0.1,0-0.1,0l-0,0h-0l-0,0c-0,0-0.1,0-0.1,0h-0
c-0,0-0.1,0-0.1,0h-0.1c-0,0-0.1,0-0.1,0h-0.1c0,0-0,0-0,0
c-0,0-0.1,0-0.1,0h-0c-0,0-0.1,0-0.1,0H16.58c-0,0-0.1,0-0.1,0h-0.1
c-0,0-0.1,0-0.1,0.04h-0c-0,0-0.1,0-0.1,0h-0c-0,0-0.1,0-0.1,0h-0.1
c-0,0-0.1,0-0.1,0h-0.1c0,0-0,0-0,0c-0,0-0.1,0-0.1,0H15.62
c-0,0-0.1,0-0.1,0l-0.1,0.1c-0,0-0,0-0.1,0h-0c-0,0-0.1,0-0.1,0
h-0.1c0,0-0,0-0,0c-0,0-0.1,0-0.1,0h-0.1c-0,0-0.1,0-0.1,0h-0
c-0,0-0.1,0-0.1,0h-0.1c-0,0-0.1,0-0.1,0h-0c-0,0-0.1,0-0.1,0h-0.1
c-0,0-0.1,0-0.1,0h-0.04c-0,0-0.1,0-0.1,0.04l-0,0c-0,0-0.1,0-0.1,0h-0
c-0,0-0.1,0-0.1,0h-0.1c-0,0-0.1,0-0.1,0h-0c-0.1,0-0.1,0-0.1,0h-0.04
c-0,0-0.1,0-0.1,0h-0c-0,0-0.1,0-0.1,0L13.24,20.7c-0,0-0.1,0-0.1,0h-0
c-0,0-0.1,0-0.1,0h-0.1c-0,0-0.1,0-0.1,0h-0c-0,0-0.1,0-0.1,0h-0
c-0.03,0-0.1,0-0.1,0h-0c-0,0-0.1,0-0.1,0h-0c-0,0-0.1,0-0.1,0h-0
c-0,0-0.1,0-0.1,0H12.11c0,0-0,0-0.04,0c-0,0-0.1,0-0.1,0h-0
c-0,0-0.1,0-0.1,0h-0.04c-0,0-0.1,0-0.1,0H11.61c-0,0-0.1,0-0.1,0h-0.1
c-0.03,0-0.1,0-0.1,0h-0c-0,0-0.1,0-0.1,0H11.15c-0,0-0.1,0-0.1,0h-0.1
c-0,0-0.1,0-0.1,0h-0.1c-0.03,0-0.1,0-0.1,0h-0.1c-0.03,0-0.1,0-0.1,0h-0.04
c-0,0-0.1,0-0.1,0l-0,0h-0c-0,0-0.1,0-0.1,0c-0,0-0,0-0,0
c-0,0-0.1,0-0.1,0c0,0-0,0-0,0c-0,0-0.1,0-0.1,0h-0.04
c-0,0-0.1,0-0.1,0H9.7c-0,0-0,0-0,0h-0.04c-0,0-0.1,0-0.1,0
c-0.1,0-0.1,0-0.1,0H9.4c-0,0-0.1,0-0.1,0H9.3c-0,0-0.1,0-0.1,0l-0,0
c-0,0-0.1,0-0.1,0c-0,0-0.1,0-0.1,0l-0,0.04c-0.1,0-0.1,0-0.1,0H8.8
c-0,0-0.1,0-0.1,0H8.6c-0,0-0,0-0,0c-0,0-0.1,0-0.1,0
c0,0-0,0-0,0c-0,0-0.1,0-0.1,0l-0,0.04H8.3c-0,0-0.1,0-0.1,0
H8.1c-0,0-0.1,0-0.1,0H7.9c-0.03,0-0.1,0-0.1,0H7.8c0,0-0,0-0,0
s-0.1,0-0.1,0.04H7.6c-0,0-0.1,0-0.1,0H7.4c-0,0-0.1,0-0.1,0H7.2
c-0,0-0.1,0-0.1,0H7c-0,0-0.1,0-0.1,0H6.8c-0,0-0.1,0-0.1,0H6.7
c-0,0-0,0-0,0c-0,0-0.1,0-0.1,0c0,0-0,0-0,0c-0,0-0.1,0-0.1,0
H6.39c-0,0-0.1,0-0.1,0H6.3c-0.03,0-0.1,0-0.1,0.04H6.14c-0,0-0.1,0-0.1,0H6
c-0,0.03-0.1,0-0.1,0c-0,0-0.1,0-0.1,0H5.8c-0.03,0-0,0-0,0H5.68
c-0,0-0.1,0-0.1,0s-0.1,0-0.1,0H5.5c-0,0-0.1,0-0.1,0H5.3
c-0,0-0,0-0,0c-0,0-0.1,0-0.1,0H5.2c-0,0-0.1,0-0.1,0H5
c0,0-0,0-0,0c-0,0-0.1,0-0.1,0H4.8c-0,0-0.1,0-0.1,0H4.7
c-0,0-0.1,0-0.1,0H4.6c-0,0-0.1,0-0.1,0.04H4.4c0,0-0,0-0,0
c-0,0-0.1,0-0.1,0H4.2c-0,0-0.1,0-0.1,0H4c-0,0-0.1,0-0.1,0H3.9
c-0,0-0.1,0-0.1,0H3.8c-0,0-0.1,0-0.1,0H3.6c-0,0-0.1,0-0.1,0H3.5
c-0,0-0.1,0-0.1,0H3.3c-0,0-0.1,0-0.1,0H3.2c-0,0-0.1,0-0.1,0H3
c-0,0-0.1,0-0.1,0H2.9c-0,0-0.1,0-0.1,0.04H2.8c-0.03,0-0.1,0-0.1,0H2.7
c-0,0-0.1,0-0.1,0H2.5c-0,0-0,0-0,0H2.5l-0,0c-0,0-0.1,0-0.1,0
H2.3c-0,0-0.1,0-0.1,0H2.1c-0,0-0.1,0-0.1,0H2c-0,0-0.1,0-0.1,0
c-0,0-0.1,0-0.1,0c-0,0-0.1,0-0.1,0c0,0-0,0-0,0s-0.1,0-0.1,0H1.5
c-0,0-0,0-0,0c-0,0-0.1,0-0.1,0c0,0-0,0-0,0c-0,0-0.1,0-0.1,0
H1.2c0,0-0,0-0,0c-0,0-0.1,0-0.1,0.04H1c-0,0-0.1,0-0.1,0H0.9
c-0,0-0.1,0-0.1,0H0.8c-0,0-0.1,0-0.1,0c-0-0-0.1-0.03-0.1-0
c-0-0-0.1-0.1-0.1-0.1c-0-0-0.1-0.1-0.1-0.1v-0c0-0,0-0.1,0-0.1
c-0.1,0-0.1-0-0.2-0c0-0-0-0.1-0-0.1c-0-0-0-0-0-0v-4.1l0-0
c0-0,0-0,0-0c0,0,0.07-0,0.1-0c0.1,0,0.1,0,0.2,0v-0c0-0,0-0.1,0-0.1
c0-0,0-0.1,0-0.1c0-0,0-0.1,0-0.1v-0c0-0,0-0.1,0-0.1c0-0,0-0.1,0-0.1s0-0.1,0-0.1
s0-0.1,0-0.1s0-0.1,0-0.1s0-0.1,0-0.1s0-0.1,0-0.1V18.82c0-0,0-0.1,0-0.1c0-0,0-0.1,0-0.1
s0-0.1,0-0.1s0-0.1,0-0.1c0-0,0-0.1,0-0.1c0-0,0-0.1,0-0.1c0-0,0-0.1,0-0.1v-0
c0-0,0-0.1,0-0.1c0-0,0-0.1,0-0.1s0-0.1,0-0.1c0-0,0-0.1,0-0.1s0-0.1,0-0.1
c0-0,0-0.1,0-0.1c0-0,0-0.1,0-0.1v-0c0-0,0-0.1,0-0.1s0-0.1,0-0.1c0-0,0-0.1,0-0.1
s0-0.1,0-0.1c0-0,0-0.1,0-0.1c0-0,0-0.1,0-0.1c0-0,0-0.1,0-0.1V16.94c0-0,0-0.1,0-0.1
c0-0,0-0.1,0-0.1c0-0,0-0.1,0-0.1s0-0.1,0-0.1c0-0,0-0.1,0-0.1c0-0,0-0.1,0-0.1
c0-0,0-0.1,0-0.1v-0c0-0,0-0.1,0-0.1s0-0.1,0-0.1c0-0,0-0.1,0-0.1c0-0,0-0.1,0-0.1
c0-0,0-0.1,0-0.1c0-0,0-0.1,0-0.1s0-0.1,0-0.1v-0c0-0,0-0.1,0-0.1c0-0,0-0.1,0-0.1
c-0-0-0-0.07-0-0.1c0-0-0-0.1-0.04-0.1c0-0,0-0.07,0-0.1c0-0,0-0.07,0-0.1
c0-0,0-0.1,0-0.1c0-0,0-0.07,0-0.1c0-0,0-0.1,0-0.1c0-0,0-0,0-0.1c-0,0-0.1,0-0.1,0
c-0.1,0-0.1-0-0.2-0c-0-0-0.1-0.1-0.1-0.1C0.1,14.4,0,14.38,0,14.4
c0-0,0-0.1,0-0.1v-0c0-0,0-0.1,0-0.1s0-0.1,0-0.1c0-0,0-0.1,0-0.1s0-0.1,0-0.1
c0-0.03,0-0.1,0-0.1c0-0,0-0.1,0-0.1c0-0.03,0-0.1,0-0.1V13.6c0-0,0-0.1,0-0.1c0-0,0-0.1,0-0.1
s0-0.1,0-0.1s0-0.1,0-0.1s0-0.1,0-0.1c0-0,0-0.1,0-0.1c0-0,0-0.1,0-0.1v-0
c0-0,0-0.1,0-0.1c0-0,0-0.1,0-0.1s0-0.1,0-0.1c0-0,0-0.1,0-0.1s0-0.1,0-0.1
c0-0,0-0.1,0-0.1c0-0,0-0.1,0-0.1v-0c0-0,0-0.1,0-0.1s0-0.1,0-0.1s0-0.1,0-0.1
c0-0,0-0.1,0-0.1c0-0,0-0.1,0-0.1c0-0,0-0.1,0-0.1c0-0,0-0.1,0-0.1V11.72
c0-0,0-0.1,0-0.1c0-0,0-0.1,0-0.1c0-0,0-0.1,0-0.1c0-0.03,0-0.1,0-0.1
c0-0,0-0.1,0-0.1c0-0,0-0.1,0-0.1c0-0,0.1-0.1,0.1-0.1
c0,0,0-0,0-0c0-0,0-0.1,0-0.1c0-0,0-0.1,0-0.1
c0-0,0-0.1,0-0.1c0.1-0,0.1-0.1,0.1-0.1c0-0,0.1-0.1,0.1-0.1
c0,0,0.1-0,0.1-0c0-0,0.1-0,0.1-0c0-0,0.1-0.1,0.1-0.1
c0-0.03,0.07-0.1,0.1-0.1c0-0,0.1-0,0.1-0c0-0,0-0,0-0
c0,0,0.1,0,0.1,0v-0c0.1,0,0.1,0,0.1,0c0,0,0.04,0,0.04,0c0.1,0,0.1,0,0.1,0
c0.1,0,0.1,0.1,0.2,0.1c0,0,0,0,0,0c0.5,0,1.1,0,1.6,0L3.3,10.6l0-0
c2,0,4,0,6.1,0c0.1,0,0.1,0,0.2,0c0.2,0,0.4,0,0.6,0c0,0,0.07,0,0.1,0
c0,0,0,0,0,0c1.1-0,2.2-0,3.3-0v-0c0,0,0.1-0,0.1-0v-0
c0.1,0,0.1-0,0.2-0c0.1,0,0.1-0,0.2-0c0-0,0.07-0,0.1-0
c0.1-0,0.1-0.1,0.1-0.1c0-0,0.1-0.1,0.1-0.1c0-0,0.1-0.1,0.1-0.1
c0.1-0,0.1-0.1,0.2-0.1c0-0,0-0.1,0-0.1c0,0,0.1-0,0.1-0.04V9.8
c0.1,0,0.1-0,0.2-0c0.1,0,0.1,0,0.2,0V9.7c0,0,0.07,0,0.1,0c0.1,0,0.1,0,0.1,0
c0,0,0,0.1,0,0.1c0,0,0,0.1,0,0.1s-0,0.1-0,0.1
c0,0-0,0.1-0,0.1c-0.1,0-0.1,0.1-0.2,0.1v0c0,0,0.1,0,0.1,0
c0.02,0,0.04,0,0.1,0l0-0v-0l0-0c0-0,0.1-0.04,0.1-0.04
c0-0,0.1-0,0.1-0h0.1c0-0,0.1-0,0.1-0c0.1,0,0.2,0,0.25,0v-0
c0.2,0,0.3,0,0.5,0c0.03-0,0.1-0,0.1-0c0.1,0,0.3,0,0.4,0c0,0,0.1,0,0.1,0
c0.14,0,0.28,0,0.4,0c0-0,0.1-0,0.1-0c0.9,0,1.9,0,2.84,0c0,0,0.1,0,0.1,0
c0.1,0,0.2,0,0.3,0c0-0,0.1-0,0.1-0c1,0,2.02,0,3.05,0c0,0,0.1,0,0.1,0
c0.35,0,0.7,0,1,0c0.03-0,0.1-0,0.1-0c0.7,0,1.3,0,2,0c0-0,0.1-0,0.1-0
c0,0,0.07-0,0.1-0c0.39,0,0.8-0,1.17-0.04c0,0,0.1-0,0.1-0c0,0,0.1,0,0.1,0V9.8
c0.2,0,0.4,0,0.6,0c0-0,0-0.1,0-0.1c0-0.03,0.07-0.1,0.1-0.1
c0-0,0.1-0.1,0.1-0.1c0-0,0.07-0.1,0.1-0.1c0-0,0.1-0.1,0.1-0.1
c0-0,0.1-0.1,0.1-0.1c0,0,0.1-0,0.1-0c0.1-0,0.11-0.1,0.2-0.1
c0-0,0-0.1,0-0.1c0.03-0,0.1-0.1,0.1-0.1c0-0,0.1-0.1,0.1-0.1
c0-0,0.1-0.1,0.1-0.1c0-0,0-0.1,0-0.1c0-0,0.1-0.1,0.1-0.1
c0,0,0-0,0-0c0.1-0,0.1-0.1,0.2-0.1c0-0,0.1-0.1,0.1-0.1
c0-0,0.1-0.04,0.1-0.04c0-0,0-0,0-0c0,0,0.1-0,0.1-0
c0.2,0,0.5-0,0.7-0c0-0,0.07-0.1,0.1-0.1c0.03-0,0.1-0.1,0.1-0.1
c0-0,0.1-0.1,0.1-0.1c0,0,0.1-0,0.1-0c0-0,0-0.1,0-0.1
c0.03-0,0.1-0.1,0.1-0.1c0-0,0.1-0.1,0.1-0.1c0-0,0.1-0.1,0.1-0.1
c0-0,0.1-0.1,0.1-0.1c0,0,0.1-0,0.1-0c0-0,0.1-0,0.1-0
c0-0,0-0.1,0-0.1c0-0,0-0.1,0-0.1c0-0,0.1-0.1,0.1-0.1
c0-0,0.1-0.1,0.1-0.1c0-0,0.1-0.1,0.1-0.1c0-0,0.1-0.1,0.1-0.1l0-0
c0-0,0-0.1,0-0.1c0-0,0-0.1,0-0.1c0-0,0.1-0,0.1-0
c0-0,0-0,0-0c0.03-0,0.1-0,0.1-0c0-0,0-0.1,0-0.1
c0-0,0.1-0.1,0.1-0.1c0-0,0.1-0.1,0.1-0.1c0-0,0.1-0.1,0.1-0.1
c0-0,0.1-0.1,0.1-0.1c0-0,0.1-0.1,0.1-0.1c0,0,0-0,0-0
C34.5,6.1,34.5,6,34.5,6c0-0.03,0.1-0.1,0.1-0.1c0.03-0,0.1-0.1,0.1-0.1
c0-0,0.1-0.1,0.1-0.1c0-0,0.1-0.1,0.1-0.1c0-0,0.1-0.1,0.1-0.1
c0-0,0.1-0.1,0.1-0.1c0,0,0-0,0-0c0.1-0,0.1-0.1,0.2-0.1
c0.1-0,0.1-0,0.2-0V5.3h0l0-0c0-0,0.1-0,0.1-0c0,0,0.1,0,0.1,0
V5.2c5.43,0,10.9,0,16.3,0V5.1c0-0,0-0.1,0-0.1c0-0,0-0.1,0-0.1
c0-0,0.1-0.1,0.1-0.1l0.04-0c0-0,0-0.1,0-0.1c0-0,0.04-0.1,0.04-0.1
c0.03-0,0.1-0.1,0.1-0.1l0-0c0-0,0.1-0,0.1-0c0,0,0.1,0,0.1,0V4.5
l0-0c0-0,0.1-0,0.1-0c0,0,0.1-0,0.1-0c0.14,0,0.3,0,0.4,0V4.3
c0-0,0-0.1,0-0.1c0-0,0.1-0.1,0.1-0.1c0-0,0.07-0.1,0.1-0.1
c0,0,0.1-0,0.1-0s0.1-0.1,0.1-0.1l0-0V3.8c0,0,0.1,0,0.1,0
c0-0,0-0.1,0-0.1c0,0,0.1-0,0.1-0c0.03-0,0.1-0.1,0.1-0.1c0,0,0.1,0,0.1,0
c0-0,0-0,0-0c0-0,0.1-0.1,0.1-0.1c0-0,0.1-0.1,0.1-0.1l0-0
c0-0,0-0.1,0-0.1c0-0,0.1-0.1,0.1-0.1c0-0,0.1-0.1,0.1-0.1
c0-0.03,0.1-0.1,0.1-0.1c0-0,0-0.1,0.04-0.1c0-0,0-0.1,0-0.1c0-0,0-0.1,0-0.1V2.7
C54.64,2.7,54.68,2.7,54.7,2.7V2.7L54.8,2.7V2.6c0,0,0.1,0,0.1,0c0,0,0.1-0,0.1-0
C54.9,2.6,55,2.63,55,2.7c0.1,0,0.1,0,0.2,0c0,0,0.07,0,0.1,0c0-0,0.04-0.1,0.04-0.1
c0.1,0,0.1,0,0.1,0c0.1,0,0.18,0,0.3,0c0,0,0.07,0,0.1,0c0,0,0.1,0.1,0.1,0.1
c0,0,0.1,0.1,0.1,0.1c0,0,0.1,0.1,0.1,0.1c0,0,0,0.1,0,0.1
c0.03,0,0.1,0,0.1,0c0,0,0.1,0.1,0.1,0.1c0,0,0.1,0.1,0.1,0.1
c0,0,0.1,0.1,0.1,0.1c0,0,0.1,0.1,0.1,0.1s0.1,0.1,0.1,0.1
c0.03,0,0.1,0.1,0.1,0.1l0,0c0,0,0.1,0,0.1,0c0,0,0.1,0.1,0.1,0.1
c0,0,0,0.1,0,0.1c0,0,0,0,0,0c0,0,0,0,0,0
c0.03,0.03,0.07,0.1,0.1,0.1c0,0,0,0.1,0,0.1c0.1,0,0.1,0,0.1,0
c0,0,0.1,0.1,0.1,0.1c0,0,0,0.1,0,0.1c0,0,0,0.1,0,0.1l0,0
c0.5,0,0.96,0,1.5,0V4.3c0-0,0-0.1,0-0.1s0-0.1,0-0.1c0.03,0,0.1-0,0.1-0V4
c0.1,0,0.1-0,0.2-0c0.1,0,0.1-0,0.2-0c0.1-0,0.1-0,0.2-0
c0-0,0-0.1,0-0.1c0.1,0,0.1-0,0.2-0c0-0,0-0.1,0-0.1
c0.03,0,0.1-0,0.1-0V3.6c0.1,0,0.11-0,0.2-0c0.1-0,0.1-0.1,0.2-0.1
c0.03-0,0.1-0.1,0.1-0.1c0,0,0.1-0,0.1-0h0c0.1-0,0.1-0.1,0.2-0.1l0-0
V3.2c0.1,0,0.1-0,0.2-0c0.03-0,0-0.1,0-0.1c0.03,0,0.1-0,0.1-0V3
c0.1,0,0.1,0,0.1,0c0,0,0.1,0,0.1,0c0,0,0,0.1,0,0.1c0,0,0,0.1,0,0.1
c0,0,0,0.1,0,0.1c0,0,0,0.1,0,0.1v0c0,0,0,0.1,0,0.1s0,0.1,0,0.1s0,0.1,0,0.1
c0,0,0,0.1,0,0.1c0,0,0,0.1,0,0.1c0,0,0,0.1,0.04,0.1
c0,0,0,0.1,0,0.1l0,0c0,0,0.1,0.1,0.1,0.1c0,0,0,0.1,0,0.1
c0,0,0,0.1,0,0.1l0,0c0.6,0,1.2,0,1.8,0c0-0,0-0,0-0
c0,0,0.1,0,0.1,0V4.2c0.1,0,0.1,0,0.2,0c0.1,0.03,0.1,0.1,0.2,0.1
c0,0,0.1,0.1,0.1,0.1c0,0,0,0,0.04,0c0,0,0,0.1,0,0.1v0
c0,0,0.1,0,0.1,0c0,0,0.1,0,0.1,0c0,0,0,0.1,0,0.1c0,0,0,0.1,0,0.1
c0,0,0,0.03,0,0c0,0,0.1,0.1,0.1,0.1c0,0,0.1,0.1,0.1,0.1
c0,0,0,0.1,0,0.1c0,0,0,0.1,0,0.1c0,0,0.07,0,0.1,0V5.2c5.2,0,10.5,0,15.66,0
c0-0,0.1-0.1,0.1-0.1c0.03,0,0.1-0,0.1-0c0-0,0.1-0.1,0.1-0.1
c0-0,0.04-0.1,0.04-0.1c0.03-0,0-0.1,0-0.1c0-0,0-0.1,0-0.1
c0-0,0-0.1,0-0.1c0-0,0-0.1,0-0.1c0-0,0.1-0.1,0.1-0.1c0,0,0-0,0-0
c0-0,0-0.1,0-0.1s0-0.1,0-0.1c0-0,0-0.1,0-0.1c0-0.03,0-0.1,0-0.1
c0-0,0-0.1,0-0.1s0-0.1,0-0.1c-0-0-0-0.1-0-0.1c-0,0-0-0-0-0
c0-0,0-0.1,0-0.1c0-0,0-0.1,0-0.1c0-0,0-0.1,0-0.1s0-0.1,0-0.1c0-0,0-0.1,0-0.1
c0-0,0-0.1,0-0.1c0-0,0-0.1,0-0.1V3.2c0-0,0-0.1,0-0.1c0-0,0-0.1,0-0.1
c0-0,0-0.1,0-0.1c0-0,0-0.1,0-0.1c0-0,0-0.1,0-0.1s0-0.1,0-0.1c0-0,0-0.1,0-0.1V2.5
c0-0,0-0.1,0-0.1c0-0,0-0.1,0-0.1s0-0.1,0-0.1c0-0,0.1-0.1,0.1-0.1
c0.03-0,0.1-0,0.1-0c0.1,0,0.2-0,0.3-0C81.7,2.1,81.7,2.1,81.8,2.1z M82.8,2.6
l0-0.02c0-0,0-0,0.1-0h-0c-0.04,0-0.1,0-0.1,0c0,0,0,0,0,0
L82.8,2.6z M80.3,10.97c-0.1,0-0.1,0.1-0.2,0.1c0.1,0,0.2,0,0.25,0l0-0
c-0-0-0.04-0-0.1-0l-0-0L80.3,10.97z M55.6,3.1c0,0,0.1,0,0.1,0.04V3.1
l-0.1-0L55.6,3.1z M41.9,16c-0,0-0,0.1-0,0.1c-0,0-0.1,0.1-0.1,0.1
c0,0,0,0.1,0,0.1c0,0,0,0.1,0,0.1s0,0.1,0,0.1c0,0,0,0.1,0,0.1c0,0,0,0.1,0,0.1
c0,0,0,0.1,0,0.1v0c0,0,0,0.1,0,0.1s0,0.1,0,0.1c0,0,0,0.1,0,0.1c0,0,0,0.1,0,0.1
c-0,0-0,0.1-0,0.1c-0,0-0.04,0.1-0.04,0.1c-0,0-0,0.1-0,0.1l-0,0
c0,0-0,0.1-0,0.1v0.3c0,0,0,0.1,0,0.1c0,0,0,0.1,0,0.1v0c0,0,0,0.1,0,0.1
s0,0.1,0,0.1c0,0,0,0.1,0,0.1c0,0,0,0.1,0,0.1c0,0,0,0.1,0,0.1c0,0,0,0.1,0,0.1v0
c0,0,0,0.1,0,0.1c0,0,0,0.1,0,0.1s0,0.1,0,0.1c0,0,0,0.1,0,0.1
c0,0,0,0.1,0,0.1c0,0,0.1,0.1,0.1,0.1c0,0,0,0.1,0,0.1
c0,0,0,0.1,0,0.1v0c1.4,0,2.8,0,4.2,0c0,0,0.07,0,0.1,0
c0,0,0,0,0,0c0.3,0,0.5,0,0.8,0c0.1,0,0.1,0,0.2,0c0.1,0,0.21,0,0.3,0
c0-0,0.1-0,0.1-0s0.07-0,0.1-0c0,0,0.1-0,0.1-0c0,0,0.1-0,0.1-0
c0,0,0.1-0,0.1-0c0.1,0,0.1-0,0.2-0c0.03-0,0.07-0.1,0.1-0.1
c0-0,0.1-0.1,0.1-0.1c0.1-0,0.1-0.1,0.2-0.1c0,0,0.1,0,0.1,0c0-0,0-0.1,0-0.1
c0-0,0-0.1,0-0.1s0-0.1,0-0.1c0-0,0-0.1,0-0.1s0-0.1,0-0.1v-0c0-0,0-0.1,0-0.1
c0-0,0-0.1,0-0.1s0-0.1,0-0.1c0-0,0-0.1,0-0.1c0-0,0-0.1,0-0.1c0-0,0-0.1,0-0.1
c0-0,0-0.1,0-0.1v-0c0-0,0-0.1,0-0.1c0-0,0-0.1,0-0.1c0-0,0-0.1,0-0.1s0-0.1,0-0.1
c0-0,0-0.1,0-0.1c0-0,0-0.1,0-0.1c0-0,0-0.1,0-0.1v-0c0-0,0-0.1,0-0.1
c0-0,0-0.1,0-0.1c0-0,0-0.1,0-0.1s0-0.1,0-0.1c0-0,0-0.1,0-0.1c0-0,0-0.1,0-0.1
c0-0,0-0.1,0-0.1V16.44c0-0,0-0.1,0-0.1s0-0.1,0-0.1c0-0,0-0.1,0-0.1c0-0,0-0.1,0-0.1
v-0.3c0-0,0-0.1,0-0.1v-0c-1.5,0-3,0-4.5,0l-0.02,0c-0,0-0,0.1-0,0.1
s0,0.1,0,0.1c0,0,0,0.1,0,0.1c0,0,0,0.1,0,0.1c0,0,0,0.1,0,0.1c0,0,0,0.1,0,0.1v0
c0,0,0,0.1,0,0.1c0,0,0,0.1,0,0.1c0,0,0,0.1,0,0.1c0,0,0,0.1,0,0.1
c0,0,0,0.1,0,0.1c0,0,0.1,0.1,0.1,0.1c0,0,0,0.1,0,0.1l0,0
c0,0,0,0.1,0,0.1c0,0,0.1,0.1,0.1,0.1c0,0,0,0.1,0,0.1
c0,0,0,0.1,0,0.1c0,0,0.04,0.1,0.04,0.1c0,0,0.07,0.1,0.1,0.1
c0,0,0,0.1,0,0.1l0,0c0,0,0,0.1,0,0.1c0,0,0.1,0.1,0.1,0.1
c0.03,0,0.1,0.1,0.1,0.1c0,0,0,0.1,0,0.1c0,0,0.1,0.04,0.1,0.04
c0,0,0.1,0,0.1,0s0.1,0,0.1,0c0.03,0,0,0.1,0,0.1
c0,0,0,0.1,0,0.1s0,0.1,0,0.1c0,0.03,0,0.1,0,0.1l-0,0
c-0,0-0,0.1-0,0.1h-0c0,0,0,0.1,0,0.1l-0,0c-0,0-0,0.1-0,0.1
h-0c-0,0-0.1,0-0.1,0c-0.1,0-0.2,0-0.3,0c-0.1-0-0.1-0-0.1-0
c-0-0-0-0.1-0-0.1h-0.04c-0.1-0-0.1-0-0.2-0c-0.1-0-0.1-0.1-0.2-0.1
c-0-0-0-0.1-0-0.1h-0c-0.1-0-0.1-0-0.1-0c-0.1-0-0.1-0.1-0.1-0.1
c-0-0-0.1-0.1-0.1-0.1c-0.1-0-0.1-0-0.1-0c-0-0-0.1-0.1-0.1-0.1
c-0-0-0.1-0.1-0.1-0.1c-0-0-0.1-0.1-0.1-0.1c-0-0-0.1-0.1-0.1-0.1
c-0-0-0.1-0.1-0.1-0.1c-0-0-0.1-0.1-0.1-0.1c-0-0-0-0.1-0-0.1
c-0,0-0-0-0-0c-0-0-0-0.1-0-0.1c-0.03-0-0.1-0.1-0.1-0.1
c0-0,0-0.1,0-0.1c0-0,0-0.1,0-0.1c-0-0-0-0.1-0-0.1c0-0,0-0.1,0-0.1
c-0-0-0-0.1-0-0.1v-0c0-0,0-0.1,0-0.1c0-0-0-0.1-0-0.1
c0-0-0-0.1-0-0.1c-0-0-0-0.1-0-0.1c0-0,0-0.1,0-0.1c0-0,0-0.1,0-0.1
s0-0.1,0-0.1v-0c-0-0-0-0.1-0-0.1c0-0-0-0.1-0-0.1c0-0,0-0.1,0-0.1
c0-0,0-0.1,0-0.1c0-0,0-0.1,0-0.1s0-0.1,0-0.1v-0c-0.1,0-0.1,0-0.2,0
c-0,0-0.1,0-0.1,0c-0.1,0-0.1,0.1-0.2,0.1c-0.1,0-0.1,0-0.2,0
c-0,0-0.1,0.1-0.1,0.1C41.9,16,41.9,16,41.9,16z M44.54,18l-0.02,0l0.04,0v-0
L44.54,18z M23.1,14.9h0c0.1-0,0.2-0,0.2-0c0.1,0,0.1-0,0.2-0
c0,0,0.1-0,0.1-0c0.1,0,0.1-0,0.2-0c0.1-0,0.3-0.1,0.4-0.1
c0.1-0,0.2-0.1,0.3-0.1c0.1-0,0.1-0.1,0.2-0.1c0.1,0,0.1-0,0.2-0
c0.1-0,0.2-0.1,0.3-0.1c0-0,0-0,0.1-0c0-0,0-0.1,0.1-0.1
c0.1-0,0.1-0.07,0.2-0.1c0.1-0,0.1-0.1,0.2-0.1c-7.5,0-15.02,0-22.5,0
c0,0-0,0.1-0,0.1v0c-0,0-0,0-0.04,0H2.84c-0,0-0.1,0-0.1,0l-0.1,0.1
v0c-0,0-0,0-0,0v0c-0,0-0,0-0,0v0.7c0,0,0,0.04,0,0.04v3
c-0,0-0,0-0,0v0.6c-0,0-0,0-0,0v1.4c0,0,0,0,0,0v0.1h0
v0.1c0,0,0,0,0,0v0.1h0v0l0,0V20.7H2.8c0,0,0.1,0,0.1,0
s0.04,0,0.04,0c0,0,0.1,0,0.1,0H3.09v0c0,0.1-0,0.1-0,0.1c0,0-0,0.1-0,0.1
c0,0,0,0,0.1,0c0,0,0,0.1,0,0.1l0,0v0c0,0-0,0.1-0,0.1
c0,0-0,0.1-0,0.1c-0,0-0.07,0-0.1,0c-0,0-0.1,0-0.1,0c-0,0-0.03,0.03-0,0
c0,0,0,0,0,0.1c0-0,0.08-0,0.1-0c0,0,0.1-0,0.1-0c0.1,0,0.1-0,0.2-0
c0.1,0,0.2-0,0.25-0c0.1,0,0.11-0,0.2-0c0,0,0.1-0,0.1-0
c0.1,0,0.1-0,0.2-0c0.1-0.03,0.2-0.1,0.25-0.1c0.1-0,0.2-0.1,0.3-0.1
c0.1-0,0.1-0.1,0.2-0.1c0.1,0,0.1-0,0.2-0c0.1,0,0.2-0,0.3-0
c0.1,0,0.11-0,0.2-0c0,0,0.1-0,0.1-0c0.1,0,0.1-0,0.2-0
c0.1-0,0.2-0.1,0.25-0.1c0.1-0.03,0.2-0.07,0.3-0.1c0.1-0,0.2-0.1,0.3-0.1
c0.1,0,0.11-0,0.2-0c0.1-0,0.2-0.1,0.25-0.1c0.1-0.03,0.2-0.1,0.3-0.1
c0.1-0,0.2-0.1,0.25-0.1c0.1-0,0.2-0.1,0.3-0.1c0.1-0,0.2-0.1,0.25-0.1
c0.1-0,0.2-0.1,0.25-0.1c0.1-0,0.2-0.1,0.25-0.1c0.1-0,0.2-0.1,0.25-0.1
c0.1-0,0.2-0.1,0.25-0.1c0.1-0,0.2-0.1,0.25-0.1c0.1,0,0.2-0,0.3-0
c0.1,0,0.2-0,0.3-0c0,0,0.1-0,0.1-0c0.1,0,0.1-0,0.2-0
c0.1,0,0.2-0,0.3-0c0.1-0,0.2-0.1,0.2-0.1c0.1-0,0.2-0.1,0.25-0.1
c0.1-0,0.2-0.1,0.3-0.1c0.1-0,0.2-0.1,0.25-0.1c0.1-0,0.2-0.1,0.25-0.1
c0.1-0,0.1-0.1,0.2-0.1c0.1-0,0.2-0.1,0.21-0.1c0.1-0,0.2-0.07,0.2-0.1
c0.1-0,0.1-0.1,0.2-0.1c0,0,0.1-0,0.1-0c0.1,0,0.1-0,0.2-0
c0.1,0,0.2-0,0.25-0c0.2-0,0.4-0.1,0.6-0.1c0.1-0,0.2-0.1,0.3-0.1
c0.1-0,0.2-0.1,0.2-0.1c0.1-0,0.2-0.1,0.3-0.1c0.1-0,0.2-0.1,0.3-0.1
c0.1,0,0.2-0,0.2-0.04c0.1,0,0.1-0,0.2-0c0,0,0.1-0,0.1-0
c0.1,0,0.1-0,0.2-0c0.1-0,0.2-0.1,0.25-0.1c0.1-0,0.2-0.1,0.25-0.1
c0.1-0,0.2-0.1,0.3-0.1c0.1-0,0.2-0.1,0.25-0.1c0.1,0,0.2-0,0.25-0
c0.1-0,0.2-0.1,0.25-0.1c0.1-0,0.2-0.1,0.3-0.1c0.1-0,0.2-0.1,0.25-0.1
c0.1,0,0.2-0,0.25-0c0.1-0,0.3-0.1,0.4-0.1c0.1-0,0.2-0.1,0.3-0.1
c0.1-0,0.2-0.1,0.25-0.1c0.1-0,0.2-0.1,0.25-0.1c0.1-0,0.2-0.1,0.25-0.1
c0.1-0,0.2-0.1,0.3-0.1c0.1-0,0.2-0.1,0.25-0.1c0.1-0,0.2-0.1,0.25-0.1
c0.1-0,0.1-0.1,0.2-0.1c0.1-0,0.1-0.1,0.2-0.1c0-0,0.1-0,0.1-0
c0-0,0.1-0,0.1-0c0,0,0.1-0,0.1-0c0.1,0,0.1-0,0.2-0c0,0,0,0,0.1,0
c0.1-0,0.1-0,0.2-0c0.1,0,0.2-0,0.3-0c0,0,0.1-0,0.1-0
c0.1,0,0.1-0,0.2-0c0.1-0,0.2-0.1,0.3-0.1c0.11-0.03,0.2-0.07,0.3-0.1
c0.1-0,0.2-0.1,0.3-0.1c0.1-0,0.1-0.1,0.2-0.1l0.1-0l0-0c0.02,0,0,0,0.1,0
l0.9-0.3C22.9,15,22.97,14.9,23.1,14.9z M31.6,14.9c-0.11,0-0.2,0-0.4,0.1
c-0.1,0.1-0.1,0.1-0.2,0.1c-0.1,0-0.2,0.1-0.25,0.1c0,0,0.1,0,0.1,0c0.2,0,0.4,0,0.6,0
c0,0,0.1,0,0.1,0c0,0,0.1,0,0.1,0l0,0c0,0,0.1,0,0.1,0c-0.1-0.1-0.11-0.1-0.2-0.2
c-0-0-0-0.1-0.1-0.1C31.6,14.9,31.6,14.9,31.6,14.9z"/>
</g>
</g>
</g>
<g id="guides">
</g>
</svg>
