<svg width="32" height="32" viewBox="0 0 32 32" fill="none" xmlns="http://www.w3.org/2000/svg">
<path fill-rule="evenodd" clip-rule="evenodd" d="M10 2.8L9.9 3.4H8.9L8.4 2.2C8.4 2.2 8.4 2.2 8.4 2.2C8.2 2.1 7.9 1.7 7.3 1.7C6.6 1.7 6.4 1.9 6.1 2.1L6 2.1C5.7 2.3 5.5 2.6 5.5 3C5.5 3.6 5.6 4.3 5.6 4.6L5.6 4.7H4.4C4.3 5.2 4 6.3 4 7C4 7.7 4.1 9.1 4.2 9.7H4.4V15.5H6.4V18L5.8 18.6C5.8 18.7 5.7 18.7 5.6 18.8C5.4 19.1 5 19.5 5 19.8C5.1 20.2 5.2 20.7 5.4 21.1C5.4 21.3 5.5 21.4 5.5 21.5C5.5 21.6 5.7 21.8 5.9 22C6.1 22.2 6.3 22.5 6.4 22.7V26L6.2 29.6C6.1 30.1 6 31.1 6.2 31.3C6.4 31.5 7.1 31.6 7.4 31.6C9 31.8 12.2 32.1 12.4 32C12.5 31.8 12.8 31.5 12.9 31.3C12.9 31.4 13.1 31.6 13.2 31.6H19.2L19.6 31.1C19.6 31.4 20 32 20.6 32H25.3C25.6 32 26.3 31.7 26.2 30.9C26.2 30.1 26.2 26.9 26.2 25.1C26.6 25 27.4 24.3 27.6 24.1C27.8 23.9 28 23.3 28 23C28 22.6 27.9 22.2 27.7 21.9L27.7 21.9C27.7 21.8 27.7 21.8 27.7 21.7L27.7 21.7C27.5 21.4 27.3 20.8 27 20.3C26.9 20.2 26.7 20 26.5 19.8V14.8V14.6V11V10.2L26.7 3.9C26.7 3.7 26.3 3.4 25.5 3.4C25.5 3.4 25.4 3.4 25.4 3.4C25.3 3.3 25.2 3.2 25.1 3.2L24.7 2C24.6 1.8 24.3 1.2 24.2 1.2C24.2 1.2 24.2 1.1 24.2 1.1L24.2 1.1C24 1 23.6 0.6 23.4 0.6C23.2 0.6 22.9 0.6 22.6 0.6C22.4 0.6 22.1 1 22 1.2C22 1.2 22 1.2 22 1.2L22 1.2C21.9 1.4 21.8 1.6 21.8 1.7L21.7 2C21.7 1.9 21.6 1.9 21.5 1.9C21.5 1.9 21.4 1.9 21.2 1.9C20.9 1.5 20.6 1.2 20.1 0.8C19.7 0.5 19.4 0.4 18.9 0.4C18.5 0.4 18.3 0.6 18 0.9C17.9 1.1 17.8 1.3 17.7 1.5C16.9 1.3 15.9 0.9 15.2 0.6C15.1 0.6 14.9 0.5 14.8 0.5C14.1 0.2 13.3 -0 12.6 0C12 0 11.3 0.4 11 0.6C10.7 0.7 10.4 1.3 10.3 1.6L10.1 2.2L10 2.6L10 2.8ZM26.4 20.9L26.2 24.4C26.4 24.4 26.5 24.4 26.6 24.4L26.6 24.3C26.8 24.2 27.3 24 27.5 23.4C27.7 22.8 27.6 22.4 27.5 22.2L27.5 22.2C27.5 22.1 27.5 22.1 27.5 22.1C27.4 21.9 26.9 21.3 26.8 21.1C26.7 21 26.6 21 26.4 20.9ZM6.4 21.8V19.8C6.2 20 5.8 20.3 5.7 20.7C5.6 21 5.9 21.3 6.2 21.6C6.3 21.7 6.4 21.7 6.4 21.8ZM24 1.7C24.1 1.9 24.3 2.3 24.4 2.7C23.9 2.6 23 2.3 22.4 2.1C22.4 2 22.4 1.8 22.5 1.6C22.5 1.5 22.6 1.3 22.7 1.2C22.8 1.1 23.2 1 23.3 1.1C23.4 1.1 23.8 1.4 24 1.7ZM22.5 3.1V3.3C23.2 3.3 23.9 3.3 24.5 3.3C24.3 3.2 24.1 3.1 24 3.1C23.8 3.1 23.7 3 23.6 3C23.2 2.9 22.9 2.8 22.4 2.7L22.5 3.1ZM17.6 2C16.3 1.8 14.5 1 14.5 1C14.1 0.9 13.1 0.6 12.7 0.6C12.2 0.6 11.1 1 10.9 1.7C10.7 2.4 10.7 2.7 10.7 2.7L10.7 3.1L10.7 3.4H12.9C13.23 3.4 13.4 3.9 13.5 4C13.5 4 13.5 4 13.5 4C13.5 4 13.5 4 13.5 3.9L13.5 3.9L13.4 3.9C13.4 3.6 13.7 3.4 13.9 3.4H17.2L17.3 2.8L17.4 2.5C17.5 2.3 17.5 2.2 17.6 2ZM18 3.4V3.2L18.1 2.5C18.1 2.5 18.2 2.3 18.2 2.1C18.5 2.1 18.8 2.2 19.1 2.2C19.5 2.2 20 2.2 20.5 2.3C20.6 2.3 20.7 2.3 20.8 2.3L21.8 3.3C21.5 3.4 21.3 3.4 21.1 3.4C20.8 3.5 20.1 3.8 20 4.1C20 4.2 20 4.1 19.9 4C19.7 3.7 19.6 3.4 19.2 3.4H18ZM20.2 1.7C19.6 1.7 18.8 1.6 18.4 1.6C18.4 1.6 18.4 1.6 18.4 1.6C18.4 1.5 18.4 1.4 18.5 1.3C18.5 1.1 18.7 1 19 1C19.3 1 19.6 1.2 19.8 1.3L20.2 1.7ZM8.1 3L8.3 3.4H7.2C7.1 3.4 6.7 3.5 6.7 3.9V4.7H6.2C6.1 4.5 6 3.9 6 3.4C6 3.1 6.1 2.7 6.1 2.7C6.2 2.5 6.6 2.2 7.1 2.2C7.5 2.2 7.8 2.4 7.9 2.5L8.1 3ZM11.2 6.4C11.2 6.1 11.5 5.9 11.7 5.9H23.2C23.5 5.9 23.7 6.1 23.7 6.4V9.1C23.7 9.4 23.5 9.6 23.2 9.6H11.7C11.5 9.6 11.2 9.4 11.2 9.1V6.4ZM12.2 15.9C11.9 15.9 11.7 16.2 11.7 16.4V25.6C11.7 25.9 11.9 26.1 12.2 26.1H20.3C20.5 26.1 20.8 25.9 20.8 25.6V16.4C20.8 16.2 20.5 15.9 20.3 15.9H12.2ZM13.1 17.1H14.5V18.4H13.1V17.1ZM16.9 17.1H15.5V18.4H16.9V17.1ZM18.1 17.1H19.5V18.4H18.1V17.1ZM14.5 19.4H13.1V20.7H14.5V19.4ZM15.5 19.4H16.9V20.7H15.5V19.4ZM19.5 19.4H18.1V20.7H19.5V19.4ZM13.1 21.5H14.5V22.8H13.1V21.5ZM16.9 21.5H15.5V22.8H16.9V21.5ZM18.1 21.5H19.5V22.8H18.1V21.5ZM14.5 23.8H13.1V25.1H14.5V23.8ZM15.5 23.8H16.9V25.1H15.5V23.8ZM19.5 23.8H18.1V25.1H19.5V23.8Z" fill="white"/>
</svg>
