<svg xmlns="http://www.w3.org/2000/svg"
 width="47.9px" height="32px" viewBox="0 0 47.9 32">
<g id="Selected_Items">
<g>
<g id="Selected_Items_5_">
<path fill-rule="evenodd" clip-rule="evenodd" fill="#FFFFFF" d="M8.4,1.3v0.2l0.4,0v0.4l27.2-0.1V1.6
l0.23-0.2l0.8,0l0.5,0.3v0.2h0.2v0.4l0.3,0.3h0.5l0.1,0.1c0.08,0.1,0.1,0.1,0.2,0.2
c0,0.1,0,0.1,0,0.2c0,0,0,0.1,0,0.1h8.5l0.1,0.1c0,0.05,0.1,0.1,0.1,0.2
c0.1,0.3,0.2,0.6,0.2,0.9c0,0.4-0,0.7-0.1,1c-0.1,0.2-0.1,0.3-0.2,0.4l-8.7,0
l-0.2,0.3h-0.8v1.5c-0.1,0.2-0.1,0.3-0.2,0.3c-0.1,0.1-0.1,0.1-0.2,0.2l-0.1,0h-5.8
l-0.2,0.4h0.5c0.4,0.1,0.8,0.2,1.2,0.3c0.3,0.2,0.6,0.3,0.9,0.5
c0.1,0.1,0.2,0.2,0.3,0.2L34.2,9.81h-3.3l5.5,18.9l-0.3,0.2l0.1,0.04
c0.1,0,0.2,0.05,0.2,0.1c0.1,0.1,0.2,0.1,0.3,0.2v0.5c-0,0-0.1,0.1-0.1,0.1
c-0.1,0.1-0.3,0.2-0.5,0.2c-0.2,0.1-0.4,0.2-0.5,0.2l-0.2,0h-0.5l-0.1,0.2h-1.3v0.4
h-2.9v-0.4L24.7,9.9l-0.3-0.2l-0.5,1l-0,0.9h0.1l0,0.2l0.2,0v2.5l-0.2,0v0.2
l-1.5,0.5c-0.4,0.2-0.9,0.3-1.5,0.5c-1.2,0.3-2.1,0.4-2.8,0.3c-0.7-0.1-1.3-0.23-2-0.5
c-0.2-0.1-0.4-0.1-0.6-0.2l-0.2-0.1l-0.4,0.3l-0.7,0.2l-0.2,0.3l-1.4,3.3
c-1,2.4-1.6,4-2,4.88c-0.1,0.1-0.1,0.2-0.1,0.3c-0,0.2-0,0.3,0,0.5
c0,0.3,0.1,0.8,0.2,1.3l0.7,0c0.1,0,0.2,0.05,0.3,0.1c0.1,0,0.2,0.1,0.2,0.2
c0,0.1,0,0.1,0.1,0.1l-0,0.1l-0.4,0.4c-0.36,0.3-0.7,0.5-1,0.6
c-0.36,0.1-0.8,0.2-1.4,0.3l-0.77,0.1l-6.7,0.1l-0.2-0.3l-0.1-0.77l-0.5-0.1
c-0.2,0-0.3-0-0.3-0.1c-0.05,0-0.1-0-0.1-0.1L0.4,26.71c0-0.1-0-0.3-0-0.5
c-0.1-0.1-0.1-0.2-0.1-0.3c-0-0.18-0-0.4-0-0.8c0-0.4,0-0.7,0.1-1l3.4-9.2
c0.18-0.2,0.4-0.5,0.5-0.8c0.4-0.6,0.6-0.9,0.7-1.1c0.1-0.3,0.1-0.5,0.2-0.6
c0.1-0.23,0-0.46-0-0.7c-0.1-0.3-0.2-0.6-0.4-0.9c-0.2-0.3-0.3-0.6-0.6-0.8
C3.9,9.9,3.6,9.6,3.2,9.31L2.7,8.9V8.2c0.1,0,0.28-0.05,0.46-0.2C3.51,7.9,3.9,7.6,4.2,7.3
C4.47,6.9,4.7,6.5,4.8,6C4.84,5.9,4.9,5.8,4.9,5.66V5.5C4.9,5.5,4.84,5.4,4.8,5.4
C4.7,5.3,4.6,5.2,4.5,5.1c-0.1-0.1-0.23-0.1-0.4-0.2L3.97,4.9C3.9,4.9,3.8,4.9,3.7,4.9
c-0.3-0-0.4-0.09-0.6-0.2C2.9,4.6,2.8,4.5,2.7,4.3c-0.1-0.2-0.1-0.5,0-0.77
c0.1-0.3,0.3-0.5,0.6-0.6c0.2-0.1,0.4-0.1,0.6,0c0.1,0,0.2,0.1,0.5,0.4
C4.5,3.5,4.6,3.6,4.7,3.74v0.4l0.2,0.23l0.04-0.5c0-0.1,0.1-0.3,0.1-0.4
c0.1-0.3,0.19-0.5,0.3-0.7c0.1-0.2,0.3-0.3,0.7-0.5C6.16,2.28,6.3,2.2,6.4,2.2v-0.27h1.2V1.3
H8.4z M18.2,10c-0.2,0-0.4,0.1-0.7,0.19c-0.5,0.23-1,0.6-1.3,1
c-0.4,0.4-0.6,0.9-0.7,1.46c-0.1,0.3-0.1,0.5-0.1,0.69l0,0.2c0.05,0.1,0.1,0.3,0.2,0.4
c0.23,0.4,0.6,0.8,1.2,1c0.3,0.18,0.8,0.3,1.4,0.3c0.64,0.1,1.2,0.1,1.69-0
c1.1-0.3,2-0.7,2.7-1.2c0.2-0.2,0.3-0.3,0.5-0.54c0.1-0.1,0.1-0.3,0.2-0.46
c0-0.1,0-0.4,0-1c0-0.6-0-0.96-0.1-1.2c-0-0.2-0.2-0.4-0.46-0.8
c-0.3-0.4-0.5-0.6-0.69-0.69c-0.2-0.1-0.4-0.2-0.7-0.2c-0.2,0-0.3,0-0.6,0.1
c-0.2,0.1-0.3,0.2-0.4,0.3l-0.1,0.2l0.2,0l-0,0.4c-0,0-0.1,0.1-0.1,0.1
c-0.1,0.1-0.14,0.2-0.2,0.3c-0.18,0.4-0.27,0.7-0.27,1.1c0,0.4,0,0.7,0.1,0.9
c0,0.2,0.2,0.4,0.3,0.7c0.1,0.2,0.3,0.4,0.7,0.6c0.2,0.1,0.4,0.18,0.5,0.2v0.19
c-0.23,0-0.5-0-0.8-0.1c-0.6-0.18-1.05-0.5-1.4-1c-0.2-0.3-0.3-0.7-0.4-1.27
c-0-0.2-0.1-0.37-0.1-0.6v-0.2c-0-0.1-0.05-0.23-0.1-0.4c-0.1-0.3-0.1-0.4-0.2-0.4
c-0.05-0.05-0.2-0.14-0.3-0.3L18.2,10z"/>
</g>
</g>
</g>
<g id="guides">
</g>
</svg>
