<svg xmlns="http://www.w3.org/2000/svg" width="50.75px"
 height="32px" viewBox="0 0 50.75 32">
<g id="Selected_Items">
<g>
<g id="Selected_Items_6_">
<path fill-rule="evenodd" clip-rule="evenodd" fill="#FFFFFF" d="M50.3,3.3c0.1,0,0.14,0,0.3,0l-0,1
l0.2,1.4c-0.1,0.3-0.1,0.6-0.3,0.9c-0.1,0.3-0.1,0.5-0.3,0.8c-0.1,0.4-0.2,0.7-0.3,0.9
c-0.17,0.7-0.3,1.24-0.5,1.6c-0.1,0.4-0.24,0.6-0.3,0.8c-0.1,0.14-0.2,0.2-0.2,0.3
c-0,0.1-0.07,0.1-0.1,0.1H29.3c-0,0-0.2,0-0.6,0.1c-0.4,0.2-0.8,0.5-1.3,0.9
c-0.4,0.4-0.8,1-1.2,1.9c-0.4,0.79-0.6,1.9-0.6,3.3v0.5H25.49c-0,0-0.3,0.1-0.8,0.2
c-0.5,0.1-1.1,0.2-1.86,0.3c-0.7,0.1-1.48,0.1-2.3,0.1c-0.8-0-1.6-0.2-2.2-0.4
c-0.2,0.1-0.5,0.2-0.8,0.6c-0.3,0.4-0.5,0.76-0.5,1.2c-0.03,0.3-0.1,0.8-0.3,1.6
c-0.14,0.8-0.3,1.7-0.5,2.6c-0.2,0.9-0.3,1.7-0.4,2.5c-0.2,0.7-0.3,1.2-0.3,1.3l0.7,1.9
h-0.1c-1.3,0.2-2.7,0.3-4.06,0.5c-1.2,0.1-2.5,0.2-3.8,0.2c-1.4,0-2.7-0-4-0.2
c-0.1,0-0.2-0-0.3-0c-0.2-0.1-0.4-0.2-0.5-0.4c-0.2-0.3-0.3-0.8-0.3-1.5
c0-0.5,0-1,0.1-1.7c0.1-0.7,0.3-1.5,0.6-2.4c0.3-0.9,0.62-2,1.1-3.3
c0.5-1.24,1.1-2.7,1.8-4.3v-0.2c0-0.1,0-0.2,0-0.3c0-0.17,0-0.4,0-0.6
c0-0.6-0.1-1.1-0.4-1.7c-0.2-0.6-0.8-0.93-1.7-1.1c-0.1,0-0.3-0-0.7-0
c-0.5,0-0.9-0-1.5-0.1c-0.5,0-1-0-1.5-0c-0.45,0-0.7,0-0.72,0l-0.1-0.1v-0.1
c0-0.1,0-0.2,0.1-0.3c0.1-0.31,0.4-0.62,0.89-0.9c0.5-0.31,1.4-0.62,2.62-0.9
c0-0,0.1-0.2,0.3-0.5c0.2-0.31,0.3-0.7,0.3-1.1c0-0.2-0-0.3-0-0.4
C4.3,7.8,4.2,7.6,4.1,7.4C4,7.3,3.9,7.19,3.8,7C3.7,6.8,3.4,6.4,3.2,5.8v-0.8l0.8-0.2
C4.1,4.8,4.1,4.9,4.18,4.9c0.1,0.1,0.2,0.17,0.3,0.17h1.4c0-0.1,0.1-0.17,0.2-0.3
c0-0.1,0.1-0.2,0.2-0.3L7.48,3.3c0.1-0,0.1-0.1,0.3-0.1c0.1-0.1,0.2-0.1,0.3-0.17V2.4
c0-0.1,0-0.3,0.04-0.5h1.6l1.1,1.1l1.9-0l0.6-0.3l7.7-0c0.1,0.1,0.2,0.2,0.2,0.3
c0.14,0.1,0.24,0.2,0.3,0.2l9.9,0.17l0.1,0.1c0,0.1,0.1,0.1,0.2,0.1h0.5
c0.03-0.1,0-0.1,0-0.1c0-0.1,0-0.1,0-0.1c0.1-0.1,0.1-0.11,0.2-0.2l11.2,0.1
c0,0.1,0,0.2,0,0.2c0,0.1,0,0.2,0,0.2c0,0.1,0,0.1,0,0.1h0.6
c0-0,0-0.1,0.1-0.3c0-0.1,0.1-0.1,0.2-0.17h2.2c0.1-0,0.2-0.1,0.4-0.2
c0.2-0.1,0.4-0.3,0.6-0.4c0.2-0.1,0.4-0.24,0.6-0.3c0.2-0.1,0.4-0.1,0.5-0.1
c0.2,0,0.3,0.1,0.3,0.3c0.1,0.3,0.1,0.4,0.1,0.5c0.1,0.1,0.3,0.1,0.5,0.2
c0.1,0,0.2,0.1,0.3,0.1c0,0,0,0,0.1,0H50.3z M20,11.7c-0.3,0-0.5,0.1-0.7,0.3
c-0.2,0.2-0.3,0.4-0.3,0.7v3.1c0,0.3,0.1,0.5,0.3,0.7c0.2,0.2,0.4,0.3,0.7,0.3h3.3
c0.3,0,0.5-0.1,0.7-0.3c0.2-0.2,0.3-0.5,0.3-0.7v-3.1c0-0.28-0.1-0.5-0.3-0.7
c-0.2-0.2-0.4-0.3-0.7-0.3H20z"/>
</g>
</g>
</g>
<g id="guides">
</g>
</svg>
