<svg width="36" height="32" viewBox="0 0 36 32" fill="none" xmlns="http://www.w3.org/2000/svg">
<path fill-rule="evenodd" clip-rule="evenodd" d="M35.9 12.7V13.8C35.9 13.9 35.8 13.9 35.8 14C35.7 14.1 35.6 14.3 35.4 14.4C35.2 14.5 35.1 14.6 34.9 14.7C34.6 14.8 34.4 14.8 34.2 14.8C33.9 14.7 33.7 14.6 33.4 14.4C31.7 13.3 30.2 12.5 28.8 11.9C27.4 11.4 26.1 11.1 24.9 11C23.8 10.9 22.8 11 21.9 11.1C21 11.2 20.2 11.3 19.5 11.4C19 11.5 18.5 11.6 18 11.6C17.5 11.6 17 11.6 16.5 11.6H16.3C16 11.5 15.7 11.4 15.5 11.3C15.2 11.2 15 11.1 14.8 11C14.5 11 14.3 10.9 14.2 10.8C14 11 13.9 11.2 13.8 11.4C13.7 11.6 13.6 11.7 13.4 11.8C13.5 12 13.7 12.3 14 12.9C14.4 13.3 14.7 13.8 15 14.2C15 14.2 15 14.3 15 14.3C15 14.4 15 14.4 15.1 14.4L16.3 15.4C16.6 15.4 16.6 15.5 16.3 15.8C16.2 15.9 16.2 15.9 16.1 15.9C16.1 15.9 16 15.9 15.9 15.8L15.3 15.4C15.6 16.1 15.7 16.8 15.8 17.5C15.9 18.2 16 19 16.1 19.9C16.5 21.8 17.2 23.5 18.2 25.1C19.2 26.6 20.6 28 22.3 29.1C22.6 29.3 22.8 29.5 22.8 29.6C22.9 29.8 22.9 30 22.9 30.1V30.3C22.9 30.5 22.8 30.7 22.8 30.9C22.7 31 22.6 31.2 22.5 31.2C22.5 31.4 22.4 31.5 22.3 31.7C22.2 31.8 22 31.9 21.7 31.9C21.5 32.1 21.1 32 20.5 31.6L20.3 31.5C18.2 30.2 16.6 28.7 15.3 27C14.1 25.2 13.3 23.3 12.7 21.2C12.6 20.4 12.6 19.6 12.5 19C12.4 18.3 12.4 17.7 12.4 17.2C12.2 16.7 12.1 16.3 12.1 15.9C12.1 15.5 12.1 15.2 12 15L11.6 14.5L10.8 13.2C10.5 13 10.3 12.7 10.2 12.5C10 12.3 9.9 12.1 9.8 11.9C9.6 11.8 9.5 11.7 9.5 11.6C9.4 11.6 9.2 11.5 8.9 11.3C8.6 11.2 8.2 11.1 7.9 10.9C7.5 10.8 7 10.6 6.5 10.4L0.2 5.2L0 5C0 4.9 0.1 4.8 0.2 4.8V4.6C0.2 4.5 0.3 4.4 0.6 4.4L7.4 7C7.5 7.1 7.5 7.2 7.5 7.3C7.5 7.4 7.6 7.5 7.6 7.6C7.6 8 7.6 8.2 7.7 8.2C8 8.2 8.2 8.2 8.3 8.1C8.4 8.1 8.5 8 8.6 8V7.8L9.3 6.8C9.4 6.6 9.4 6.5 9.3 6.4C9.2 6.3 9.1 6.3 9 6.3L8.8 6.4C8.6 6.4 8.5 6.4 8.4 6.4C8.2 6.4 8.1 6.3 8.1 6.2L3.8 0.5V0H4.4L10.1 4H10.4C10.8 4.6 11.2 5.1 11.5 5.5C11.7 5.9 12 6.3 12.2 6.6C12.5 6.9 12.7 7.1 12.7 7.2C12.9 7.2 13.1 7.3 13.5 7.4C13.9 7.5 14.3 7.6 14.7 7.7C15.1 7.9 15.5 8 15.9 8.1C16.3 8.1 16.5 8.2 16.5 8.2C16.8 8.2 17.6 8.1 18.9 8C20.1 7.8 21.8 7.8 23.9 7.8C25.1 7.8 26.2 7.8 26.9 7.9C27.8 8 28.5 8.2 29.3 8.5C30.1 8.9 31 9.3 31.9 9.9C32.9 10.5 34.1 11.4 35.6 12.4C35.7 12.5 35.8 12.6 35.9 12.7ZM16.3 13L17.9 13.6C18 13.6 18.1 13.7 18.1 14C18 14 17.9 14 17.9 14.1C17.9 14.1 17.8 14.1 17.7 14L16.1 13.6C16 13.6 15.9 13.6 15.9 13.5C15.9 13.4 15.9 13.3 15.9 13.2C15.9 13.1 16 13 16.1 13C16.1 13 16.2 13 16.3 13ZM16.5 12.4C16.5 12.33 16.6 12.3 16.6 12.2C16.6 12.2 16.7 12.2 16.7 12.2L18.3 12.4C18.4 12.4 18.5 12.5 18.6 12.5C18.7 12.6 18.7 12.7 18.7 12.8C18.7 12.9 18.7 12.9 18.6 13C18.5 13 18.4 13 18.3 13L16.7 12.8C16.6 12.8 16.5 12.7 16.5 12.4ZM17.3 15C17.2 15 17.1 15 17 15C16.9 15.1 16.9 15.1 16.9 15L15.5 14.2C15.4 14.2 15.3 14 15.3 13.8C15.4 13.8 15.5 13.8 15.5 13.7C15.6 13.7 15.6 13.7 15.8 13.8L17.1 14.5C17.2 14.5 17.3 14.6 17.3 14.7C17.3 14.8 17.3 14.9 17.3 15Z" fill="white"/>
</svg>
