<svg xmlns="http://www.w3.org/2000/svg" width="68.25px"
 height="32px" viewBox="0 0 68.25 32">
<g id="Selected_Items">
<g>
<g id="Selected_Items_7_">
<path fill-rule="evenodd" clip-rule="evenodd" fill="#FFFFFF" d="M67.9,6.4c0.1,0.28,0.2,0.6,0.2,0.9
c0,0.2,0,0.4,0,0.5c-0,0.1-0,0.3-0,0.4c0,0-0,0-0,0.1
c-0.1,0-0.1,0-0.1,0.1c0,0-0,0.2-0.04,0.5c0,0.3-0,0.6-0,1
c-0,0.4-0,0.7-0,1c-0,0.3-0,0.5-0,0.6v0.3h-2.4c0,0-0,0.1-0.1,0.3
c-0,0-0.1,0-0.1,0c-0.1,0-0.2,0-0.5,0.04c-0.2,0-0.6,0-1.1,0s-1.2,0-2,0
c-0.5,0-0.89-0-1.3-0c-0.4-0-0.7-0.04-1.1-0.04H58.22c-0.2,0-0.4,0-0.6,0.1
c-0.4,0.05-0.71,0.2-1.1,0.5c-0.4,0.3-0.7,0.61-1,0.9c-0.3,0.3-0.4,0.6-0.42,0.8
c-0.1,0.3-0.1,0.5-0.1,0.8c0,0.2,0,0.4,0,0.5c0.2,0.28,0.2,0.47,0.1,0.6
c-0.1,0.1-0.2,0.2-0.3,0.3v0.1c-0.1,0.1-0.3,0.2-0.6,0.2c-0.28,0.1-0.61,0.1-0.99,0.3
c-0.4,0.1-0.8,0.3-1.4,0.38c-0.33,0.1-0.8,0.1-1.4,0.1c-0.6,0-1.4-0.1-2.4-0.3
c-0.5-0.1-0.9-0.1-1.2,0c-0.3,0.1-0.5,0.2-0.7,0.3c-0.2,0.1-0.3,0.3-0.3,0.4l-1.5,5.26
c0,0-0,0-0,0.1v0.15c0,0.2,0,0.37,0,0.6c0.1,0.3,0.1,0.7,0.19,1.3v0.6
c0,0.6-0.1,1.1-0.4,1.5c-0.1,0.1-0.3,0.2-0.4,0.2c-0.1,0-0.2,0-0.2,0h-5.3
l-0-0.1c-0,0-0.1-0-0.2-0c-0.1,0-0.1-0-0.2-0c-0.1,0-0.2-0-0.3-0.1
c-0.3-0.2-0.5-0.6-0.5-1.1c0-0.1,0-0.19,0.1-0.3c0-0.1,0-0.2,0-0.23
c-0.8-0-1.3-0.1-1.5-0.19c-0.3-0.1-0.42-0.2-0.5-0.3v-0.2c-0.1-0-0.1-0.1-0.1-0.2
c0-0.1,0-0.1,0-0.2c-0-0.1-0-0.1-0-0.19c-0.1-0.1-0.1-0.3-0.1-0.5v-0.4
c0-0.5,0.1-1,0.2-1.6c0.15-0.5,0.2-0.8,0.2-0.8h0v-0c0.1-0.1,0.2-0.5,0.5-1.18
c0.3-0.7,0.61-1.4,1-2.3c0.4-0.8,0.7-1.6,1.03-2.3c0.3-0.7,0.5-1.1,0.57-1.3
c0.1-0.2,0.1-0.38,0.1-0.5c0-0.3-0.1-0.6-0.3-1c-0.2-0.3-0.4-0.5-0.8-0.6
c-0.4-0.1-0.7-0.15-1-0.2c-0.3,0-0.52-0-0.6-0.1c-0.18-0.1-0.3-0.3-0.3-0.6v-0.1
c0-0.2,0.1-0.4,0.2-0.5c0.2-0.1,0.3-0.19,0.5-0.19c0.1-0.1,0.2-0.2,0.2-0.2
c0.1,0,0.1-0,0.19-0c0.2-0.1,0.4-0.3,0.6-0.61l0.2-0.2c0.2-0.2,0.4-0.5,0.5-0.9
c0.1-0.4,0.2-0.66,0.2-0.8c0-0-0-0.23-0.1-0.61c-0.1-0.4-0.1-0.61-0.1-0.8V6.3
c0.1-0.3,0.2-0.4,0.3-0.4c0.1-0.1,0.3-0.2,0.5-0.1c0.1,0.05,0.3,0.1,0.5,0.2
c0.2,0.05,0.3,0.1,0.4,0.1c0.1-0.1,0.2-0.1,0.3-0.1c0.1-0,0.2-0.1,0.3-0.2
c0.2-0,0.3-0.1,0.4-0.1c0.1-0,0.2-0.1,0.3-0.1c0.1-0.1,0.2-0.1,0.3-0.1h0.1V4.8
h0.2c0.6,0,1,0.1,1.1,0.1c0.1,0,0.2,0.1,0.19,0.2c0.1,0.1,0.1,0.2,0.1,0.2
c0,0.1,0,0.2,0,0.38h1.8c0.4,0,0.9-0,1.5-0c0.9,0,1.6,0,2.1,0c0.5,0,0.9,0,1.1,0
c0.2,0,0.4,0,0.5,0h0.1c0.2,0.1,0.3,0.2,0.3,0.3h14.7V6c0-0.1,0-0.1,0.1-0.2
c0.1-0.1,0.1-0.1,0.2-0.1c0.1-0,0.1-0,0.1-0.1c0-0,0.1-0.1,0.2-0.2
c0.2-0.2,0.5-0.2,0.8-0.19c0.3,0,0.5,0.1,0.6,0.1l0.2,0.1l0.1,0.1
c0.2,0.1,0.3,0.2,0.3,0.4C67.77,6.1,67.8,6.3,67.9,6.4z M48.8,12.53
c-0.3,0-0.4,0-0.5,0c-0.05,0-0.1,0-0.1,0h-0.1c-0.2,0.1-0.4,0.19-0.7,0.3
c-0.3,0.2-0.42,0.4-0.5,0.6c-0.1,0.3-0.1,0.5-0.1,0.6c0,0.4,0,0.6,0.2,0.7v0h0.1
c0,0.1,0.2,0.3,0.6,0.6l0.1,0c0.3,0.2,0.7,0.3,1.3,0.5c0.6,0.2,1.2,0.2,2,0.1
c1.8-0.2,2.7-0.7,2.8-1.3c0.1-0.2,0.1-0.3,0.1-0.5c0-0.3-0.1-0.6-0.3-0.9
c-0.2-0.33-0.5-0.61-1-0.8c-0.5,0-1,0-1.5,0c-0.5,0-0.9,0-1.3,0C49.5,12.53,49.2,12.53,48.8,12.53
z M32.6,5.4c0.2,0,0.33,0.1,0.4,0.3c0.05,0.2,0.1,0.4,0.1,0.5c0.2,0.3,0.3,0.6,0.3,0.9
c0,0.2-0,0.3-0.1,0.5c-0,0.1-0.1,0.3-0.1,0.4v0.2c0,0-0,0.19-0,0.5
c-0,0.33-0.05,0.66-0.1,0.99c0,0.4-0,0.7-0.1,0.99c-0,0.3-0,0.5-0,0.6v0.3h-2.3
c-0.1,0-0.1,0.1-0.1,0.2c0,0-0,0.1-0.1,0.2l-0.1,0c-0.1,0-0.23,0-0.5,0
c-0.23,0-0.6,0-1.1,0c-0.5,0-1.1,0-2,0c-0.4,0-0.9-0-1.26-0
c-0.4-0-0.8-0-1.1-0h-1.1c-0.2,0-0.3,0-0.5,0.1c-0.4,0.1-0.8,0.23-1.1,0.5
c-0.4,0.3-0.7,0.61-1,0.9c-0.3,0.33-0.4,0.6-0.42,0.8c-0.05,0.3-0.1,0.5-0.1,0.8
c0,0.2,0,0.4,0.1,0.5c0.1,0.3,0.1,0.5,0.04,0.6c-0.1,0.1-0.2,0.2-0.3,0.3v0.1
c-0.1,0.1-0.3,0.2-0.6,0.23c-0.3,0.1-0.6,0.2-1,0.3c-0.4,0.1-0.7,0.2-1,0.3l-0.42,0.1
c-0.3,0.1-0.8,0.1-1.37,0.1c-0.6-0.1-1.4-0.2-2.5-0.3c-0.5-0.1-0.9-0.1-1.2,0
c-0.3,0.1-0.5,0.2-0.6,0.3c-0.1,0.1-0.2,0.3-0.3,0.4L9.6,22.97v0.2c0,0.2,0,0.4,0,0.6
c0,0.3,0,0.7,0.1,1.3c0.1,0.2,0.1,0.4,0.1,0.6c0,0.7-0.1,1.13-0.4,1.4
c-0.2,0.2-0.3,0.2-0.4,0.2c-0.1,0-0.1,0-0.19,0H3.4c0-0-0.2-0.1-0.6-0.3
c-0.2-0.1-0.3-0.2-0.3-0.4c-0.1-0.2-0.1-0.5-0.1-0.7v-0.5c-0.66-0-1.1-0.1-1.4-0.2
c-0-0-0.1-0-0.1-0c-0.3-0.1-0.4-0.2-0.5-0.3c-0-0-0-0.1-0-0.2
c-0.1-0-0.1-0.1-0.1-0.2v-0.3c-0-0.2-0-0.3-0-0.5c0-0.1-0-0.14-0-0.19
c-0-0.1-0-0.2-0-0.23c0-0.5,0.1-1,0.2-1.5c0.1-0.5,0.2-0.8,0.2-0.9v-0.1
c0.1-0,0.2-0.3,0.4-0.8c0-0.1,0.1-0.2,0.1-0.3c0.3-0.7,0.6-1.5,1-2.3
c0.4-0.84,0.7-1.6,1-2.4c0.3-0.7,0.5-1.1,0.6-1.2c0.05-0.3,0.1-0.5,0.1-0.5
c0-0.3-0.1-0.7-0.3-1c-0.2-0.3-0.4-0.5-0.8-0.6c-0.38-0.1-0.7-0.1-1.1-0.2
c-0.3,0-0.5-0-0.6-0.1l-0-0c-0.2-0.2-0.2-0.4-0.2-0.5v-0c0-0.3,0.1-0.4,0.2-0.5
c0-0,0.1-0.1,0.1-0.1c0.2-0.1,0.3-0.19,0.5-0.19c0.1-0,0.1-0.1,0.2-0.1
c0.1,0,0.1-0,0.19-0c0.2-0.1,0.4-0.3,0.6-0.6l0.1-0.2c0.2-0.2,0.4-0.5,0.5-0.9
c0.1-0.4,0.2-0.6,0.2-0.8c0-0.1-0-0.3-0.1-0.61C3.3,6.7,3.3,6.5,3.3,6.3V6.2
c0.1-0.2,0.14-0.4,0.3-0.4C3.7,5.6,3.9,5.6,4.1,5.71C4.18,5.7,4.4,5.8,4.6,5.9
c0.2,0.05,0.38,0.1,0.5,0.1L5.6,5.71c0.1-0,0.3-0.1,0.4-0.2C6.1,5.5,6.2,5.47,6.3,5.4
c0.1-0,0.2-0.04,0.3-0.04h0V4.6h0.3c0.6,0,0.94,0.1,1.1,0.1c0.1,0,0.19,0.1,0.19,0.2
c0.1,0.23,0.1,0.5,0.1,0.7c0.1,0,0.3,0,0.7,0c0.4,0,0.7-0,1.1-0c0.4,0,0.94-0,1.5-0.1
c0.9,0,1.6,0,2.1,0c0.5,0,0.9,0.04,1.1,0.04c0.23,0,0.37,0,0.4,0c0.1,0,0.1,0,0.2,0
c0.1,0.1,0.15,0.19,0.2,0.3H30.57V5.9c0-0.1,0.1-0.2,0.15-0.3c0-0.1,0.1-0.1,0.1-0.1
c0.1-0,0.1-0.09,0.2-0.2c0.18-0.2,0.4-0.3,0.8-0.2c0.4,0.05,0.57,0.1,0.6,0.2l0.1,0.04
L32.6,5.4z M16.5,12.4c-0.5,0-0.9,0-1.3,0c-0.4,0-0.8,0-1.1,0c-0.3,0-0.4,0-0.5,0l-0.19,0.1
c-0.2,0.1-0.4,0.2-0.7,0.3c-0.3,0.2-0.4,0.4-0.5,0.6c-0.1,0.2-0.1,0.4-0.1,0.6
c0,0.4,0.1,0.6,0.2,0.7l0.1,0.1c0.1,0.1,0.1,0.14,0.2,0.2c0.1,0.1,0.2,0.2,0.4,0.38
l0.2,0.04c0.2,0.2,0.6,0.3,1.3,0.5c0.61,0.2,1.3,0.18,1.9,0.1c1.8-0.3,2.7-0.71,2.9-1.3
c0.1-0.1,0.1-0.3,0.1-0.6c0-0.3-0.1-0.6-0.3-0.9c-0.2-0.3-0.5-0.6-0.99-0.9
C17.5,12.4,16.98,12.4,16.5,12.4z"/>
</g>
</g>
</g>
<g id="guides">
</g>
</svg>
