<svg xmlns="http://www.w3.org/2000/svg"
 width="77.8px" height="32px" viewBox="0 0 77.8 32">
<g id="Selected_Items">
<g>
<g id="Selected_Items_8_">
<path fill-rule="evenodd" clip-rule="evenodd" fill="#FFFFFF" d="M77.2,11.7c0.1,0.4-0,0.8-0.2,1.4V13.2h-0.12
c-0.1,0-0.3,0-0.8,0.1c-0.5,0-1.02,0.1-1.63,0.1c-0.6,0-1.1,0.04-1.63,0.04
c-0.53,0-0.9-0.1-1-0.2c-0.08,0-0.1-0-0.16-0.1c-0.1,0-0.1-0-0.1-0.04h-6.48
c-0.2,0.1-0.4,0.1-0.6,0.2c-0.3,0-0.5,0.1-0.6,0.2c-0.1,0.1-0.3,0.2-0.6,0.2
c-0.4,0-0.6,0.04-0.7,0.04c-0.1,0-0.2-0.1-0.4-0.3h-0.2c-0,0-0.04,0.1-0.04,0.2
c-0.1,0.1-0.08,0.2-0.08,0.4v0c-0,0.2-0.1,0.4-0.12,0.6c-0.1,0.3-0.2,0.5-0.4,0.8
c-0.1,0.24-0.3,0.5-0.5,0.7c-0.3,0.2-0.5,0.3-0.8,0.3H44.2c-0.2,0-0.4,0.1-0.6,0.2v1.1
c0,0.3-0,0.7-0.04,1.1c-0,0.3-0.2,0.7-0.4,1c-0.3,0.2-0.7,0.3-1.2,0.3
C41.5,20,41.1,20,40.6,20c-0.53-0.1-1-0.1-1.51-0.16c-0.5-0.1-0.9-0.2-1.3-0.2
c-0.3-0.1-0.57-0.1-0.7-0.2c-0.2,0.1-0.4,0.3-0.7,0.5c-0.3,0.2-0.5,0.7-0.5,1.2v0.8
l-0.2,0.08c-0.1,0.1-0.2,0.3-0.4,0.5c-0.2,0.3-0.3,0.49-0.3,0.7c0,0.2,0,0.3,0,0.4
c0,0.08,0,0.16,0.04,0.2l0.2,0.3h-0.2c-0.1,0-0.2,0.2-0.4,0.6c-0.3,0.3-0.4,0.8-0.4,1.4
v0.4l0.2,0.2h-0.4c-0.2-0.1-0.45-0.1-0.9-0.2c-0.5-0-1-0.1-1.4-0.3
c-0.53-0.1-1-0.3-1.4-0.5c-0.4-0.2-0.6-0.4-0.7-0.7l-0.16-0.1c0.1-1.4,0.3-2.8,0.6-4.2
c0.3-1.4,1-2.5,2.1-3.5c0-0.1,0.1-0.2,0.1-0.4c0-0.2,0-0.3,0-0.4
c0-0.2-0.2-0.5-0.6-0.7c-0.2-0.1-0.6-0.2-1.2-0.2c-0.6,0-1.3,0.1-2,0.4
c-1.7,0.6-2.9,1.9-3.5,3.8l-0.08,0.04c-0.5,0.4-0.9,0.6-1.2,0.6v0.08c0,0.3,0,0.7,0.04,1.3
c0.1,0.6,0.1,1.2,0.1,1.9c0,0.69,0,1.4,0.1,2.1c0.1,0.8,0.1,1.5,0.16,2.1v0.2
c-0.1,0-0.2,0.1-0.4,0.3c-0.3,0.2-0.7,0.4-1.2,0.6c-0.5,0.2-1.2,0.4-1.9,0.7
c-0.7,0.16-1.6,0.2-2.6,0.16h-0.12c-0.2-2.2-0.3-4.2-0.3-5.9c-0.1-1.51-0.2-2.9-0.2-4.2
s-0.04-2-0.04-2.1c-1,0.16-1.96,0.3-2.8,0.5c-0.8,0.2-1.4,0.3-1.6,0.4
c0,0-0,0.1-0.04,0.2c-0.1,0.1-0.08,0.2-0.08,0.3c0,0.5-0.12,0.8-0.4,0.8
c-0.1,0-0.4,0.1-0.8,0.2c-0.5,0.1-0.8,0.1-1,0.3h-0.1c-0.1-0.1-0.2-0.3-0.2-0.4
c-0.1-0.1-0.2-0.2-0.3-0.3c-0-0.1-0.1-0.25-0.08-0.4c-0.2,0.2-0.6,0.37-1.1,0.6
C8.2,20,7.6,20.2,6.9,20.4c-0.7,0.2-1.5,0.3-2.3,0.4c-0.8,0.2-1.6,0.2-2.5,0.12l-0.1-0.12
l-0.2-0.08c-0.61-1.9-1-3.6-1.3-4.93c-0.2-1.4-0.3-2.5-0.3-3.5c0-1.7,0.2-2.9,0.6-3.5
c0.4-0.6,0.7-0.9,0.9-1c0,0,0.2-0.2,0.4-0.6C2.5,6.7,2.8,6.35,3,6V5.8h7.5v0.2
c0.2,0.3,0.4,0.65,0.8,1.1c0.3,0.4,0.6,0.61,0.7,0.7c0.1,0,0.5-0.16,1-0.5
c0.5-0.3,1.02-0.7,1.47-1.2h0.16c1.2,0.1,2.49,0.2,3.8,0.2c1.3,0.1,2.5,0.1,3.5,0.12
c1.1,0,2,0,2.7,0c0.8-0,1.3-0.08,1.4-0.2c0.1-0.1,0.1-0.4,0.2-0.7
c0.1-0.3,0.2-0.7,0.3-1c0.1-0.3,0.1-0.6,0.2-0.9c0.08-0.3,0.1-0.5,0.2-0.6v-0.12
c0-0.08,0.1-0.1,0.2-0.2c0.1-0.1,0.3-0.2,0.6-0.3c0.2-0.08,0.6-0.16,1.2-0.2
c0.53-0.1,1.2-0.1,2.1-0.2c3.8-0.2,10,0,18.6,0.6c2.5,0.1,4.6,0.1,6.1,0.2
c1.51,0,2.7,0,3.5,0c0.8,0,1.3,0.1,1.55,0.1c0.2,0,0.4,0,0.4,0c0,0,0.2,0,0.4,0
c0.2-0.1,0.41,0.1,0.6,0.4c0.5,0.6,0.8,1.5,0.8,2.9c0,0.5,0,0.9,0,1.4
c-0,0.5-0.1,1.1-0.2,1.7c-0.08,0.16-0.12,0.3-0.12,0.4c-0.1,0.2-0.08,0.4-0.08,0.7
c0.1,0,0.3,0,0.4,0c0.1,0,0.2,0,0.3,0c0.2,0,0.3,0.04,0.4,0.04l1.1,0.2
c0,0,0,0.1,0,0.1c0,0.1,0,0.1,0.04,0.16v0.1h5.6c0.1-0.1,0.2-0.1,0.4-0.1
c0.2-0.1,0.3-0.1,0.4-0.16l0.32-0.1c0.1-0.1,0.4-0.1,1-0.2c0.5,0,1-0,1.5-0.04
c0.6-0,1.1-0,1.63,0c0.5,0,0.8,0.04,0.9,0.04l0.3,0.2v0.16C77,11.1,77.1,11.4,77.2,11.7z
 M57.7,5.5H32.17c-0.9,0-1.3,0.5-1.3,1.4v1.3c0,0.9,0.4,1.4,1.3,1.4h25.6
c0.4,0,0.7-0.1,1-0.4c0.3-0.2,0.4-0.53,0.4-1V6.88c0-0.4-0.1-0.8-0.4-1
C58.5,5.62,58.2,5.5,57.7,5.5z"/>
</g>
</g>
</g>
<g id="guides">
</g>
</svg>
