<svg xmlns="http://www.w3.org/2000/svg" width="39px"
 height="32px" viewBox="0 0 39 32">
<g id="Selected_Items">
<g>
<g id="Selected_Items_9_">
<path fill-rule="evenodd" clip-rule="evenodd" fill="#FFFFFF" d="M38.4,3.6c0.1,0.2,0.16,0.5,0.16,0.8
c0,0.3,0.04,0.6,0.04,1c0,0.6-0,1.2-0.04,1.9c-0.1,0.6-0.08,1-0.08,1.2l-0.08,0.2l-0.24,0.2
c-0,0.08-0,0.2-0,0.5v0.2l-0.1,0.3l-0.32-0.12c-0.1,0-0.2,0-0.4,0c-0.2-0-0.72-0-1.5,0
c-0,0.3-0.1,0.7-0.3,1c-0.1,0.24-0.2,0.4-0.3,0.4l-0,0.2h-9l-0.4,0.2
c-0.2,0.1-0.4,0.2-0.72,0.4c-0.3,0.1-0.6,0.28-0.84,0.44c-0.2,0.16-0.4,0.3-0.5,0.3
c0.1,0.3,0.1,0.64,0.1,1.1c0,0.2,0,0.5,0,0.92c0,0.4-0.04,0.8-0.1,1.2
c-0.1,0.6-0.4,1.1-0.8,1.4c-0.4,0.3-0.9,0.5-1.4,0.6c-0.53,0.1-1.1,0.1-1.8,0.1
c-0.7-0-1.3-0.1-1.9-0.1c-0.5-0-0.9-0.1-1.3-0.1c-0.4-0.1-0.7-0-1,0h-0.1
c-0.9-0.1-1.4-0.1-1.7,0c-0.3,0.1-0.44,0.2-0.5,0.4l-0.2,0.1c-0.2,0.2-0.32,0.7-0.32,1.52v0.3
c0,0.4-0,0.8-0.1,1.1c-0.1,0.3-0.2,0.7-0.4,1l-0,0.2c-0.1,0.2-0.2,0.6-0.32,1.2
c-0.1,0.5-0.3,1.1-0.4,1.7c-0.2,0.7-0.3,1.3-0.4,1.6c-0.1,0.4-0.2,0.6-0.2,0.8l0.2,0.2
c0.1,0.1,0.2,0.2,0.2,0.28c0.1,0.1,0.1,0.2,0.1,0.4l-0.08,0.1c-0,0.2-0.16,0.4-0.4,0.6
c-0.2,0.1-0.4,0.2-0.6,0.32h-0.1c-0.1,0-0.5,0-1.2,0c-0.8,0-1.6,0-2.4,0.12
c-2.6,0.1-4,0.2-4.3,0.2c-0.5,0-1-0.5-1.6-1.6H0.7v-0.64c0-0.9,0.1-1.9,0.4-3.2
c0.2-1.2,0.5-2.5,0.8-3.7c0.37-1.3,0.73-2.4,1.08-3.5c0.4-1.1,0.7-2,1-2.8v-0.2
c0.1-0.24,0.1-0.4,0.1-0.6c0-0.1,0-0.2,0-0.2c-0,0-0.04-0-0.04-0.1
c-0-0-0-0.1-0-0.12H3.8v-0.08c-0-0.2-0.1-0.3-0.3-0.4c-0.08-0.1-0.1-0.1-0.2-0.1
c-0.16-0-0.3-0.1-0.5-0.2c-0.4-0.1-0.9-0.4-1.6-0.9c-0.5-0.3-0.7-0.6-0.88-0.9
C0.1,10.39,0,10,0,9.7c0-0.4,0-0.6,0.04-0.7c0.1-0.1,0.2-0.6,0.4-1.4
C0.6,6.8,0.8,5.9,1,5.05c0.2-0.7,0.5-1.2,0.8-1.5c0.3-0.3,0.6-0.5,0.8-0.6V2.3l0.2-0.1
C3.6,2,4.4,2.1,5.2,2.4C5.9,2.8,6.3,3,6.5,3.1H25.69c0.1,0,0.1,0,0.16,0.08l0.2,0.16H36.12
l0.1-0.1c0.2-0.13,0.3-0.4,0.6-0.9v-0.16h0.12c0,0,0.1-0,0.2-0c0.1,0,0.3,0.01,0.4,0
C37.9,2.3,38.17,2.7,38.4,3.6z M21.7,12.24h-7c-0.4,0-0.6,0.2-0.6,0.6v2.52
c0,0.4,0.2,0.6,0.6,0.6h7c0.3,0,0.5-0.2,0.5-0.6v-2.52C22.3,12.4,22.1,12.24,21.7,12.24z"/>
</g>
</g>
</g>
<g id="guides">
</g>
</svg>
