<svg xmlns="http://www.w3.org/2000/svg" width="93.25px"
 height="32px" viewBox="0 0 93.25 32">
<g id="Selected_Items">
<g>
<g id="Selected_Items_10_">
<path fill-rule="evenodd" clip-rule="evenodd" fill="#FFFFFF" d="M92.7,12.9c0.05,0.4,0.1,0.8,0.15,1.24
c0,0.5-0.1,0.8-0.5,0.9c-0.2,0-0.5,0.1-0.9,0.1c-0.4,0-0.9,0-1.4,0
c-0.5,0-1-0-1.5-0c-0.5-0.05-0.9-0.1-1.2-0.1l-0.3-0.15h-5.3c0,0-0.1,0.1-0.2,0.2
c-0,0.1-0.05,0.1-0.1,0.1L80.8,15.3l-0.4-0.2h-0.8L79.5,15.3c-0.1,0.1-0.1,0.2-0.1,0.3v0.2
l-0.3,0.6h-0.7v1.3l-0.3,0.1c-0.1,0.05-0.2,0.1-0.4,0.1c-0.3,0-0.5-0-0.6-0.1l-1-0.1
h-2.9v0.5h-0.3c-0.7,0-1.1-0-1.2-0.1c-0.1-0.05-0.2-0.1-0.3-0.1c0-0.1,0-0.2,0-0.2
c-0.05,0-0.1-0-0.1-0.1h0.1v-0.2H58.9c-0.35,0.05-0.8,0.1-1.24,0.2c-0.5,0-0.9,0.1-1.3,0.1
c-0.5,0-0.8,0.1-1.13,0.1c-0.25,0.1-0.4,0.1-0.5,0.1c-0.2,0.1-0.4,0.1-0.6,0
c-0.1-0.05-0.1-0.1-0.2-0.15l-0.2-0.1v-0.3h-5c0.1,0.9,0.1,1.8,0.2,2.9
c0.1,1,0.2,2,0.3,2.9c0.1,0.9,0.2,1.7,0.2,2.4c0.1,0.6,0.1,1,0.1,1.2
c-0,0.05-0.1,0.2-0.2,0.3c-0.1,0.1-0.5,0.2-1.2,0.3c-0.8,0.1-1.5,0.3-2.22,0.5
c-0.8,0.1-1.4,0.2-1.9,0.3c-0.5,0.1-0.79,0.1-1,0.2c-0.2,0-0.4,0-0.5,0
c-0.1-0.05-0.1-0.1-0.2-0.1c0-0-0-0.1-0-0.2c0-0.1-0-0.4-0.1-1
c-0.05-0.6-0.1-1.39-0.3-2.4c-0.1-1.2-0.2-2.7-0.4-4.7h-0.6l-0.4,0.64h-0.3l0.3-0.64h-0.8v0.2
c-0.2,0.7-0.4,1.2-0.6,1.7c-0.2,0.5-0.5,0.8-0.79,1c-0.5,0.2-1.1,0.3-1.9,0.4
c-0.9,0-1.5-0.05-1.8-0.2l-0.5-0.3c-0.2-0.1-0.4-0.2-0.6-0.3c-0.2-0.1-0.3-0.2-0.4-0.2
l-0.2,0.2c-0.1,0.1-0.2,0.3-0.3,0.6c-0.1,0.3-0.3,0.6-0.45,0.9c-0.4,0.9-0.7,1.58-0.94,2.1
c-0.3,0.5-0.5,0.9-0.6,1.2c-0.2,0.3-0.3,0.5-0.4,0.5c-0.1,0.1-0.2,0.1-0.3,0.1
c-0.2,0-0.7-0.3-1.5-0.8c-0.8-0.5-1.6-1.1-2.3-1.7l-0.3-0.2l0.1-0.2
c0-0,0.1-0.2,0.3-0.5c0.1-0.25,0.25-0.6,0.5-0.9c0.2-0.3,0.4-0.64,0.5-0.94
c0.2-0.3,0.4-0.5,0.6-0.7l0.15-0.2c0.2-0.2,0.5-0.5,0.7-0.8c0.3-0.3,0.5-0.6,0.6-1
c0.1-0.5,0.05-0.9-0.15-1.2c-0.2-0.3-0.5-0.5-0.7-0.5H22.63c-0,0-0.1,0-0.2,0
c-0.1,0.05-0.2,0.1-0.4,0.1c-0.2,0.05-0.4,0.1-0.6,0.2c-0.15,0.05-0.7,0.2-1.54,0.5
c-0.9,0.3-1.9,0.7-3.1,1.1c-1.1,0.5-2.4,0.9-3.7,1.43c-1.3,0.45-2.5,0.9-3.6,1.3
c-1.1,0.4-2,0.7-2.7,1c-0.7,0.3-1.1,0.5-1.2,0.5c-0.3,0.1-0.6,0.1-0.9,0.2
c-0.4,0.05-0.8,0.1-1.2,0.1c-0.4,0.1-0.8,0.1-1.1,0.1c-0.3,0.05-0.6,0-0.8-0.1
c-0.3-0.1-0.5-0.4-0.6-0.7c-0-0.25-0-0.6-0-0.94c0-0.2,0-0.4,0-0.6
c0-0.2,0.1-0.4,0.2-0.6c0.1-0.25,0.1-0.5,0.1-0.7c0-0.2,0-0.5,0-0.9
c0.1-0.2,0.2-0.4,0.2-0.5c0-0.2,0-0.4,0-0.6c0-0.7-0-1.3-0.1-1.9
c-0.1-0.6-0.15-1-0.15-1.2H0.9c-0.1-0.2-0.2-0.4-0.2-0.6c0-0.2,0-0.4,0-0.5v-0.49
c0.1-0.1,0.2-0.2,0.2-0.2c0-0.05,0.1-0.1,0.3-0.1c0.05-0.05,0.25-0.1,0.6-0.15
c0.4-0,0.7-0.1,1.2-0.1c0.5,0,0.9,0,1.4,0c0.4-0,0.7-0,1-0
c0.1-0.3,0.2-0.5,0.3-0.8c0.1-0.3,0.3-0.4,0.6-0.5c0.2-0.1,0.9-0.1,2.03-0.1
c1.1-0,2.3-0.05,3.6-0.1c1.3-0.1,2.6-0.1,3.76-0.1c1.2-0,1.9-0,2.2-0h0.2
c0.1,0.2,0.2,0.4,0.4,0.49c0.1,0.2,0.2,0.4,0.3,0.5c0.1,0.2,0.2,0.3,0.3,0.3
c0.2,0,0.4-0,0.6-0c0.2,0,0.4-0.1,0.5-0.15c0.3-0.1,0.7-0.4,1.4-0.7
c0.6-0.4,1.1-0.6,1.3-0.79c0.3-0.2,0.6-0.4,0.8-0.5c0.2-0.2,0.5-0.2,0.9-0.2
c0.4,0,0.9,0,1.6,0c0.7,0,1.3-0,1.7-0.1c0-0.05,0.1-0.1,0.1-0.15
c0-0.1,0.1-0.2,0.2-0.2c0.1-0.1,0.1-0.2,0.2-0.3l0.79-0.5l0.6-0.15
c0.1,0.1,0.2,0.2,0.3,0.2c0.3,0.1,0.5,0.1,0.5,0.1l0.6,0.15l0.5,0.6V10.9l-0.2,0.2h0.3V10.45
l-0.3-0.2c-0.1-0.1-0.1-0.2-0.15-0.3L31.1,9.36l-0.2-0.7v-0.15c-0.5,0.1-0.94,0.2-1.5,0.2
c-0.6,0.05-1.1,0.1-1.4,0.2c-0.2,0-0.6-0-1.3-0c-0.7,0-1.4,0-2.1,0
c-0.8,0-1.4-0-2-0c-0.6-0-1-0.1-1.1-0.1c-0.1,0-0.15,0-0.2,0.1
c-0.1,0-0.2,0-0.3,0c-0.2,0-0.3,0-0.4,0l-2.2-0.1V8.5
c0-0-0-0.2-0.1-0.4c-0.05-0.3-0.1-0.6-0.1-1c0-0.3-0-0.7-0.1-1
c-0-0.4,0-0.7,0.1-0.9c0-0.2,0.1-0.3,0.1-0.5c0.05-0.1,0.1-0.2,0.15-0.3
c0-0.1,0-0.2,0-0.2l0.2-0.1h1.8c0.1,0,0.4,0,0.9,0c0.4,0,0.9,0,1.58,0.1
c0.7,0,1.4,0,2.18,0c0.8,0,1.5,0,2.18,0.1c0.7,0,1.3,0,1.8,0
C29.81,4.5,30.2,4.51,30.45,4.51l0.94,0.1c0.3,0.1,0.6,0.1,0.8,0.2c0.2,0,0.4,0,0.6,0
c0.2-0.05,0.6-0.1,1.2-0.1c0.6-0,1.3-0.1,2-0.1c0.7-0,1.3-0,1.8-0
c0.5,0,0.8,0,0.9,0c0.2,0,0.4-0,0.5-0.1c0.1,0,0.2-0,0.3-0l0.15-0.2
c0-0.2,0.2-0.3,0.5-0.4c0.5-0.2,1-0.2,1.5,0h0.15c0.2,0,0.4,0,0.5,0.1
c0.1,0.05,0.2,0.2,0.3,0.3c0.1,0.1,0.25,0.2,0.5,0.2l0.3,0.1c0.5,0,1.14,0,2,0.1
c0.9,0.1,1.7,0,2.3-0.1c0.4-0.1,0.9-0.1,1.7-0.2c0.7-0.1,1.4-0.1,2.1-0.2
c0.8-0,1.5-0,2.1-0c0.7,0,1.1,0,1.4,0.1h0.15c0.3,0.1,0.54,0.2,0.64,0.3
c0.15,0.1,0.25,0.5,0.3,1.1c0.1,0.6,0.05,1.19-0.2,1.7c-0.2,0.6-0.4,0.9-0.6,1.1
c-0.1,0.1-0.5,0.1-1.1,0.1c-0.6,0-1.3,0-2,0c-0.7,0-1.4-0-2.1-0.1
c-0.7-0-1.2-0.1-1.5-0.2c-0.3-0.1-0.6-0.1-0.8-0.1c-0.2,0-0.4,0-0.6,0.1H45.6
c0,0.2-0.2,0.5-0.5,0.9h-0.2c-0.8,0.4-1.4,0.7-1.7,0.9c-0.3,0.1-0.4,0.25-0.4,0.4
c-0.1,0-0.1,0.05-0.2,0.15c0,0.2-0.1,0.3-0.2,0.5h20.94c0.05-0,0.2-0,0.5-0
c0.3-0,0.6-0.1,0.9-0.1c0.3-0.05,0.6-0.1,0.9-0.1c0.3-0.05,0.5-0.1,0.64-0.1
c0.3,0,0.6-0,0.9-0c0.25-0.1,0.5-0.1,0.6-0.1l0.3-0.3c0.1-0.05,0.2-0.1,0.2-0.15h1.4
c0.1,0.1,0.2,0.2,0.2,0.3c0.2,0.25,0.3,0.4,0.4,0.5h7.6c-0.1-0.3-0.2-0.5-0.2-0.8
c-0.1-0.25-0.1-0.5-0.1-0.7c0-0.2,0-0.3,0-0.3l0.1-0.1c0.2-0.25,0.4-0.4,0.6-0.5
c0.2-0.1,0.3-0.2,0.5-0.2l0.8,0.2l0.3,0.9l0.3,1.7v1c0.1,0,0.2,0.1,0.3,0.2
c0,0.1,0,0.2,0,0.3l-0.1,0.15h0.1c0.15,0,0.3-0,0.3-0l0.1-0.1h0.79l0.1,0.1
c0.1,0,0.1,0,0.2,0h10.7L92.7,12.9z M33.8,19.7c-0.1,0.1-0.1,0.2-0.2,0.3l0.5,0.5
c0.2,0.1,0.3,0.2,0.5,0.3c0.1,0.05,0.2,0.1,0.3,0.1c0.3,0.05,0.54,0.1,0.8,0.1
c0.2,0,0.4,0,0.5,0c0.15,0,0.4,0,0.7,0c0.3,0,0.5-0,0.6-0.1c0.2,0,0.3-0.1,0.3-0.2
c0-0.1,0.1-0.2,0.2-0.4c0.2-0.6,0.3-0.9,0.3-0.9v-0.1c0-0.05-0.05-0.1-0.2-0.1
c-0.1,0-0.2,0-0.4,0.1c-0.2,0.1-0.4,0.15-0.6,0.2h-1c-0.2,0-0.5,0-1,0.1
c-0.5,0.1-0.9,0.15-1.1,0.2C34.1,19.6,34,19.6,33.8,19.7z"/>
</g>
</g>
</g>
<g id="guides">
</g>
</svg>
