<svg xmlns="http://www.w3.org/2000/svg" width="90.25px"
 height="32px" viewBox="0 0 90.25 32">
<g id="Selected_Items">
<g>
<g id="Selected_Items_11_">
<path fill-rule="evenodd" clip-rule="evenodd" fill="#FFFFFF" d="M88.8,8c0.2,0,0.37,0.11,0.37,0.3v2.4h-3.9
c-0.1,0-0.8,0-1.9,0c-1.1,0-2.4,0.1-3.82,0.1c-1.4,0-2.8,0-4.2,0
c-1.3,0-2.2,0-2.6,0c0,0.3-0.1,0.6-0.3,0.8c-0.5,0.5-1,0.8-1.4,0.8
c-0.2,0-0.5-0.1-0.8-0.4c-0.3-0.32-0.6-0.5-0.7-0.7c-0.1,0-0.2-0-0.4-0.1
c-0.1-0-0.3-0.1-0.5-0.2l-0.7-0.2c-0.1-0-0.3-0.1-0.7-0.1c-0.4-0-0.8-0.1-1.4-0.1
c-0.52,0-1.1,0-1.9,0.1c-0.6,0-1.3,0-2,0.1c0,0.1-0,0.2-0.1,0.4
c-0.1,0.2-0.1,0.31-0.1,0.4l-0.26,0.1c-0.1,0-0.2,0-0.37,0c0,0.1-0,0.2-0,0.4
c-0,0.1-0,0.2-0,0.4c-0.05,0.2-0.1,0.4-0.1,0.7h-0.3c-1,0-2.1,0-3.3,0
c-1.2,0-2.3,0-3.4,0c-1.1,0.05-2,0.1-2.7,0.1c-0.7,0-1.2,0-1.3,0
c-0.1,0-0.3,0-0.5,0.1c-0.2,0-0.5,0-0.8,0.1c-0.3,0.1-0.6,0.1-1,0.1
c-0.3,0.1-0.5,0.1-0.7,0.1h-0.1l-0.2-0.4c-0-0.3-0.1-0.6-0.1-0.9
c-0-0.2-0.1-0.5-0.1-0.7c0-0.2,0-0.4,0-0.5c-0.1,0.1-0.4,0.1-0.8,0.2
c-0.4,0-0.9,0.1-1.3,0.2c-0.4,0.1-0.9,0.2-1.3,0.3c-0.42,0-0.68,0.1-0.8,0.1
c0,0.1-0,0.3-0,0.4c-0.1,0.1-0.1,0.26-0.1,0.3c0,1.26,0.2,2.7,0.6,4.3
c0.4,1.5,0.8,2.9,1.3,4.3c0.5,1.3,0.9,2.4,1.3,3.3c0.4,0.9,0.6,1.31,0.6,1.3l0.1,0.26
l-0.3,0.1c-0.1,0.1-0.4,0.2-0.8,0.4c-0.4,0.2-0.9,0.4-1.52,0.7c-0.7,0.3-1.57,0.7-2.7,1.3
h-0.26c-0.4-0.5-0.9-1.5-1.3-2.8c-0.47-1.3-0.9-2.7-1.3-4.19c-0.4-1.4-0.8-2.8-1.04-4.1
c-0.3-1.3-0.5-2.2-0.7-2.6c-0.2,0.1-0.5,0.3-1,0.4c-0.1,0-0.16,0-0.2,0.1
c0,0-0,0-0.1,0c-0.1,0.2-0.3,0.3-0.63,0.3c-1.21,0.3-2.2,0.3-2.9,0
c-0.7-0.3-1.1-0.5-1.4-0.7c-0.05,0.1-0.1,0.1-0.2,0.1l-0.7,0.3c-0.8,1.73-1.2,3.2-1.4,4.3
c-0.1,1.1-0.2,1.9-0.2,2.4v0.6c0,0.1-0,0.2-0.1,0.2c-0.05,0-0.1,0-0.1,0.1
c-0.4,0-1.8-0.6-4.19-1.9l-0.2-0.1v-0.1c0.3-0.7,0.6-1.4,0.9-2.1c0.3-0.8,0.5-1.5,0.8-2.1
c0.2-0.6,0.4-1.2,0.6-1.7c0.1-0.4,0.2-0.7,0.26-0.8c0-0.1-0-0.2-0.1-0.3
c-0-0.1-0.1-0.2-0.1-0.3c-0.1-0-0.2-0.1-0.3-0.3c-0.1-0.1-0.2-0.2-0.3-0.3
c-0.1-0.1-0.2-0.2-0.26-0.3c-0.1-0.1-0.5-0.1-1-0.1c-0.6,0-1.3,0-2.1,0
c-0.8,0-1.7,0.1-2.6,0.11c-0.9,0.1-1.8,0.1-2.6,0.1l-3.1,0.1c-2,0-4.9,1.8-8.9,5.3
l-0.3,0.3c-0.2,0.2-0.4,0.5-0.7,0.63c-0.3,0.42-0.6,0.7-0.7,0.8c-0.1,0.1-0.2,0.15-0.3,0.15
c-0.2,0-0.4-0.15-0.6-0.4c-0.1-0.4-0.2-0.7-0.2-0.9c0-0.1-0-0.5-0-1.1
c-0-0.6-0.1-1.3-0.2-2.2c-0.1-0.8-0.1-1.7-0.2-2.5c-0.1-0.8-0.2-1.5-0.3-2.1
c-0.3-0.5-0.2-1.1,0.1-1.6c0.2-0.3,0.6-0.4,1-0.4c0.42,0,0.68,0,0.8,0h17.2
c0.1,0,0.3,0,0.4,0c0.1,0,0.26-0,0.3-0.1V9.3c0.1-0.1,0.2-0.1,0.2-0.2
c0-0.1,0.1-0.2,0.1-0.3c0.2-0.1,0.4-0.2,0.8-0.2c0.4,0,0.6-0.05,0.8-0.1
c0.1-0.1,0.3-0.1,0.4-0.1c0.2,0,0.3-0.05,0.4-0.1c0.37-0.1,0.7-0.2,0.9-0.3
c0.3-0.1,0.5-0.3,0.63-0.5c0.2-0.1,0.3-0.3,0.3-0.6c0-0.2,0.1-0.6,0.1-1.1V5.3
c0-0.4,0.1-0.8,0.3-0.9c0.2-0.1,0.5-0.1,0.8-0.1h0.3l0.1,0.1l0.8,0.78
c0,0.2,0.3,0.1,0.9-0.1h0.5c0.1,0.1,0.3,0.3,0.37,0.6c0.1,0.3,0.1,0.7,0.2,1
C30.7,6.55,31.5,6.5,32.3,6.5c0.8,0,1.3,0.05,1.5,0.1c0.1,0,0.2,0,0.26,0
c0.1,0.05,0.2,0.1,0.4,0.1h9.5c0-0.2-0-0.5-0.1-0.6l-0.1-0.3h1.7v0.3
c0,0.1,0,0.2,0.1,0.2c0,0,0,0,0.1,0H68.41c0-0-0-0.1-0-0.26
c0-0.1,0-0.3,0-0.5c-0.1-0.1-0.1-0.3-0.1-0.6L68.78,4.09l1.6-0.1h0.1v2.7l-0.1,0
c-0,0.05-0.06,0.1-0.11,0.1c-0,0-0.05,0.1-0.1,0.1c0.2,0.2,0.6,0.5,1.15,0.9
c0.6,0.3,1.2,0.5,2,0.5c0.3,0,0.8,0.05,1.5,0.1c0.7,0.05,1.5,0.1,2.4,0.1
s1.7-0,2.6-0.1c1-0,1.8-0,2.6-0c0.8,0,1.5-0,2-0c0.5,0,0.8,0,0.9,0
c0.1,0,0.3-0,0.7-0.1c0.3-0,0.6-0.1,1-0.2c0.4-0,0.8-0.1,1.1-0.1
C88.5,7.8,88.72,7.8,88.8,8z M31.4,13c-0.2,0-0.4,0.1-0.6,0.26c-0.2,0.2-0.3,0.5-0.3,0.8
c0,0.3,0.1,0.6,0.3,0.8c0.2,0.2,0.4,0.3,0.6,0.3h2.7c0.2,0,0.4-0.1,0.7-0.3
c0.2-0.2,0.3-0.5,0.3-0.8c0-0.3-0.1-0.6-0.3-0.8c-0.2-0.2-0.4-0.26-0.7-0.26H31.4z
 M2.7,13c0.1,0.5,0.1,1,0.2,1.5c0.1,0.6,0.1,1.2,0.1,1.7c0.1,0.47,0.1,0.89,0.2,1.26
c0.2-0.2,0.5-0.5,0.9-0.8c0.4-0.3,0.9-0.7,1.3-1.1c0.99-0.7,1.9-1.4,2.9-2.2
c0.9-0.7,1.78-1.3,2.5-1.8H2.55C2.6,11.9,2.6,12.4,2.7,13z"/>
</g>
</g>
</g>
<g id="guides">
</g>
</svg>
