<svg width="29" height="20" viewBox="0 0 29 20" fill="none" xmlns="http://www.w3.org/2000/svg">
<path d="M24.4 4.7C23.1 3.5 21.6 2.5 19.9 1.8C18.2 1.1 16.4 0.7 14.6 0.7H14.6C7 0.8 0.9 7 0.9 14.6V17.5C0.9 18 1.1 18.4 1.4 18.7C1.7 19.1 2.2 19.2 2.6 19.2H26.6C27.1 19.2 27.6 19.1 27.9 18.7C28.2 18.4 28.4 18 28.4 17.5V14.5C28.4 12.7 28 10.9 27.4 9.2C26.7 7.5 25.6 6 24.4 4.7ZM26.9 17.5C26.9 17.6 26.9 17.6 26.8 17.7C26.8 17.7 26.7 17.7 26.6 17.7H13.1L20.3 7.9C20.4 7.8 20.4 7.6 20.4 7.4C20.3 7.2 20.2 7 20.1 6.9C19.9 6.8 19.7 6.7 19.5 6.8C19.3 6.8 19.2 6.9 19 7L11.3 17.7H2.6C2.6 17.7 2.5 17.7 2.5 17.7C2.4 17.6 2.4 17.6 2.4 17.5V14.6C2.4 14.2 2.4 13.7 2.5 13.2H5.6C5.8 13.2 6 13.2 6.2 13C6.3 12.9 6.4 12.7 6.4 12.5C6.4 12.3 6.3 12.1 6.2 12C6 11.8 5.8 11.7 5.6 11.7H2.7C4 6.5 8.5 2.6 13.9 2.3V5.5C13.9 5.7 14 5.9 14.1 6C14.3 6.2 14.4 6.2 14.6 6.2C14.8 6.2 15 6.2 15.2 6C15.3 5.9 15.4 5.7 15.4 5.5V2.3C18 2.4 20.5 3.4 22.6 5.1C24.6 6.8 26 9.2 26.6 11.7H23.6C23.4 11.7 23.3 11.8 23.1 12C23 12.1 22.9 12.3 22.9 12.5C22.9 12.7 23 12.9 23.1 13C23.3 13.2 23.4 13.2 23.6 13.2H26.8C26.9 13.7 26.9 14.1 26.9 14.5V17.5Z" fill="#6492B4"/>
</svg>
