<svg xmlns="http://www.w3.org/2000/svg"
 width="44.9px" height="32px" viewBox="0 0 44.9 32">
<g id="Selected_Items">
<g>
<g id="Selected_Items_12_">
<path fill-rule="evenodd" clip-rule="evenodd" fill="#FFFFFF" d="M43.6,10.77c-0.1,0.1-0.22,0.1-0.4,0.1
c-0.4,0.1-1,0.1-1.8,0.2c-0.9,0-1.82,0.1-2.8,0.1c-1,0.1-2.01,0.1-3,0.1
c-1,0-1.8,0-2.4,0c-0.7,0-1.3,0.04-1.7,0.1c-0.4,0.08-0.8,0.1-1,0.2
c-0.2,0.1-0.4,0.3-0.4,0.41c-0.1,0.1-0.1,0.3-0.1,0.5v0.33c0,0.2,0,0.5,0,0.9
c0,0.3,0.1,0.6,0.1,0.9c0.1,0.4,0.2,0.8,0.2,1.1v0.1l-0.6,0.7v0.1
c-0.2,0.1-0.7,0.2-1.5,0.2c-1.6,0.1-2.9,0.1-4,0.1c-1,0-1.9-0-2.7-0.1
c-0.7-0.1-1.2-0.2-1.6-0.2c-0.3-0.1-0.56-0.2-0.7-0.3c-0.2,0-0.44,0-0.7,0.1
c-0.2,0.2-0.5,0.4-0.8,0.82c-0.4,0.41-0.8,1-1.23,1.9c-0.4,0.9-0.9,2.1-1.5,3.6
c-0.6,1.5-1.3,3.3-2.01,5.6l-0.1,0.1c0,0.7-0.2,1.1-0.5,1.2c-0.2,0.2-0.3,0.2-0.5,0.1H2.79
c0-0.1,0-0.3,0-0.4c0.1-0.3,0.2-0.5,0.2-0.7H2.3c-0.11,0-0.22-0-0.3-0
c-0.6-0.1-1.1-0.3-1.5-0.9c-0.2-0.3-0.3-0.7-0.3-1.15c0-0.6,0.08-1.1,0.2-1.5
c0.1-0.5,0.2-0.7,0.2-0.8v0.1c0-0,0.2-0.26,0.5-0.7c0.3-0.4,0.6-1,1.1-1.6
c0.5-0.7,0.9-1.4,1.4-2.2c0.6-0.8,1.1-1.5,1.6-2.3c0.5-1,1-2,1.27-2.8
c0.3-0.8,0.4-1.5,0.4-2.2c0-0.4-0.1-0.8-0.2-1.2c-0.2-0.5-0.6-0.9-1-1.23
C5.4,10.1,4.95,9.9,4.5,9.7C4.13,9.6,3.9,9.4,3.7,9.13C3.6,8.83,3.57,8.5,3.57,8.1
c0-0.1,0-0.3,0-0.41c0-0.1,0-0.2,0-0.3L3.57,7.4V5.2c0-0.4,0-0.7,0-0.9
c0-0.2-0-0.4-0.1-0.5H3.4c-0,0-0.04-0-0.04-0.12c0-0.03,0-0.07,0.04-0.1l0-0.1
c0-0.1,0.2-0.1,0.37-0.2c0.2-0.1,0.8-0.2,1.8-0.2c0.1-0.1,0.1-0.2,0.1-0.2
c0-0.1,0-0.1,0.1-0.2c0.1-0.11,0.1-0.2,0.2-0.3l0.1-0.1L7.26,2.2l0.1,0.3
C7.4,2.58,7.5,2.7,7.5,2.8c0,0.1,0,0.2,0,0.2h33.9l0.1-0.2
c0.1-0.1,0.1-0.1,0.1-0.1l0.8-0.2c0,0.1,0.1,0.11,0.2,0.2l0.2,0.2h1.5l0.3,4.5
C44.5,9.25,44.2,10.4,43.6,10.77z M27.4,11.6h-5.8c-0.1,0-0.2,0.1-0.3,0.2
c-0.1,0.1-0.2,0.3-0.2,0.6v2c0,0.3,0.1,0.5,0.2,0.6c0.1,0.1,0.2,0.2,0.3,0.2h5.8
c0.1,0,0.2-0.1,0.3-0.2c0.1-0.1,0.2-0.3,0.2-0.6v-2c0-0.2-0.1-0.4-0.2-0.6
C27.61,11.7,27.5,11.6,27.4,11.6z"/>
</g>
</g>
</g>
<g id="guides">
</g>
</svg>
