<svg xmlns="http://www.w3.org/2000/svg" width="48.75px"
 height="32px" viewBox="0 0 48.75 32">
<g id="Selected_Items">
<path fill="#FFFFFF" d="M48.7,7.6c-0.1-2.8-0.8-4.5-1.5-5.63c-0.7-1.1-1.1-1.06-1.1-1.06
s-1.2-0.3-2.1-0.4c-0.8-0.2-2.4-0.3-2.4-0.3s-0.6,0.1-0.8,0.39c-0.3,0.3-0.4,0.5-0.4,0.5
s-0.6-0.1-1,0.3s-1.1,0.9-1.1,0.9s-1,0-1.84-0.1c-1-0.1-3.7-1.7-3.7-1.7
s-0.8,0.1-1.84,0.3s-2,0.6-2,0.6s-0.7,0.4-1.2,0.78c-0.4,0.3-0.7,0.6-0.7,0.6
s-0.3-0.1-0.7,0.39c-0.4,0.4-3.6,4.46-3.5,7.4c0.1,2.9,1.3,6.4,1.45,6.9
c0.1,0.6,0.3,1.4,0.3,1.4s-0.7,0.3-0.7,0.5c0,0.2,0,2.8,0.3,3.01s0.3,0.1,0.6,0
c0.2-0.1,0.2-0.1,0.2-0.1v2c0,0-0.7,0.39-0.7,0.7s0.2,3.1,0.2,3.3c0,0.2,0.4-0.3,0.4-0.3
l0.3-0.2c0,0,0,1.5,0,1.7c0,0.2-0.39,0.3-0.3,0.6c0.1,0.3-0.2,1.4,8,1.7
c8.2,0.2,8.8,0.1,9.5-0.1c0.7-0.1,0.9-0.6,0.9-1.1c0-0.4,0.1-1.1,0.1-1.1
s0.3-0.2,0.7-0.2c0.4,0,0.4,0,0.4,0s-0.1,0.7,0,1.06c0.1,0.39,0.39,0.8,0.9,0.6
c0.5-0.3,0.8-0.7,0.7-0.9c-0.1-0.2-0.1-0.2-0.1-0.2l-0.2-0.8c0,0,0.3,0.1,0.3-0.5
s-0.1-1.6-0.1-2.2c0.1-0.6,0.2-1.4,0.2-1.4l-0.3-0.1c0,0,0-0.6,0.1-1
c0.1-0.39,0.1-0.39,0.1-0.39l0.3-0.2c0,0,0.3-1.3,0.4-2.2c0.1-0.9,0.3-1.3,0.3-1.3l-0.6-0.3
c0,0-0.1-0.6,0.3-0.8c0.3-0.2,0.6-0.39,0.7-0.6c0.2-0.2,0-0.6-0.1-0.8S47.5,16,47.9,14.1
C48.3,12.21,48.8,10.4,48.7,7.6z M30.7,7.2c-1.6,0.2-1.6-0.5-1.6-1.06c0-0.6,0.2-1.8,0.5-2.1
s1.1-0.9,1.1-0.9s0.7,0.7,1.1,1.45c0.4,0.78,0.7,2,0.7,2S32.3,6.97,30.7,7.2z M35,5.2
c-0.78,0.6-1.8,1.1-1.8,1.1S32.69,5.1,32.3,4.3c-0.39-0.8-1.1-1.5-1.1-1.5s0.2-0.3,0.6-0.6
s0.78-0.9,0.78-0.9s0.6,0.3,2.1,1.1c1.5,0.78,3.1,0.6,3.1,0.6S35.8,4.6,35,5.2z M45,24.92
c-0.2,0.6-0.1,0.3-0.4,0.4c-0.4,0.1-1.06,0.2-1.06,0.2l0.1-2.4c0,0,0.6-0.1,1-0.1
c0.4,0,1.1,0.1,1.1,0.1S45.1,24.3,45,24.92z M47.24,13.2c-0.39,1.4-0.3,2.2-0.4,2.9
c-0.1,0.7,0.2,1.3,0.2,1.3s-0.39,0.6-0.7,0.78s-0.3,1.2-0.3,1.2s-0.6,0-1.1,0s-1.45-0.1-1.45-0.1
s0.2-0.8-0.1-1.5c-0.2-0.7-1.6-2-2.2-2.8c-0.7-0.9-0.5-2.7-0.4-5.1
c0.1-2.3,1.4-5.2,1.84-6.1c0.4-0.9,1.7-1.7,2.62-2.1c0,0,0.8,0.1,1.3,0.7s1.4,3.6,1.4,5.3
S47.63,11.82,47.24,13.2z"/>
<path fill="#FFFFFF" d="M19.4,17c0,0-0.1-1.7-0.3-2.52c-0.1-0.8-0.8-1.3-0.8-1.3s0.3-7.56-7.5-7.56
c-3,0-5.5,1.2-6.8,2.6c-2.1,2.3-2,5.3-2,5.3s-0.9,0.1-1.7,0.4c-0.7,0.24,0,0.7,0,0.7
S1.06,14.75,2.1,14.75c1.1,0,1.32,0,1.32,0s0,0,0,0.5c0,0.1-0.3,0-0.3,0.2
c0,0.4,0,1.2,0,1.68c0,0.3,0.3,0.1,0.3,0.3c0,0.1-0.16,0.1-0.1,0.3
c0,0.2,0.06,0.5,0.1,0.7c0,0.1,0.14,0.2,0.2,0.3c0.3,1.7,0.9,3.7,0.9,3.7
s-0.3,0-0.3,0.5c-0,0.9,0.3,1.8,0.7,2.4c0.1,0.2,0.3,0.27,0.8,0.7
c0.5,0.4,1.9,0.7,2.7,0.3c1.5-0.7,1.8-1.2,1.8-1.2s2.7-0.3,3.8-0.7
c1.1-0.5,2.7-2.6,3.2-3.1c0.1-0.1,0.41,0.1,0.6-0.2c0.4-0.5,0.8-0.97,0.8-1.5
c0.1-0.9,0.1-1.6,0.1-1.6s0,0,0.53-0.1C19.7,17.9,19.4,17,19.4,17z M5.1,25.2
c0.7,0,1.8-0,1.8-0C5.9,25.67,4.7,25.2,5.1,25.2z M9.94,22.9c-0,0.5-0.2,0.7-0.2,0.7
s-0.8,0-1.3,0c-0.5,0-0.9,0-0.9,0s1.24-1.27,1.6-1.6c0.3-0.3,1.2-0.22,1.2-0.22
C9.9,22.4,10,22.3,9.94,22.9z M10.6,19c0.1,0.9,0.2,1.5,0.2,1.5s-1.8,0.4-2.4,0.9
c-0.6,0.5-0.8,1.1-1.5,1.5s-1.26-0-1.9-0.6c-0.4-0.4-0.3-2.3-0.2-3.57
c0-0.1,0.1-0.15,0.1-0.3c0.03-0.3,0.1-0.47,0-0.7c-0.03-0.2-0.1-0.4-0.1-0.4
s2-0,3-0s3.8-0.3,3.8-0.3l0,0.7l-1.3,0.4C10.4,18.12,10.4,18.12,10.6,19z
 M14.1,22.7c-1.6,0.6-2.3,0.9-2.3,0.9s-0.1-1,0.6-1.6c0.1-0.1,0.1-0.4,0.18-0.32
c0.3,0.1,0.8-1.2,0.6-1.2c-0.2-0,0.1-0.3,0.1-0.3s0.83,0,1.6,0.1
c0.9,0.1,2,0.5,2,0.5C16.8,21,15.6,22.1,14.1,22.7z M14.1,17.6l0-0.6h1.9l0.5,0.6
L14.1,17.6z"/>
</g>
<g id="guides">
</g>
</svg>
