<svg id="Selected_Items" xmlns="http://www.w3.org/2000/svg" x="0px"
 y="0px" width="26px" height="32px" viewBox="0 0 26 32">
<path fill="#FFFFFF" d="M26,7.6c-0.1-2.8-0.8-4.5-1.5-5.63c-0.7-1.1-1.1-1.06-1.1-1.06
s-1.2-0.3-2.1-0.4c-0.8-0.2-2.4-0.3-2.4-0.3s-0.6,0.1-0.8,0.39c-0.3,0.3-0.4,0.5-0.4,0.5
s-0.6-0.1-1,0.3s-1.1,0.9-1.1,0.9s-1,0-1.84-0.1c-1-0.1-3.7-1.7-3.7-1.7
s-0.8,0.1-1.84,0.3S6.1,1.4,6.1,1.4S5.4,1.8,4.97,2.2C4.5,2.51,4.2,2.7,4.2,2.7
s-0.3-0.1-0.7,0.39c-0.4,0.4-3.6,4.46-3.5,7.4c0.1,2.9,1.3,6.4,1.45,6.9
c0.1,0.6,0.3,1.4,0.3,1.4s-0.7,0.3-0.7,0.5c0,0.2,0,2.8,0.3,3.01s0.3,0.1,0.6,0
c0.2-0.1,0.2-0.1,0.2-0.1v2c0,0-0.7,0.39-0.7,0.7s0.2,3.1,0.2,3.3c0,0.2,0.4-0.3,0.4-0.3
l0.3-0.2c0,0,0,1.5,0,1.7c0,0.2-0.39,0.3-0.3,0.6c0.1,0.3-0.2,1.4,8,1.7
c8.2,0.2,8.8,0.1,9.5-0.1c0.7-0.1,0.9-0.6,0.9-1.1c0-0.4,0.1-1.1,0.1-1.1
s0.3-0.2,0.7-0.2c0.4,0,0.4,0,0.4,0s-0.1,0.7,0,1.06c0.1,0.39,0.39,0.8,0.9,0.6
c0.5-0.3,0.8-0.7,0.7-0.9c-0.1-0.2-0.1-0.2-0.1-0.2l-0.2-0.8c0,0,0.3,0.1,0.3-0.5
s-0.1-1.6-0.1-2.2c0.1-0.6,0.2-1.4,0.2-1.4L23.2,24.8c0,0,0-0.6,0.1-1
c0.1-0.39,0.1-0.39,0.1-0.39l0.3-0.2c0,0,0.3-1.3,0.4-2.2c0.1-0.9,0.3-1.3,0.3-1.3l-0.6-0.3
c0,0-0.1-0.6,0.3-0.8c0.3-0.2,0.6-0.39,0.7-0.6c0.2-0.2,0-0.6-0.1-0.8S24.8,16,25.2,14.1
C25.5,12.21,26,10.4,26,7.6z M8,7.2C6.42,7.4,6.4,6.7,6.4,6.1c0-0.6,0.2-1.8,0.5-2.1
s1.1-0.9,1.1-0.9s0.7,0.7,1.1,1.45c0.4,0.78,0.7,2,0.7,2S9.5,6.97,8,7.2z M12.2,5.2
c-0.78,0.6-1.8,1.1-1.8,1.1S9.9,5.1,9.5,4.3c-0.39-0.8-1.1-1.5-1.1-1.5S8.7,2.51,9.04,2.2
s0.78-0.9,0.78-0.9s0.6,0.3,2.1,1.1c1.5,0.78,3.1,0.6,3.1,0.6S13,4.6,12.2,5.2z M22.2,24.92
c-0.2,0.6-0.1,0.3-0.4,0.4c-0.4,0.1-1.06,0.2-1.06,0.2l0.1-2.4c0,0,0.6-0.1,1-0.1
c0.4,0,1.1,0.1,1.1,0.1S22.4,24.3,22.2,24.92z M24.5,13.2c-0.39,1.4-0.3,2.2-0.4,2.9
c-0.1,0.7,0.2,1.3,0.2,1.3s-0.39,0.6-0.7,0.78S23.2,19.4,23.2,19.4s-0.6,0-1.1,0s-1.45-0.1-1.45-0.1
s0.2-0.8-0.1-1.5c-0.2-0.7-1.6-2-2.2-2.8c-0.7-0.9-0.5-2.7-0.4-5.1
c0.1-2.3,1.4-5.2,1.84-6.1c0.4-0.9,1.7-1.7,2.62-2.1c0,0,0.8,0.1,1.3,0.7s1.4,3.6,1.4,5.3
S24.9,11.82,24.5,13.2z"/>
</svg>
