<svg xmlns="http://www.w3.org/2000/svg"
 width="76.8px" height="32px" viewBox="0 0 76.8 32">
<g id="Selected_Items">
<g>
<g id="Selected_Items_20_">
<path fill-rule="evenodd" clip-rule="evenodd" fill="#FFFFFF" d="M50.6,12.5h11l6.16,0.6
c4.4,0.66,7.3,1.6,8.8,2.91c-1.7,1.5-4.5,2.5-8.4,3c-1.6,0.2-3.8,0.37-6.3,0.4H50.6
c-0.1-0.4-0.2-0.6-0.34-0.6c-0.2,0-0.3,0.2-0.3,0.6h-0.1c-0.1-0.4-0.2-0.6-0.3-0.6
c-0.2,0-0.3,0.2-0.34,0.6h-0.3c-0.2-0.4-0.4-0.6-0.7-0.6c-0.3,0-0.5,0.2-0.7,0.6H47.12
c-0.1-0.4-0.2-0.6-0.3-0.6c-0.2,0-0.28,0.2-0.3,0.6h-0.1c-0.1-0.4-0.2-0.6-0.3-0.6
c-0.2,0-0.3,0.2-0.34,0.6h-0.3c-0.1-0.4-0.36-0.6-0.71-0.6c-0.3,0-0.5,0.2-0.7,0.6h-0.3
c-0.1-0.4-0.2-0.6-0.37-0.6c-0.2,0-0.3,0.2-0.3,0.6H42.94c-0.1-0.4-0.2-0.6-0.34-0.6
c-0.1,0-0.27,0.2-0.4,0.6h-0.3c-0.1-0.4-0.4-0.6-0.7-0.6c-0.4,0-0.6,0.2-0.7,0.6h-0.3
c-0.1-0.4-0.2-0.6-0.3-0.6c-0.2,0-0.3,0.2-0.3,0.6h-0.1c-0.1-0.4-0.2-0.6-0.34-0.6
c-0.2,0-0.3,0.2-0.3,0.6H36.16c-0.3-0.2-0.6-0.3-0.7-0.2c-0.39,0.2-0.7,0.3-0.8,0.3
l-0.6,0.1v0.4l-1.6,4.7l-1.9-0.5c0.3-0.4,0.5-0.9,0.6-1.5c0.1-1.2-0.4-2.1-1.6-2.8
c-2.3-0.29-4.1-0.3-5.3,0.1c-0.5,0.2-3.3,0.2-8.4,0.2c-5.3-0.1-8.2-0.3-8.6-0.6
c-0.3-0.1-0.6-0.1-0.8,0.03l-0.2,0.2c-1.3,1.2-2.1,1.7-2.4,1.7c-1.3,0-2.2-0.6-2.6-1.7
c-0.3-0.8-0.5-1.8-0.6-2.9H0.4c-0.3,0-0.4-0.2-0.4-0.7c0-0.5,0.1-0.7,0.4-0.7h0.1
c0.1-1.3,0.3-2.1,0.7-2.6c0.5-0.6,0.9-0.9,1.3-1.1c0.3-0.1,0.7-0.2,1.2-0.2
c0.4,0,0.8,0.1,1.2,0.3c0,0,0.38,0.2,1,0.6c0.1,0,1.7-0.1,4.6-0.4
c3-0.31,5.4-0.41,7.2-0.31c6.19,0.29,9.8,0.4,10.8,0.37c1.5-0.3,2.6-0.8,3.2-1.5
c0.6-0.7,1.1-1.8,1.4-3.5l1.7,0.4l0.1,1l-0.8,2.3l-0.1,1.55l0.6,0.2
c0.4,0.1,0.65,0.2,0.8,0.2c0.2,0,0.5-0.1,0.9-0.4h2.5c0.1,0.4,0.2,0.7,0.3,0.7
c0.2,0,0.3-0.2,0.34-0.7h0.1c0.1,0.4,0.2,0.7,0.3,0.7c0.1,0,0.2-0.2,0.3-0.7h0.3
c0.2,0.4,0.4,0.7,0.7,0.7c0.3,0,0.5-0.2,0.7-0.7h0.3c0.08,0.4,0.2,0.7,0.3,0.7
c0.1,0,0.2-0.2,0.34-0.7h0c0.1,0.4,0.2,0.7,0.3,0.7c0.2,0,0.3-0.2,0.3-0.7h0.3
c0.2,0.4,0.4,0.7,0.7,0.7c0.3,0,0.5-0.2,0.71-0.7h0.3c0.1,0.4,0.2,0.7,0.34,0.7
c0.2,0,0.28-0.2,0.3-0.7h0.1c0.1,0.4,0.2,0.7,0.3,0.7c0.2,0,0.3-0.2,0.3-0.7h0.3
c0.1,0.4,0.4,0.7,0.7,0.7c0.3,0,0.5-0.2,0.7-0.7h0.3c0.08,0.4,0.2,0.7,0.34,0.7
c0.2,0,0.3-0.2,0.3-0.7h0.1c0.1,0.4,0.2,0.7,0.3,0.7C50.4,13.1,50.5,12.9,50.6,12.5z"/>
</g>
</g>
</g>
<g id="guides">
</g>
</svg>
