<svg xmlns="http://www.w3.org/2000/svg"
 width="96.6px" height="32px" viewBox="0 0 96.6 32">
<g id="Selected_Items">
<g>
<g id="Selected_Items_32_">
<path fill-rule="evenodd" clip-rule="evenodd" fill="#FFFFFF" d="M55,3.7h0.91l0.4,0.1
c0.1,0.1,0.2,0.2,0.3,0.3c0.1,0,0.23,0,0.3,0l0.1,0.1c0.1,0,0.2,0,0.3,0
c0.1,0,0.2,0,0.3-0c0.1,0,0.2,0,0.4,0c0.2,0,0.3,0.1,0.5,0.2
c0.2,0.1,0.4,0.2,0.5,0.3c0.1,0.1,0.2,0.1,0.3,0.1c0.1,0,0.1,0,0.2,0
c0.1,0.1,0.2,0.1,0.3,0.1h0.3c0,0,0.1,0,0.3,0c0.1,0,0.3,0.1,0.4,0.2
c0.2,0,0.3,0.1,0.4,0.1l0.2,0.1h0.1c0.1,0.2,0.1,0.4,0.2,0.5
c0.1,0.2,0.1,0.4,0.2,0.6c0,0.2,0.1,0.4,0.1,0.6c0,0.17-0,0.34-0,0.5
c0,0.17-0,0.34-0.1,0.5c-0.2,0.6-0.4,1-0.6,1.2c-0.2,0.2-0.3,0.4-0.3,0.5
c-0.1,0-0.1,0.1-0.1,0.1c-0.07,0-0.13,0-0.2,0h9.7c0,0.1,0.1,0.2,0.1,0.3
c0.1,0.17,0.1,0.3,0.2,0.3c0.5,0.1,0.97,0.17,1.5,0.3c0.5,0.1,1.1,0.3,1.6,0.4
c0.5,0.1,1,0.2,1.3,0.3c0.4,0.1,0.7,0.1,0.8,0.1c0.2,0,0.4-0.2,0.4-0.6
c0-0.1,0.1-0.3,0.1-0.51l0.7-1.5c0-0,0-0.1,0-0.3c0-0.17,0-0.4,0-0.6
c0-0.3,0.1-0.5,0.1-0.8h1.2v4l-0,0.3v0.1c0,0.1,0.1,0.1,0.3,0.1
c0.1,0.1,0.51,0.11,1.31,0.11c0.8,0,1.8-0,3-0c1.2,0,2.5-0,3.8-0
c1.3-0,2.6-0,3.8-0c0.4-0,0.8-0,1.2-0c0.3,0,0.63,0,0.9,0
c0.3,0,0.5,0,0.7,0c0.3,0,0.5,0,0.8,0c0.3,0,0.57-0,0.8-0.1c0.5,0,0.9,0,1.09,0
c0.17,0,0.3,0,0.3,0.1c0.2,0.9,0.4,1.5,0.3,1.71c-0,0.2-0.2,0.3-0.3,0.3
c-0.1,0.1-0.4,0.1-0.9,0.1c-0.6,0-1.2-0-1.8-0.1c-0.6-0-1.15-0-1.7-0.1
c-0.6,0-0.9-0-0.9-0.1H78.8c0,0.1-0.1,0.1-0.4,0.1v0.5h1.6l0.6,0.6v1.7H79.78
c-0.1-0-0.2-0.1-0.3-0.1c-0.1-0-0.1-0.1-0.1-0.1c-0.1-0-0.1-0-0.1-0
c-0.1,0-0.2,0-0.3,0c-0.1,0-0.23,0-0.4,0c-0.2,0-0.4,0.1-0.6,0.1l-5.6,0.2
c-0.8,0.1-1.5,0.1-2.1,0.2c-0.7,0-1,0-1,0c-0.1,0.2-0.3,0.4-0.5,0.7
c-0.2,0.3-0.5,0.5-1,0.5c-0.4,0-0.8-0.3-1.3-0.9c-0.2,0-0.3-0-0.4-0.11
c-0.1-0.1-0.3-0.1-0.3-0.1c0.1,0.4,0.1,0.7,0.1,0.9c0,0.2,0,0.4,0,0.7
c0,0.3-0,0.6-0,0.8c-0,0.1-0.1,0.3-0.2,0.4c-0.17,0-0.4,0-0.6,0
c-0.2-0-0.4-0.1-0.6-0.2c-0.1-0-0.5-0-1.3-0c-0.8,0-1.7,0-2.8,0
c-1.1,0-2.2,0-3.5,0c-0.9,0-1.7,0-2.4,0c0,0.1,0.1,0.3,0.1,0.4
c0.3,1.1,0.4,2,0.4,2.7v6.8c0,0.6-0.06,0.9-0.2,0.9c-0.2-0-0.3-0.1-0.5-0.1h-7.9
c-0.4,0-0.6-0-0.7-0.1c-0.1-0.1-0.2-0.3-0.2-0.6L45.38,17.9c0-0.1,0.1-0.2,0.1-0.3
c-0-0.2-0.2-0.3-0.49-0.3c-0.03,0-0.1,0.01-0.1,0c-0.1,0-0.2,0.1-0.3,0.3
c-0.1,0-0.1,0.1-0.1,0.3s0,0.3,0,0.5c0,0.1,0,0.2,0.11,0.3
c-0,0.1-0.1,0.2-0.1,0.3c-0.1,0.1-0.2,0.1-0.3,0.1c0.1,0.17,0.1,0.3,0.1,0.5
c0,0.1,0,0.3,0,0.5c0,0.4-0,0.74-0.1,1.1c-0.1,0.3-0.4,0.5-0.8,0.6
c-0.3,0.17-0.7,0.3-1.2,0.3c-0.4,0-0.8,0-1.2,0c-0.4-0-0.8-0.1-1-0.1
c-0.3-0-0.4-0.1-0.4-0.2c-0.1-0-0.2-0-0.3-0.1c-0.2-0-0.3-0.1-0.4-0.2
c-0,0.1-0.12,0.4-0.29,0.9c-0.2,0.5-0.4,1-0.7,1.6c-0.2,0.6-0.4,1.1-0.6,1.6
c-0.17,0.5-0.3,0.7-0.3,0.8c0,0.1,0.1,0.2,0.2,0.4c0,0.17,0,0.3,0,0.4
c0,0.1-0.1,0.2-0.2,0.3c-0,0.17-0.2,0.4-0.4,0.6c-0.3,0.2-0.8,0.2-1.5,0
c-0.4-0.1-0.8-0.2-1.2-0.4c-0.4-0.17-0.8-0.3-1.2-0.5c-0.4-0.1-0.8-0.3-1.3-0.5h-0.3
l0.1-0.2c0.3-0.5,0.6-1.09,1-1.7c0.4-0.7,0.8-1.3,1.1-1.9c0.4-0.6,0.7-1.08,0.9-1.5
c0.2-0.4,0.4-0.7,0.4-0.7c0.1-0.2,0.1-0.4-0-0.7c-0.1-0.3-0.3-0.57-0.5-0.7l-0.5-0.3
c-0.1-0.1-0.3-0.1-0.4-0.2l-7.2-0.51h-6.1c-1.3,0-2.7,0.1-4,0.4c-1.6,0.3-2.4,0.6-2.5,1.1
c-0.1,0.2-0.1,0.5-0.1,1c0.1,0.5,0.3,1,0.5,1.4c0.29,0.4,0.4,0.6,0.3,0.8
c-0,0.1-0.1,0.1-0.3,0.1L1.2,23.5c-0.34,0-0.6-0.2-0.8-0.5C0.1,22.7,0,22.3,0,21.8V11.2
c0.1-0.17,0.3-0.3,0.6-0.4c0.6-0.2,1.2-0.2,1.9,0.1c0.51,0.2,2.9,0.5,7.1,1
c0.4,0,0.9,0.4,1.4,1c0.5,0.6,1.1,0.9,1.6,1c0.5,0,1.2,0,2.2-0.1
c0.8-0.1,1.6-0.2,2.3-0.3c1.6-0.3,2.91-0.7,4.1-1.1c0.7-0.3,1.7-0.69,2.9-1.3
c1.6-0.7,3.3-1.02,5.1-1.1c0.2-0,0.3-0,0.5-0.1c0.7-0.1,1.4-0.2,2-0.3
c0.7-0.1,1.2-0.1,1.5-0.1V9.4c0.1-0.3,0.3-0.7,0.4-1c0.1-0.3,0.2-0.5,0.3-0.7
c0.2-0.2,0.4-0.3,0.7-0.4c0.2-0.1,0.6-0.1,1-0.1c0.4,0.1,0.8,0.2,1.2,0.3
c0.4,0.1,0.8,0.2,1.1,0.3l1.1,0.4c0.1,0,0.1,0.11,0.2,0.3c0.1,0,0.1,0.1,0.2,0.3
c0,0.1,0.1,0.3,0.1,0.5v0.5h5.9V9.2h3.1v0.5c0.2,0,0.5,0,0.9,0c0.4,0,0.8,0,1.2,0
c0.4,0,0.8,0,1.1,0c0.3,0,0.5,0.1,0.5,0.1c0.1,0,0.4-0,0.9-0.1
c0.5-0,1.2-0.06,1.9-0.1c0.8-0,1.5-0.1,2.3-0.2c0.8-0,1.6-0.1,2.3-0.3
c0.1-0,0.2-0.1,0.3-0.3c0.1-0.1,0.2-0.2,0.4-0.4c0.1-0.2,0.2-0.5,0.3-0.8
c-0.3-0.2-0.5-0.4-0.7-0.4c-0.1-0-0.2-0.1-0.4-0.2c-0.2,0-0.4-0.06-0.4-0.2
c-0.2-0.1-0.5-0.2-0.8-0.3c-0.3-0.1-0.6-0.1-0.9-0.2h-0.1c-0.2-0.1-0.46-0.2-0.9-0.2
L55.78,6.1c-0.3-0.1-0.5-0.1-0.6-0.2c-0.1-0-0.2-0.17-0.4-0.4V5.5h-0.8
c-0.3,0-0.5,0-0.6,0c-0.12,0-0.2-0-0.4-0c-0.2-0.3-0.4-0.6-0.4-0.9
c-0.1-0.29,0.1-0.8,0.6-1.6V2.9h0.1c0.63,0.2,1,0.3,1.2,0.4C54.8,3.5,54.92,3.6,55,3.7z
 M43.1,19.1c-0.4,0.1-1.3,0.1-2.5,0c-0.1,0.2-0.2,0.4-0.2,0.6c0,0.3,0.11,0.57,0.3,0.8
c0.2,0.2,0.46,0.3,0.8,0.3h0.9c0.2,0,0.4-0.1,0.6-0.3c0.2-0.2,0.29-0.4,0.29-0.8
C43.3,19.5,43.2,19.3,43.1,19.1z"/>
</g>
</g>
</g>
<g id="guides">
</g>
</svg>
