<svg xmlns="http://www.w3.org/2000/svg" width="96.5px"
 height="32px" viewBox="0 0 96.5 32">
<g id="Selected_Items">
<g>
<g id="Selected_Items_31_">
<path fill-rule="evenodd" clip-rule="evenodd" fill="#FFFFFF" d="M96.5,9.1v3.7l-0.1,0.2l-17.7-0l-0-0.7
l0.3-0l0-0.3l-5.7-0.1v-0.2l-2.4,0l-0.5,0.2l-4.09-0l0.81,0.2V12.7l-0.2,0.2l-0.9-0
v0.3h-0.7v-1.2h0.2v-0.2l-2.5-0.1l-0.1,0.2l-0.1,0.6c-0,0.1-0.1,0.09-0.1,0.1
c-0.1,0.1-0.1,0.1-0.2,0.1c-0.1-0-0.1-0.1-0.2-0.1l-0.2-0.1l0-0.5l-0.1-0.2h-0.5
l-0.04,0.8c-0,0.1-0.1,0.1-0.2,0.2l-0.2,0.1h-0.27l-0.2,0.5l-14.24,0.1l-0.27-0.2l-0.3-0.1
l-0.7,0.27l-0.1-1L44.65,12.7l0,0.6l-0,0.1c-0,0.1-0.1,0.1-0.1,0.2
c-0.1,0-0.1,0.1-0.2,0.1l-0.1,0c-0-0-0.1-0-0.1-0c-0.1,0-0.2,0.1-0.2,0.2
c-0.1,0.1-0.1,0.2-0.2,0.2l-0.1,0.2v3.28l0.23,0.1l0,0.27l-0.5,0.2v1.2
c0.1,0.9,0.2,1.8,0.3,2.6c0.2,0.8,0.5,1.8,0.8,3c0.2,0.6,0.3,1.1,0.5,1.6l0.2,0.2
l-5.8,1.6h-0.2v-0.2c-0.18-0.6-0.4-1.3-0.6-2c-0.4-1.5-0.7-2.7-0.9-3.4
c-0.2-0.7-0.3-1.5-0.3-2.3l-0.1-1l-0.4,0.1l-0.54-0.1h-3.6l-1.2,0.1c-0.1,0-0.1,0-0.2,0
c-0.2,0-0.3,0-0.4,0.1c-0.1,0.1-0.2,0.2-0.2,0.2l-0.8,1.6l0.4,0.5l-0.1,0.1
c-0.2,0.1-0.3,0.1-0.5,0.2c-0.1,0.1-0.2,0.1-0.3,0.2l-0.1,0.1l-1.66,3.2
c-0.1,0.1-0.1,0.2-0,0.3c0,0.1,0.09,0.18,0.2,0.3c0.1,0.1,0.1,0.09,0.2,0.1l-0.2,0.3
l-5.4-1.3l4.9-8.49c0.1-0.1,0.1-0.2,0.1-0.3c0.1-0.2,0.1-0.5,0.1-0.7
c-0.1-0.3-0.2-0.5-0.27-0.7c-0.1-0.18-0.27-0.3-0.4-0.5c-0.2-0.1-0.3-0.18-0.5-0.2l-1.2-0
v0.2l-0.3,0l-0-2.1l-1-0l-0-0.3h-3.9l-0.9,0.7l-3.7,0.1v0.3l-3.2,0l0,2
H9.8v0.8h-1.08v-0.8l-3.6,2.3v-1.9l-4.6,2.1l-0,0.8l-0,0.1c-0.1,0.1-0.1,0.2-0.2,0.2
s-0.1-0.1-0.2-0.2L0,18.8L0.1,8.5h4.09C4.2,8.5,4.3,8.57,4.3,8.6c0.1,0.1,0.09,0.3,0.1,0.54
l10.5,0.1c0.1,0,0.09,0.1,0.1,0.1c0.1,0.1,0.1,0.1,0.1,0.2l8.5,0.04l-0-0.3h1v-0.27
l0.3-0l0,0.3l1-0V8.7h1l0.1,0.1l2.6-4.13l0.1-0.2c0.1-0.1,0.2-0.2,0.31-0.2
c0.1-0.1,0.2-0.1,0.4-0.2c0.1,0,0.2,0,0.2,0l12.9,1.4l0.4,0.1c0.3,0.1,0.5,0.2,0.7,0.4
c0.1,0.2,0.3,0.4,0.4,0.7c0.1,0.1,0.1,0.2,0.2,0.3l-0.1,2.5l0.27-0l0-1.12l0.8,0.2
V8.2l0.27-0c0-0,0-0.1,0-0.1c0-0.1,0.1-0.1,0.1-0.1c0.1-0,0.1-0.1,0.2-0.1
l14.3,0.2l0.2,0.31V8.84l0.4,0.04l0.1,0c0.1,0.1,0.1,0.1,0.1,0.2c0,0.1,0.1,0.4,0.1,0.9
h0.5l0-1.5l2.4-3.3l0.2-0.2c0.2-0.1,0.3-0.18,0.5-0.2c0.4,0.1,0.7,0.2,0.8,0.4
c0.1,0.1,0.1,0.2,0.1,0.27c0,0.1-0,0.09-0,0.1l0,4.36h4.1l0.54,0.2l2.3-0V10h5.7V9
h17.3L96.5,9.1z M65.6,7.7c-0.1-0.1-0.1-0.1-0.2-0.2c-0-0.1-0.1-0.2-0.2-0.5L65.18,6.6
l-0.9-0.1l-1.4,2.16l0.2,0.2h2.6l0.2-0.2V7.7H65.6z M63.1,10h2.5l0.1-0.4h-2.6V10z
 M43.7,6.1H32.9c-0.1,0-0.2,0-0.3,0c-0.2,0.1-0.3,0.1-0.4,0.2c-0.1,0.1-0.2,0.2-0.3,0.3
l-0.2,0.2l-0.6,1.5l0.2,0.2l12.3-0.1l0.2-0c0.1-0,0.2-0.1,0.3-0.2
c0.3-0.2,0.5-0.5,0.5-1c0-0.4-0.1-0.7-0.4-0.9c-0.1-0.1-0.2-0.1-0.3-0.2L43.7,6.1z
 M3.7,13.4L3.55,13.4H0.7l-0.2,0c-0.1,0.1-0.1,0.2-0.1,0.2s0.1,0.1,0.2,0.2
c0,0,0.1,0.1,0.1,0.1h2.9c0.1-0,0.09-0.1,0.1-0.1c0.1-0.1,0.1-0.1,0.1-0.2
C3.8,13.51,3.8,13.4,3.7,13.4z M0.4,8.84v0.4h3.7c0-0.1-0-0.2-0-0.27
c0-0.1-0-0.1-0.1-0.2L3.8,8.8L0.4,8.84z M35.89,16.2c-0.1-0.1-0.2-0.1-0.3-0.1h-1.5
c-0.1,0.1-0.2,0.2-0.3,0.3c-0.2,0.3-0.3,0.6-0.3,0.9c-0,0.3,0.1,0.6,0.3,0.8
c0.1,0.1,0.2,0.2,0.3,0.3l-0.2,0.1c-0.2-0.1-0.3-0.2-0.5-0.4c-0.3-0.3-0.5-0.6-0.54-1
c-0-0.2,0-0.5,0.2-0.8l0.2-0.3c-0.2,0-0.5,0.1-0.7,0.23c-0.5,0.3-0.7,0.8-0.6,1.4
c0,0.3,0.2,0.6,0.5,0.9c0.2,0.2,0.3,0.27,0.5,0.3h3.5v-0.5c0.1-0.1,0.2-0.3,0.3-0.5
c0.1-0.4,0.1-0.8-0.1-1.2C36.4,16.6,36.2,16.4,35.89,16.2z"/>
</g>
</g>
</g>
<g id="guides">
</g>
</svg>
