<svg xmlns="http://www.w3.org/2000/svg"
 width="78.6px" height="32px" viewBox="0 0 78.6 32">
<g id="Selected_Items">
<g>
<g id="Selected_Items_30_">
<path fill-rule="evenodd" clip-rule="evenodd" fill="#FFFFFF" d="M39.1,16.9c0-0.3-0.1-0.6-0.3-0.8
c-0.2-0.2-0.4-0.3-0.7-0.3h-1.9c-0-0-0-0-0,0c-0.1,0.1-0.1,0.2-0.2,0.5
c-0,0.2,0.1,0.5,0.2,0.9c0.1,0.3,0.2,0.5,0.1,0.5c-0.2,0.1-0.5-0.1-0.9-0.7
c-0.1-0.2-0.22-0.4-0.3-0.7l-0-0.5c-0.2,0.1-0.3,0.2-0.5,0.3c-0.3,0.26-0.4,0.5-0.4,0.8
c0,0.4,0.1,0.7,0.35,1c0.2,0.3,0.5,0.5,0.9,0.5h2.4c0.5,0,0.8-0.2,1-0.5
C39,17.6,39.1,17.28,39.1,16.9z M68.9,6.51c-0.13,0.26-0.2,0.4-0.2,0.5
c-0,0.1-0,0.2,0,0.5l0.2,0.5h1.8l0.1-2.3h-1.5L68.9,6.51z M73,11
c-0.1,0-0.1-0-0.2-0.1l-0.1-0.1h-1.2c-0.2,0.4-0.3,0.7-0.5,0.7h-0.6
c-0.1,0-0.2-0.1-0.2-0.2l-0.1-0.2h-2.4v0.6c0,0.2-0.1,0.3-0.3,0.5
c-0.2,0.2-0.4,0.3-0.7,0.3H47.9c-0.1,0-0.3-0.1-0.39-0.35l-0.2-0.4l-0.4,0.7h-0.3v4.5l0.3,0.39
c-0,0.1-0.1,0.2-0.3,0.3c-0.13,0.1-0.2,0.3-0.1,0.8c0.1,0.9,0.1,1.4,0.1,1.6
c0,0.52,0,1,0.1,1.4c0.1,0.3,0.2,0.8,0.35,1.3c0.2,0.7,0.5,1.9,1.1,3.6l0.2,0.1
c0.1,0.1,0,0.2-0.1,0.3c-3.9,1.2-5.9,1.9-6.2,1.9c-0.2,0-0.3-0.1-0.3-0.2
c-0.1-0.13-0.1-0.2,0-0.4c0-0.1-0.1-0.5-0.4-1.4c-0.4-1.2-0.6-2.3-0.8-3.4
c-0.2-1.2-0.3-2.2-0.4-3.2l0-1.1l-0.5-0.2v-0.4c-0.2,0.3-0.4,0.5-0.5,0.5h-4.4
c-0.2,0.3-0.3,0.4-0.4,0.4c-0.1,0-0.2-0.1-0.3-0.2l-0.1-0.2c-0.1-0.1-0.2-0.1-0.3-0.1
c-0.2,0-0.4,0.1-0.5,0.4c-0.1,0.2-0.2,0.4-0.35,0.5c-0.2,0.2-0.3,0.3-0.3,0.39
c-0.1,0.13-0,0.3,0.1,0.5c0.2,0.2,0.2,0.39,0.2,0.5c-0,0.1-0.2,0.1-0.5,0.3
c-0.3,0.1-0.5,0.26-0.6,0.5c-0,0.1-0.3,0.6-0.8,1.5c-0.4,0.8-0.7,1.3-0.7,1.4
c0,0.1,0.1,0.2,0.3,0.5c0.2,0.2,0.2,0.4,0,0.6c-0.3,0.4-1.44,0.4-3.5,0.1
c-0.8-0.1-1.4-0.3-1.8-0.5c-0.5-0.3-0.6-0.5-0.5-0.9c0.2-0.4,1.9-3.3,4.9-8.5
c0.2-0.3,0.2-0.7,0-1.2c-0.2-0.5-0.4-0.83-0.7-0.9c-0.2,0-0.5,0-0.7,0.04
c-0.2,0-0.3,0-0.4-0.04c-0.3-0.1-0.4-0.3-0.4-0.6c-0-0.3-0-0.6-0-0.9
c-0-0.5-0-0.9,0-1.1h-0.2l-0.5-0.2v-0.2h-6l-0.1,0.4c-0.1,0.3-0.4,0.6-0.7,0.9
c-0.4,0.3-0.7,0.5-0.9,0.8l-0.3,0.3l-0.7,1.3h-0.9l-0.6,1.1h-2.3v-0.6h-1.4
c-2,1.5-3.1,2.4-3.3,2.5c-0.2,0.1-0.4,0.2-0.5,0.2c-0.13,0-0.2-0.1-0.3-0.2l-0-0.39
l-6.2,4l-0.1,0.5c-0.1,0.3-0.3,0.5-0.4,0.5c-0.2,0.1-0.4,0-0.7-0
c-0.3-0.1-0.5-0.1-0.7-0.3c-0.3-0.2-0.4-0.3-0.4-0.35C0.1,21.6,0,21.4,0,21.1V9.2
C0,8.8,0.1,8.6,0.4,8.34c0.3-0.26,0.6-0.4,1.09-0.4h19.4c0.1,0,0.2,0.1,0.2,0.3
c0,0.1,0.1,0.2,0.1,0.3h5.6V8.34l0.5-0.2h1V7.3l0.2-0.2c0.2-0.13,0.6-0.2,1.1-0.2h2.3
l0.8-1.2l-0.1-0.4c-0.2-0.1-0.3-0.13-0.5-0.2c-0.3-0.2-0.5-0.5-0.5-0.9
c0-0.26,0.1-0.5,0.3-0.7c0.2-0.2,0.5-0.4,0.8-0.4c0.3,0,0.6,0.1,0.9,0.4
c0.2,0.2,0.3,0.5,0.3,0.74v2.3h0.5V5.9h1.4v0.8h11c0.2,0,0.3,0.1,0.4,0.2
c0.1,0.13,0.2,0.2,0.2,0.4c0,0.13,0.2,0.1,0.5-0.2h1.2c0-0.1,0-0.1,0-0.2
c0.1-0.13,0.2-0.2,0.3-0.2h17.4c0.2,0,0.3,0.1,0.43,0.2c0.1,0.1,0.1,0.1,0.2,0.2l0.8-1.1
c0.6-0.8,0.9-1.3,1.1-1.4l0.2-0.2c0.2-0.1,0.6-0.2,1-0.2h1v5h1.2l0.2-0.2
c0.1-0.1,0.2-0.2,0.3-0.2h4.7c0.2,0,0.4,0.1,0.5,0.2c0.2,0.2,0.3,0.4,0.3,0.8v0.4
c0,0.3-0.1,0.5-0.3,0.6c-0.2,0.1-0.3,0.2-0.5,0.2H73z"/>
</g>
</g>
</g>
<g id="guides">
</g>
</svg>
