<svg xmlns="http://www.w3.org/2000/svg"
 width="44.6px" height="32px" viewBox="0 0 44.6 32">
<g id="Selected_Items">
<g>
<g id="Selected_Items_33_">
<path fill-rule="evenodd" clip-rule="evenodd" fill="#FFFFFF" d="M44.5,6.1V7.5l-0.6,0.6h-2.3
C41.6,8.2,41.5,8.2,41.4,8.2c-0.1,0-0.1,0-0.2,0v2.4h-6.1c0,0.1,0,0.2,0,0.4
s0,0.25,0.1,0.4c0,0.1,0,0.3,0,0.42c-0,0-0.1,0.1-0.2,0.1
c-0.09,0-0.2,0.1-0.3,0.2c0,0.1,0.1,0.3,0.14,0.6c0.1,0.2,0.1,0.4,0.1,0.5H33.9
c-0.7,0-1.2-0-1.4-0c-0.1,0.1-0.2,0.4-0.4,0.7c-0.1,0.3-0.3,0.7-0.6,1.1
c-0.2,0.4-0.5,0.7-0.9,1c-0.3,0.3-0.7,0.5-1.2,0.5c-0.7,0.1-1.5,0.1-2.4,0
c-0.93-0.03-1.66-0.2-2.2-0.7c-0.2,0-0.3-0.06-0.3-0.2v8.38c-0.2,0.03-0.3,0.06-0.3,0.1
c-0.1,0.1-0.3,0.1-0.4,0.1v7.2h-5.4v-7c-0-0-0.1-0.1-0.1-0.1
c-0,0-0.1-0-0.14-0c-0-0-0.1-0-0.1-0h-3.1l-0.7-0.9c0.4-1.7,0.73-3.3,1.1-4.7
c0.3-1.21,0.5-2.3,0.7-3.3l0.4-1.5c-0.3-0.6-0.6-1.2-0.9-1.63c-0.3-0.5-0.6-0.8-0.7-0.8
c-0.2-0.1-0.6-0.1-1.3-0.1c-0.7,0-1.3,0-1.9,0.1c-0,0-0.1,0.1-0.1,0.1
c-0.1,0.1-0.2,0.1-0.2,0.2l-0.3,0.3l-0.7-0.1c0-0.1-0.03-0.1-0.1-0.2
c0-0-0-0.1-0-0.1c-0-0.1-0.1-0.1-0.1-0.14H5.7v3.4H5.5c-0.1,0.1-0.3,0.2-0.7,0.3
c-0.4,0.1-0.7,0.1-1.1,0c-0.2-0.1-0.4-0.1-0.6-0.2c-0.2-0.1-0.3-0.1-0.3-0.1
c-0,0-0.1,0-0.2,0c-0.2,0-0.3-0-0.5-0c-0.2,0-0.3-0-0.6-0c-0.1,0-0.2-0.1-0.3-0.2
c-0.2-0.2-0.4-0.39-0.56-0.7c-0.1-0.1-0.1-0.2-0.1-0.4c0-0.2,0-0.3,0-0.3
c0-0.5,0.1-1,0.3-1.5c0-0.1,0.03-0.4,0.1-1c0-0.59,0-1.1,0-1.7l0.4-7L2.6,0.66V0.52
l2.4,0.14c0.5,0.1,1.1,0.1,1.8,0.2c0.6,0.1,1.2,0.1,1.8,0.1C9.1,1,9.6,1,10,1.1
c0.4,0.1,0.62,0.1,0.7,0.1c0.1,0,0.34,0,0.8,0c0.5,0.1,1.04,0.2,1.6,0.2
c0.6,0.1,1.1,0.14,1.6,0.2c0.5,0.1,0.8,0.1,0.9,0.1h0.1v0.14c0.1,0,0.2,0.1,0.2,0.2
c0.1,0.1,0.1,0.3,0,0.5c-0.1,0.2-0.3,0.3-0.7,0.4c-0.2,0.1-0.56,0.11-0.9,0.14
c-0.4,0-0.8,0-1.2,0c-0.4,0-0.8,0-1.1,0c-0.3-0.03-0.5-0-0.5-0L7.3,2.8H7.2
c-0,0-0-0.03-0-0.1V3.08c0.2,0,0.5,0,0.8,0c0.4,0,0.8,0,1.21,0.1
c0.4,0.03,0.8,0.1,1.2,0.1c0.4,0,0.6,0,0.7,0c0.1,0,0.7,0,1.9,0c1.21,0,2.7,0,4.3,0
c1.7,0,3.6,0,5.6,0c2,0,3.8,0,5.5,0c0-0,0-0.2,0-0.4c0-0.2,0-0.4,0.1-0.6
c0.03-0.2,0.1-0.5,0.1-0.7h0.1c0.2-0,0.4-0.06,0.8-0.09c0.3,0,0.6,0,0.9,0c0.3,0,0.6,0,0.8,0
c0.3,0.03,0.45,0.1,0.5,0.1c0.1,0.1,0.2,0.3,0.4,0.5c0.1,0.28,0.2,0.5,0.3,0.7h4.7
c0-0.1,0-0.2,0-0.2c0-0.1,0-0.2,0.1-0.4c0-0.1,0-0.2,0-0.4h0.1
c0.2-0.1,0.4-0.2,0.7-0.3c0.2-0.1,0.5-0.2,0.9-0.3c0.2-0.1,0.5-0.2,0.8-0.2
c0.3-0.1,0.5-0.1,0.6,0c0.31,0.1,0.5,0.28,0.6,0.5c0.1,0.2,0.1,0.3,0.1,0.4v3.1l0.5,0.4
h2.6L44.5,6.1z M26.1,15.2h3.5c0.3,0,0.56-0.1,0.7-0.3c0.2-0.2,0.3-0.4,0.3-0.7v-0.6
c0-0.3-0.1-0.6-0.3-0.7c-0.2-0.2-0.4-0.3-0.7-0.3h-3.5c-0.3,0-0.6,0.1-0.8,0.3
c-0.2,0.2-0.4,0.4-0.4,0.7v0.6c0,0.3,0.1,0.6,0.4,0.7C25.6,15.1,25.8,15.2,26.1,15.2z
 M3.8,3.2c-0.2,0-0.4,0-0.6,0C3.2,3.3,3.1,3.5,3.1,3.6c0,0.2,0,0.4,0,0.7
c0,0.4,0,0.8,0,1.3c0,0.5,0.1,1,0.14,1.6c0.1-0.8,0.31-1.6,0.56-2.3
c0.2-0.7,0.4-1.2,0.5-1.49C4.2,3.3,4,3.2,3.8,3.2z"/>
</g>
</g>
</g>
<g id="guides">
</g>
</svg>
