<svg xmlns="http://www.w3.org/2000/svg" width="67.5px"
 height="32px" viewBox="0 0 67.5 32">
<g id="Selected_Items">
<g>
<g id="Selected_Items_34_">
<path fill-rule="evenodd" clip-rule="evenodd" fill="#FFFFFF" d="M2.1,4.1c0,0,0.1,0,0.1,0V4h0
c0,0,0.1,0,0.1,0c5,0,10,0,14.96,0c0.3-0,0.7-0,1-0c0-0,0.1-0.1,0.1-0.1
c0.1,0,0.1,0,0.1,0c0,0,0.1,0,0.1,0c0.1,0,0.1,0,0.2,0c0,0,0.1,0.1,0.1,0.1
c11.8,0,23.7,0,35.51,0c0.1,0,0.09,0,0.1,0c0.1,0,0.1,0,0.1,0c0.05,0,0.1,0,0.2,0
c0,0,0.1,0.1,0.1,0.1c0,0,0.1,0.1,0.1,0.1c0,0,0.04,0.1,0.04,0.1
c0,0,0,0.05,0,0.1c0,0,0,0,0,0c0.1,0,0.3,0,0.4,0c0,0,0,0.1,0,0.1
c0,0,0,0.1,0,0.1c0,0,0,0.1,0,0.1c0,0,0,0.1,0,0.1c0,0,0,0.1,0,0.1c0,0,0,0.1,0,0.1
c0,0,0,0.1,0,0.1v0c0,0,0,0.1,0,0.1s0,0.1,0,0.1s0,0.1,0,0.1c0,0,0,0.1,0,0.1v0.04
l0,0c0,0,0,0.1,0,0.1c0,0,0,0.1,0,0.1c-0,0-0,0.1-0,0.1v0
c0,0,0,0.1,0,0.1c0,0,0,0.1,0,0.1c0,0,0,0.1,0,0.1v0.1c-0.1,0-0.1,0-0.2,0
c0,0,0,0.1,0,0.1c0,0,0.1,0,0.1,0c0.1,0,0.1,0,0.2,0l0,0.04
c0-0,0.1-0.1,0.1-0.1c0,0,0.1,0,0.1,0c0.2,0,0.3,0,0.5,0c0,0,0.1,0,0.1,0V6.1
c0.1,0,0.1,0,0.2,0c0,0,0.1,0.1,0.1,0.1c0,0,0,0.1,0,0.1
c0,0,0,0.1,0,0.1V6.36c0,0,0,0.1,0,0.1c0,0,0,0.1,0,0.1c0,0,0,0.1,0,0.1
c0,0,0,0.1,0,0.1c0,0,0,0.1,0,0.1c0,0,0,0.1,0,0.1s0,0.1,0,0.1V6.94c0,0,0,0.1,0,0.1
c3.3,0,6.6,0,9.91,0c0.05,0,0.1,0,0.2,0.04c0,0,0.1,0.05,0.1,0.1c0,0,0.1,0,0.1,0
c0,0,0.1,0.1,0.1,0.1c0,0,0,0.1,0,0.1c0,0,0,0.1,0,0.1c0,0,0,0.1,0,0.1
v0c0,0,0,0.1,0,0.1c0,0,0,0.1,0,0.1c0,0,0,0.1,0,0.1c0,0,0,0.1,0,0.1s0,0.1,0,0.1
c0,0,0,0.1,0,0.1c0,0,0,0.1,0,0.1v0c0,0,0,0.1,0,0.1s0,0.1,0,0.1s0,0.1,0,0.1
c0,0,0,0.1,0,0.1c0,0,0,0.1,0,0.1c0,0,0,0.1,0,0.1c0,0,0,0.05,0,0.1v0
c0,0,0,0.1,0,0.1s0,0.1,0,0.1c0,0,0,0.1,0,0.1c0,0,0,0.05,0,0.1c0,0,0,0.1,0,0.1
c-0,0-0,0.1-0,0.1c0,0,0,0.1,0,0.1v0c-0,0-0.1,0.1-0.1,0.1
c0,0,0,0.1,0,0.1v0c-0,0-0.1,0.1-0.1,0.1c0,0,0,0.1,0,0.1L66.74,9.6
c-0,0-0.1,0-0.1,0c-0,0-0.1,0-0.1,0c-1.6,0-3.2,0-4.8,0c0,0,0,0.1,0,0.1
v0c0,0,0,0.1,0,0.1c0,0,0,0.1,0,0.1s0,0.05,0,0.1v0.1h-0v0.04c-0,0-0.1,0-0.1,0
c0,0,0,0.05,0,0.1c-0,0-0.1,0.05-0.1,0.1h-0c-0,0-0.1,0-0.1,0
c-0.1-0-0.1-0-0.2-0c-0,0-0.1,0-0.1,0c-1.4,0-2.8,0-4.2,0
c-0,0-0.1,0-0.1,0c-0,0-0.1,0-0.1,0c-0,0-0.1,0-0.1,0
c-0,0-0.1,0.1-0.1,0.1l0,0c0,0,0,0.1,0,0.1c0,0,0,0.1,0,0.1
c-0,0-0.1,0-0.1,0c0,0,0,0.1,0,0.1c-0,0-0,0.1-0,0.1c-0,0-0.1,0-0.1,0
c-0,0-0.1,0-0.1,0c-0,0-0.1,0-0.1,0c-0,0-0.1,0-0.1,0c-0.1,0-0.1,0-0.2,0v0.1
c-0.5,0-0.9,0-1.35,0v0c0,0,0,0.1,0,0.1c0,0,0,0.05,0,0.1s0,0.1,0,0.1c0,0,0,0.1,0,0.1
c0,0,0,0.1,0,0.1v0.04c0,0,0,0.05,0,0.1c0,0,0,0.05,0,0.1c0,0,0,0.1,0,0.1v0.1
c-0.1,0-0.2,0-0.3,0v0c0,0-0,0.1-0.04,0.1c0,0-0,0.05-0,0.1
c0,0-0,0-0,0c0,0-0,0.1-0.04,0.1c0,0,0,0.1,0,0.1c-0,0-0.1,0.1-0.1,0.1
c0,0,0,0.1,0,0.1c-0,0-0.05,0.1-0.1,0.1c0,0,0,0.1,0,0.1c-0,0-0,0.1-0,0.1
l-0,0c-0,0-0,0.1-0,0.1c-0,0-0,0.1-0,0.1c-0,0-0,0.1-0,0.1
c-0,0-0.1,0.1-0.1,0.1c0,0-0,0.1-0.04,0.1v0c0,0-0,0.1-0,0.1
c-0,0-0,0-0,0.04c-0,0-0,0-0,0c-0,0-0,0.1-0,0.1
c-0,0-0,0-0,0.1c0,0-0,0-0,0c-0,0-0.1,0.1-0.1,0.1
s-0,0.1-0,0.1c-0,0-0.1,0.1-0.1,0.1c-0,0-0.1,0.1-0.1,0.1l-0.1,0.1
c-0.03,0-0.1,0-0.1,0.02c-0,0-0,0-0,0.1c-0,0-0.1,0.1-0.1,0.1H52.86
c-0,0.01-0.04,0-0.1,0l-0,0.02c-0,0-0,0.1-0,0.1c0,0-0,0.1-0.04,0.1
c0,0-0,0-0,0c-0,0-0.1,0.1-0.1,0.1c-0.1,0-0.2,0.1-0.2,0.1
c-0.1,0-0.1,0.05-0.2,0.1v0l-0,0.04c-0.2,0-0.3,0-0.5,0c0,0-0,0-0,0
c-0.1,0-0.1,0-0.2,0c-0.5,0-1,0-1.5,0c-0.1-0-0.1-0-0.2-0
c-0-0-0.04-0.1-0.04-0.1c-0,0-0.05,0-0.1,0c-0.1,0-0.2,0-0.31,0c-0-0-0.1-0-0.1-0
l-0-0c-0,0-0.1,0-0.1,0c-0.1-0-0.1-0-0.2-0c-0-0-0.1-0.1-0.1-0.1
c0-0-0-0.1-0-0.1h-0c-0.1-0-0.1-0-0.2-0c-0-0-0.1-0.1-0.1-0.1
c0-0-0-0.1-0-0.1c-0-0-0.1-0.1-0.1-0.1v-0c-1.4,0-2.8,0-4.2,0
c-0,0-0,0-0,0.04h-0.04c-0.1,0-0.1,0-0.2,0c-0.2,0-0.3,0-0.5,0l-0.04,0
c-0.05,0-0.09,0-0.1,0c-0.1,0-0.1,0-0.2,0c-0,0-0,0.1-0,0.1
c-0.1,0-0.1,0.1-0.2,0.1c-0,0-0.1,0.1-0.1,0.1c-0,0-0.1,0-0.1,0
c0,0-0,0.1-0,0.1c0,0-0,0.1-0,0.1h-0c-0.1,0-0.1,0-0.2,0
c-0,0-0.1,0.1-0.1,0.1c-0,0-0.1,0.1-0.1,0.1c-0,0-0.05,0.05-0.1,0.1
c0,0,0,0.1,0,0.1c-0,0-0,0.1-0,0.1c-0.1,0-0.1,0.1-0.2,0.1
c-0,0-0.1,0.1-0.1,0.1c-0,0-0.1,0.04-0.1,0.04c0,0-0,0.05-0.04,0.1
c-0,0-0.05,0.1-0.1,0.1c0,0,0,0.1,0,0.1c-0,0-0.1,0.1-0.1,0.1
c-0,0-0,0.1-0,0.1c-0,0-0.1,0.1-0.1,0.1c0,0-0,0.1-0,0.1v0
c-0,0-0.04,0.1-0.04,0.1c-0,0-0,0.1-0,0.1c-0,0-0.1,0.1-0.1,0.1
c0,0,0,0.1,0,0.1c-0,0-0,0.1-0,0.1c0,0-0,0.05-0.04,0.1c0,0-0,0.1-0,0.1
c0,0-0,0-0,0c-0,0-0,0.1-0,0.1c-0,0-0,0.1-0,0.1
c0,0-0,0.05-0,0.1c0,0,0,0.1,0,0.1c-0,0-0,0.1-0,0.1
c-0.1,0-0.09,0.1-0.1,0.1c-0,0-0,0.1-0,0.1c-0,0-0.1,0-0.1,0
c0,0-0,0.1-0.04,0.1c-0,0-0.1,0.1-0.1,0.1c0,0-0,0-0,0l-0,0.04
c-0.1,0-0.09,0-0.1,0c-0.05,0-0.1,0-0.2,0l-0,0c-0.1,0-0.1,0-0.2,0
c-0.1,0-0.2,0-0.3,0l-0,0c-0.1,0-0.09,0-0.1,0c-0.1,0-0.2,0-0.3,0
c-0-0-0.1-0-0.1-0l-0-0c-0,0-0.05,0-0.1,0c-0.1-0-0.1-0-0.2-0
c0-0-0-0.1-0.04-0.1c-0,0-0.1,0-0.1,0c-0.1-0-0.1-0.1-0.2-0.1
c-0,0-0.1-0-0.1-0c-0-0-0-0-0.1-0.1c-0.1-0.01-0.2-0-0.3-0.02
c-0-0-0.1-0.1-0.1-0.1c-0,0-0-0-0-0c-0-0-0-0.1-0-0.1
c0-0-0-0.1-0-0.1c-0-0-0.1-0.1-0.1-0.1c0-0,0-0.1,0-0.1
c-0-0-0-0.1-0-0.1c0-0-0-0.1-0-0.1c0-0,0-0.1,0-0.1v-0c0-0,0-0.1,0-0.1
c0-0-0-0.1-0-0.1c-0-0-0.1-0.1-0.1-0.1c0-0,0-0.05,0-0.1c0-0,0-0.1,0-0.1
c0-0,0-0.1,0-0.1s0-0.1,0-0.1v-0.1c-0-0-0-0.1-0-0.1c0-0,0-0.1,0-0.1s0-0.1,0-0.1
c0-0,0-0.1,0-0.1v-0.04c0-0,0-0,0-0.1c0-0,0-0.1,0-0.1c0-0,0-0.1,0-0.1
c0-0,0-0.1,0-0.1c0-0,0-0.1,0-0.1c0-0-0-0.1-0.04-0.1c0-0,0-0.1,0-0.1
c-0,0-0-0-0-0c0-0,0-0.1,0-0.1c-2,0-3.9,0-5.9,0c0,0-0,0-0,0
c-0.1,0-0.1,0-0.2,0c-0,0-0.1,0-0.1,0c-0,0-0.05,0-0.1,0c0,0,0,0.1,0,0.1
s-0,0.1-0,0.1c0,0,0,0.1,0,0.1c-0,0-0.1,0.1-0.1,0.1c-0,0-0,0-0,0
l-0,0v0l-0.1,0.1c-0,0-0.04,0.1-0.04,0.1c-0.1,0-0.1,0.04-0.1,0.04
c0,0-0,0.1-0,0.1c0,0-0,0.1-0,0.1c0,0,0,0.1,0,0.1
c-0,0-0.1,0.1-0.1,0.1c-0,0-0.1,0.1-0.1,0.1c0,0-0,0.1-0,0.1
c-0,0-0.1,0.1-0.1,0.1c-0,0-0.1,0-0.1,0c-0,0-0,0.1-0,0.1
c-0,0-0.1,0.05-0.1,0.1c-0,0-0.1,0.05-0.1,0.1c0,0,0,0.1,0,0.1
c-0,0-0.1,0.1-0.1,0.1c-0,0-0.1,0.1-0.1,0.1c-0,0-0,0.1-0,0.1
c-0.05,0-0.1,0-0.1,0c0,0-0,0.05-0,0.1c-0,0-0.1,0.1-0.1,0.1
c-0,0-0.1,0.1-0.1,0.1c-0,0-0.05,0.1-0.1,0.1c-0,0-0.1,0.1-0.1,0.1
c-0,0-0.1,0.1-0.1,0.1c-0.1,0-0.09,0.1-0.1,0.1c-0,0-0.1,0-0.1,0
c0,0-0,0.1-0,0.1c-0,0-0.04,0.1-0.04,0.1h-0c-0.1,0-0.1,0-0.2,0
c-0,0-0,0.1-0,0.1c-0,0-0,0.1-0,0.1l-0.04,0c-0,0-0.1,0-0.1,0
c-0,0-0.1,0-0.1,0.04c-0.05-0-0.1-0.04-0.1-0.04c-0,0-0,0-0,0.04
c-0,0-0,0.1-0,0.1c-0,0-0.1,0-0.1,0c-0,0-0.1,0-0.1,0c-1.7,0-3.4,0-5.1,0
c-0,0-0.1,0-0.1,0c-0,0-0.05,0-0.1,0c-0.1-0-0.1-0-0.2-0c-0-0-0.1-0.1-0.1-0.1
c0-0-0-0.1-0-0.1c0-0,0-0.1,0-0.1c0-0,0-0.1,0-0.1l0-0c-0,0-0.09,0-0.1,0
c0,0,0,0.1,0,0.1c-0,0-0,0-0,0.04c0,0,0,0.05,0,0.1c-0,0-0,0-0,0
c0,0-0,0.1-0,0.1v0c-0,0-0,0.1-0,0.1c-0,0-0.1,0-0.1,0
c0,0,0,0.05,0,0.1v0c0,0,0,0.05,0,0.1c-0,0-0.1,0-0.1,0c0,0,0,0.1,0,0.1v0.04
c0,0,0,0.1,0,0.1v0.04c0,0-0,0.1-0,0.1v0c-0,0-0,0.05-0,0.1v0
c-0,0-0.04,0.1-0.04,0.1c-0,0-0,0-0,0c-0,0-0,0.1-0,0.1
c-0,0-0,0-0,0c0,0,0,0.05,0,0.1v0.04c0,0,0,0.05,0,0.1c-0,0-0.1,0-0.1,0
c-0,0-0,0.1-0,0.1c-0,0-0.04,0-0.04,0c0,0,0,0.1,0,0.1V19.2
c-0,0-0,0.1-0,0.1c-0,0-0.1,0-0.1,0.04c0,0-0,0.05-0,0.1v0
c0,0,0,0.1,0,0.1c-0,0-0,0-0,0c0,0,0,0.1,0,0.1c-0,0-0,0-0,0
c0,0-0,0.1-0,0.1v0c-0,0-0,0.1-0,0.1c-0,0-0.05,0-0.1,0
c0,0,0,0.1,0,0.1c-0,0-0,0-0,0c0,0,0,0.1,0,0.1c-0,0-0,0-0,0.04
c-0,0-0.04,0-0.04,0.1c-0,0-0,0-0,0c0,0,0,0.1,0,0.1v0
c-0,0-0,0.1-0,0.1c-0,0-0.1,0-0.1,0c0,0-0,0.1-0,0.1v0
c-0,0-0,0.05-0,0.1c-0,0-0,0-0,0c0,0,0,0.1,0,0.1
c-0,0-0,0-0,0c0,0-0,0.05-0,0.1c-0,0-0,0.1-0,0.1
c-0,0-0,0-0,0c-0,0-0.04,0.1-0.04,0.1c-0,0-0,0-0,0.04
c-0,0-0,0.05-0,0.1c-0,0-0.1,0-0.1,0c-0,0-0,0.1-0,0.1
c-0,0-0,0-0,0c0,0,0,0.1,0,0.1c-0,0-0,0-0,0c0,0-0,0.1-0,0.1
l-0,0c0,0-0,0.1-0,0.1v0.04c-0,0-0,0.1-0,0.1c-0,0-0,0-0,0
v0l-0,0.1c-0,0-0,0-0,0v0.1h-0l-0.02,0c0,0,0,0.1,0,0.1
c-0,0-0,0-0,0.02c-0,0-0,0-0,0v0.1l-0,0.04l-0.04,0.1
c-0,0-0.1,0-0.1,0.04c-0,0-0,0.05-0,0.1c-0,0-0.1,0-0.1,0
c-0,0-0,0.1-0,0.1c-0,0-0.1,0-0.1,0v0.1c0,0,0.09,0,0.1,0
c0,0,0.1,0,0.1,0c0,0,0,0.1,0,0.1c-0,0-0.1,0-0.1,0c0,0,0,0.1,0,0.1
l-0,0.04c0,0-0,0.1-0,0.1v0.04c0,0,0,0.1,0,0.1v0.04c0,0,0,0.1,0,0.1
c-0,0-0.1,0-0.1,0c0,0,0,0.1,0,0.1l-0,0c0,0-0,0.1-0,0.1v0
c0,0,0,0.1,0,0.1v0c0,0,0,0.1,0,0.1v0c0,0,0,0.1,0,0.1v0.1c0,0-0,0-0,0
c-0,0-0,0-0.1,0.04c-0,0-0.04,0.1-0.04,0.1c-0,0-0,0-0,0s0,0.1,0,0.1
v0.2c-0,0-0.1,0-0.1,0c0,0,0,0.1,0,0.1l-0,0c0,0-0,0.1-0,0.1v0
c-0,0-0,0.05-0,0.1c-0,0-0,0-0,0v0c-0.1,0-0.09,0-0.1,0
c-0,0-0.1,0-0.1,0.04c-0,0-0.1,0-0.1,0c-0,0-0.1,0-0.1,0c-0.02,0-0,0-0.1,0
c-0,0.01-0.1,0-0.1,0c-0,0-0,0-0,0c-0,0-0,0.1-0,0.1
c-0,0-0.1,0-0.1,0c0,0-0,0.1-0,0.1v0c0,0,0,0.1,0,0.1
c-0,0-0.1,0-0.1,0c-0,0-0.1,0.1-0.1,0.1v0c-0,0-0,0.1-0,0.1
c-0,0-0,0-0,0c0,0,0,0.1,0,0.1v0.04c0,0,0,0.05,0,0.1v0.04c0,0,0,0.1,0,0.1
c-0,0-0.05,0-0.1,0c0,0,0,0.1,0,0.1v0c0,0,0,0.05,0,0.1v0c0,0,0,0.1,0,0.1
l-0,0c0,0-0,0.1-0.04,0.1v0c0,0,0,0.1,0,0.1v0c-0,0-0,0.1-0,0.1
c0.1,0,0.1,0,0.1,0.1c0,0,0.1,0,0.1,0c0,0,0,0.1,0,0.1s0,0.1,0,0.1
c-0,0-0.05,0.1-0.1,0.1c-0,0-0.1,0.04-0.1,0.04c-0.05,0-0.1,0-0.2,0
c-0,0-0.04,0.1-0.04,0.1c-0,0-0.1,0-0.1,0c0,0-0,0.1-0,0.1l-0,0
c0,0-0,0.1-0,0.1l-0,0c0,0-0,0.1-0.04,0.1v0c-0,0-0,0.1-0,0.1
c-0,0-0,0-0,0h-0c-0.1,0-0.2,0-0.31,0v0.1c0,0,0,0.1,0,0.1v0c0,0,0,0.1,0,0.1
c0,0,0.1,0.1,0.1,0.1l0,0.04v0c0,0,0,0.1,0,0.1s0,0.1,0,0.1
c-0,0-0,0.1-0,0.1c-0,0-0,0-0,0v0.02c-0,0-0,0-0,0.1h-0
c-0.05,0-0.1,0-0.2,0c-2.5,0-5,0-7.4,0c-0,0-0.1,0-0.1,0
c-0,0-0.1,0-0.1,0c-0.1-0-0.1-0-0.2-0c-0.1-0-0.1-0-0.2-0
c-0,0-0.1,0-0.1,0s-0.1,0-0.1,0c-0.1-0-0.1-0-0.2-0c-0-0-0.1-0.1-0.1-0.1
c-0-0-0.1-0.1-0.1-0.1c-0-0-0.05-0.1-0.1-0.1c-0-0-0.1-0.1-0.1-0.1
c0-0-0-0.1-0-0.1c-0-0-0.05-0.1-0.1-0.1c-0-0-0.1-0-0.1-0
c-0-0-0.1-0.1-0.1-0.1c-0-0-0.1-0.1-0.1-0.1c-0-0-0-0.1-0-0.1
s0-0.1,0-0.1c0-0,0-0.1,0-0.1c0-0,0-0.05,0-0.1c0-0,0-0.1,0-0.1v-0.04
c0-0,0.05-0.1,0.1-0.1c0-0,0.1-0.1,0.1-0.1c0.1,0,0.09,0,0.1,0c0,0,0.1,0,0.1,0
c0.1,0,0.1,0,0.2,0c0,0,0.05,0.1,0.1,0.1c0,0,0,0.1,0,0.1v-0.1
c0-0,0-0.1,0-0.1v-0.1c-0-0-0.1-0.1-0.1-0.1c0-0-0-0.1-0-0.1
c0-0-0-0-0-0v-0.1c0-0,0-0.1,0-0.1l0.1-0.1h0c0-0,0-0.05,0-0.1v-0
c0-0,0-0.1,0-0.1c0-0,0-0,0-0c0-0,0-0.1,0-0.1c0-0.01,0-0,0.04-0
c0-0,0-0.02,0-0.02c0-0,0.1-0.05,0.1-0.1c0-0,0.05-0,0.1-0
c0-0,0-0.05,0-0.1c0-0,0.1-0,0.1-0c0-0,0-0.1,0-0.1l0-0.04
c0-0,0-0.1,0-0.1c0-0,0.1-0,0.1-0c0-0,0-0.1,0-0.1c0-0,0-0,0-0
c0-0,0-0.1,0-0.1v-0.04c0-0,0-0.1,0-0.1v-0.04c0-0,0-0.1,0-0.1
c0-0,0.1-0,0.1-0c0-0,0-0.1,0-0.1s0-0.04,0-0.04c0-0,0-0,0-0.1
c0-0,0.1-0,0.1-0c0-0,0-0.1,0-0.1v-0c0-0,0-0.1,0-0.1
c0-0,0.05-0,0.1-0c0-0,0-0.1,0-0.1c0-0,0-0,0-0c0-0,0-0.1,0-0.1
s0-0,0-0c0-0,0-0.1,0-0.1v-0c0-0,0-0.1,0-0.1v-0
c0-0,0-0.1,0-0.1c0-0,0.1-0,0.1-0c0-0,0-0.1,0-0.1v-0
c0-0,0-0.1,0-0.1c0-0,0-0,0-0c0-0,0-0.1,0-0.1c0-0,0.05-0,0.1-0
c0-0,0-0.1,0-0.1l0-0c0-0,0-0.1,0-0.1v-0c0-0,0-0.1,0-0.1
s0-0,0-0c0-0,0-0.1,0-0.1V23.48c0-0,0-0.05,0-0.1l0-0
c0-0,0-0.05,0-0.1c0-0,0-0,0-0c0-0,0-0.1,0-0.1c0-0,0-0,0-0
c0-0,0-0.1,0.04-0.1v-0c0-0,0-0.1,0-0.1c0-0,0.1-0,0.1-0
c0-0,0-0.1,0-0.1c0-0,0-0,0-0c0-0,0-0.1,0-0.1c0-0,0-0.04,0.04-0.04
c0-0,0-0.1,0-0.1v-0c0-0,0-0.1,0-0.1l0.04-0c0-0,0-0.1,0-0.1
c0-0,0.1-0,0.1-0c0-0,0-0.1,0-0.1v-0c0-0,0-0.1,0-0.1v-0
c0-0,0.04-0.05,0.04-0.1l0-0c0-0,0-0.1,0-0.1c0.1-0,0.09-0,0.1-0
c0-0,0-0.1,0-0.1s0-0,0.04-0c0-0,0-0.1,0-0.1v-0c0-0,0-0.1,0-0.1
c0-0,0-0,0-0c0-0,0-0.1,0-0.1v-0c0-0,0-0.1,0-0.1v-0.04
c0-0,0.04-0.1,0.04-0.1v-0.04c0-0,0-0.05,0-0.1l0-0c0-0,0-0.1,0-0.1
c0-0,0-0.04,0-0.04c0-0,0-0.1,0-0.1l0-0.04v-0.1c0,0,0.1-0,0.1-0v-0
c0-0,0-0.1,0-0.1v-0c0-0,0-0.1,0-0.1v-0l0.02-0l0.02-0.04v-0l0-0
c0-0,0-0.1,0-0.1l0-0c0-0,0-0.1,0-0.1v-0.04c0-0,0-0.1,0-0.1
c0-0,0.1-0,0.1-0c0-0,0-0.1,0-0.1v-0c0-0,0-0.05,0-0.1l0-0
c0-0,0.04-0.1,0.04-0.1c0-0,0-0,0-0c0-0,0-0.1,0-0.1c0-0,0-0,0-0
c0-0,0-0.1,0-0.1c0-0,0-0,0-0c0-0,0-0.1,0-0.1v-0.04h0.02
c0-0,0.1-0,0.1-0V19.2c0-0,0-0.1,0-0.1l0-0
c0-0,0-0.1,0-0.1l0.04-0c0-0,0-0.05,0-0.1v-0c0-0,0-0.1,0-0.1v-0
c0-0,0-0,0-0.1v-0.1c0-0,0-0.1,0-0.1v-0c0-0,0-0.1,0-0.1v-0c0-0,0-0.1,0-0.1v-0
c0-0,0-0.1,0-0.1V18.16c0-0,0-0.1,0-0.1v-0.04c0-0,0-0.1,0-0.1v-0c0-0,0-0.1,0-0.1v-0
c0-0,0-0.1,0-0.1c0-0,0.1-0,0.1-0c0-0,0-0.1,0-0.1c0-0,0-0.04,0-0.04
c0-0,0-0.05,0-0.1l0-0c0-0,0.04-0.1,0.04-0.1l0-0c0-0,0-0.1,0-0.1
c0-0,0-0,0.04-0c0-0,0-0.1,0-0.1v-0c0-0,0-0.1,0-0.1v-0
c0-0,0-0.1,0-0.1v-0c0-0,0-0.1,0-0.1c0-0,0-0,0-0
c0-0,0-0.1,0-0.1c0-0,0-0.04,0-0.04c0-0,0-0.05,0-0.1
c0-0,0.1-0,0.1-0c0-0,0-0.1,0-0.1v-0c0-0,0-0.1,0-0.1
c0-0,0-0,0-0c0-0,0-0.1,0-0.1v-0c0-0,0-0.1,0-0.1v-0
c0-0,0-0.1,0-0.1c0-0,0-0,0.04-0c0-0,0-0.1,0-0.1
c0-0,0-0,0-0c0-0,0-0.1,0-0.1c0-0,0-0.04,0-0.04
c0-0,0-0.1,0-0.1l0.04-0c0-0,0-0.1,0-0.1l0-0
c0-0,0-0.1,0-0.1c-0-0-0.1-0.04-0.1-0.04c-0-0-0-0-0-0.1
c-0.1,0-0.1,0-0.2,0c-0-0-0.1-0-0.1-0c-0,0-0-0-0-0c-0.1,0-0.2,0-0.3,0
c-0.1-0-0.1-0.04-0.2-0.04c-0-0-0-0.05-0-0.1c-0.18,0-0.3,0-0.5,0
c-0-0-0.1-0-0.1-0c-0,0-0-0-0-0.04c-0.1,0-0.27,0-0.4,0
c-0.1-0-0.1-0-0.2-0c-0-0-0-0.1-0-0.1c-0.1,0-0.3,0-0.4,0
c-0-0-0.1-0.04-0.1-0.04c-0,0-0.04-0-0.04-0c-0.1,0-0.2,0-0.3,0
c-0.1-0-0.1-0-0.2-0c-0-0-0.04-0.1-0.04-0.1c-0.1,0-0.2,0-0.3,0
c-0-0-0.1-0.04-0.1-0.04c-0,0-0-0-0-0c-0.2,0-0.3,0-0.5,0
c-0.1-0-0.1-0-0.2-0c-0-0-0-0.1-0-0.1c-0.1,0-0.3,0-0.4,0
c-0-0-0.1-0-0.1-0l-0.04-0c-0.1,0-0.2,0-0.2,0c-0.1-0-0.1-0-0.2-0
c-0-0-0-0.1-0-0.1c-0.1,0-0.1,0-0.2,0c-0-0-0.1-0-0.1-0l-0-0
c-0.1,0-0.2,0-0.2,0c-0.1-0-0.1-0-0.2-0c-0-0-0.04-0.1-0.04-0.1c-0.1,0-0.1,0-0.1,0
c-0-0-0.1-0-0.1-0c-0,0-0-0-0-0c-0,0-0.1,0-0.1,0
c-0.1-0-0.1-0-0.2-0c-0-0-0-0.1-0-0.1c-0.1,0-0.1,0-0.2,0
c-0-0-0.1-0-0.1-0L7.1,13.88c-0.1,0-0.1,0-0.2,0c-0.05-0-0.1-0-0.2-0
c-0-0-0-0.1-0-0.1c-0,0-0.1,0-0.1,0c-0-0-0.1-0-0.1-0l-0-0
c-0.05,0-0.1,0-0.2,0c-0.05-0-0.1-0-0.2-0c-0-0-0-0.1-0-0.1c-0,0-0.05,0-0.1,0
c-0-0-0.1-0.04-0.1-0.04l-0-0c-0.1,0-0.1,0-0.2,0c-0.1-0-0.1-0-0.2-0
c-0-0-0.1-0.1-0.1-0.1c-0-0-0.1-0.1-0.1-0.1H5.4c-0.1-0-0.1-0-0.2-0
c-0-0-0.1-0.1-0.1-0.1c-0-0-0.1-0.1-0.1-0.1H5c-0.1-0-0.1-0.04-0.2-0.04
c-0-0-0.1-0.05-0.1-0.1c-0-0-0.1-0.05-0.1-0.1c-0,0-0.1,0-0.1,0
c-0.1-0-0.1-0.04-0.2-0.04c-0-0-0.05-0.1-0.1-0.1c-0-0-0.04-0.1-0.04-0.1H4.24
c-0.1-0-0.1-0-0.2-0c-0-0-0-0.1-0-0.1c-0,0-0.05,0-0.1,0
c-0.1-0-0.1-0.1-0.2-0.1c-0.1,0-0.1-0-0.1-0c-0-0-0.1-0.1-0.1-0.1
s-0-0.1-0-0.1c-0.1-0-0.09-0.1-0.1-0.1c-0-0-0.1-0.1-0.1-0.1
c-0-0-0.1-0.1-0.1-0.1c-0-0-0.1-0.1-0.1-0.1c-0.1-0-0.1-0.1-0.2-0.1
c-0.1,0-0.1-0-0.1-0c-0-0-0.1-0.1-0.1-0.1c-0-0-0-0.1-0-0.1
c-0.1-0-0.09-0.1-0.1-0.1c-0-0-0.1-0.05-0.1-0.1c0-0-0-0.05-0-0.1
c-0-0-0.1-0.1-0.1-0.1c-0.1-0-0.1-0.1-0.2-0.1c-0,0-0.1-0-0.1-0
c-0-0-0.1-0.1-0.1-0.1c-0-0-0.1-0.05-0.1-0.1c-0.1-0-0.1-0.1-0.1-0.1
c-0-0-0-0-0-0c-0.1,0-0.2,0-0.3,0c0-0,0-0.1,0-0.1s0-0.1,0-0.1
c-0-0-0.1-0.1-0.1-0.1c-0-0-0.1-0.1-0.1-0.1c-0-0-0.1-0.1-0.1-0.1
c-0-0-0.1-0.1-0.1-0.1c-0-0-0.05-0.1-0.1-0.1c-0-0-0.1-0.1-0.1-0.1l-0.04-0
c-0-0-0-0.1-0-0.1v-0.04c-0,0-0.1-0-0.1-0c-0-0-0.1-0-0.1-0
c-0-0-0-0.1-0-0.1s0-0.1,0-0.1C0.8,10,0.8,10,0.8,9.9
C0.7,9.9,0.7,9.9,0.7,9.9c0-0,0-0.05,0-0.1C0.7,9.8,0.6,9.7,0.6,9.7
c0-0-0-0.1-0-0.1c0-0-0-0-0-0C0.5,9.6,0.5,9.5,0.5,9.5s0-0.1,0-0.1
s0-0.1,0-0.1c0-0,0-0.05,0-0.1c0-0,0-0.1,0-0.1s0-0.1,0-0.1c0-0,0-0.1,0-0.1v-0.04
c0-0,0-0.1,0-0.1c0-0,0-0.05,0-0.1c0-0,0-0.1,0-0.1s0-0.1,0-0.1c0-0,0-0.1,0-0.1
c0-0,0-0.1,0-0.1c0-0,0-0.1,0-0.1v-0.04c0-0,0-0.1,0-0.1c0-0,0-0.1,0-0.1
c0-0,0-0.1,0-0.1S0.6,8.16,0.6,8.1c0-0,0-0.1,0-0.1c0-0,0-0.1,0-0.1
c0-0,0-0.1,0-0.1v-0.04c0-0,0-0.1,0-0.1c0-0,0-0.1,0-0.1s0-0.1,0-0.1s0-0.1,0-0.1
c0-0,0-0.05,0-0.1c0-0,0-0.1,0-0.1s0-0.1,0-0.1V7.3c0-0,0.05-0.1,0.1-0.1
c0-0,0.05-0.1,0.1-0.1c0-0,0-0.1,0-0.1c0-0,0-0.1,0-0.1
c0-0,0.1-0.1,0.1-0.1C1,6.9,1,6.85,1,6.8c0-0,0.04-0.1,0.04-0.1
c0-0,0.05-0,0.1-0c0-0,0-0.05,0-0.1c0-0,0-0.1,0-0.1
c0-0,0-0.1,0-0.1c0-0,0-0.1,0-0.1c0-0,0-0.1,0-0.1c0-0,0.05-0.1,0.1-0.1
c0-0,0-0.1,0-0.1V6.1c0-0,0-0.1,0-0.1s0-0.1,0-0.1c0-0,0-0.1,0-0.1s0-0.1,0-0.1
C1.4,5.8,1.4,5.77,1.4,5.7c0-0,0-0.05,0-0.1c0-0,0-0.1,0-0.1v-0.04c0-0,0-0.1,0-0.1
c0-0,0-0.1,0-0.1c0-0,0-0.1,0-0.1s0-0.05,0-0.1c0-0,0-0.1,0-0.1s0-0.1,0-0.1s0-0.1,0-0.1
V5C1.49,4.9,1.5,4.9,1.5,4.9c0-0,0-0.1,0-0.1c0-0,0-0.1,0-0.1c0-0,0-0.1,0-0.1
c0-0,0.04-0.1,0.04-0.1c0-0,0-0.1,0-0.1c0-0,0-0.1,0-0.1
c0-0,0.1-0,0.1-0C1.8,4.4,1.8,4.3,1.85,4.3c0-0,0-0.1,0-0.1
c0-0,0.1-0.1,0.1-0.1C2,4.1,2,4.1,2.1,4.1z M29,14.1
c-1.2,0-2.4,0-3.6,0v0c0,0,0,0.1,0,0.1c0,0,0,0.1,0,0.1c0,0,0,0.1,0,0.1
s0,0.1,0,0.1c0,0,0,0.1,0,0.1v0c0,0,0,0.1,0,0.1c0,0,0,0.1,0,0.1c0,0,0,0.05,0,0.1
c0,0,0,0.1,0,0.1c0,0,0,0.1,0,0.1c0,0,0.04,0.1,0.04,0.1
c0,0,0,0.1,0,0.1v0.04c0,0,0.1,0.05,0.1,0.1c0,0,0.1,0.1,0.1,0.1l0.1,0.1h0
l0,0v0c0,0,0,0,0,0l0,0.04v0.1c0.05,0,0.1,0.1,0.2,0.1
c0.5,0,0.9,0,1.4,0c0.1,0,0.1,0,0.2,0c0,0,0.1,0,0.1,0l0-0.04c0.1-0,0.09-0,0.1-0
c0-0,0-0.05,0-0.1h0c0,0,0.1-0,0.1-0.04c0.1,0,0.1-0,0.2-0
c0-0,0.1-0.1,0.1-0.1c0-0,0.1-0.1,0.1-0.1c0-0,0-0,0-0.1
c0-0,0.1-0.1,0.1-0.1v-0.04c0-0,0-0.05,0-0.1c0-0,0.1-0.1,0.1-0.1
c0-0,0.05-0.1,0.1-0.1c0-0,0-0.1,0-0.1c0-0,0.1-0.1,0.1-0.1
c0-0,0-0.1,0-0.1c0-0,0-0.1,0-0.1v-0c0-0,0-0.1,0-0.1
c0-0,0.1-0.1,0.1-0.1l0.1-0.1c0,0,0.1,0,0.1,0v-0c0-0-0-0.1-0-0.1
c0-0-0-0.1-0-0.1V14.1z M24.2,14.8c0-0,0-0.05,0-0.1c0,0-0,0.1-0,0.1
c-0,0-0.1,0.1-0.1,0.1c-0,0-0.1,0.1-0.1,0.1v0h-0v0.04l-0,0v0h-0v0
c-0,0-0,0-0.04,0.04v0h-0c-0,0-0.04,0.1-0.04,0.1c-0,0-0,0-0,0
c-0,0-0,0-0,0.04c0,0-0,0.1-0,0.1v0h-0c0,0-0,0-0.02,0v0.04
c-0,0-0,0.1-0,0.1c0,0,0,0.1,0,0.1c0.3,0,0.6,0,0.9,0c0-0,0-0.1,0-0.1
c0-0,0-0.05,0-0.1c-0,0-0.1-0-0.1-0.04c-0-0-0.1-0.1-0.1-0.1c0-0-0-0.1-0-0.1
c0-0,0-0.1,0-0.1s0-0.1,0-0.1c-0-0-0.1-0.05-0.1-0.1c0-0,0-0.05,0-0.1c0-0,0-0.1,0-0.1
v-0c0-0,0-0.1,0-0.1S24.2,14.9,24.2,14.8z M1.6,10.1c0-0,0-0.1,0-0.1c0-0.02,0-0,0-0.1
c-0.02,0-0.04,0-0.1,0l0,0c0,0,0,0.1,0,0.1v0L1.6,10.1z M6.3,11.1
c0,0,0.1,0.02,0.1,0.02v-0.02C6.4,11.1,6.3,11.1,6.3,11.1z"/>
</g>
</g>
</g>
<g id="guides">
</g>
</svg>
