<svg id="Layer_1" xmlns="http://www.w3.org/2000/svg"
 width="92.6px" height="39.1px" viewBox="0 0 92.6 39.1">
<path fill-rule="evenodd" clip-rule="evenodd" fill="#FFFFFF" d="M90.9,10.2c0,0.6-0.1,1.2-0.25,1.95
c-0.1,0.4-0.15,0.7-0.25,0.95H63.3v0.8l-0.3,0.4h-24.65v-1.1h-1c-0.2,0.1-0.2,0.4-0.05,0.8l0.7,2.15h0.35l0.1,0.35
l-0.6,0.25l0.15,0.55c0.2,0.4,0.35,0.9,0.55,1.5c0.7,1.7,1.5,3.6,2.6,5.65c1,2,2.5,4.4,4.35,7.1
c0.9,1.3,1.7,2.5,2.45,3.45l-3.7,2.9c-0.7-0.9-1.5-2-2.45-3.4c-1.8-2.7-3.3-5.2-4.45-7.45
c-1.1-2.3-2.1-4.4-2.95-6.35l-0.95-2.3l-0.35,0.1h-1.35l-0.4,2.1h-0.3l0.3-2h-1.45l-0.35,0.35l-1.75,3.5
c-0.1,0.3-0.3,0.4-0.65,0.45h-5.5c-0.5-0-0.9-0.15-1.2-0.4l-0.2,0.15c-0.1,0.2-0.2,0.3-0.3,0.5
c-0.1,0.1-0.1,0.35-0.15,0.65c-0,0.3-0.1,0.5-0.2,0.7c-0,0.1-0.1,0.3-0.3,0.6
c-0.2,0.2-0.35,0.5-0.45,0.75c-0.1,0.3-0.2,0.6-0.2,0.85c0,0.3-0,0.6-0.1,0.7c-0,0.2-0.2,0.4-0.4,0.75
c-0.2,0.3-0.35,0.6-0.45,0.9c-0.1,0.2-0.1,0.5-0.15,0.9c-0,0.3-0.1,0.5-0.15,0.7c-0.1,0.2-0.3,0.5-0.5,0.7
c-0.2,0.1-0.3,0.2-0.4,0.3l-5.95-3.25c0-0.3,0.1-0.7,0.3-1.2c0.3-1,0.7-2,1.2-3.05
c0.4-0.9,1-1.7,1.6-2.6c0.3-0.4,0.5-0.7,0.6-0.8c0.1-0.3,0.25-0.5,0.35-0.7c0.2-0.6,0.3-1.1,0.35-1.55
c0.1-0.6-0-1-0.25-1.4c-0.2-0.3-0.5-0.6-0.85-0.8c-0.2-0.1-0.35-0.1-0.45-0.2
c-0.1-0-0.2-0.1-0.25-0.15c-0.1-0.1-0.2-0.2-0.2-0.3h-3.8c-0.3,0-0.6-0.25-0.8-0.75l-0.6-2.9l-0.25-0.05l-0.1,0.35
l0.65,2.15l-0.3,0.55h-1.55l-0.35-0.65l1-2l-0.05-0.45l-0.4,0.2c-0.3,0.3-0.5,0.6-0.7,0.9c-0.2,0.4-0.35,0.7-0.45,1.1
c-0.1,0.2-0.1,0.3-0.1,0.4l-0.55,3.4c-0.4,2.2-0.6,3.4-0.75,3.55c-0.1,0.1-0.3,0.2-0.4,0.35
c-0.1,0.1-0.2,0.1-0.3,0.1c-0.2,0-0.5,0-0.8,0c-0.4-0.1-0.7-0.2-0.8-0.4
c-0.2-0.2-0.3-0.3-0.3-0.45c-0-0.1-0-0.2,0.05-0.5c0-0,0.1-0.8,0.35-2.25
c0.2-1.4,0.4-2.4,0.45-3.1c0-0.4,0.05-1.75,0.05-3.95v-2.7c-0-0.5,0-0.85,0.1-1.05c0.2-0.2,0.4-0.25,0.6-0.25
c0.3-0,0.9,0,2,0.2c0.5,0.1,1.05,0.25,1.55,0.35h1.35l0.05-0.8c0.1-0.3,0.2-0.7,0.3-1.05
c0.3-0.7,0.45-1.1,0.55-1.3c0.1-0.1,0.3-0.2,0.4-0.25c0.1,0,0.1,0,0.15,0h3.65l0.35,0.15h1.75l0.05-1.4
c0.1-0.3,0.25-0.6,0.45-0.7c0.2-0.1,0.4-0.2,0.6-0.15c0.2,0,0.4,0,0.5,0l0.2,0.75l0.4-1l2.1,0.9l-0.45,0.8l0.45,0.75h18.9
l0.4,0.05h22.75v-0.5h-0.3v-2.4l0.2-0.25h0.85l0.7,1.95v1.2h0.45l0.35,0.5v1.7h-0.3v0.55h27.25l0.2,0.9
C90.8,9,90.9,9.6,90.9,10.2z M28.3,19l-0.35-0.35h-4.05l-0.2,0.4c-0.1,0.3-0.2,0.5-0.3,0.8
c-0,0.2,0,0.5,0.1,0.9c0.1,0.3,0.1,0.6,0.2,0.75l0.05,0.5l-0.4-0.2c-0.3-0.4-0.5-0.9-0.6-1.3
c-0.1-0.4-0.1-0.8-0.15-1.3v-0.55h-1l-0.45,1.05c-0.3,0.7-0.4,1.1-0.45,1.2c-0,0.2-0,0.5,0,0.9
c0.3,0.3,0.6,0.45,1.05,0.55h5.05c0.2-0,0.35-0.2,0.45-0.4L28.3,19z"/>
</svg>
