<svg xmlns="http://www.w3.org/2000/svg"
 width="49.1px" height="32px" viewBox="0 0 49.1 32">
<g id="Selected_Items">
<g>
<g id="Selected_Items_36_">
<path fill-rule="evenodd" clip-rule="evenodd" fill="#FFFFFF" d="M28.1,10.3c0-0,0-0.1,0-0.1
c-1.2,0-2.3,0-3.4,0v0.1c0,0.03,0,0.1,0,0.1v0.1c0.03,0,0,0.1,0,0.1v0l0,0v0
c0.1,0.03,0.1,0.1,0.2,0.1c0,0,0.1,0.1,0.1,0.1c0,0,0,0.1,0,0.1v0
c0,0,0.1,0,0.1,0c0,0,0,0.1,0,0.1c0,0.03,0,0.1,0,0.1
c0,0.03,0,0,0,0c0,0,0,0.1,0,0.1c0,0,0,0.1,0,0.1
c0,0,0,0.1,0,0.1l0,0v0c0,0,0.1,0.1,0.1,0.1c0,0.03,0,0.1,0,0.1
c0,0,0.1,0.1,0.1,0.1v0h0v0c0,0,0.1,0.1,0.1,0.1c0,0,0,0.1,0,0.1
l0,0v0c0,0,0.1,0,0.1,0c0,0,0,0.1,0,0.1c0.4,0,0.8,0,1.17,0
c0,0,0-0,0-0c0,0,0.1-0,0.1-0V12.18c0,0,0.1,0,0.1,0c0-0,0-0.1,0-0.1
c0-0,0.1-0.1,0.1-0.1c0.1,0,0.1-0,0.1-0c0-0,0-0.1,0-0.1v-0
c0-0,0-0.1,0-0.1s0-0.1,0-0.1c0-0,0-0.1,0-0.1v-0c0,0,0-0,0-0
c0-0,0-0.1,0-0.1c0-0,0.1-0.1,0.1-0.1c0-0,0-0.1,0-0.1v-0
c0-0,0-0.1,0-0.1c0-0,0-0.1,0-0.1c0,0,0.1-0,0.1-0
c0-0,0.1-0,0.1-0v-0.1c0-0,0-0.06,0-0.1c0-0,0-0.1,0-0.1c0-0,0-0.1,0-0.1v-0
c0-0,0-0.1,0-0.1c0-0-0-0.1-0-0.1C28.1,10.3,28.1,10.3,28.1,10.3z M44.15,6.4
c0,0.03,0,0.1,0,0.1c0,0,0,0,0,0c0.2,0,0.4,0,0.6,0v0h3.9l0.2,0.2v2.3
l-0.3,0.26h-3.6v0.1c-0.2,0-0.4,0-0.6,0l-0,0c-0,0-0.07,0.1-0.1,0.1
c-0,0-0.1,0-0.1,0c0,0,0,0.06,0,0.1c0,0,0,0.1,0,0.1
c0,0,0,0.1,0,0.1v0c0,0.03,0,0.1,0,0.1c0,0,0,0.06,0,0.1c0,0,0,0.1,0,0.1
c0,0.03,0,0.1,0,0.1c-0.03,0.03-0,0.1-0,0.1c-0,0-0.1,0.1-0.1,0.1v0
c0,0,0,0.1,0,0.1c0,0.03,0,0.1,0,0.1c0,0,0,0.1,0,0.1v0l-0,0
c-0,0-0,0.1-0,0.1c-0.1,0-0.1,0-0.2,0c-0.1,0-0.1-0-0.2-0
c-0.03-0-0-0.1-0-0.1c-0.03,0-0.1-0-0.1-0l-0-0c0-0-0-0.06-0-0.1
c0-0-0-0.1-0-0.1c0-0-0-0.1-0-0.1l-0-0c-0-0-0.1-0.1-0.1-0.1
c-0-0-0.1-0.1-0.1-0.1c-0-0-0-0.1-0-0.1c-0,0-0.1,0-0.1,0
c-0-0-0.1-0.1-0.1-0.1c-0-0-0.1-0.1-0.1-0.1c0-0-0-0.1-0-0.1
c0-0-0-0-0.1-0c-0-0-0-0.1-0-0.1c-0-0-0.1-0.1-0.1-0.1
s-0.1-0.1-0.1-0.1l-0.1-0.1c0-0-0-0.1-0-0.1h-0c-0.1,0-0.1-0-0.2-0l-0-0
c-0.1,0-0.1,0-0.13,0c-0,0.1-0.1,0.1-0.1,0.1c-0,0.1-0,0.1-0,0.1
c-0,0-0.1,0.1-0.1,0.1c-0.1,0.1-0.1,0.1-0.2,0.1c-0.1,0-0.13,0.1-0.2,0.1
c-0.1,0-0.1,0-0.13,0h-0v0c0,0-0,0.1-0,0.1c-0.1,0-0.1,0-0.13,0
c-0.1,0.03-0.1,0.1-0.1,0.1c0,0.03-0,0.1-0,0.1c0,0,0,0.1,0,0.1c0,0-0,0-0,0
c0,0,0,0.1,0,0.1c-0,0-0.06,0-0.1,0v0c0,0,0,0.1,0,0.1v0.1c0,0,0,0.1,0,0.1
c0,0,0,0.1,0,0.1c0,0.03,0,0.1,0,0.1v0c0,0,0,0.1,0,0.1c0,0,0,0.1,0,0.1v0
c0,0,0,0.1,0,0.1v0c0,0,0,0.1,0,0.1c0,0.03,0,0.1,0,0.1s0,0.1,0,0.1v0c0,0,0,0.1,0,0.1
v0c0,0,0,0.1,0,0.1c0,0.03,0,0.1,0,0.1v0c0,0,0,0.1,0,0.1c0,0,0,0.1,0,0.1
c0,0,0,0.06,0,0.1v0.1c0,0,0,0.1,0,0.1c0,0,0,0.1,0,0.1v0c0,0,0,0.1,0,0.1
c0,0,0,0.1,0,0.1c0,0.03,0,0.1,0,0.1c0,0,0,0.1,0,0.1c0,0,0,0.06,0,0.1c0,0,0,0.1,0,0.1
s0,0.1,0,0.1v0c0,0.03,0,0.06,0,0.1c0,0,0,0.1,0,0.1c0,0.03,0,0.06,0,0.1v0.1c0,0.03,0,0.1,0,0.1
c0,0,0,0.1,0,0.1c0,0,0,0.1,0,0.1v0c0,0,0,0.1,0,0.1c0,0,0,0.1,0,0.1V14.3
c0,0,0,0.1,0,0.1v0c0,0.03,0,0.1,0,0.1c0,0.03,0,0.1,0,0.1c0,0,0,0.1,0,0.1v0
c0,0,0,0.1,0,0.1v0c0,0.03,0,0.1,0,0.1v0c0,0.03,0,0.1,0,0.1c0,0,0,0.1,0,0.1
c0,0,0,0.1,0,0.1c0,0,0,0.1,0,0.1v0.1c0,0,0,0.1,0,0.1c0,0,0,0.06,0,0.1v0
c0,0,0,0.1,0,0.1c0,0,0,0.1,0,0.1c0,0,0,0.1,0,0.1v0.1c0,0,0,0.1,0,0.1
c0,0,0,0.1,0,0.1c0,0,0,0.1,0,0.1v0c0,0,0,0.1,0,0.1c0,0.03,0,0.06,0,0.1c0,0,0,0.1,0,0.1
v0.1c0,0,0,0.1,0,0.1c0,0,0,0.06,0,0.1c0,0,0,0.1,0,0.1v0c0,0,0,0.06,0,0.1
c0,0,0,0.06,0,0.1v0.1c0,0,0,0.1,0,0.1c0,0,0,0.1,0,0.1s0,0.1,0,0.1c0,0,0,0.06,0,0.1v0
c0,0,0,0.1,0,0.1v0c0,0,0,0.1,0,0.1v0c0,0,0,0.1,0,0.1c0,0.03,0,0.1,0,0.1
c0,0,0,0.06,0,0.1v0c0,0,0,0.1,0,0.1v0c0,0,0,0.1,0,0.1c0,0,0,0.1,0,0.1v0
c0,0,0,0.1,0,0.1c0,0,0,0.1,0,0.1c0,0,0,0.1,0,0.1v0.1c0,0.03,0,0.1,0,0.1
c0,0,0,0.1,0,0.1c0,0,0,0.1,0,0.1v0c0,0,0,0.1,0,0.1c0,0,0,0.1,0,0.1
c0,0,0,0.1,0,0.1c0,0,0,0.1,0,0.1c0,0,0,0.1,0,0.09c0,0,0,0.1,0,0.1c0,0,0,0.1,0,0.1
v0c0,0,0,0.1,0,0.1s0,0.06,0,0.1v0.1c0,0,0,0.1,0,0.1c0,0,0,0.1,0,0.1c0,0,0,0.1,0,0.1
v0c0,0,0,0.1,0,0.1c0,0,0,0.1,0,0.1v0c0,0,0,0.1,0,0.1v0c0,0,0,0.06,0,0.1
c0,0,0,0.1,0,0.1c0,0,0,0.1,0,0.1v0c0,0,0,0.1,0,0.1v0c0,0,0,0.1,0,0.1
c0,0,0,0.1,0,0.1v0c0,0,0,0.1,0,0.1c0,0,0,0.1,0,0.1c0,0.03,0,0.1,0,0.1v0.1
c0,0.03,0,0.06,0,0.1c0,0,0,0.1,0,0.1c0,0-0,0.1-0,0.1l-0,0v0.1
c-0.03,0-0.1,0-0.1,0l-0,0c-0.1,0-0.1,0-0.13,0c-0,0-0.1,0-0.1,0c-0.1,0-0.1,0-0.1,0
c-0-0-0.1-0-0.1-0c-0.1,0-0.3-0-0.4-0c-0.1,0-0.1-0-0.2-0
c-0.1-0.03-0.1-0.1-0.1-0.1c-0,0-0.1,0-0.1,0c-0.03,0-0-0-0-0
c-0.1,0-0.1-0-0.2-0c-0,0-0-0-0-0c-0.1,0-0.1-0-0.2-0c-0.1,0-0.1,0-0.13,0
v-0c-0.1,0-0.1-0-0.2-0c-0.1,0-0.1-0-0.2-0l-0-0c-0.06,0-0.1,0-0.2,0
c-0.03,0-0.1,0-0.1,0c-0.03-0.03-0.1-0-0.1-0c-0,0-0.1-0-0.1-0c-0.1,0-0.1-0-0.13-0
c-0.1-0.03-0.1-0.1-0.13-0.1c-0.1-0.03-0.1-0.1-0.2-0.1h-0c-0.1-0.03-0.1-0.1-0.13-0.1
c-0.1-0-0.1-0.1-0.1-0.1c0-0.03-0-0.1-0-0.1c-0-0.03-0.1-0-0.1-0
c-0-0-0-0.1-0-0.1c-0-0-0.1-0.1-0.1-0.1c-0-0.03-0-0.1-0-0.1
c-0,0-0.1-0-0.1-0c-0,0-0.1-0-0.1-0c0-0-0-0.1-0-0.1
c0-0-0-0.1-0-0.1c0-0-0-0.1-0-0.1c0-0-0-0-0-0c0-0,0-0.1,0-0.1
c0-0-0-0.1-0-0.1v-0c-0-0.03-0.1-0.1-0.1-0.1l-0-0c0-0,0-0.1,0-0.1
c-0-0-0-0.1-0-0.1c0-0-0-0.1-0-0.1v-0c0-0,0-0.1,0-0.1v-0
c0-0,0-0.1,0-0.09c0-0,0-0.1,0-0.1V19.23c0-0,0-0.06,0-0.1v-0c0-0,0-0.1,0-0.1
c0-0,0-0.1,0-0.1c0-0.03,0-0.1,0-0.1v-0.1c0-0,0-0.1,0-0.1c0-0,0-0.1,0-0.1
c0-0,0-0.1,0-0.1v-0c0-0,0-0.1,0-0.1c0-0,0-0.1,0-0.1v-0c0-0,0-0.1,0-0.1v-0
c0-0,0-0.1,0-0.1c0-0,0-0.1,0-0.1c0-0,0-0.1,0-0.1v-0c0-0,0-0.06,0-0.1v-0
c0-0,0-0.1,0-0.1v-0c0-0,0-0.1,0-0.1c0-0,0-0.1,0-0.1
c0-0,0-0.1,0-0.1c0-0,0-0.1,0-0.1v-0.1c0-0,0-0.06,0-0.1c0-0,0-0.1,0-0.1v-0
c0-0.03,0-0.06,0-0.1c0-0,0-0.1,0-0.1c0-0,0-0.1,0-0.1v-0.1c0.03-0,0-0.1,0-0.1
c0-0,0-0.1,0-0.1c0-0,0-0.1,0-0.1v-0c0-0,0-0.1,0-0.1
c0-0,0-0.1,0-0.1c0-0.03,0-0.1,0-0.1v-0.1c0-0,0-0.06,0-0.1c0-0,0-0.1,0-0.1
c0-0,0-0.1,0-0.1v-0c0-0,0-0.1,0-0.1c0-0,0-0.1,0-0.1v-0.1c0-0,0-0.06,0-0.1
c0-0.03,0-0.06,0-0.1c0-0,0-0.1,0-0.1c0-0.03,0-0.1,0-0.1v-0c0-0,0-0.1,0-0.1V14.82
c0-0,0-0.1,0-0.1v-0c0-0,0-0.1,0-0.1c0-0.03,0-0.1,0-0.1c0-0,0-0.1,0-0.1v-0
c0-0,0-0.1,0-0.1v-0c0-0,0-0.1,0-0.1c0-0,0-0.1,0-0.1V14.04c0-0,0-0.1,0-0.1
c0-0,0-0.1,0-0.1c0-0,0-0.1,0-0.1v-0.1c0-0,0-0.1,0-0.1c0-0,0-0.1,0-0.1
c0-0,0-0.1,0-0.1v-0c0-0,0-0.1,0-0.1s0-0.1,0-0.1c0-0,0-0.1,0-0.1c0-0,0-0.1,0-0.1
c0-0,0-0.1,0-0.1c0-0,0-0.1,0-0.1c0-0,0-0.1,0-0.1v-0c0-0,0-0.1,0-0.1
c0-0,0-0.06,0-0.1v-0.1c0-0,0-0.1,0-0.1c0-0,0-0.1,0-0.1c0-0.03,0-0.1,0-0.1V12.18
c0-0,0-0.1,0-0.1c0-0,0-0.1,0-0.1v-0c0-0,0-0.1,0-0.1v-0c0-0,0-0.1,0-0.1
s0-0.1,0-0.1c0-0,0-0.1,0-0.1v-0c0-0.03,0-0.1,0-0.1v-0c0-0,0-0.1,0-0.1
c0-0,0-0.1,0-0.1v-0c0-0,0-0.1,0-0.1c0-0,0-0.1,0-0.1c0-0,0-0.1,0-0.1v-0.1
c0-0,0-0.06,0-0.1c0-0,0-0.1,0-0.1c0-0,0-0.1,0-0.1v-0c0-0,0-0.1,0-0.1
c0-0,0-0.1,0-0.1c0-0,0-0.1,0-0.1v-0c-0.1-0-0.1-0-0.1-0c-2.2,0-4.5,0-6.7,0
c0,0-0,0-0,0l0,0c0,0.03,0,0.1,0,0.1c0,0.03,0,0.1,0,0.1v0
c0,0,0,0.1,0,0.1v0c0,0,0,0.1,0,0.1c0,0.03,0,0.1,0,0.1c0,0,0,0.1,0,0.1v0
c0,0,0,0.1,0,0.1v0c-0,0.03-0.1,0.1-0.1,0.1c0,0,0,0.1,0,0.1v0c0,0.03,0,0.1,0,0.1
c0,0,0,0.1,0,0.1c-0.1,0-0.1,0.1-0.2,0.1c-0,0-0.1,0-0.1,0
c-0,0-0.1,0-0.1,0c-0,0-0,0.1-0,0.1c-0,0.03-0.1,0.1-0.1,0.1
c-0.1,0-0.1,0.1-0.13,0.1v0c-0,0-0,0.1-0,0.1c0,0,0,0.1,0,0.1
c0,0.03,0,0.1,0,0.1c-0,0-0.1,0.1-0.1,0.1c0,0,0,0.1,0,0.1c0,0,0,0.1,0,0.1v0
c0,0,0,0.06,0,0.1c0,0,0,0.1,0,0.1c0,0,0,0.1,0,0.1v0c-0.03,0-0,0-0,0
c-0,0-0.1,0.1-0.1,0.1c0,0,0,0.1,0,0.1c0,0-0,0.1-0,0.1
c0,0-0,0-0,0c0,0,0,0.06,0,0.1c0,0,0,0.1,0,0.1s-0,0-0,0
c-0,0-0.1,0.06-0.1,0.1l-0,0c-0,0-0.1,0.1-0.1,0.1c-0.03,0-0.1,0-0.13,0
c-0.1,0.03-0.2,0.06-0.4,0.1c-0.03,0-0.1,0-0.1,0c-0,0-0.1,0-0.1,0c-0.4,0-0.9,0-1.3,0
l-0,0c-0.1,0-0.1,0-0.1,0c-1,0.03-2.1,0.1-3.1,0.1c-0,0-0.1,0-0.1,0
c-0,0-0.1,0-0.1,0c-0.1,0-0.2,0-0.2,0c0,0-0,0-0,0c-0,0-0.1,0.1-0.1,0.1
l-0,0h-0c0,0,0,0.1,0,0.1c0,0,0,0.1,0,0.1c0,0.03,0,0.06,0,0.1v0c0,0.03,0,0.1,0,0.1
c0,0.03,0,0.1,0,0.1c0,0,0,0.1,0,0.1v0.1c0,0,0,0.1,0,0.1c0,0,0,0.1,0,0.1
c0,0,0,0.1,0,0.1v0c0,0,0,0.1,0,0.1c0,0,0,0.1,0,0.1v0c0,0,0,0.1,0,0.1v0
c0,0,0,0.1,0,0.1s0,0.1,0,0.1c0,0,0,0.1,0,0.1c-0,0-0,0-0,0s-0,0.1-0,0.1
v0c0,0,0,0.1,0,0.1v0c0,0,0,0.1,0,0.1c0,0,0,0.1,0,0.1c0,0,0,0.1,0,0.1
c0,0.03,0,0.06,0,0.1v0.1c0,0.03,0,0.06,0,0.1c0,0,0,0.1,0,0.1v0c0,0.03,0,0.1,0,0.1
c0,0,0,0.1,0,0.1c0,0,0,0.1,0,0.1v0.1c0,0,0,0.06,0,0.1c0,0,0,0.06,0,0.1c0,0,0,0.1,0,0.1
v0c0,0,0,0.1,0,0.1c0,0,0,0.1,0,0.1c0,0,0,0.1,0,0.1v0.1c0,0,0,0.1,0,0.1
c0,0.03,0,0.1,0,0.1c0,0,0,0.06,0,0.1v0c0,0,0,0.1,0,0.1c0,0,0,0.1,0,0.1
v0.1c0,0,0,0.1,0,0.1c0,0,0,0.1,0,0.1c0,0.03,0,0.1,0,0.1c0,0,0,0.1,0,0.1v0
c0,0,0,0.1,0,0.1v0c0,0,0,0.1,0,0.1l0,0c0,0,0,0.1,0,0.1
c0,0,0,0.1,0,0.1c0,0,0,0.1,0,0.1v0c0,0,0,0.1,0,0.1v0c0,0,0,0.1,0,0.1
c0,0,0,0.1,0,0.1l0,0c0,0,0,0.1,0,0.1s0,0.1,0,0.1c0,0,0,0.1,0,0.1v0.1
c0,0,0,0.1,0,0.1s0,0.06,0,0.1c0,0,0,0.1,0,0.1v0c0,0,0,0.1,0,0.1
c0,0,0,0.1,0,0.1c0.03,0,0,0.06,0,0.1s0,0.1,0,0.1c0,0,0,0.1,0,0.1c0,0,0,0.1,0,0.1
c0,0,0,0.1,0,0.1v0c0,0,0,0.1,0,0.1c0,0,0,0.1,0,0.1v0l-0,0
c-0,0-0,0.1-0,0.1c-0,0-0.1,0-0.1,0c0,0,0,0.1,0,0.1c0,0,0,0.1,0,0.1
l-0,0c0,0,0,0.1,0,0.1c-0.03,0-0.06,0.1-0.1,0.1c0,0.03,0,0.1,0,0.1v0.1c0,0.03,0,0.06,0,0.1
c0,0,0,0.1,0,0.1c0,0,0,0.1,0,0.1v0c0,0,0,0.1,0,0.1c0,0,0,0.1,0,0.1
c0,0,0,0.1,0,0.1c0,0,0.1,0,0.1,0c0,0,0,0.1,0,0.1c0,0,0,0.1,0,0.1
c0,0,0,0.1,0,0.1v0c0,0,0,0.1,0,0.1c0,0,0,0.1,0,0.1c0,0,0,0.1,0,0.1v0.1
c0,0.03,0,0.1,0,0.1c0,0,0,0.1,0,0.1c0,0.03,0,0.1,0,0.1l0,0c0,0,0,0.1,0,0.1
c0,0.03,0,0.06,0,0.1v0c0,0,0,0.1,0,0.1v0c0,0,0,0.06,0,0.1c0,0,0,0.1,0,0.1
c0,0,0,0.06,0,0.1v0c0,0,0,0.1,0,0.1c0,0,0,0,0,0c0,0.03,0,0.1,0,0.1
c0,0.03,0,0.1,0,0.1v0c0,0,0,0.1,0,0.1c0,0,0,0.1,0,0.1c0,0,0,0.1,0,0.1v0
c0,0.03,0.1,0,0.1,0c0,0.03,0,0.1,0,0.1c0,0,0,0.1,0,0.1v0c0,0.03,0,0.1,0,0.1
c0,0,0,0.1,0,0.1s0,0.1,0,0.1c0,0,0.1,0.1,0.1,0.1h0c0,0,0,0.1,0,0.1
c0,0,0,0.1,0,0.1c0,0,0,0.1,0,0.1v0c0,0,0,0.1,0,0.1c0,0.03,0,0.1,0,0.1
c0,0,0,0.1,0,0.1c0,0,0,0,0,0v0c0,0,0,0.1,0,0.1c0,0,0,0.1,0,0.1
c0,0,0,0.1,0,0.1v0c0,0.03,0,0.1,0,0.1c0,0.03,0,0.06,0,0.1c0.03,0,0.1,0,0.1,0
c0,0,0,0.1,0,0.1v0c0,0,0,0.1,0,0.1c0,0.03,0,0.1,0,0.1c0,0,0,0.1,0,0.1v0
c0,0,0,0.1,0,0.1v0c0.03,0,0.1,0.1,0.1,0.1v0c0,0,0,0.1,0,0.1c0,0,0,0.1,0,0.1
c0,0,0,0.06,0,0.1c0,0.03,0,0.1,0,0.1v0l0,0c0,0,0,0.1,0,0.1c0,0.03,0,0.1,0,0.1
v0c0,0,0,0.1,0,0.1c0,0,0,0.1,0,0.1c0,0.03,0,0.1,0,0.1l0,0v0
c0,0,0,0.06,0,0.1c0,0,0,0.1,0,0.1c0,0.03,0,0.1,0,0.1l0,0
c0,0,0,0.1,0,0.1c0,0,0,0.1,0,0.1c0,0,0,0.1,0,0.1c0,0.03,0.1,0,0.1,0v0
c0,0,0,0.1,0,0.1c0,0,0,0.1,0,0.1c0,0,0,0.1,0,0.1v0
c0,0,0,0.1,0,0.1c0,0,0,0.1,0,0.1c0,0,0.1,0,0.1,0
c0,0,0,0,0,0c0,0,0,0.1,0,0.1c0,0,0,0.1,0,0.1c0,0,0,0.1,0,0.1
c0,0,0,0.06,0,0.1h0c0.1,0,0.1,0,0.2,0c0,0,0,0.1,0,0.1s0,0,0,0
c0,0,0,0.1,0,0.1v0c0,0,0,0.1,0,0.1c0,0,0,0.06,0,0.1c0,0,0,0.1,0,0.1v0
c0,0,0,0.1,0,0.1v0c0,0.03,0,0.1,0,0.1c0,0,0,0.1,0,0.1v0c0,0,0,0.06,0,0.1
c0,0,0,0.1,0,0.1c0,0.03,0,0.1,0,0.1l0,0v0c0,0,0,0.1,0,0.1
c-0.03,0.03-0.1,0.1-0.1,0.1c-0.03,0.03-0,0.1-0,0.1c-0,0-0.1,0-0.1,0c-0.5,0-1,0-1.5,0
c-0,0-0.1,0-0.13,0h-0c-0.1,0-0.2,0-0.2,0c-0,0-0.1,0.1-0.1,0.1h-0
c-0,0-0.1,0-0.13,0c-0.6,0-1.2,0-1.7,0c-0.1-0-0.1-0-0.2-0
c-0.1-0-0.1-0.1-0.2-0.1v-0c-0.1-0.03-0.1-0-0.2-0c-0.23,0-0.46,0-0.7,0
c-0,0-0.1,0-0.1,0c-0,0-0.1,0-0.1,0c-0.1,0-0.1,0-0.2,0v-0H18.68c-0.06,0-0.1-0-0.2-0
c-0-0-0.1-0.1-0.1-0.1c0-0-0-0.1-0-0.1v-0c-0,0-0.1-0-0.1-0
c0-0-0-0.1-0-0.1c0-0,0-0.1,0-0.1c0-0,0-0.1,0-0.1V30.43c-0-0-0.1-0.1-0.1-0.1
c0-0,0-0.1,0-0.1v-0c-0-0-0.1-0.1-0.1-0.1v-0c0-0,0-0.1,0-0.1c0-0,0-0.1,0-0.1
c0-0,0-0.1,0-0.1v-0c-0.03-0.03-0.1-0.1-0.1-0.1V29.65c0-0,0-0.1,0-0.1
c0-0-0-0-0-0c0-0-0-0.1-0-0.1c0-0.03-0-0.1-0-0.1c0-0.03,0-0.1,0-0.1
c0-0,0-0.1,0-0.1v-0l-0-0c0-0-0-0.1-0-0.1c0-0,0-0.1,0-0.1v-0
c0-0,0-0.1,0-0.1c0-0,0-0.1,0-0.1c-0-0-0.1-0.1-0.1-0.1v-0.1c0-0,0-0.06,0-0.1
c0-0.03,0-0.1,0-0.1c-0-0-0-0.06-0-0.1c0-0-0-0-0-0c0-0.03,0-0.1,0-0.1
c0-0,0-0.1,0-0.1c0-0.03,0-0.1,0-0.1c-0,0-0.1-0-0.1-0l-0-0c0-0,0-0.1,0-0.1
c0-0.03,0-0.1,0-0.1c0-0.03,0-0.1,0-0.1v-0c0-0-0-0.1-0-0.1c0-0.03,0-0.1,0-0.1v-0.1
c0-0-0-0.1-0-0.1c0-0-0-0.1-0-0.1c0-0-0-0.1-0-0.1c0-0,0-0.1,0-0.1
v-0c0-0.03,0-0.1,0-0.1v-0c0-0,0-0.1,0-0.1v-0c-0-0-0-0.1-0-0.1
c0-0-0-0.1-0-0.1c0-0,0-0.1,0-0.1v-0c0-0,0-0.1,0-0.1v-0c0-0,0-0.1,0-0.1
c0-0,0-0.1,0-0.1V26.02c0-0,0-0.1,0-0.1c-0.03-0.03-0-0.06-0-0.1c0-0-0-0.1-0-0.1
v-0.1c0-0,0-0.06,0-0.1c0-0,0-0.1,0-0.1c0-0,0-0.1,0-0.1c-0,0-0-0-0-0
c0-0-0-0.1-0-0.1c0-0,0-0.1,0-0.1c0-0,0-0.06,0-0.1c0-0,0-0.1,0-0.1
c0-0.03,0-0.1,0-0.1s-0-0.1-0-0.1c0-0-0-0.1-0-0.1l-0-0c0-0,0-0.1,0-0.1
c0-0,0-0.1,0-0.1l-0-0c0-0-0-0-0-0c0-0,0-0.1,0-0.1c0-0,0-0.1,0-0.1
c0-0.03,0-0.1,0-0.1v-0c0-0,0-0.1,0-0.1c0-0,0-0.1,0-0.1v-0c0-0,0-0.1,0-0.1v-0
c0-0-0-0.1-0-0.1c0-0-0-0.1-0-0.1c0-0,0-0.1,0-0.1v-0c0-0,0-0.1,0-0.1
v-0c0-0,0-0.1,0-0.1c0-0,0-0.1,0-0.1v-0c0-0,0-0.1,0-0.1c0-0,0-0.1,0-0.1
c0-0.03,0-0.1,0-0.1v-0.1c0-0,0-0.1,0-0.1c0-0,0-0.1,0-0.1c0-0,0-0.1,0-0.1v-0
c0-0,0-0.1,0-0.1c0-0,0-0.1,0-0.1c0-0.03,0-0.06,0-0.1c0-0.03,0-0.1,0-0.1c0-0,0-0.1,0-0.1
c0-0,0-0.1,0-0.1v-0c0-0,0-0.1,0-0.1c0-0,0-0.1,0-0.1c0-0,0-0.1,0-0.1v-0.1
c0-0.03,0-0.1,0-0.1c0-0,0-0.1,0-0.1c0-0,0-0.1,0-0.1v-0h-0.2c-0,0-0.1,0-0.1,0
c-0,0-0.1-0-0.1-0c-0,0-0.1-0-0.1-0h-0c-0.06,0-0.1-0-0.2-0
c-0-0-0.1-0.1-0.1-0.1c-0-0.03-0.1-0.1-0.1-0.1v-0.1c0-0,0-0.1,0-0.1
c0-0.03,0-0.1,0-0.1v-0c0-0-0-0.1-0-0.1c0-0-0-0.06-0-0.1c0-0,0-0.1,0-0.1
c0-0,0-0.1,0-0.1s0-0.1,0-0.1c0-0,0-0.1,0-0.1c0-0,0-0.1,0-0.1v-0c0-0,0-0.1,0-0.1
c-0-0-0.1-0.1-0.1-0.1c0-0,0-0.1,0-0.1v-0.1c0-0,0-0.1,0-0.1c0-0,0-0.1,0-0.1
s0-0.1,0-0.1v-0c0-0.03,0-0.06,0-0.1c0-0.03,0-0.1,0-0.1v-0c0-0,0-0.1,0-0.1v-0
c0-0,0-0.1,0-0.1c0-0,0-0.1,0-0.1c0-0.03,0-0.1,0-0.1v-0c0-0,0-0.1,0-0.1v-0
c0-0.03,0-0.1,0-0.1v-0c0-0,0-0.1,0-0.1c0-0,0-0.1,0-0.1c0-0,0-0.1,0-0.1
c0-0,0-0.1,0-0.1v-0.1c0-0.03,0-0.1,0-0.1c0-0.03,0-0.1,0-0.1v-0c0-0,0-0.1,0-0.1
c0-0,0-0.1,0-0.1c0-0,0-0.1,0-0.1v-0.1c0-0,0-0.1,0-0.1c0-0,0-0.1,0-0.1
c0-0,0-0.1,0-0.1v-0c0-0,0-0.1,0-0.1c0-0,0-0.06,0-0.1c0-0,0-0.1,0-0.1v-0.1
c0-0,0-0.1,0-0.1c0-0,0-0.1,0-0.1c0-0,0-0.1,0-0.1c0,0,0-0,0-0
c0-0,0-0.1,0-0.1c0-0,0-0.1,0-0.1v-0.1c0-0,0-0.1,0-0.1c0-0,0-0.1,0-0.1
c0-0.03,0-0.06,0-0.1c0-0,0-0.1,0-0.1v-0c0-0,0-0.06,0-0.1h0c0-0,0-0.1,0-0.1
c0-0,0-0.1,0-0.1v-0.1c0-0,0-0.1,0-0.1s0-0.1,0-0.1v-0c0-0,0-0.06,0-0.1
c0,0,0.1-0,0.1-0v-0.1c0-0.03,0-0.06,0-0.1v-0c0-0,0-0.1,0-0.1
c0-0,0.1-0.1,0.1-0.1c0-0,0-0.1,0-0.1v-0c0,0,0.1-0,0.1-0c0-0,0-0.1,0-0.1
c0-0,0-0.1,0-0.1c0-0,0-0.1,0-0.1v-0c0.03-0,0-0.1,0-0.1c0-0,0-0.1,0-0.1
c0-0,0-0.1,0-0.1c0,0,0.1,0,0.1,0c0-0,0-0.06,0-0.1c0-0,0-0.1,0-0.1c0-0,0-0.1,0-0.1
c0-0,0-0.1,0-0.1c0.03,0,0.1-0,0.1-0c0-0,0-0.1,0-0.1c0-0,0-0.1,0-0.1v-0
l0-0c0-0,0-0.1,0-0.1c0-0,0-0.1,0-0.1s0-0.1,0-0.1v-0c0-0,0-0.1,0-0.1
c0-0,0-0.1,0-0.1v-0c0-0,0-0.06,0-0.1v-0c0-0,0-0.1,0-0.1c0-0.03,0-0.1,0-0.1
c0-0,0-0.1,0-0.1v-0c0-0,0.1-0.1,0.1-0.1l0-0c0-0,0-0.1,0-0.1
c0-0,0-0.1,0-0.1v-0c0-0.03,0-0.1,0-0.1s0-0.1,0-0.1c-0-0-0-0.1-0-0.1
c-0,0-0.1-0-0.1-0v-0c0-0,0-0.1,0-0.1c0-0,0-0.1,0-0.1c0-0,0-0.1,0-0.1v-0
c-0-0-0-0.1-0-0.1c-0.03-0-0.1-0.1-0.1-0.1c-0-0-0.1-0-0.1-0l-0,0
c0,0,0,0.1,0,0.1c0,0-0,0.1-0,0.1v0c-0,0.03-0.06,0.1-0.1,0.1
c-0,0-0.1,0-0.1,0l-0,0c-0.1,0-0.1,0-0.1,0c-0.03,0-0.1-0-0.2-0
c-0-0-0.1-0-0.13-0c-0,0-0.07,0-0.1,0c-1,0-1.9,0.1-2.9,0.1
c-0,0.03-0,0.1-0,0.1c-0,0-0,0-0,0c-0.1,0-0.1,0-0.1,0
c-0.1,0-0.1-0-0.2-0c0-0-0-0.1-0-0.1c-0.03-0-0.1-0.1-0.1-0.1l-0-0
c0-0-0-0-0-0c0-0.03-0-0.1-0-0.1v-0l-0-0c-0,0-0.1-0-0.1-0
c-0.1,0-0.1,0-0.1,0h-0c-0.03,0-0.1,0-0.1,0c-0.1,0-0.2,0-0.2,0c-0.03,0-0.1,0-0.1,0h-0.1
c-0.1,0-0.1,0-0.1,0c-0,0-0.1,0-0.1,0c-1.6,0-3.2,0-4.7,0c-0.1,0-0.1-0-0.2-0
c-0-0-0.1-0-0.1-0c-0-0-0.1-0.1-0.1-0.1c0-0.03,0-0.1,0-0.1v-0
c0-0,0-0.1,0-0.1c-0,0-0.1-0-0.1-0c-0,0-0.1-0-0.1-0
c-0-0-0.1-0.06-0.1-0.1c0-0-0-0.1-0-0.1c0-0,0-0.1,0-0.1v-0
c0-0-0-0.1-0-0.1c0-0,0-0.1,0-0.1c0-0,0-0.1,0-0.1c-0,0-0.06,0-0.1,0
c-0,0-0,0-0,0c0,0,0,0.06,0,0.1c0,0,0,0.1,0,0.1c-0,0-0,0.1-0,0.1v0
c0,0-0,0.1-0,0.1v0c0,0,0,0.1,0,0.1c0,0-0,0.1-0,0.1v0c0,0,0,0.1,0,0.1
c-0,0.03-0,0.1-0,0.1c0,0,0,0.1,0,0.1c-0,0-0,0-0,0v0c0,0,0,0.1,0,0.1
c0,0,0,0.1,0,0.1v0c0,0.03,0,0.1,0,0.1c0,0,0,0.1,0,0.1c0,0.03-0,0.1-0,0.1
c0,0,0,0.1,0,0.1H5c0,0-0,0.1-0,0.1c0,0,0,0.1,0,0.1s0,0.1,0,0.1v0
c0,0-0,0.1-0,0.1c0,0,0,0.1,0,0.1c0,0,0,0.1,0,0.1v0.1c-0,0-0.1,0.1-0.1,0.1
c-0.1,0.1-0.1,0.1-0.2,0.2c-0,0-0,0-0,0.1c-0.03,0.1-0,0.1-0,0.2
c0,0.1-0,0.1-0,0.1c-0,0.1-0,0.1-0,0.2c-0,0-0,0.06-0,0.1
c-0.06,0.06-0.1,0.1-0.1,0.2c0,0.06,0,0.1,0,0.1c-0,0.1-0,0.1-0,0.2c0,0,0,0.1,0,0.1
c-0.1,0-0.1,0.1-0.1,0.1c-0.03,0.1-0,0.1-0,0.2c-0,0.03-0.1,0.1-0.1,0.13
c0,0.03,0,0.1,0,0.1c-0,0.1-0.1,0.1-0.1,0.1c-0.03,0.1-0.1,0.1-0.1,0.2
c0,0.1-0,0.1-0,0.1c0,0,0,0.1,0,0.1c0,0,0,0.1,0,0.1l-0,0
c-0.03,0-0,0.1-0,0.1c-0.03,0-0,0.1-0,0.1c-0,0.1-0.1,0.1-0.1,0.2
c-0,0-0.1,0-0.1,0l-0,0v0c-0.03,0-0.1,0.1-0.1,0.1c0,0,0,0.1,0,0.1
l-0,0c0,0,0,0.1,0,0.1c0,0-0,0.1-0,0.1c0,0-0,0-0,0
c-0.03,0.03-0,0.06-0,0.1c-0.03,0-0.1,0-0.1,0c0,0,0,0.1,0,0.1c0,0-0,0.06-0,0.1
c0,0.03,0,0.06,0,0.1c-0,0-0.1,0-0.1,0c-0,0-0,0.1-0,0.1
c-0,0-0.1,0-0.1,0c-0.1,0-0.1,0-0.1,0c-0,0-0,0.1-0,0.1
c-0,0-0.1,0-0.1,0c0,0-0,0-0,0c-0,0-0.1,0-0.13,0c-0.1,0-0.1,0-0.2,0
c-0.1,0-0.1,0-0.13,0c-0,0-0.07,0-0.13,0c-0.1,0-0.2,0-0.3,0c-0.1,0-0.13,0-0.2,0
c-0.1-0-0.3-0.1-0.39-0.1c-0.1-0-0.2-0-0.2-0c-0.1-0.03-0.2-0-0.3-0
c-0.1,0-0.1-0-0.2-0c0-0-0-0.1-0-0.1c-0-0-0.1-0.1-0.1-0.1v-0.1
c0-0,0-0.1,0-0.1c0-0,0-0.1,0-0.1c0-0,0-0.1,0-0.1v-0c0-0,0-0.1,0-0.1
c0-0,0-0.1,0-0.1c0-0.03,0-0.1,0-0.1v-0.1c0-0,0-0.06,0-0.1c0-0,0-0.1,0-0.1
c0-0,0-0.1,0-0.1v-0c0-0,0-0.1,0-0.1c0-0,0-0.1,0-0.1v-0.1c0-0,0-0.06,0-0.1
c0-0.03,0-0.06,0-0.1c0-0,0-0.1,0-0.1c0-0.03,0-0.1,0-0.1v-0c0-0,0-0.1,0-0.1V14.82
c0-0,0-0.1,0-0.1v-0c0-0,0-0.1,0-0.1c0-0.03,0-0.1,0-0.1c0-0,0-0.1,0-0.1v-0
c0-0,0-0.1,0-0.1v-0c0-0,0-0.1,0-0.1c0-0,0-0.1,0-0.1V14.04c0-0,0-0.1,0-0.1
c0-0,0-0.1,0-0.1c0-0,0-0.1,0-0.1v-0.1c0-0,0-0.1,0-0.1c0-0,0-0.1,0-0.1
c0-0,0-0.1,0-0.1v-0c0-0,0-0.1,0-0.1s0-0.1,0-0.1c0-0,0-0.1,0-0.1c0-0,0-0.1,0-0.1
c0-0,0-0.1,0-0.1c0-0,0-0.1,0-0.1c0-0,0-0.1,0-0.1v-0c0-0,0-0.1,0-0.1
c0-0,0-0.06,0-0.1v-0.1c0-0,0-0.1,0-0.1c0-0,0-0.1,0-0.1c0-0.03,0-0.1,0-0.1V12.18
c0-0,0-0.1,0-0.1c0-0,0-0.1,0-0.1v-0c0-0,0-0.1,0-0.1v-0c0-0,0-0.1,0-0.1
s0-0.1,0-0.1c0-0,0-0.1,0-0.1v-0c0-0.03,0-0.1,0-0.1v-0c0-0,0-0.1,0-0.1
c0-0,0-0.1,0-0.1v-0c0-0,0-0.1,0-0.1c0-0,0-0.1,0-0.1c0-0,0-0.1,0-0.1v-0.1
c0-0,0-0.06,0-0.1c0-0,0-0.1,0-0.1c0-0,0-0.1,0-0.1v-0c0-0,0-0.1,0-0.1
c0-0,0-0.1,0-0.1c0-0,0-0.1,0-0.1c0-0,0-0.1,0-0.1c0-0,0-0.1,0-0.1c0-0,0-0.1,0-0.1
V10c0-0,0-0.1,0-0.1c0-0,0-0.1,0-0.1s0-0.1,0-0.1V9.6c0-0,0-0.1,0-0.1c0-0,0-0.06,0-0.1
c0-0.03,0-0.06,0-0.1V9.3c0-0,0-0.06,0-0.1c0-0,0-0.06,0-0.1V9.1c0-0,0-0.1,0-0.1V8.98
c0-0,0-0.1,0-0.1s0-0.1,0-0.1c0-0,0-0.1,0-0.1V8.7c0-0,0-0.1,0-0.1V8.5c0-0,0-0.06,0-0.1
c0-0.03,0-0.1,0-0.1V8.3c0-0,0-0.1,0-0.1c0-0,0-0.1,0-0.1c0-0,0-0.1,0-0.1V8
c0-0,0-0.1,0-0.1c0-0,0-0.1,0-0.1V7.77c0-0.03,0-0.1,0-0.1s0-0.1,0-0.1c0-0,0-0.1,0-0.1V7.4
c0-0,0-0.1,0-0.1s0-0.1,0-0.1c0-0.03,0-0.1,0-0.1V7.1c0-0,0-0.1,0-0.1c0-0,0-0.1,0-0.1
c0-0,0-0.1,0-0.1V6.8c0-0,0-0.1,0-0.1s0-0.1,0-0.1c0-0.03,0-0.06,0-0.1V6.5c0-0,0-0.1,0-0.1
c0-0,0-0.1,0-0.1V6.3c0-0,0-0.1,0-0.1V6.1c0-0,0-0.1,0-0.1c0-0,0-0.1,0-0.1
c0-0,0-0.1,0-0.1v-0.04c0-0,0-0.1,0-0.1V5.7c0-0,0-0.1,0-0.1V5.6c0-0,0-0.06,0-0.1
c0-0.03,0-0.1,0-0.1h0L0.3,5.3c0-0,0-0.1,0-0.1V5.2C0.3,5.19,0.3,5.16,0.3,5.1
C0.4,5.1,0.4,5.1,0.43,5c0-0,0.1-0.1,0.1-0.1l0.1-0.1c0-0.03,0-0.1,0-0.1
C0.7,4.8,0.7,4.7,0.7,4.7c0-0.03,0-0.1,0-0.1c0,0,0.06-0,0.1-0l0-0
c0.1-0,0.1-0,0.1-0c0.1-0,0.1-0.1,0.2-0.1c0.1,0,0.1-0,0.2-0
c0,0,0-0,0-0c0.1,0,0.1,0,0.1,0C1.6,4.28,1.7,4.3,1.77,4.3V4.2h0.1
C1.9,4.3,2,4.28,2,4.31c0,0,0,0,0,0c0,0,0,0,0,0c0,0,0,0.1,0,0.1
c0.8,0,1.6,0,2.3,0C4.4,4.5,4.4,4.5,4.4,4.4c0-0-0-0.1-0-0.1V4.31
C4.3,4.28,4.3,4.3,4.3,4.2V4.18c0-0,0-0.1,0-0.1V3.9c0-0,0-0.1,0-0.1V3.7
c0.03-0,0.06-0,0.1-0V3.6C4.4,3.6,4.4,3.56,4.4,3.5c0-0.03,0-0.06,0-0.1
C4.48,3.4,4.5,3.4,4.5,3.4c0,0,0-0,0-0c0-0,0-0.1,0-0.1
c0,0,0.1-0,0.1-0c0,0,0.1-0,0.1-0c0,0,0.1-0,0.1-0V3.1
c0-0,0-0.1,0-0.1c0-0,0-0.1,0-0.1V2.84c0-0,0-0.06,0-0.1V2.7c0-0,0-0.1,0-0.1
c0.1-0,0.1-0.1,0.1-0.1c0-0,0.1-0.06,0.1-0.1l0-0c0,0,0.1,0,0.1,0
c0.1,0,0.2,0,0.39,0c0,0,0.1,0,0.13,0c0,0,0.1,0,0.1,0
c0.1,0,0.1,0.1,0.2,0.1c0,0,0,0.1,0,0.1c0,0,0.1,0,0.13,0
c0.1,0,0.1,0,0.1,0v0c0.1-0,0.16-0,0.2-0c0.03,0,0.1-0,0.1-0
c0,0,0.1-0,0.1-0c0,0,0.1-0,0.1-0c0,0,0.1,0,0.13,0c0,0,0,0.1,0.1,0.1
c0-0,0-0.1,0-0.1c0-0,0-0.1,0-0.1c0,0,0.1-0,0.1-0l0-0
c0.03-0,0.1-0.1,0.1-0.1C7.5,2.3,7.48,2.3,7.48,2.2c0-0,0.1-0.1,0.1-0.1l0-0
c0-0.03,0-0.06,0-0.1c0-0,0-0.1,0-0.1c0,0,0.1-0,0.1-0c0-0,0-0.1,0-0.1
c0-0,0.1-0,0.1-0C7.81,1.73,7.84,1.7,7.9,1.7c0-0,0-0,0-0
c0.1-0.03,0.1-0,0.1-0C8.1,1.6,8.2,1.6,8.2,1.6V1.5h0c0,0,0-0,0-0
c0,0,0-0,0-0c0,0,0.1,0,0.1,0c0.1,0,0.1,0,0.2,0c10.1,0,20.2,0,30.4,0h0
c0-0,0-0,0-0c0,0,0.1,0,0.1,0V1.4c0,0,0.1,0,0.1,0c0.1,0,0.1,0.1,0.2,0.1
c0.1,0,0.1,0,0.2,0c0,0,0.06,0,0.1,0c0.1,0,0.1,0.1,0.1,0.1
c0.03,0.03,0.1,0.06,0.1,0.1L40,1.8c0,0.03,0.1,0.1,0.1,0.1c0.03,0,0.1,0.06,0.1,0.1
c0,0,0,0.1,0,0.1c0,0,0,0.1,0,0.1c0.1,0,0.1,0.1,0.13,0.1
c0,0,0,0.1,0,0.1c0,0,0.1,0.1,0.1,0.1c0,0,0,0,0.1,0
c0,0,0,0,0,0v0c0.1,0,0.1,0,0.1,0c0,0,0.1,0,0.1,0
c0,0,0,0,0,0c0.2,0,0.4,0,0.6,0c0-0,0-0,0-0c0,0,0.1-0,0.1-0
c0,0,0.1,0,0.2,0c0,0,0.1,0,0.1,0c0,0,0,0,0,0c0.03,0,0.1,0,0.1,0
c0.1,0,0.1,0.1,0.2,0.1l0,0c0.1,0,0.1,0,0.13,0h0c0.1,0,0.1,0.1,0.2,0.1
v0c0.1,0.03,0.1,0.06,0.2,0.1c0,0,0,0.1,0,0.1c0,0,0.1,0,0.1,0c0,0,0,0.1,0,0.1
c0,0.03,0,0.1,0,0.1c0,0,0,0.06,0,0.1v0c0,0.1,0,0.1,0,0.1c0,0.1,0.1,0.1,0.1,0.2l0,0.1
c0,0.1,0,0.1,0,0.2c0,0,0,0.1,0,0.1c0,0.1,0,0.1,0,0.2C43.17,4.3,43.2,4.28,43.2,4.31
c0.1,0,0.1,0,0.1,0s0.1,0,0.13,0c0,0,0,0,0,0c0,0,0.1,0.1,0.1,0.1
c0.03,0,0,0.1,0,0.1c0,0,0,0,0,0v0c0,0.03,0,0.1,0,0.1
c0,0-0,0.1-0,0.1c0,0.03,0,0.1,0,0.1l-0,0c0,0,0,0.1,0,0.1c0,0,0,0.06,0,0.1v0
c0,0.03,0,0.1,0,0.1c0,0,0,0.1,0,0.1c0,0.1,0.03,0.1,0.1,0.2l0,0.1
c0,0.1,0,0.1,0,0.2c0,0,0,0.1,0,0.1c0,0.1,0,0.1,0,0.2l-0,0h0
c0.1,0,0.1,0.1,0.2,0.1c0,0,0,0,0,0C44,6.3,44.1,6.4,44.15,6.4z M23.48,11.6
c-0.03-0-0-0.1-0-0.1c-0.03,0-0.1-0-0.1-0c-0-0-0-0.1-0-0.1
c0-0,0-0.1,0-0.1c-0.03-0-0-0.1-0-0.1c0,0-0,0.1-0,0.1c0,0,0,0.1,0,0.1
c0,0,0,0.1,0,0.1v0c0,0.03,0,0.1,0,0.1c0,0,0,0.1,0,0.1c0,0.03,0,0.1,0,0.1
c0,0,0,0,0,0v0c0,0,0,0.1,0,0.1c0,0,0,0.1,0,0.1s0,0.1,0,0.1v0
c0.03,0,0.1,0.1,0.1,0.1v0c0.2,0,0.4,0,0.7,0c-0-0-0.06-0-0.1-0
c-0.03-0-0.1-0.1-0.1-0.1c-0,0-0-0-0-0c-0-0.03-0.1-0.1-0.1-0.1
s-0-0.1-0-0.1c0-0,0-0.1,0-0.1c-0,0-0-0-0-0c-0,0-0.1-0-0.1-0
c-0-0-0.1-0.1-0.1-0.1C23.48,11.7,23.48,11.6,23.48,11.6z M0.9,7.1c0,0,0,0.1,0,0.1
c0,0.03,0,0.06,0,0.1c0,0,0,0.1,0,0.1c0,0,0,0.1,0,0.1V7.51c0,0,0,0.1,0,0.1v0
c0,0,0,0.1,0,0.1V7.77c0,0,0,0.1,0,0.1c0,0,0,0.1,0,0.1c0,0.03,0,0.06,0,0.1v0
c0,0,0,0.1,0,0.1v0c0,0.03,0,0.1,0,0.1c0,0.03,0,0.1,0,0.1v0.1c0-0.03,0-0.1,0-0.1
c0-0.03,0-0.1,0-0.13c0-0.1,0-0.1,0-0.2c0-0,0-0.1,0-0.1c0-0.1,0-0.1,0-0.1c0-0,0-0.1,0-0.13
c0-0.1,0-0.1,0-0.2c0-0.03,0-0.1,0-0.13c0-0.1,0-0.1,0-0.1c0-0.1,0-0.1,0-0.13c0-0.1,0-0.1,0-0.2
c0-0.1,0-0.1,0-0.1c0-0.06,0-0.1,0-0.1S0.9,6.6,0.9,6.6v0c0,0,0,0.1,0,0.1
c0,0,0,0.1,0,0.1v0.04c0,0,0,0.06,0,0.1c0,0,0,0.1,0,0.1V7.1z"/>
</g>
</g>
</g>
<g id="guides">
</g>
</svg>
