<svg xmlns="http://www.w3.org/2000/svg"
 width="73.6px" height="32px" viewBox="0 0 73.6 32">
<g id="Selected_Items">
<g>
<g id="Selected_Items_37_">
<path fill-rule="evenodd" clip-rule="evenodd" fill="#FFFFFF" d="M32.1,2.1c0-0,0.1-0.1,0.1-0.1
c0-0,0-0.1,0-0.1V1.8c0-0,0-0.1,0-0.1V1.7c0.2,0,0.3,0,0.5,0c0,0,0,0.1,0,0.1
c0.2,0,0.3,0,0.5,0v0.1c0,0,0.1,0,0.1,0c0,0,0,0.1,0,0.1
c0.1,0,0.1,0,0.1,0c0,0,0,0.1,0,0.1c0,0,0.1,0,0.1,0.1c0,0,0.1,0.1,0.1,0.1
c0.1,0,0.1,0.1,0.1,0.1c0.1,0,0.1,0.1,0.1,0.1l0,0c0.1,0,0.2,0.1,0.3,0.1
v0.1c0,0,0.07,0,0.1,0c0,0,0,0.1,0,0.1c10.4,0,20.74,0,31.1,0
c0.1,0,0.1,0.1,0.21,0.1c0,0,0.1,0.1,0.1,0.1c0,0,0.1,0.1,0.1,0.1l0,0.1
c0,0,0,0.1,0,0.1c0,0,0,0.1,0,0.1v0h0c0,0.1,0.1,0.1,0.1,0.1
c0,0,0.2,0.5,0.42,1.5c0.3,0.98,0.5,1.47,0.8,1.47h1.3l0.25-0.1h0.3V6.5h1.2l0.3,0
l0.3,0.1h1.8l0.17,0.1l0.1,0.1l0.5,0l-0,4l-0,0.1l-0,0.1l-0.2,0.2h-0.2L72.8,11.2
v0h-3.7l1.6,3.7c0,0.1,0,0.1,0,0.1c0,0,0,0.1,0,0.1s0,0.1,0,0.1v0
c0,0.1,0,0.1,0,0.1c0,0,0,0.1,0,0.1c0,0,0,0.1,0,0.1v0.8c0,0-0.6,0-1.7,0
c-0.1-0-0.6-1-1.6-3c-0.4,0-0.9,0.1-1.3,0.1c-0.1,0-0.2,0-0.2,0
c-0.1,0-0.2,0-0.2,0h-0.1c0,0-0,0.1-0,0.1c0,0.1-0,0.1-0,0.1c0,0.1,0,0.1,0,0.1
c0,0,0,0.06,0,0.1s-0,0.1-0,0.1c0,0.1-0,0.1-0,0.1c0,0,0,0.1,0,0.1s0,0.1,0,0.1
v0c0,0.1,0,0.1,0,0.1c0,0,0,0.1,0,0.1c0,0,0,0.1,0,0.1c0,0,0,0.1,0,0.1s0,0.1,0,0.1v0.1
c0,0,0,0.07,0,0.1c0,0,0,0.1,0,0.1c0,0,0,0.1,0,0.1c0,0.1,0,0.1,0,0.1v0.1
c0,0,0,0.1,0,0.1v0c0,0.1,0,0.1,0,0.1s0,0.1,0,0.1s0,0.1,0,0.1v0c0,0.1,0,0.1,0,0.1
c0,0,0,0.1,0,0.1s0,0.07,0,0.1v0c0,0.1,0,0.1,0,0.1v0c0,0,0,0.1,0,0.1c0,0,0,0.1,0,0.1
c0,0,0.1,0.1,0.1,0.1c0,0.1,0,0.1,0,0.1v0.1c0,0,0,0.07,0,0.1v0c0,0.1,0,0.1,0,0.1
c0,0,0,0.1,0,0.1c0,0,0,0.1,0,0.1v0c0,0.1,0,0.1,0,0.1v0.1c0,0,0,0.07,0,0.1
c0,0,0,0.1,0,0.1c0,0,0.1,0.1,0.1,0.1c0,0.1,0,0.1,0,0.1v0.1
c0,0,0,0.1,0,0.1c0,0,0,0.1,0,0.1c0,0.1,0,0.1,0,0.1v0.1c0,0,0,0.07,0,0.1v0
c0,0.1,0,0.1,0,0.1s0,0.1,0,0.1c0,0,0,0.1,0,0.1c0,0,0,0,0,0c0,0.1,0,0.1,0,0.1
c0,0,0,0.1,0,0.1c0,0,0,0.1,0,0.1c0,0,0,0.1,0,0.1s0,0.1,0,0.1
c0,0.1,0,0.1,0,0.1v0.1c0,0,0,0.1,0,0.1c0,0,0,0.1,0,0.1
c0,0.1,0,0.1,0,0.1c0,0,0,0.1,0,0.1c0,0,0,0.1,0,0.1v0.1
c0,0.1,0.1,0.1,0.1,0.1c0,0,0,0.1,0,0.1c0,0,0,0.1,0,0.1c0,0,0,0.1,0,0.1
c0,0,0,0.1,0,0.1c0,0,0,0.07,0,0.1c0,0,0,0,0,0.1c0,0,0,0.1,0,0.1
c0,0,0,0.1,0,0.1c0,0.1,0,0.1,0,0.1c0,0,0,0,0,0.1
c0,0,0,0.1,0,0.1c0,0,0.1,0.1,0.1,0.1c0,0.1,0,0.1,0,0.1c0,0,0,0.1,0,0.1
c0,0,0,0.1,0,0.1v0.1c0,0.1,0,0.1,0,0.1c0,0,0.1,0.1,0.1,0.1c0,0,0,0.1,0,0.1
c0,0,0,0.1,0,0.1c0,0,0,0.1,0,0.1c0,0,0.1,0.1,0.1,0.1c0,0,0,0.03,0,0.1
c0,0,0,0.1,0,0.1c0,0,0,0.1,0,0.1s0,0.07,0,0.1c0,0,0,0.1,0,0.1
c0,0,0,0.1,0,0.1c0,0.1,0.1,0.1,0.1,0.1c0,0.1,0,0.1,0,0.1c0,0,0,0.1,0,0.1
c0,0,0,0.1,0,0.1c0.03,0.1,0.1,0.1,0.1,0.1c0,0,0,0.1,0,0.1c0,0,0,0.1,0,0.1v0
c0,0.1,0,0.1,0,0.1c0,0,0.1,0.1,0.1,0.1c0,0,0,0.1,0,0.1v0.1c0,0,0,0.1,0,0.1
c0,0,0,0.1,0,0.1c0,0,0.1,0.1,0.1,0.1c0,0,0,0.1,0,0.1
c0,0,0,0.1,0,0.1v0.1c0,0,0,0.1,0,0.1c0,0,0,0.1,0,0.1c0,0,0,0.1,0,0.1
c0,0.1,0,0.1,0,0.1c0,0,0,0.1,0,0.1c0,0,0,0.1,0,0.1l0,0c0,0.1,0.1,0.1,0.1,0.1
s0,0.1,0,0.1c0,0,0,0.07,0,0.1v0c0,0.1,0,0.1,0,0.1v0.1c0,0,0,0.1,0,0.1
c0,0,0,0.1,0,0.1c0,0,0,0.1,0,0.1c0,0.1,0,0.1,0,0.1v0.1c0,0,0,0.1,0,0.1s0,0.1,0,0.1
c0,0.1,0,0.1,0,0.1v0.1c0,0,0,0.1,0,0.1v0.04c0,0.1,0,0.1,0,0.1c0,0,0,0.1,0,0.1s0,0.1,0,0.1
v0c0,0.1,0,0.1,0,0.1v0.1c0,0,0,0.1,0,0.1c0,0,0,0.1,0,0.1s0,0.1,0,0.1
c0,0.1-0,0.1-0,0.1v0c0,0,0,0.07,0,0.1v0c-0,0.1-0.1,0.1-0.1,0.1
c0,0.1-0,0.1-0,0.1c-0,0-0,0.1-0,0.1c-0,0-0,0-0,0
c-0.1,0-0.2,0.1-0.25,0.1c-0.1,0-0.2,0-0.21,0c-0.1,0-0.1,0.1-0.1,0.1
c-0,0-0.1,0-0.2,0c-0.1,0-0.1,0-0.21,0c-0,0-0.1,0.1-0.1,0.1
c-0.1,0-0.1,0-0.2,0.04c-0.1,0-0.3,0-0.4,0c-0,0-0.1,0-0.1,0
c-0.1,0-0.1,0-0.2,0c-0.2,0-0.4,0-0.5,0c-0.1,0-0.1,0.1-0.2,0.1
c-0.5,0-1,0-1.4,0c-0,0-0.1,0.1-0.1,0.1c-0.1,0-0.1,0-0.2,0
c-0.28,0-0.56,0.1-0.84,0.1c-0,0-0.1,0-0.1,0c-0.1,0-0.2,0.1-0.2,0.1
c-0.1-0-0.2-0.1-0.21-0.1s-0.1-0-0.1-0h-0c-0.1,0-0.2-0-0.2-0
c-0.1-0.1-0.1-0.1-0.2-0.1c-0-0.03-0.1-0.1-0.1-0.1c-0-0-0.1-0.07-0.1-0.1v-0
c-0-0.1-0-0.1-0-0.1c0-0,0-0.1,0-0.1c-0-0-0-0.07-0-0.1
c-0.03-0-0.1-0-0.1-0c0-0.1,0-0.1,0-0.1v-0.1c-0-0.03-0.1-0.1-0.1-0.1
c-0-0-0.1-0.1-0.1-0.1c0-0.03-0-0.1-0-0.1c0-0.1,0-0.1,0-0.1l-0-0.1
c0-0,0-0.1,0-0.1v-0c-0-0.1-0.1-0.1-0.1-0.1c-0-0-0.1-0.1-0.1-0.1
c0-0,0-0.07,0-0.1v-0c0-0.1-0-0.1-0-0.1c-0.03-0.1-0.1-0.1-0.1-0.1
c0-0-0-0.1-0-0.1c0-0,0-0.1,0-0.1c0-0,0-0.1,0-0.1c0-0.1-0-0.1-0-0.1v-0.1
c0-0,0-0.1,0-0.1c0-0,0-0.1,0-0.1c0-0.1,0-0.1,0-0.1v-0.1c-0-0-0.1-0.1-0.1-0.1
c-0,0-0.1-0-0.1-0C60,26.53,60,26.5,60,26.46c-0-0-0.1-0.1-0.1-0.1
c0-0.03-0-0.1-0-0.1v-0c0-0.1,0-0.1,0-0.1v-0.1c0-0,0-0.1,0-0.1
c0-0-0-0.1-0-0.1c0-0-0-0.1-0-0.1c0-0.1,0-0.1,0-0.1v-0.1c0-0,0-0.1,0-0.1
c0-0,0-0.1,0-0.1c0-0.1,0-0.1,0-0.1c-0-0-0.1-0.1-0.1-0.1c-0-0-0-0.1-0-0.1
v-0c0-0.1,0-0.1,0-0.1c0-0,0-0.1,0-0.1c0-0,0-0.1,0-0.1c0-0,0-0.1,0-0.1
c0-0,0-0.1,0-0.1c0-0,0-0.1,0-0.1v-0.1c-0-0-0-0.1-0-0.1
c-0.03-0-0-0.1-0-0.1c0-0.1-0-0.1-0-0.1v-0.1c0-0,0-0.1,0-0.1s0-0.1,0-0.1
c0-0.1,0-0.1,0-0.1c0-0,0-0.1,0-0.1s0-0.1,0-0.1v-0.1c0-0.1,0-0.1,0-0.1s0-0.1,0-0.1
c0-0.03,0-0.1,0-0.1c0-0,0-0.1,0-0.1c0-0,0-0.1,0-0.1c0-0,0-0.1,0-0.1v-0.1
c0-0-0-0.1-0-0.1c-0.03-0-0.1-0.1-0.1-0.1c-0-0-0-0.07-0-0.1
c0-0,0-0.1,0-0.1c0-0,0-0.1,0-0.1v-0.1c0-0.1,0-0.1,0-0.1s0-0.1,0-0.1c0-0,0-0.1,0-0.1
c0-0.1,0-0.1,0-0.1s0-0.1,0-0.1c0-0,0-0.1,0-0.1v-0c0-0.1,0-0.1,0-0.1s0-0.1,0-0.1
c0-0,0-0.1,0-0.1v-0.1c0-0,0-0.1,0-0.1s0-0.1,0-0.1c-0-0-0.1-0.1-0.1-0.1
c0-0,0-0.1,0-0.1c0-0,0-0.1,0-0.1v-0.1c0-0,0-0.1,0-0.1c0-0,0-0.1,0-0.1
c0-0,0-0.1,0-0.1c0-0.1,0-0.1,0-0.1c0-0,0-0.1,0-0.1s0-0.1,0-0.1v-0c0-0.1,0-0.1,0-0.1
c0-0.03,0-0.1,0-0.1c0-0,0-0.1,0-0.1v-0c0-0.1,0-0.1,0-0.1v-0.1c0-0,0-0.1,0-0.1
c0-0,0-0.1,0-0.1c0-0,0-0.1,0-0.1c-0-0.1-0-0.1-0-0.1c-0,0-0.1-0-0.1-0.1
c0-0,0-0.1,0-0.1s0-0.1,0-0.1c0-0.1,0-0.1,0-0.1v-0.1c0-0,0-0.07,0-0.1v-0
c0-0.1,0-0.1,0-0.1s0-0.1,0-0.1s0-0.1,0-0.1v-0c0-0.1,0-0.1,0-0.1v-0.1c0-0,0-0.1,0-0.1
c0-0,0-0.1,0-0.1c0-0,0-0.1,0-0.1c0-0.1,0-0.1,0-0.1v-0.1c0-0,0-0.1,0-0.1V16.84
c0-0.1-0-0.1-0-0.1s-0.1-0-0.1-0c0-0-0-0.1-0-0.1v-0c0-0.1,0-0.1,0-0.1
v-0.1c-0.1-0-0.1-0.07-0.1-0.1c-0-0-0.1-0-0.1-0c0-0.1,0-0.1,0-0.1s0-0.1,0-0.1
s0-0.07,0-0.1c0-0-0-0-0-0c-0-0-0.1-0.1-0.1-0.1l-0.1-0
c-0.1-0-0.2-0.1-0.3-0.1c-0,0-0.1-0-0.1-0.1V15.37c-0-0-0.1-0-0.1-0
c-0.1,0-0.2-0-0.3-0h-0.1c-0,0-0.07,0-0.1,0s-0.1,0-0.3,0c-0.1,0-0.1,0-0.3,0
c-0.1,0-0.1,0-0.2,0c0,0.1-0,0.1-0,0.1c-0.1,0-0.1,0.1-0.2,0.1
c-0.1,0-0.1,0.1-0.2,0.1c0,0-0,0-0,0c0,0.1,0,0.1,0,0.1
c-0.1,0.1-0.1,0.1-0.1,0.1c-0,0-0.1,0.1-0.1,0.1c-0.1,0-0.1,0.1-0.1,0.1
c-0.1,0-0.1,0.1-0.1,0.1l-0,0.1c-0.1,0-0.1,0.1-0.1,0.1c-0,0-0.1,0.1-0.1,0.1
c-0,0-0.1,0.1-0.1,0.1l-0,0.1c-0.1,0-0.1,0-0.2,0.1c-0,0.03-0.07,0.1-0.1,0.1
c-0,0-0.1,0-0.1,0c0,0.1-0,0.1-0,0.1c-0.1,0-0.1,0.1-0.1,0.1
s-0.1,0.1-0.1,0.1c-0,0-0.1,0-0.1,0c-0.1,0.1-0.1,0.1-0.2,0.1
c-0,0.1-0.1,0.1-0.1,0.1c-0,0-0.1,0.1-0.1,0.1c-0.1,0.03-0.1,0.1-0.1,0.1
c-0,0-0.1,0.1-0.1,0.1c-0,0.1-0.1,0.1-0.1,0.1l-0.1,0.1c-0,0-0.1,0.1-0.1,0.1
c-0.1,0-0.2,0-0.25,0c-0.1,0-0.1,0.1-0.17,0.1c-0,0.1-0.1,0.1-0.1,0.1
c-0,0-0.1,0-0.1,0.1c-0.1,0-0.2,0.1-0.3,0.1c-0.1,0-0.2,0.1-0.3,0.1
c-0.1,0.1-0.14,0.1-0.2,0.1c-0.1,0-0.1,0-0.2,0.1c-0.1,0-0.1,0.1-0.2,0.1
c-0.1,0-0.21,0-0.3,0c-0,0-0.1,0-0.1,0c-0.1,0-0.1,0-0.2,0c-0.2,0-0.5,0.1-0.7,0.1
c-0.1,0-0.2,0.1-0.2,0.1c-0.6,0-1.2,0-1.8,0c-0.1-0-0.1-0.1-0.3-0.1
c-0.14-0-0.3-0.1-0.5-0.1c-0.1,0-0.1,0-0.21,0c0-0.1-0-0.1-0.1-0.1
c-0-0.1-0.1-0.1-0.1-0.1c0-0-0-0.1-0-0.1c-0.1-0-0.1-0.1-0.1-0.1
c-0.1-0-0.1-0.1-0.3-0.1c0-0.1-0-0.1-0.1-0.1c-0.1-0-0.1-0.1-0.1-0.1
c-0-0-0.1-0.1-0.1-0.1c0,0-0,0.1-0,0.1c-0,0.1-0,0.1-0,0.1
c-0,0-0.1,0-0.1,0.1c0,0,0,0.1,0,0.1c-0,0-0,0.1-0,0.1
c-0,0.1-0,0.1-0,0.1c-0,0-0.1,0-0.1,0.1c0,0-0,0.07-0,0.1
c-0,0-0.1,0-0.1,0c0,0.1,0,0.1,0,0.1s0,0.1,0,0.1c-0,0-0,0.1-0,0.1l-0,0
c-0,0.1-0,0.1-0,0.1c-0,0-0.1,0.1-0.1,0.1c0,0,0,0.1,0,0.1c0,0,0,0.1,0,0.1
s0,0.1,0,0.1c0,0.1-0,0.1-0,0.1l-0,0.1c-0,0-0.1,0.1-0.1,0.1c0,0,0,0.1,0,0.1
c0,0.1,0,0.1,0,0.1c0,0,0,0.1,0,0.1c-0,0-0,0.1-0,0.1c0,0.1-0,0.1-0,0.1
c-0,0.1-0,0.1-0,0.1c-0,0-0,0.1-0,0.1c-0,0-0.1,0.1-0.1,0.1
c0,0,0,0.1,0,0.1c0,0,0,0.1,0,0.1s-0,0.07-0,0.1c-0,0-0.1,0-0.1,0.1
c0,0-0,0.1-0,0.1c0,0,0,0.1,0,0.1c-0,0.1-0,0.1-0,0.1v0.1c0,0,0,0.1,0,0.1
c0,0,0,0.1,0,0.1c0,0.1,0,0.1,0,0.1s0,0.1,0,0.1c0,0,0,0.1,0,0.1l-0,0.1
c-0,0.1-0,0.1-0,0.1c-0.03,0-0.1,0.1-0.1,0.1c0,0,0,0.1,0,0.1c0,0,0,0.1,0,0.1
c0,0,0,0.1,0,0.1s0,0.1,0,0.1v0.1c0,0,0,0.1,0,0.1c-0,0-0,0.1-0,0.1
s-0,0.07-0,0.1c-0,0-0.1,0.1-0.1,0.1c0,0,0,0.1,0,0.1v0.1c0,0.1,0,0.1,0,0.1
c0,0,0,0.1,0,0.1c0,0,0,0.1,0,0.1c0,0.1,0,0.1,0,0.1c-0,0-0,0.1-0,0.1
c-0,0-0,0.1-0,0.1v0c0,0.1,0,0.1,0,0.1c0,0,0,0.1,0,0.1s0,0.1,0,0.1v0.1
c0,0,0,0.1,0,0.1s0,0.1,0,0.1c0,0,0,0.1,0,0.1c0,0,0,0.1,0,0.1c0,0,0,0.1,0,0.1v0.1
c0,0,0,0.1,0,0.1c0,0,0,0.1,0,0.1c0,0,0,0.1,0,0.1c0,0.1,0,0.1,0,0.1c0,0,0,0.1,0,0.1
c0,0,0,0.1,0,0.1v0c0,0.1,0,0.1,0,0.1s0,0.1,0,0.1c0,0,0,0.07,0,0.1v0c0,0.1,0,0.1,0,0.1
v0.1c0,0,0,0.1,0,0.1c0,0,0,0.1,0,0.1c0,0,0,0.1,0,0.1c0,0.1,0,0.1,0,0.1v0.1
c0,0,0,0.1,0,0.1s0,0.1,0,0.1c0,0.1,0,0.1,0,0.1v0.1c0,0,0,0.1,0,0.1v0.04c0,0.1,0,0.1,0,0.1
c0,0,0,0.1,0,0.1s0,0.1,0,0.1v0c0,0.1,0,0.1,0,0.1v0.1c0,0,0,0.1,0,0.1c0,0,0,0.1,0,0.1
s0,0.1,0,0.1c0,0.1,0,0.1,0,0.1v0.1c0,0,0,0.1,0,0.1v0c0,0.1,0,0.1,0,0.1c0,0,0,0.1,0,0.1
c0,0,0,0.1,0,0.1v0c0,0.1,0,0.1,0,0.1c0,0,0,0.1,0,0.1c0,0,0,0.1,0,0.1
c0,0,0,0.1,0,0.1s0,0.1,0,0.1l-0,0.1c-0,0-0.1,0.07-0.1,0.1
c-0,0-0.1,0.1-0.1,0.1c-0.1,0-0.1,0-0.2,0v0c0,0.1,0,0.1,0,0.1s0,0.1,0,0.1
c0,0,0,0.1,0,0.1v0c0,0.1,0,0.1,0,0.1c0,0.03,0,0.1,0,0.1s0,0.07,0,0.1c0,0,0,0.1,0,0.1
c-2.4,0-4.9,0-7.31,0v-0c0-0,0-0.1,0-0.1v-0.1c0-0,0-0.1,0-0.1c0-0,0-0.1,0-0.1
s0-0.1,0-0.1c0-0.1,0-0.1,0-0.1V30.03c0-0,0-0.1,0-0.1v-0c-0.3,0-0.6,0-0.8,0
c-0,0-0.1,0-0.1,0c-0.1,0-0.1,0-0.2,0c-0.1,0-0.2,0-0.2,0c-0.1,0-0.1,0-0.1,0
c-0.1,0-0.1,0-0.2,0c-0.1,0-0.2,0-0.2,0c-0.1,0-0.2-0-0.2-0c-0.1-0.1-0.1-0.1-0.1-0.1
c-0.03-0.03-0.1-0.1-0.1-0.1c0-0,0-0.07,0-0.1v-0c0-0.1,0-0.1,0-0.1
c-0-0-0.1-0.1-0.1-0.1c-0-0-0.1-0.07-0.1-0.1v-0c0-0.1,0-0.1,0-0.1v-0.1
c0-0.03,0-0.1,0-0.1c0-0,0-0.1,0-0.1c0-0.03,0-0.1,0-0.1c0-0.1,0-0.1,0-0.1v-0.1
c0-0,0-0.1,0-0.1v-0c0-0.1,0-0.1,0-0.1c0-0,0-0.1,0-0.1c-0-0-0-0.07-0-0.1v-0
c0-0.1,0-0.1,0-0.1v-0.1c0-0,0-0.1,0-0.1c0-0,0-0.1,0-0.1c0-0,0-0.1,0-0.1
c0-0.1,0-0.1,0-0.1v-0.1c0-0,0-0.1,0-0.1c0-0,0-0.1,0-0.1c0-0.1,0-0.1,0-0.1v-0.1
c0-0,0-0.1,0-0.1v-0c0-0.1,0-0.1,0-0.1s0-0.1,0-0.1c0-0.03,0-0.1,0-0.1v-0
c0-0.1,0-0.1,0-0.1v-0.1c0-0,0-0.1,0-0.1c0-0,0-0.1,0-0.1c0-0,0-0.1,0-0.1
c0-0.1,0-0.1,0-0.1v-0.1c0-0,0-0.1,0-0.1c0-0,0-0.1,0-0.1c0-0.1,0-0.1,0-0.1s0-0.1,0-0.1
c0-0,0-0.1,0-0.1v-0c0-0.1,0-0.1,0-0.1c0-0,0-0.1,0-0.1c0-0,0-0.1,0-0.1
c0-0,0-0.1,0-0.1c0-0,0-0.1,0-0.1c0-0,0-0.1,0-0.1v-0.1c0-0,0-0.1,0-0.1
c0-0,0-0.1,0-0.1c0-0.1,0-0.1,0-0.1v-0.1c0-0,0-0.1,0-0.1c0.03-0,0-0.1,0-0.1
c0.1-0.1,0.1-0.1,0.1-0.1c0-0,0-0.1,0-0.1s0-0.1,0-0.1v-0.1c0-0.1,0-0.1,0-0.1s0-0.1,0-0.1
c0-0.03,0-0.1,0-0.1c0-0,0-0.1,0-0.1c0-0,0.1-0.1,0.1-0.1c0-0,0-0.1,0-0.1
v-0.1c0-0,0-0.1,0-0.1s0-0.1,0-0.1c0-0,0-0.07,0-0.1c0-0,0-0.1,0-0.1
c0-0,0-0.1,0-0.1v-0.1c0-0.1,0-0.1,0-0.1s0-0.1,0-0.1c0-0,0-0.1,0-0.1
c0.1-0.1,0.1-0.1,0.1-0.1c0-0,0-0.1,0-0.1c0-0,0.1-0.1,0.1-0.1l0-0
c0-0.1,0-0.1,0-0.1s0-0.1,0-0.1c0-0,0-0.1,0-0.1v-0.1c0-0,0-0.1,0-0.1
c0-0,0-0.1,0-0.1c0-0,0-0.1,0-0.1c0-0,0-0.1,0-0.1
c0-0,0-0.1,0-0.1l0-0.1c0-0,0-0.1,0-0.1c0-0,0.1-0.1,0.1-0.1
c0-0,0.1-0.1,0.1-0.1c0-0.1,0-0.1,0-0.1c0-0,0-0.1,0-0.1
c0-0,0-0.1,0-0.1v-0c0-0.1,0-0.1,0-0.1c0-0.03,0.1-0.1,0.1-0.1
c0-0,0-0.1,0-0.1c0.03-0,0.1-0,0.1-0c0-0.1,0.1-0.1,0.1-0.1v-0.1
c0-0,0-0.1,0-0.1c0-0,0-0.1,0-0.1c0-0,0-0.1,0-0.1c0-0.1,0-0.1,0-0.1
c0,0,0.1-0,0.1-0.1c0-0,0-0.1,0-0.1s0-0.1,0-0.1
c0-0.1,0.1-0.1,0.1-0.1c0.03,0,0.1-0,0.1-0.1c0-0,0-0.07,0-0.1v-0
c0-0.1,0-0.1,0-0.1c0-0,0.1-0.1,0.1-0.1c0.03-0,0.1-0.1,0.1-0.1v-0
c0-0.1,0-0.1,0-0.1v-0.1c0-0,0-0.1,0-0.1c0-0,0.1-0.1,0.1-0.1
c0-0,0-0.1,0-0.1c0-0.1,0-0.1,0-0.1v-0.1c0-0,0-0.1,0-0.1V16.84
c0-0.1,0-0.1,0-0.1v-0c0-0,0-0.1,0-0.1v-0c0-0.1,0-0.1,0-0.1v-0.1c0-0.03,0-0.1,0-0.1
c0-0,0-0.1,0-0.1c-0-0-0-0.1-0-0.1v-0.1c0-0,0-0.07,0-0.1
c-0-0-0-0.1-0-0.1c-0-0-0.1-0.1-0.1-0.1c-0-0.1-0-0.1-0-0.1l-0.1-0.1
c-0-0-0.1-0.1-0.1-0.1v-0c-0-0.1-0-0.1-0-0.1c-0-0-0.1-0.1-0.1-0.1
c-0-0-0.1-0.07-0.1-0.1l-0-0c0-0.1-0-0.1-0-0.1c-0-0-0.1-0.1-0.1-0.1
c-0-0-0-0.1-0-0.1c0-0,0-0.1,0-0.1c-0-0-0.07-0.1-0.1-0.1
c-0.1-0.1-0.1-0.1-0.1-0.1l-6.9,0c-1.6,0-3.2,0-4.8,0c-0,0-0.1,0.1-0.1,0.1
c-0,0-0.1,0-0.1,0c-0.1,0-0.1,0-0.1,0c-0.1,0-0.1,0-0.2,0c-0.1,0-0.1-0-0.21-0
c-0.1-0-0.1-0.1-0.2-0.1c-0-0.1-0.1-0.1-0.1-0.1c-0,0-0.1-0-0.1-0.1
c0-0,0-0.1,0-0.1v-0c-0-0-0.1-0-0.1-0c-0-0.1-0-0.1-0-0.1
c-0-0-0.1-0.1-0.1-0.1c0-0.03,0-0.1,0-0.1v-0.1c0-0.1,0-0.1,0-0.1c0-0.03,0-0.1,0-0.1
c0-0,0-0.1,0-0.1c0-0,0-0.1,0-0.1c0-0,0-0.1,0-0.1s0-0.1,0-0.1c0-0,0-0.1,0-0.1
c0-0,0-0.1,0-0.1c0-0,0-0.1,0-0.1c0-0,0-0.1,0-0.1v-0.1c0-0,0-0.1,0-0.1
c0-0.03,0-0.1,0-0.1c0-0.1,0-0.1,0-0.1c0-0,0-0.1,0-0.1c0-0,0-0.1,0-0.1v-0.1
c0-0.1,0-0.1,0-0.1c0-0,0-0.1,0-0.1c0-0,0-0.1,0-0.1c0-0.1,0-0.1,0-0.1c0-0,0-0.1,0-0.1
c0-0,0-0.1,0-0.1v-0.1c0-0,0-0.1,0-0.1s0-0.1,0-0.1c0-0,0-0.1,0-0.1c0-0,0-0.1,0-0.1
s0-0.1,0-0.1v-0.1c0-0,0-0.07,0-0.1c0-0.03,0-0.1,0-0.1v-0c-0.2,0-0.3,0-0.5,0
c-0.1,0-0.2,0-0.21,0c-0.1-0-0.2-0.1-0.25-0.1c-0-0-0.1-0.1-0.1-0.1
c-0.03,0-0.1,0-0.1,0c-0.1-0-0.2-0.1-0.21-0.1c-0-0-0.1-0.1-0.1-0.1
c-0,0-0.1-0-0.1-0.1c0-0,0-0.1,0-0.1V9.9H2.9v0.8l-0,0.1L2.8,10.79v0.5h0l0,0
l-0,0.1l-0.8,8.2l-0,0v0.1l-0,0l-0.4,1.3l-1.3,0.1V7.4h0.1L0.54,7.3V7.3h0.1
L0.75,7.4l0.1,0.1v0.1H3.02l0.1,0l0,0l0.1,0h19.3c0.3,0,0.49,0,0.7,0
c0.7,0,1.4-0,2.1-0c0,0,0.1,0,0.1,0c0.1,0,0.1,0,0.2,0V7.6c0-0,0-0.1,0-0.1V7.4
c0-0,0-0.1,0-0.1c0-0,0-0.1,0-0.1c0-0,0-0.1,0-0.1c0-0.1,0-0.1,0-0.1V6.9
c0-0,0-0.1,0-0.1V6.8c0-0.1,0-0.1,0-0.1c0-0,0-0.1,0-0.1c0-0,0-0.1,0-0.1V6.4
c0-0.1,0-0.1,0-0.1V6.2c0-0,0-0.07,0-0.1c0-0,0-0.1,0-0.1c0-0,0-0.1,0-0.1
c0-0.1,0-0.1,0-0.1V5.7c0-0,0-0.1,0-0.1V5.5c0-0.1,0-0.1,0-0.1c0-0.03,0-0.1,0-0.1
c0-0,0-0.07,0-0.1V5.1c0-0.1,0-0.1,0-0.1s0-0.1,0-0.1s0-0.07,0-0.1V4.74c0-0.1,0-0.1,0-0.1V4.53
c0-0,0-0.07,0-0.1c0-0,0-0.1,0-0.1s0-0.1,0-0.1c0-0.1,0-0.1,0-0.1V4c0-0,0-0.1,0-0.1
c0-0,0-0.1,0-0.1c0-0.1,0-0.1,0-0.1c0-0,0-0.1,0-0.1s0-0.1,0-0.1V3.48c0-0.1,0-0.1,0-0.1
s0-0.1,0-0.1c0.1-0,0.1-0.07,0.1-0.1c0.03,0,0.1,0,0.2,0C26,3.1,26,3.1,26,3.06l0-0
c0-0,0.1-0,0.1-0c0.1,0,0.1,0,0.2,0V2.9c1.8,0,3.6,0,5.4,0c0-0.03,0-0.1,0-0.1
s0-0.07,0-0.1c0-0,0-0.1,0-0.1c0-0,0-0.1,0-0.1c0-0,0-0.1,0-0.1V2.43c0.1,0,0.1-0,0.21-0
c0-0,0-0.1,0-0.1V2.2C32,2.2,32,2.1,32.1,2.1z M49.9,16.9c-0.7-0.7-1.1-1.5-1.2-2.4
c-0.1,0.1-0.2,0.2-0.3,0.3c-0.4,0.4-0.6,0.8-0.8,1.2c0,0,0.07,0.1,0.1,0.1
c0.8,0.7,1.6,1.1,2.6,1.2C50.2,17.1,50.1,17,49.9,16.9z M54.6,14.9
c-0.1-0.1-0.1-0.1-0.2-0.2c-0.8-0.8-1.8-1.2-2.9-1.2c-0.4,0-0.9,0.07-1.26,0.2
c-0.1,0.25-0.1,0.5-0.1,0.84c0,1,0.3,1.9,1.01,2.73c1-0.1,1.8-0.5,2.6-1.2
C54,15.7,54.3,15.3,54.6,14.9z M36.2,28.77c0-0,0-0.1,0-0.1h-0c0,0.1,0,0.1,0,0.1
V28.77z"/>
</g>
</g>
</g>
<g id="guides">
</g>
</svg>
