<svg xmlns="http://www.w3.org/2000/svg"
 width="81.5px" height="32px" viewBox="0 0 81.5 32">
<g id="Selected_Items">
<g>
<g id="Selected_Items_38_">
<path fill-rule="evenodd" clip-rule="evenodd" fill="#FFFFFF" d="M80.8,7.29c0,0,0.1,0.1,0.1,0.1
c0.1,0.1,0.1,0.11,0.2,0.1c0,0.1,0,0.1,0,0.2c0,0,0.1,0.1,0.1,0.1
c0,0,0,0,0,0c0,0,0.1,0,0.1,0c0,0.03,0,0.1,0,0.09
c0.03,0,0.1,0,0.1,0v0c0,0,0,0.1,0,0.1c0,0,0,0.1,0,0.1v0c0,0,0,0.1,0,0.1
c0,0,0,0.1,0,0.1L81.42,8.7c0,0.03,0,0,0,0c0,0,0,0.1,0,0.1s0,0.1,0,0.1
c0,0-0,0.1-0,0.1c0,0-0,0.1-0,0.1l-0.1,0c-0,0-0.1,0-0.1,0h-0l0,0
c0,0,0,0.1,0,0.1c0,0.03,0,0.1,0,0.1c-0,0-0,0-0,0c0,0-0,0-0,0
c-0,0-0,0.1-0,0.1c-0,0-0.1,0-0.1,0v0c-0,0-0.1,0-0.1,0
c0,0-0,0-0,0h-0c-0.8,0-1.7,0-2.5,0l-0,0c-0.1,0-0.1,0-0.1,0h-0
c-0,0-0.1,0-0.1,0s-0.1,0-0.1,0c-6.6,0.03-13.1,0.1-19.6,0.1c-0,0-0.1,0-0.1,0v0
c0,0,0,0.1,0,0.1v0.1c0,0,0,0.1,0,0.1s0,0.1,0,0.1v0c0,0.03-0,0.1-0,0.1
c0,0-0,0.1-0,0.1v0.3c0,0,0,0.1,0,0.1v0c0,0,0,0.1,0,0.1c0,0,0,0.1,0,0.1v0.1
c0,0,0,0.1,0,0.1v0.14c0,0,0.1,0,0.1,0c0,0,0.1,0,0.1,0h0
c0,0.03,0.08,0,0.1,0c0.03,0,0.1,0,0.1,0c0.03,0.03,0,0.1,0,0.1H58.6
c0,0,0,0.1,0,0.1v0c0,0,0.1,0,0.1,0v0c0,0.03,0,0.1,0,0.1c0,0.03,0,0.1,0,0.1v0
l0,0c-0.1,0-0.1,0.1-0.1,0.1v0.1c0,0,0,0.1,0,0.1c0,0,0,0.1,0,0.1v0.1
c0,0,0,0.1,0,0.1v0.1c0,0,0,0.1,0,0.1c0,0,0,0.1,0,0.1v0c0,0,0,0.1,0,0.1
c0,0,0,0.1,0,0.1v0c0,0,0,0.1,0,0.1v0c0,0,0,0.1,0,0.1c0,0,0,0.1,0,0.1
c0,0,0,0.1,0,0.1v0c0,0,0,0.1,0,0.1c0,0,0,0.1,0,0.1c0,0,0,0.1,0,0.1
c0,0,0,0.1,0,0.1v0c0,0,0,0.1,0,0.1c0,0,0,0.1,0,0.1v0.14c0,0,0,0.1,0,0.1v0
c0,0,0,0.1,0,0.1c0,0,0,0.1,0,0.1v0c0,0,0,0.1,0,0.1c0,0,0,0.1,0,0.1
c0,0,0,0.1,0,0.1s0,0.1,0,0.1v0l-0,0v0c-0.1,0-0.1,0-0.1,0c-0.1,0-0.2,0-0.3,0
c-0,0-0.1-0-0.1-0h-0v0c0,0,0,0.1,0,0.1v0c0,0.03,0,0.1,0,0.1c0,0,0,0.1,0,0.1
v0c0,0,0,0.1,0,0.1c0,0,0,0.1,0,0.1s0,0.1,0,0.1c0,0,0,0.1,0,0.1v0.1c0,0,0,0.1,0,0.1
v0c0,0,0,0.1,0,0.1v0c0,0,0,0.1,0,0.1v0c0,0,0,0.1,0,0.1c0,0,0,0.1,0,0.1v0
c0,0.03,0,0.1,0,0.1c0,0,0,0.1,0,0.1c0,0.03,0,0.1,0,0.1v0.1c0,0,0,0.1,0,0.1c0,0,0,0.1,0,0.1
v0c0,0,0,0.1,0,0.1v0c-0,0-0,0.1-0,0.1v0h0.1l0,0
c0,0,0.1,0,0.1,0c0,0,0,0.1,0,0.1l0,0c0,0,0,0.1,0,0.1v0
c0,0,0,0,0,0h0c0,0,0,0.1,0,0.1c0,0,0,0.1,0,0.1v0
c0,0.03-0,0.1-0,0.1l-0,0c0,0,0,0.1,0,0.1v0c0,0,0,0.1,0,0.1c0,0,0,0.1,0,0.1
v0.1c0,0.03,0,0.1,0,0.1c0,0,0,0.1,0,0.1c0,0,0,0.1,0,0.1v0c0,0.03,0,0.1,0,0.1
c0,0,0,0.1,0,0.1v0c0,0.03,0,0.1,0,0.1v0c0,0,0,0.1,0,0.1v0c0,0,0,0.1,0,0.1v0.1
c0,0,0,0.1,0,0.1c0,0,0,0.1,0,0.1v0.1c0,0,0,0.1,0,0.1c0,0,0,0.1,0,0.1v0
c0,0,0,0.1,0,0.1c0,0,0,0.1,0,0.1v0.2c0,0,0,0.1,0,0.1c0,0,0,0.1,0,0.1v0
c0,0.03,0,0.1,0,0.1c0,0,0,0.1,0,0.1v0.1c0,0,0,0.1,0,0.1c0,0,0,0.1,0,0.1v0
c0,0,0,0.1,0,0.1v0.1c0,0,0,0.1,0,0.1c0,0.03,0,0.1,0,0.1v0c0,0,0,0.1,0,0.1
c0,0,0,0.1,0,0.1v0c0,0,0,0.1,0,0.1v0.1c0,0,0,0.1,0,0.1v0.1c0,0.03,0,0.1,0,0.1
c0,0,0,0.1,0,0.1v0.1c0,0.03,0,0.1,0,0.1c0,0,0,0.1,0,0.1v0c0,0,0,0.1,0,0.1s0,0.1,0,0.1
v0c0,0,0,0.1,0,0.1v0c0,0.03,0,0.1,0,0.1c0,0,0,0.1,0,0.1v0c0,0,0,0.1,0,0.1
c0,0,0,0.1,0,0.1v0.1c0,0,0,0.1,0,0.1c0,0.03,0,0.1,0,0.1v0c0,0,0,0.1,0,0.1v0.1
c0,0,0,0.1,0,0.1v0c0,0.03,0,0.1,0,0.1v0c0,0,0,0.1,0,0.1c0,0,0,0.1,0,0.1v0
c0,0,0,0.1,0,0.1s0,0.1,0,0.1c0,0,0,0.1,0,0.1s0,0.1,0,0.1c0,0,0,0.1,0,0.1
c0,0,0,0.1,0,0.1v0c0,0,0,0.1,0,0.1v0c0,0,0,0.1,0,0.1v0c0,0,0,0.1,0,0.1
c0,0,0,0.1,0,0.1v0c0,0,0,0.1,0,0.1c0,0,0,0.1,0,0.1v0c0,0,0,0.1,0,0.1
c0,0.03,0,0.1,0,0.1v0c0,0,0,0.1,0,0.1s0,0.1,0,0.1v0.1c0,0,0,0.1,0,0.1v0
c0,0,0,0.1,0,0.1s0,0.1,0,0.1c0,0,0,0.1,0,0.1c0,0,0,0.1,0,0.1v0.1c0,0,0,0.1,0,0.1
c0,0,0,0.1,0,0.1v0c0,0,0,0.1,0,0.1c0,0,0,0.1,0,0.1v0.1c0,0,0,0.1,0,0.1v0.1
c0,0,0,0.1,0,0.1v0c0,0,0,0.1,0,0.1c0,0,0,0.1,0,0.1v0.1c0,0,0,0.1,0,0.1
c0,0,0,0.1,0,0.1v0c-0,0-0,0.1-0,0.1c0,0,0.1,0,0.1,0
c0,0,0,0.1,0,0.1c0,0,0,0.1,0,0.1c0,0.03-0,0.1-0,0.1c-0.1,0-0.1,0-0.1,0
c-0.1,0-0.25,0-0.4,0c-0,0-0,0.1-0,0.1c-0,0-0.1,0.1-0.1,0.1v0
c0,0,0,0.1,0,0.1c0,0,0,0.1,0,0.1v0c0,0,0,0.1,0,0.1v0c0,0,0,0.1,0,0.1
c0,0.03,0,0.1,0,0.1s0,0.1,0,0.1v0c0,0.03,0,0.1,0,0.1c0,0,0,0.1,0,0.1c0,0,0,0.1,0,0.1
c0,0,0,0.1,0,0.1v0c0,0,0,0.1,0,0.1c0,0,0,0.1,0,0.1c0,0,0,0.1,0,0.1v0
c0,0,0,0.1,0,0.1v0c0,0,0,0.1,0,0.1c0,0,0,0.1,0,0.1v0c0,0,0,0.1,0,0.1v0
c0,0,0.1,0,0.1,0l0,0c0,0,0,0.1,0,0.1c-0,0-0,0.1-0,0.1
c0,0-0,0-0,0c-0.1,0-0.11,0-0.1,0c-0.4,0-0.8,0-1.1,0
c-0.1-0-0.11-0-0.1-0c-0.03,0-0.1-0-0.1-0c0-0.03,0-0.1,0-0.1c0-0.03,0-0.1,0-0.1
c0.03,0,0.1-0,0.1-0c0,0,0.1-0,0.1-0h0c0-0,0-0.1,0-0.1v-0c0-0.03,0-0.1,0-0.1
c0-0,0-0.1,0-0.1V31.19c0-0,0-0.1,0-0.1v-0.1c0-0,0-0.1,0-0.1c0-0,0-0.1,0-0.1V30.72
c0-0,0-0.1,0-0.1c0-0,0-0.1,0-0.1v-0c0-0,0-0.1,0-0.1c0-0,0-0.1,0-0.1V30.25
c0-0,0-0.1,0-0.1V30.11c0-0,0-0.1,0-0.1c0-0,0-0.1,0-0.1v-0c0-0,0-0.1,0-0.1
c0-0.03,0-0.1,0-0.1V29.64h-0c0-0,0-0.1,0-0.1c-0.1-0-0.11-0-0.1-0
c-0.03-0.03-0-0.1-0-0.1H56.44c-0,0-0.1,0-0.1,0c-0.1-0-0.11-0.1-0.1-0.1
c0-0-0-0.1-0-0.1v-0.1l-0-0c0-0-0-0.1-0-0.1l-0-0c0-0.03,0-0.1,0-0.1
c0-0-0-0.1-0-0.1v-0.1c0-0,0-0.1,0-0.1c0-0,0-0.1,0-0.1V28.42c0-0,0-0.1,0-0.1v-0.1
c0-0,0-0.1,0-0.1v-0.1c0-0,0-0.1,0-0.1c0-0,0-0.1,0-0.1v-0c0-0,0-0.1,0-0.1
c0-0,0-0.1,0-0.1v-0.1c0-0,0-0.1,0-0.1c0-0.03,0-0.1,0-0.1c0-0.03,0-0.1,0-0.1s0-0.1,0-0.1v-0
c0-0.03,0-0.1,0-0.1v-0.1c0-0.03,0-0.1,0-0.1s0-0.1,0-0.1v-0c0-0.03,0-0.1,0-0.1c0-0,0-0.1,0-0.1
v-0c0-0,0-0.1,0-0.1c0-0,0-0.1,0-0.1v-0c0-0,0-0.1,0-0.1c0-0,0-0.1,0-0.1v-0
c0-0,0-0.1,0-0.1v-0c0-0,0-0.1,0-0.1v-0c0-0,0-0.1,0-0.1c0-0.03,0-0.1,0-0.1
c0-0,0-0.1,0-0.1s0-0.1,0-0.1c0-0,0-0.1,0-0.1s0-0.1,0-0.1v-0c0-0,0-0.1,0-0.1
c0-0,0-0.1,0-0.1v-0c0-0,0-0.1,0-0.1V24.71c0-0,0-0.1,0-0.1v-0.1c0-0,0-0.1,0-0.1v-0
c0-0,0-0.1,0-0.1c0-0,0-0.1,0-0.1v-0.1c0-0,0-0.1,0-0.1c0-0,0-0.1,0-0.1v-0
c0-0,0-0.1,0-0.1c0-0,0-0.1,0-0.1V23.63c0-0,0-0.1,0-0.1v-0c0-0.03,0-0.1,0-0.1s0-0.1,0-0.1
v-0c0-0,0-0.1,0-0.1c0-0,0-0.1,0-0.1v-0.1c0-0,0-0.1,0-0.1c0-0.03,0-0.1,0-0.1V22.69
c0-0,0-0.1,0-0.1v-0.1c0-0,0-0.1,0-0.1v-0c0-0,0-0.1,0-0.1c0-0,0-0.1,0-0.1v-0
c0-0,0-0.1,0-0.1c0-0,0-0.1,0-0.1V21.8c0-0,0-0.1,0-0.1v-0c0-0,0-0.1,0-0.1
c0-0,0-0.1,0-0.1v-0.1c0-0,0-0.1,0-0.1c0-0,0-0.1,0-0.1v-0c0-0,0-0.1,0-0.1
c0-0,0-0.1,0-0.1v-0.2c0-0,0-0.1,0-0.1c0-0.03,0-0.1,0-0.1V20.53c0-0,0-0.1,0-0.1
c0-0,0-0.1,0-0.1V20.25c0-0,0-0.1,0-0.1c0-0,0-0.1,0-0.1v-0.1c0-0,0-0.1,0-0.1v-0
c0-0,0-0.1,0-0.1v-0c0-0,0-0.1,0-0.1v-0c0-0,0-0.1,0-0.1c0-0,0-0.1,0-0.1v-0
c0-0,0-0.1,0-0.1c0-0.03,0-0.1,0-0.1c0-0,0-0.1,0-0.1v-0.1c0-0,0-0.1,0-0.1
c0-0,0-0.1,0-0.1V18.7c0-0,0-0.1,0-0.1V18.56c0-0,0-0.1,0-0.1v-0c0-0,0-0.1,0-0.1
c0-0,0-0.1,0-0.1s0-0.1,0-0.1V18.09c0-0,0-0,0-0c0,0,0.1,0,0.1,0v-0
c0-0,0-0.1,0-0.1c0-0,0-0.1,0-0.1c0.03,0,0.1-0,0.1-0l0-0v-0.1
c0-0.03,0-0.1,0-0.1v-0.1c0-0,0-0.1,0-0.1v-0c0-0,0-0.1,0-0.1v-0.1c0-0,0-0.1,0-0.1
c0-0.03,0-0.1,0-0.1v-0.1c0-0,0-0.1,0-0.1s0-0.1,0-0.1v-0c0-0,0-0.1,0-0.1
c0-0,0-0.1,0-0.1v-0.2c0-0,0-0.1,0-0.1c0-0.03,0-0.1,0-0.1v-0c0-0,0-0.1,0-0.1
c0-0,0-0.1,0-0.1v-0.1c0-0,0-0.1,0-0.1c0-0,0-0.1,0-0.1V15.46c0-0,0-0.1,0-0.1
c-0,0-0.1,0-0.1,0s-0.1,0-0.1,0c-0.1,0-0.1,0-0.2,0c-0,0-0.1,0-0.1,0v0l-0.1-0.1v-0
c0-0,0-0.1,0-0.1c0-0,0-0.1,0-0.1v-0c0-0,0-0.1,0-0.1c0-0,0-0.1,0-0.1v-0.1
c0-0.03,0-0.1,0-0.1c0-0,0-0,0-0c-0.03-0-0.1-0-0.1-0
c0-0.03,0-0.1,0-0.1V14.38c0,0,0-0,0-0c0-0.03,0-0.1,0-0.1c0-0,0-0.1,0-0.1v-0
c0-0,0-0.1,0-0.1c0-0,0-0.1,0-0.1c0-0-0-0.1-0-0.1c0-0-0-0.1-0-0.1v-0
c0-0,0-0.1,0-0.1c0-0,0-0.1,0-0.1c0-0.03,0-0.1,0-0.1c0,0,0.1,0,0.1,0
c-0.03-0-0.1-0-0.1-0l-0-0.1c-0.1,0-0.1-0-0.2-0L55.5,13.16
c-0.03-0-0.1-0.1-0.1-0.1c0-0.03,0-0.1,0-0.1c0-0,0-0.1,0-0.1c0-0.03-0-0.1-0-0.1
c0-0.03-0-0-0-0c0-0,0-0.1,0-0.1v-0.1l-0.1-0.1c-0,0-0.1,0-0.1,0v0.1
c0,0,0,0.1,0,0.1v0.1c0,0-0,0.1-0,0.1c0,0-0,0.1-0,0.1l-0,0
c-0.1,0-0.11,0-0.1,0c-0.1,0-0.2,0.1-0.3,0.1c-0,0-0.1,0-0.1,0v0
c0,0,0,0.1,0,0.1c0,0,0,0.1,0,0.1s-0,0-0,0l-0,0c0,0-0,0.1-0,0.1
c0,0.03-0,0-0,0c-0,0-0,0-0,0h-0.1c-0.1,0-0.1,0-0.2,0l-0,0
c-0,0-0.1,0-0.1,0c-0.1,0-0.1-0-0.2-0v-0c-0.1,0-0.1,0-0.2,0c-0,0-0,0-0,0
L53.2,13.8h-0.1c-0,0-0.1,0-0.1,0c-0.1,0-0.2,0-0.2,0c-0.2,0-0.3,0-0.4,0c-0.03,0-0.1,0-0.1,0
c-0.1,0-0.3,0.1-0.4,0.1c-0,0-0.1,0-0.1,0c-0.1,0-0.11,0-0.14,0h-0c-0.1,0-0.1,0-0.2,0
c0-0-0-0.1-0-0.1c-0,0-0.1,0-0.1,0c-0,0-0.1-0-0.1-0
c-0-0-0-0.1-0-0.1c-0,0-0.1-0-0.1-0c0-0,0-0.1,0-0.1v-0c0-0.03,0-0.1,0-0.1
c0-0,0-0.1,0-0.1c0-0.03,0-0.1,0-0.1V13.16c0-0,0-0.1,0-0.1c0-0.03,0-0.1,0-0.1c0-0,0-0.1,0-0.1
c-0.1,0-0.1,0-0.2,0c-0,0-0.1,0-0.14,0h-10c0,0,0,0.1,0,0.1c0,0,0,0.1,0,0.1
c0,0,0,0.1,0,0.1v0c0,0,0,0.1,0,0.1c0,0,0,0.1,0,0.1c0,0,0,0.1,0,0.1v0
c0,0,0,0.1,0,0.1v0.1c0,0,0.1,0,0.1,0c0.03,0,0.1,0,0.1,0c0.1,0,0.1,0.1,0.1,0.1
c0,0,0,0.1,0,0.1h0c0,0,0,0.1,0,0.1c0,0,0,0.1,0,0.1v0.1c0,0.03,0,0.1,0,0.1
c0,0,0,0.1,0,0.1v0.1c0,0,0,0.1,0,0.1v0.14c0.03,0.1,0.1,0.11,0.1,0.1
c0,0.1,0,0.1,0,0.2c0,0,0.1,0.1,0.1,0.1c0,0,0.1,0,0.1,0
c0,0,0.1,0,0.1,0h0c0,0,0.1,0,0.1,0c0,0,0,0,0,0
c0.03,0,0.1,0,0.1,0c0,0,0,0.1,0,0.1v0c0,0.03,0,0.1,0,0.1c0,0,0,0.1,0,0.1v0
c0,0,0,0.1,0,0.1c0,0,0,0.1,0,0.1s0,0.1,0,0.1c0,0,0,0.1,0,0.1v0.1c0,0,0,0.1,0,0.1v0
c0,0,0,0.1,0,0.1v0c0,0,0,0.1,0,0.1v0c0,0,0,0.1,0,0.1c0,0,0,0.1,0,0.1v0
c0,0.03,0,0.1,0,0.1c0,0,0,0.1,0,0.1c0,0.03,0,0.1,0,0.1v0.1c0,0,0,0.1,0,0.1c0,0,0,0.1,0,0.1
v0c0,0,0,0.1,0,0.1v0c0,0,0,0.1,0,0.1v0c0,0,0,0.1,0,0.1c0,0,0,0.1,0,0.1v0
c0,0,0,0.1,0,0.1v0.1c0,0.03,0,0.1,0,0.1s0,0.1,0,0.1v0c0,0,0,0.1,0,0.1c0,0,0,0.1,0,0.1
v0.1c0,0,0,0.1,0,0.1v0c0,0,0,0.1,0,0.1v0.1c0,0,0,0.1,0,0.1c0,0,0,0.1,0,0.1v0.1
c0,0,0,0.1,0,0.1c0,0,0,0.1,0,0.1v0c0,0,0,0.1,0,0.1c0,0,0,0.1,0,0.1v0.1
c0,0,0,0.1,0,0.1v0c0,0,0,0.1,0,0.1c0,0,0,0.1,0,0.1v0c0,0,0,0.1,0,0.1v0.1
c0,0,0,0.1,0,0.1c0,0.03,0,0.1,0,0.1v0c0,0,0,0.1,0,0.1v0.1c0,0,0,0.1,0,0.1
c0,0,0,0.1,0,0.1v0c0,0,0,0.1,0,0.1c0,0,0,0.1,0,0.1v0c0,0,0,0.1,0,0.1v0.1
c0,0,0,0.1,0,0.1v0.1c0,0,0,0.1,0,0.1s0,0.1,0,0.1c0,0.03,0,0.1,0,0.1c0,0,0,0.1,0,0.1
c0,0,0,0.1,0,0.1v0c0,0,0,0.1,0,0.1c0,0,0,0.1,0,0.1v0c0,0,0,0.1,0,0.1v0.1
c0,0.03,0,0.1,0,0.1c0,0,0,0.1,0,0.1v0c0,0.03,0,0.1,0,0.1c0,0,0,0.1,0,0.1c0,0.03,0,0.1,0,0.1
c0,0,0,0.1,0,0.1v0c0,0,0,0.1,0,0.1c0,0,0,0.1,0,0.1c0,0.03,0,0.1,0,0.1v0
c0,0,0,0.1,0,0.1v0c0,0,0,0.1,0,0.1s0,0.1,0,0.1v0c0,0,0,0.1,0,0.1c0,0.03,0,0.1,0,0.1
v0.1c0,0,0,0.1,0,0.1v0.1c0,0,0,0.1,0,0.1c0,0.03,0,0.1,0,0.1v0.1c0,0,0,0.1,0,0.1v0
c0,0.03,0,0.1,0,0.1c0,0.03,0,0.1,0,0.1v0c0,0,0,0.1,0,0.1s0,0.1,0,0.1v0c0,0,0,0.1,0,0.1
s0,0.1,0,0.1v0c0,0,0,0.1,0,0.1c0,0,0,0.1,0,0.1v0.1c0,0,0,0.1,0,0.1v0
c0,0,0,0.1,0,0.1v0.2c0,0,0,0.1,0,0.1v0c0,0,0,0.1,0,0.1v0
c-0,0-0.1,0.1-0.1,0.1v0c0,0,0,0.1,0,0.1c0,0,0,0.1,0,0.1v0c0,0.03,0,0.1,0,0.1
v0c0,0,0,0.1,0,0.1c-0,0-0,0.1-0,0.1c-0,0-0.1,0-0.1,0
c-0,0-0.1,0-0.1,0c-2.8,0-5.6,0-8.3,0c-0,0-0.1,0-0.1,0h-0c-0,0-0.1,0-0.1,0
c-0.1,0-0.11,0-0.1,0c-0,0-0.1-0-0.1-0c-0.1,0-0.1-0-0.2-0c0-0-0-0.1-0-0.1
c-0.03-0.03-0.1-0.1-0.1-0.1h-0.1c-0.1,0-0.1,0-0.1,0c-0,0-0.1-0-0.1-0
c-0.03-0-0-0.1-0-0.1v-0.1c0-0.03,0-0.1,0-0.1c0-0.03,0-0.1,0-0.1V26.87c0-0,0-0.1,0-0.1
c0-0,0-0.1,0-0.1v-0.1c0-0,0-0.1,0-0.1V26.4c0-0,0-0.1,0-0.1c0-0,0-0.1,0-0.1v-0
c0-0,0-0.1,0-0.1v-0.1c0-0,0-0.1,0-0.1c0-0.03,0-0.1,0-0.1v-0c0-0,0-0.1,0-0.1
s0-0.1,0-0.1v-0c0-0,0-0.1,0-0.1s0-0.1,0-0.1v-0c0-0,0-0.1,0-0.1c0-0,0-0.1,0-0.1
v-0c0-0.03,0-0.1,0-0.1v-0.1c0-0,0-0.1,0-0.1c0-0,0-0.1,0-0.1v-0.1c0-0.03,0-0.1,0-0.1v-0.1
c0-0,0-0.1,0-0.1c0-0,0-0.1,0-0.1v-0c0-0,0-0.1,0-0.1s0-0.1,0-0.1v-0
c0-0.03,0-0.1,0-0.1v-0c0-0,0-0.1,0-0.1c0-0,0-0.1,0-0.1c0-0,0-0.1,0-0.1v-0
c0-0,0-0.1,0-0.1c0-0,0-0.1,0-0.1c0-0,0-0.1,0-0.1c0-0,0-0.1,0-0.1v-0
c0-0,0-0.1,0-0.1c0-0.03,0-0.1,0-0.1V22.69c0-0,0-0.1,0-0.1V22.55c0-0.03,0-0.1,0-0.1
c0-0,0-0.1,0-0.1v-0c0-0,0-0.1,0-0.1c0-0,0-0.1,0-0.1c0-0,0-0.1,0-0.1
c0-0,0-0.1,0-0.1s0-0.1,0-0.1v-0.1c0-0,0-0.1,0-0.1v-0.1c0-0,0-0.1,0-0.1v-0
c0-0,0-0.1,0-0.1c0-0,0-0.1,0-0.1v-0c0-0,0-0.1,0-0.1c0-0.03,0-0.1,0-0.1V20.86
c0-0,0-0.1,0-0.1v-0c0-0,0-0.1,0-0.1c0-0,0-0.1,0-0.1v-0.1c0-0,0-0.1,0-0.1v-0
c0-0.03,0-0.1,0-0.1c0-0,0-0.1,0-0.1v-0c0-0,0-0.1,0-0.1v-0.1c0-0,0-0.1,0-0.1
c0-0,0-0.1,0-0.1v-0c0-0,0-0.1,0-0.1c0-0,0-0.1,0-0.1v-0.1c0-0,0-0.1,0-0.1
c0-0.03,0-0.1,0-0.1v-0.1c0-0,0-0.1,0-0.1v-0c0-0,0-0.1,0-0.1V18.7c0-0,0-0.1,0-0.1
c0-0.03,0-0.1,0-0.1v-0c0-0,0-0.1,0-0.1s0-0.1,0-0.1v-0.1c0-0,0-0.1,0-0.1v-0
c0-0,0-0.1,0-0.1c0-0,0-0.1,0-0.1v-0c0-0,0-0.1,0-0.1v-0c0-0.03,0-0.1,0-0.1v-0
c0-0,0-0.1,0-0.1c0-0,0-0.1,0-0.1v-0.1c0-0,0-0.1,0-0.1c0-0,0-0.1,0-0.1
c0-0.03,0-0.1,0-0.1v-0c0-0,0-0.1,0-0.1c0-0,0-0.1,0-0.1v-0c0-0,0-0.1,0-0.1v-0
c0-0,0-0.1,0-0.1v-0c0-0,0-0.1,0-0.1v-0c-0,0-0-0-0-0
c0-0-0-0.1-0-0.1c0-0,0-0.1,0-0.1s0-0.1,0-0.1c0-0,0-0.1,0-0.1v-0.1
c0-0,0-0.1,0-0.1c0-0,0-0.1,0-0.1V15.46c0-0,0-0.1,0-0.1v-0.14c0-0,0-0.1,0-0.1s0-0.1,0-0.1
v-0c0-0,0-0.1,0-0.1c0-0.03,0-0.1,0-0.1l0-0h0c-0.03-0.03-0-0.1-0-0.1
v-0.1c0-0.03,0-0.1,0-0.1l0.1-0.1c0-0,0-0.1,0-0.1c0.03,0,0.1-0,0.1-0
c0-0,0.1-0,0.1-0v-0c0-0.03,0-0.1,0-0.1c0-0,0-0.1,0-0.1l0-0
c0-0,0.1-0,0.1-0c-0.6,0-1.1,0-1.69,0c-0,0-0.1,0-0.1,0v0c0,0.1,0,0.1,0,0.2
c0,0,0,0.1,0,0.1c0,0.1,0,0.1,0,0.14v0.1c0,0,0,0.1,0,0.14c-0.03,0.1-0,0.1-0,0.1
c0,0,0,0.1,0,0.1c0,0,0,0.1,0,0.1l0,0c0,0,0.1,0.1,0.1,0.1
c0.03,0,0.1,0.1,0.1,0.1v0.14c0,0,0,0.1,0,0.1v0c0,0,0,0.1,0,0.1
c-0,0-0,0.1-0,0.1l-0,0.1H30.85v0c0,0-0,0.1-0,0.1
c0,0-0,0-0,0l-0.1,0.1c-0.03,0-0.1,0-0.1,0c-0.2,0-0.3,0.1-0.47,0.1
c-0,0-0.1,0-0.1,0h-0c-0.1,0-0.11,0-0.1,0H29.77c-0.2,0-0.4,0-0.6,0l-0,0h-0
c0,0,0,0.1,0,0.1v0c0,0,0,0.1,0,0.1v0c-0,0-0,0.1-0,0.1
c-0,0-0.1,0-0.1,0c0,0,0,0.1,0,0.1c0,0-0,0.1-0,0.1l-0,0
c0,0.03,0,0.1,0,0.1c0,0,0,0.1,0,0.1c0,0.03,0,0.1,0,0.1c-0,0-0.1,0-0.1,0v0
c0,0-0,0.1-0,0.1c0,0-0,0.1-0,0.1v0c0,0,0,0.1,0,0.1v0c0,0,0,0.1,0,0.1
l-0,0c0,0-0,0.1-0,0.1c0,0,0,0.1,0,0.1v0c-0,0-0,0.1-0,0.1
l-0,0v0.1c-0,0.03-0,0.1-0,0.1c-0,0-0.1,0.1-0.1,0.1v0c0,0,0,0.1,0,0.1
c0,0,0,0.1,0,0.1v0c0,0-0,0-0,0c0,0,0,0.1,0,0.1v0c0,0,0,0.1,0,0.1
l-0,0v0c-0,0-0.1,0.1-0.1,0.1c0,0,0,0.1,0,0.1v0.1c0,0,0,0.1,0,0.1
c0,0-0,0.1-0,0.1v0c-0,0-0.1,0.1-0.1,0.1c0,0,0,0.1,0,0.1v0.1
c-0.03,0-0.1,0.1-0.1,0.1v0c0,0,0,0.1,0,0.1c0,0,0,0.1,0,0.1v0c0,0,0,0.1,0,0.1
v0.1c0,0,0,0.1,0,0.1c0,0.03,0,0.1,0,0.1v0c0,0,0,0.1,0,0.1c-0,0-0.1,0-0.1,0
v0.1c0,0,0,0.1,0,0.1c-0,0-0.1,0.1-0.1,0.1v0c0,0,0,0.1,0,0.1c0,0,0,0.1,0,0.1
l-0,0c0,0,0,0.1,0,0.1c-0,0-0.1,0-0.1,0c-0.03,0-0.1,0-0.1,0l-0,0
c-0,0-0,0.1-0,0.1c-0,0-0.1,0-0.1,0h-0c-0.1,0-0.1-0-0.2-0l-0-0
c-0,0-0.1,0-0.1,0c0,0-0,0-0,0c-0,0-0.1,0-0.1,0c-0.6,0-1.2,0-1.8,0
c-0.1,0-0.1-0-0.2-0v-0c-0.1,0-0.2-0-0.2-0c-0,0-0.1,0-0.1,0h-0
c-0,0-0.1-0-0.1-0c-0.1,0-0.1-0-0.2-0l-0.1-0.1c-0.1,0-0.1-0-0.1-0
c-0,0-0.1-0-0.1-0c-0.03-0-0.1-0.1-0.1-0.1v-0.1c-0,0-0.1,0-0.1,0
c0-0-0-0.1-0-0.1c-0-0.03-0-0.1-0-0.1V20.86c0-0,0-0.1,0-0.1
c-0-0-0.1-0.1-0.1-0.1v-0c0-0,0-0.1,0-0.1v-0c0-0,0-0.1,0-0.1
c0-0,0-0.1,0-0.1c0,0,0-0,0-0c0-0,0-0.1,0-0.1c0-0,0-0.1,0-0.1
c0-0,0-0.1,0-0.1c0,0,0-0,0-0c0-0.03,0-0.1,0-0.1c0,0,0-0,0-0
c0-0,0-0.1,0-0.1c0-0,0-0.1,0-0.1v-0.1c0-0,0-0.1,0-0.1v-0
c0-0,0-0.1,0-0.1c0.03-0.03,0-0.1,0-0.1l0-0c0-0,0-0.1,0-0.1v-0
c0,0,0.1-0,0.1-0v-0c0-0,0-0.1,0-0.1c0-0,0-0.1,0-0.1c0,0,0-0,0-0
c0-0,0-0.1,0-0.1c0-0,0-0.1,0-0.1v-0c0,0,0.1-0,0.1-0
c0-0,0-0.1,0-0.1V18.23c0-0,0-0.1,0-0.1V18.09l0-0c0-0.03,0-0.1,0-0.1
c0-0,0-0.1,0-0.1v-0c0,0,0-0,0-0c0-0,0-0.1,0-0.1
c0.03-0,0-0.1,0-0.1v-0c0-0,0-0.1,0-0.1s0-0.1,0-0.1c0-0,0.1-0,0.1-0
v-0.1c0-0,0-0.1,0-0.1c0,0,0-0,0-0c0-0.03,0-0.1,0-0.1
c0-0,0-0.1,0-0.1v-0c0-0,0-0.1,0-0.1v-0.1c0-0,0-0.1,0-0.1
c0-0,0-0.1,0-0.1l0-0c0-0,0-0.1,0-0.1v-0.1c0,0,0.1-0,0.1-0c0-0,0-0.1,0-0.1
c0-0,0-0.1,0-0.1v-0c0-0,0-0.1,0-0.1c0-0,0-0.1,0-0.1v-0
c0-0,0-0.1,0-0.1v-0l0-0c0-0,0-0.1,0-0.1v-0l-0-0
c0-0.03-0-0-0-0c0-0,0-0.1,0-0.1c0-0-0-0.1-0-0.1c0-0-0-0-0-0
c0-0,0-0.1,0-0.1c-0-0-0.1-0.1-0.1-0.1c-0,0-0-0-0-0l-0-0
c0-0.03,0-0.1,0-0.1c-0-0-0.1-0.1-0.1-0.1l-0-0c0-0-0-0.1-0.1-0.1
c-0.03,0-0.1-0-0.1-0c-0,0-0.1,0-0.1,0v-0c-0.1,0-0.1-0-0.2-0l-0-0.1
c-0.1,0-0.1-0-0.2-0c-0,0-0.1-0-0.1-0c-0-0-0-0.1-0-0.1
c-0,0-0.1-0-0.1-0V13.91c-0.1,0-0.1,0-0.2,0c-0-0-0.1-0.1-0.1-0.1
c-0.1-0-0.1-0.1-0.1-0.1c-0,0-0.1-0-0.1-0c-0,0-0-0-0-0
c-0.1-0-0.1-0.1-0.1-0.1c0-0-0-0-0-0v-0c-0-0-0.1-0.1-0.1-0.1
c0-0-0-0.1-0-0.1c0-0.03-0-0-0-0l-0-0c0-0-0-0.1-0-0.1
c0-0.03,0-0.1,0-0.1v-0c0-0,0-0.1,0-0.1c-0-0-0-0.1-0-0.1c-0.03,0-0-0-0-0
c0-0,0-0.1,0-0.1H22.21c0-0-0-0-0-0c0-0,0-0.1,0-0.1c0-0.03,0-0.1,0-0.1v-0.1
c-0,0-0.1,0-0.1,0s-0.1,0-0.1,0s-0.1,0-0.1,0c-0.1,0-0.11,0-0.14,0c-0,0-0.1-0-0.1-0
c-0-0.03-0-0.1-0-0.1c-0.1-0-0.1-0-0.1-0c-0.03,0-0.1-0-0.1-0
c0-0,0-0.1,0-0.1c0-0,0-0.1,0-0.1V11.75c-1.7,0-3.4,0-5.2,0c-0,0-0.1-0-0.1-0v-0
c-0.1,0-0.1,0-0.2,0l-0-0c-0-0-0.1-0.1-0.1-0.1l-0-0c0-0-0-0-0-0
c-0-0-0.1-0.1-0.1-0.1v-0c0-0,0-0.1,0-0.1v-0c0-0,0-0.1,0-0.1c0-0.03,0-0.1,0-0.1
v-0c0-0,0-0.1,0-0.1c0-0,0-0.1,0-0.1v-0c0-0.03,0-0.1,0-0.1c-0.75,0-1.5,0-2.2,0
c-0.1-0-0.22-0-0.3-0c-0.1-0-0.2-0-0.2-0c-0,0-0.1,0.1-0.1,0.1
c-0.1,0.1-0.1,0.1-0.2,0.1h-0.2c-0,0-0.1,0-0.1,0v0.1c-0,0.1-0.1,0.2-0.1,0.3
l-6.5,5.1c-0.1,0.1-0.2,0.1-0.3,0c-0,0-0.1,0-0.1,0c-0.1,0-0.1,0-0.1,0
c-0.1,0-0.1,0.1-0.2,0.1c0,0.1,0,0.1,0,0.2c-0,0.1-0.1,0.2-0.1,0.3l-0.2,0.14
c-0.1,0-0.1,0-0.2,0c0,0-0,0-0,0H4.1c-0,0.03-0.1,0.1-0.1,0.1l-0,0
c0,0-0,0-0,0c-0.1,0-0.11,0.1-0.1,0.1l-0,0c0,0-0,0-0,0
c-0.03,0-0.1,0-0.1,0c-0,0-0.1,0-0.1,0c-0,0-0.1,0.1-0.1,0.1H3.4
c-0,0-0.1,0-0.1,0H2.9c-0.1,0-0.1-0-0.2-0c-0.03,0-0-0-0-0
c-0,0-0.1-0-0.1-0c-0.1,0-0.1,0-0.2,0c-0-0-0.1-0.1-0.2-0.1
c0-0-0-0.1-0-0.1c-0.1-0-0.11-0-0.1-0c-0.03,0-0-0-0-0
c-0-0-0.1-0-0.1-0C1.8,17.2,1.77,17.1,1.7,17.1c-0,0-0-0-0-0
c0-0.03-0-0.1-0-0.1c-0.03-0-0-0.1-0-0.1c-0,0-0-0-0-0
c-0-0-0.1-0.1-0.1-0.1v-0.1c0-0,0-0.1,0-0.1c0-0,0-0.1,0-0.1c0-0-0-0-0-0
c0-0,0-0.1,0-0.1v-0.1l-0-0c0-0-0-0.1-0-0.1c0-0,0-0.1,0-0.1v-0
c-0-0-0-0.1-0-0.1c0-0,0-0.1,0-0.1v-0c0-0,0-0.1,0-0.1
c-0,0-0.1-0-0.1-0c0-0-0-0-0-0c0-0,0-0.1,0-0.1v-0c0-0.03,0-0.1,0-0.1
v-0c-0-0-0.1-0.1-0.1-0.1c0-0,0-0.1,0-0.1c0-0,0-0.1,0-0.1c0-0,0-0.1,0-0.1v-0
c0-0-0-0.1-0-0.1c0-0-0-0.1-0-0.1v-0c0-0.03,0-0.1,0-0.1v-0l-0.1-0.1
c0-0.03,0-0.1,0-0.1c0-0,0-0.1,0-0.1v-0c0-0,0-0.1,0-0.1c0-0,0-0.1,0-0.1
c-0-0-0-0.1-0-0.1c0-0-0-0.1-0-0.1v-0c0-0,0-0.1,0-0.1c0-0,0-0.1,0-0.1
c-0-0.03-0.1-0.1-0.1-0.1v-0c0-0,0-0.1,0-0.1c0-0.03-0-0-0-0
c0-0-0-0.1-0-0.1c0-0.03,0-0.1,0-0.1v-0c0-0,0-0.1,0-0.1c0-0.03,0-0.1,0-0.1v-0
l-0-0c0-0-0-0.1-0-0.1v-0.1c0-0,0-0.1,0-0.1c0-0.03,0-0.1,0-0.1v-0L0.4,12.22
c0-0.03-0-0.1-0-0.1v-0c0-0,0-0.1,0-0.1c0-0.03,0-0.1,0-0.1v-0c0-0,0-0.1,0-0.1
s-0-0.1-0-0.1v-0c0-0,0-0.1,0-0.1c0-0-0-0.1-0-0.1l-0-0
c0-0-0-0.1-0-0.1c0-0,0-0.1,0-0.1v-0.1c0-0,0-0.1,0-0.1c0-0,0-0.1,0-0.1v-0
c0-0,0-0.1,0-0.1v-0c-0,0-0-0-0-0c0-0.03,0-0.1,0-0.1v-0.1c0-0,0-0.1,0-0.1
c0-0.03,0-0.1,0-0.1v-0c-0-0.03-0-0.1-0-0.1C0.1,10.1,0,10.1,0,10.06V10
c0-0.03,0-0.1,0-0.1V9.8c0-0,0-0.1,0-0.1c0-0,0-0.1,0-0.1V9.5C0,9.5,0,9.48,0,9.45V9.4
c0-0.03,0-0.1,0-0.1C0,9.23,0,9.2,0,9.2V9.1c0-0,0-0.1,0-0.1c0-0,0-0.1,0-0.1V8.9
c0-0,0-0.1,0-0.1s0-0.1,0-0.1V8.7C0,8.62,0,8.6,0,8.6c0-0,0-0.1,0-0.1V8.4
c0-0,0.1-0.1,0.1-0.1l0-0c0-0.03,0-0.1,0-0.1l0-0c0-0,0-0.1,0-0.1
c0.03-0,0-0.1,0-0.1c0,0,0.1,0,0.1,0c0-0.03,0-0.1,0-0.1c0-0.03,0-0.1,0-0.1
c0,0,0.1,0,0.1,0c0-0,0-0.1,0-0.1c0-0,0.1-0.1,0.1-0.1c0-0,0-0,0-0h0
c0.1-0.03,0.1-0,0.14-0c0.1-0.03,0.1-0,0.2-0V7.4c0,0,0.1,0,0.2,0l0,0V7.4
c0,0,0-0,0-0c0,0,0.1,0,0.1,0L1.4,7.29c0,0,0.1,0,0.1,0c0.1,0,0.1,0,0.14,0
c0,0,0.1,0,0.14,0c0,0,0.1,0,0.1,0C2,7.3,2,7.29,2.2,7.29h9.4
c0.1,0,0.2,0,0.2,0c0.1-0,0.1-0.1,0.2-0.1c0.1-0,0.1-0.1,0.2-0.1
c0-0,0.1-0,0.1-0c0.1-0,0.1-0,0.2-0c0.1,0,0.14,0,0.2,0c1.8,0,3.7,0,5.6,0
V7c0-0,0-0.1,0-0.1V6.82c0-0.03,0-0.1,0-0.1c0-0,0-0.1,0-0.1
c0-0,0.1-0,0.1-0h0c0-0,0-0.1,0-0.1c0-0.03,0-0.1,0-0.1V6.4
c0-0,0.1-0.1,0.1-0.1V6.21c0.1-0,0.1-0.1,0.2-0.1c0,0,0.1,0,0.1,0
c0-0,0-0.1,0-0.1l0.1-0.1c0,0,0.1,0,0.1,0c0.1,0,0.2,0,0.3,0c0,0,0.1,0,0.1,0
c0,0,0,0,0,0l0.1-0V5.9c0-0,0-0.1,0-0.1c0-0,0-0.1,0-0.1c0,0,0.1,0,0.1,0
c0-0.03,0-0.1,0-0.1c0-0,0-0.1,0-0.1V5.5c0-0,0-0.1,0-0.1c0-0-0-0.1-0-0.1
V5.2c-0-0.03-0.1-0-0.1-0l-0-0c0-0-0-0.1-0-0.1V5c0-0.03,0-0.1,0-0.1
c0-0,0-0.1,0-0.1V4.8c0-0,0-0.1,0-0.1c0-0,0-0.1,0-0.1c0-0,0-0.1,0-0.1
c0.03-0,0-0.1,0-0.1V4.3c0-0,0.1-0,0.1-0c0,0,0.1,0,0.1,0h0V4.2
c0-0.03,0.1-0,0.1-0c0-0.03,0-0,0-0s0.1-0,0.1-0c0,0,0.1,0,0.1,0
c0,0,0.1,0,0.1,0s0.1-0,0.1-0c0,0,0.08-0,0.1-0c0-0,0-0.1,0-0.1V3.9
c0-0,0-0.1,0-0.1c0-0,0-0.1,0-0.1c0.03-0,0.1-0,0.1-0
c0-0,0-0.1,0-0.1c0-0,0-0.1,0-0.1c0,0,0.1-0,0.1-0c0.1,0,0.11,0,0.1,0
V3.3c0.2,0,0.4,0,0.6,0c0,0,0.1,0,0.1,0c0,0,0.1,0,0.1,0
c0,0,0,0.1,0,0.1c0,0.03,0.1,0.1,0.1,0.1c0,0,0,0,0,0
c0,0.03,0,0.1,0,0.1c0,0,0,0.1,0,0.1c0,0,0.08,0,0.1,0c0.1,0,0.2,0,0.3,0
c0.1,0,0.1,0,0.2,0c0,0,0.1,0.1,0.1,0.1c0,0.03,0.1,0,0.1,0
c0,0,0,0,0,0c0,0,0,0.1,0,0.1c0,0,0,0.1,0,0.1h0c0,0,0,0.1,0.1,0.1
c0.1,0,0.1,0,0.1,0c0,0,0,0,0,0c0.1,0,0.1,0,0.1,0c0.5,0,1,0,1.5,0
c0.2,0,0.5,0,0.8,0c0-0,0.1-0,0.1-0s0.1,0,0.1,0V4.4h0.1c0.1,0,0.1,0.1,0.14,0.1
V4.4h0.1V4.4c0.1,0,0.1,0.1,0.1,0.1c0,0.03,0,0.1,0,0.1c0,0,0.1,0,0.1,0
c0,0.03,0,0.1,0,0.1c0,0.03,0,0.1,0,0.1v0.1c0-0,0.1-0,0.1-0
c0.03,0,0.1,0,0.1,0c0,0,0.1,0,0.1,0c0,0,0,0.1,0,0.1v0.1c0,0,0,0.1,0,0.1
v0.1c0,0.03,0,0.1,0,0.1c0,0,0,0.1,0,0.1l0,0c0,0,0,0,0,0c0,0.03,0,0.1,0,0.1
c0,0,0,0.1,0,0.1c0.03,0,0,0,0,0v0l0,0c0,0,0,0.1,0,0.1v0
c0,0,0,0.1,0,0.1v0h0.1c1.2,0,2.3-0,3.5-0V6l0-0c0-0,0-0,0-0
s0.1,0,0.14,0c0,0,0.1-0,0.2-0c0-0,0-0.1,0-0.1c0-0,0.1-0.1,0.1-0.1h0
c0-0.03,0.1-0.1,0.1-0.1c0-0,0-0.1,0-0.1l0.1-0.1c0-0,0-0,0-0
c0,0,0.1,0,0.1,0V5.3c0.1,0,0.1,0,0.2,0c0.03,0,0.1,0.1,0.1,0.1l0.1,0.1c0,0.03,0,0.1,0,0.1
c0.1-0.1,0.1-0.11,0.2-0.1c0.1,0,0.1-0,0.2-0.1c0.1,0,0.2,0,0.3,0V5.3
c0.1,0,0.2,0,0.3,0c0,0,0.1,0.1,0.1,0.1c0.03-0.1,0-0.11,0-0.1
c0.1-0.1,0.2-0.1,0.3-0.1h2.3c0.1,0,0.2,0.03,0.2,0.1c0.03,0.1,0.1,0.1,0.1,0.2
c0.2,0,0.3-0,0.4-0c0.1,0,0.1,0,0.2,0c0,0,0.1-0,0.1-0c1,0,2,0,3,0
c0.1,0,0.1,0,0.1,0c0.1,0,0.1,0,0.14,0c0.1,0,0.1,0.1,0.1,0.1
c0.03,0,0.1,0.1,0.14,0.1l0,0c0,0,0-0,0-0c0-0,0.1-0.1,0.1-0.1
c0-0,0-0.1,0-0.1h0c0,0,0.1,0,0.1,0V5.4c0,0,0.1,0,0.1,0
c0,0,0.1,0,0.1,0c0,0.03,0,0.1,0,0.1c0,0,0,0.1,0,0.1v0h0
c0,0,0.1-0,0.1-0c0.1,0,0.1,0,0.2,0c0,0,0.1,0,0.1,0v0
c0.6-0,1.2-0,1.8-0V5.7c0.03-0.03,0.1-0.1,0.1-0.1c0-0,0.1-0.1,0.1-0.1
c0.03,0,0-0,0-0c0.1,0,0.1-0,0.19-0c0.2,0,0.4-0,0.7-0
c0-0,0-0.1,0-0.1c0-0,0.1-0,0.1-0c0-0.03,0.1-0,0.1-0
c0,0,0-0,0-0c0.1-0,0.1-0.1,0.2-0.1c0.1,0,0.2,0,0.3,0h0
c0,0,0-0,0-0l0.1-0.1c0.1-0,0.1-0,0.1-0c0.1-0,0.2-0,0.2-0
c0.03,0,0.1,0,0.1,0h0l0-0h0c0-0,0.1-0,0.1-0c0.1,0,0.1-0,0.1-0h0
c0.03,0,0.1,0,0.1,0V4.6c0-0,0-0.1,0-0.1c0-0,0-0.1,0-0.1c-0,0-0.1-0-0.1-0
c0-0-0-0-0-0V4.2L43,2.97c-0.1-0-0.1-0.1-0.2-0.2c-0.03-0.1-0-0.1-0-0.2
h-0c-0-0-0.1-0-0.1-0c-0,0-0.1-0-0.1-0h-0.1c-0.1,0-0.1,0-0.14,0
c-0.1-0-0.2-0.1-0.3-0.1c-0,0-0.1,0-0.1,0h-0c-0,0-0.1-0-0.1-0
c-0.1,0-0.1,0-0.1,0c-0.1-0-0.1-0-0.2-0c-0.03-0-0.1-0-0.1-0
c-0-0-0.1-0.1-0.1-0.1c-0-0-0.1-0.1-0.1-0.1C41.1,2,41.07,2.03,41.04,2.03
c-0.1,0-0.11-0-0.1-0c-0.1,0-0.11-0-0.14-0c-0-0-0-0.1-0-0.1
c-0-0-0.1-0-0.1-0c-0-0-0-0.1-0-0.1l-0-0h-0V1.6l-0-0
c-0-0-0.1-0-0.1-0c-0-0-0.1-0.1-0.1-0.1l-0-0.1c0-0.03,0-0.1,0-0.1
c-0-0-0-0.1-0-0.1L40.1,1.1c0-0,0-0.1,0-0.1c0-0,0-0.1,0-0.1V0.9
c0,0,0-0,0-0c0-0,0-0.1,0-0.1V0.7c0-0,0-0.1,0-0.1V0.5l0-0
c0-0,0.1-0.1,0.1-0.1c0,0,0.1,0,0.1,0V0.3c0-0.1,0.1-0.2,0.2-0.2
c0.1-0.1,0.2-0.1,0.3-0.1l0.3,0.1c0.1,0,0.2,0.1,0.3,0.2c0.1,0.1,0.1,0.2,0,0.3
c0,0,0.1,0,0.1,0h0.1c0,0,0.1,0,0.14,0c0,0,0.1,0,0.1,0c0.1,0,0.1,0,0.14,0
l0,0c0.03,0,0.1,0,0.1,0c0.1,0,0.11,0,0.1,0l0,0c0-0.1,0-0.1,0.1-0.1
c0.1-0.1,0.2-0.1,0.3-0.1c0.1,0,0.1,0,0.2,0l4.9,1.3c0.1,0,0.17,0,0.2,0.1
c0,0,0,0.1,0,0.1c0,0,0.1,0,0.1,0c0,0.03,0.1,0,0.1,0
c0.1,0,0.1,0,0.1,0c0,0,0,0.1,0,0.1c0,0,0.1,0,0.1,0C48.63,2.5,48.7,2.5,48.7,2.5
c0,0,0,0.1,0,0.1c0-0,0.1-0,0.1-0V2.5h0c0.1-0,0.1-0,0.2-0V2.4
c0.1,0,0.1,0.1,0.14,0.1h0c0,0,0.1,0.1,0.1,0.1c0,0.03,0,0.1,0,0.1v0
c0,0,0,0.1,0,0.1s0,0.1,0,0.1V2.97c0,0,0,0.1,0,0.1v0c0,0.03,0,0.1,0,0.1v0
c0,0,0,0.1,0,0.1V3.44c0,0,0,0.1,0,0.1c0,0.03,0,0.1,0,0.1c0,0,0,0.1,0,0.1c0,0,0,0.1,0,0.1
v0c0,0.03,0,0.1,0,0.1s0,0.1,0,0.1v0c0,0,0,0.1,0,0.1v0.1c0,0,0,0.1,0,0.1
c0,0,0,0.1,0,0.1v0c0,0.03,0,0.1,0,0.1c0,0.03,0,0.1,0,0.1v0.1c0,0,0,0.1,0,0.1
c0,0,0,0.1,0,0.1v0c0,0,0,0.1,0,0.1v0.14c0,0,0,0.1,0,0.1v0c0,0,0,0.1,0,0.1
c0,0,0,0.1,0,0.1v0c0,0,0,0.1,0,0.1c0,0,0,0.1,0,0.1v0c-0,0-0.1,0-0.1,0
c-0,0-0,0.1-0,0.1c-0,0.03-0.1,0-0.14,0c-0,0-0.1,0-0.1,0h-0L48.88,6.2
c0,0-0,0-0,0c0,0-0,0-0,0h-0.1c-0.5,0-1,0-1.5,0
c0,0-0,0-0,0v0l-0,0c0,0.03-0,0-0,0c-0.1,0-0.11,0-0.1,0
c-0.1,0-0.1,0.1-0.2,0.1v0.1c0,0,0,0.1,0,0.1c0,0,0,0.1,0,0.1v0.1c2.3,0,4.6,0,6.9,0
V6.9c0-0,0-0.1,0-0.1s0-0.1,0-0.1V6.5c0-0,0-0.1,0-0.1c0-0,0-0.1,0-0.1
c0-0,0.1-0,0.1-0c0,0,0.08-0,0.1-0c0,0,0.1-0,0.1-0
c0-0,0-0.1,0-0.1c0,0,0.1,0,0.1,0L54.28,6.07V6c0-0.03,0-0.1,0-0.1V5.9
c0-0,0-0.1,0-0.1c0-0,0-0.1,0-0.1c0-0.03,0-0.1,0-0.1c0-0,0-0.1,0-0.1V5.5
c0-0,0-0.1,0-0.1c0-0,0-0.1,0-0.1l-0-0c-0.03-0.03-0.1-0-0.1-0V5.1
c0-0,0-0.1,0-0.1c0,0,0-0,0-0c0-0.03,0-0.1,0-0.1
c0-0,0.1-0.1,0.1-0.1c0.03,0,0-0,0-0c0,0,0.1-0,0.1-0
c0-0,0.1-0,0.14-0c0-0,0-0.1,0-0.1c0,0,0.1-0,0.1-0
c0-0,0-0.1,0-0.1c0.03-0.03,0-0.1,0-0.1l0-0V4.2c0,0,0.1,0,0.1,0
c0-0.03,0-0.1,0-0.1l0-0h0c0,0,0.1-0,0.1-0c0.2,0,0.4-0,0.6-0
c0,0,0-0,0-0c0,0,0.1,0,0.1,0V3.9c0.1,0,0.1,0,0.2,0c0.1,0,0.11,0.1,0.1,0.1
l0,0c0,0,0-0,0-0c0.1-0,0.1-0,0.1-0V3.9c0.1,0,0.1,0.1,0.2,0.1
l0,0c0,0,0,0,0,0c0,0,0,0.1,0,0.1c0,0,0,0.1,0,0.1c0,0,0,0.1,0,0.1
c0,0,0,0.1,0,0.1c0,0.03,0,0.1,0,0.1c0,0.03,0,0.1,0,0.1c0,0.03,0,0.1,0,0.1v0h0
c0.03,0,0,0,0,0h0c0.1,0,0.1,0.1,0.2,0.1c0,0,0,0,0,0
c0,0,0,0,0,0c0,0,0,0.1,0,0.1c0,0,0.1,0,0.1,0l0,0v0
c0,0,0,0.1,0,0.1c0,0,0,0.1,0,0.1v0c0,0.03,0,0.1,0,0.1c0,0,0,0.1,0,0.1
c0,0,0,0.1,0,0.1c0,0,0,0.1,0,0.1v0c0,0,0,0.1,0,0.1c0,0,0,0.1,0,0.1s0,0.1,0,0.1v0
c0,0,0,0.1,0,0.1v0.2l0.1,0c0.03,0,0.1,0,0.1,0c0.1,0,0.1,0.1,0.14,0.1
c0,0,0,0.1,0,0.1c0,0,0.1,0,0.1,0v0c0,0,0,0.1,0,0.1v0
c7.4,0,14.8,0,22.2,0c0.1,0,0.2,0,0.3,0c0.1,0,0.2,0.1,0.3,0.1C80.59,7.2,80.7,7.3,80.8,7.29z
 M58.3,15c0-0,0-0.1,0-0.1c0,0-0,0.1-0,0.1H58.3z M56.7,5.5c0,0,0,0.1,0,0.1
c0,0,0,0.1,0,0.1v0c0.03,0.03,0,0.1,0,0.1V5.7c0-0.03,0-0.1,0-0.1c0-0,0-0.1,0-0.1V5.5
H56.7z M54.7,6.5l-0,0h0V6.5z M54.5,6.7c0.1-0,0.1-0.1,0.1-0.1
c-0.1,0-0.1,0.1-0.2,0.1v0C54.5,6.7,54.5,6.7,54.5,6.7z M47.4,4.4c0,0,0,0.1,0,0.1
l0,0V4.5c0-0,0-0.1,0-0.1c0-0,0-0.1,0-0.1h-0V4.4z M44.8,6
c-0.1,0-0.2,0-0.3,0c0.1,0,0.2,0,0.3,0C44.8,6,44.8,6,44.8,6z M56.44,15
l-0-0v0H56.44z M22,11.6v-0.1h-0c0,0.03,0,0.1,0,0.1H22z M25,14.4
c0,0,0.1,0,0.1,0v-0C25.1,14.4,25.1,14.4,25,14.4z M30.24,15.4
c-0,0.1-0.1,0.1-0.1,0.1c0,0,0.1,0,0.14,0c0-0-0-0.1-0-0.1V15.4z M11.1,9.6H3.2
c0,0,0,0.1,0,0.1c0,0.1,0,0.11,0,0.1c0,0.03,0,0.1,0,0.14c0,0,0,0.1,0,0.1
c0,0,0,0.1,0,0.14c0,0,0,0.1,0,0.1c0,0.1,0.1,0.11,0.1,0.1
c0,0.1,0,0.1,0,0.2v0c0,0.1,0,0.1,0,0.14c0,0.1,0,0.1,0,0.2c0,0.1,0.1,0.11,0.1,0.1
c0,0,0,0.1,0,0.14v0c0.1,0,0.1,0,0.2,0c0.1,0.1,0.1,0.14,0.2,0.2l0.7,2.1l1.2-0.89
c0.1-0.1,0.2-0.1,0.3-0.1c0.1,0.03,0.2,0.1,0.2,0.14c0-0.03,0.1-0.1,0.1-0.1l0.1-0.1
c0.03-0,0-0.1,0-0.1l0-0c0,0,0.1-0,0.1-0c0.03-0,0-0.1,0-0.1
c0.1-0.03,0.2-0.1,0.2-0.1l0-0c0,0,0.1-0,0.1-0c0-0.03,0.1-0.1,0.1-0.1
c0-0,0.1-0,0.1-0c0.03-0,0.1-0,0.1-0c0-0,0-0.1,0.1-0.1
c0-0,0.1-0.1,0.1-0.1c0-0,0.1-0.1,0.1-0.1c0.1-0,0.1-0.1,0.14-0.1H8.17
c0,0,0.1-0,0.1-0c0-0,0-0.1,0-0.1c0,0,0.1-0,0.1-0
c0-0,0.1-0,0.1-0c0-0,0-0.1,0-0.1c0.1-0,0.1-0.1,0.1-0.1l0-0
c0-0,0.1-0.1,0.1-0.1C9,11.1,9,11,9,11c0.1-0,0.1-0.1,0.1-0.1h0
c0-0,0-0.1,0-0.1c0-0,0.1-0.1,0.1-0.1c0,0,0.1,0,0.1,0
c0-0,0.08-0.1,0.1-0.1c0.03-0,0-0.1,0-0.1c0-0,0.1-0,0.1-0
c0-0,0-0.1,0-0.1c0.1,0,0.1-0,0.14-0C9.94,10.31,9.97,10.3,10,10.2
c0,0,0.1-0,0.1-0c0-0.03,0.1-0.1,0.1-0.1c0.03-0,0.1-0.1,0.1-0.1
c0,0,0.1-0,0.1-0c0.1-0.03,0.11-0.1,0.1-0.1c0-0,0.1-0,0.14-0h0
C10.8,9.8,10.8,9.8,10.8,9.7c0.1-0,0.1-0.1,0.1-0.1C10.97,9.6,11,9.6,11.1,9.6z"/>
</g>
</g>
</g>
<g id="guides">
</g>
</svg>
