<svg xmlns="http://www.w3.org/2000/svg"
 width="100.25px" height="32px" viewBox="0 0 100.25 32">
<g id="Selected_Items">
<g>
<g id="Selected_Items_39_">
<path fill-rule="evenodd" clip-rule="evenodd" fill="#FFFFFF" d="M97.74,7.2c0,0,0,0.1,0,0.1
c0,0,0,0.1,0,0.1c0,0,0,0.06,0,0.1c0,0,0,0.1,0,0.1v0.3c0.6,0,1.1,0,1.7,0
c0.1,0,0.1,0,0.2,0c0,0,0,0,0.1,0h0V8.1c0,0,0,0,0.1,0
c0,0,0.1,0,0.18,0.07c0,0,0,0.1,0.07,0.1c0,0,0,0,0,0.07
c0,0,0,0,0,0.1v0.1c-0,0-0,0.1-0,0.1c-0,0-0,0-0,0.1
c0,0,0,0,0.1,0c0,0,0,0.1,0,0.1c0,0,0,0.1,0,0.1s0,0.1,0,0.1c0,0,0,0.06,0,0.1
c0,0.03,0,0.06,0,0.09c0,0,0,0,0,0.1c0,0,0,0.06,0,0.1l0,0
c0,0,0,0.1,0,0.1s0,0.06,0,0.1v0.1c0,0-0,0-0,0.1c-0,0-0,0-0.1,0.07
c0,0,0,0.1,0,0.1c0,0,0,0.1,0,0.1c0,0,0,0.06,0,0.1s0,0.1,0,0.1c0,0,0,0.1,0,0.1
c0,0,0,0.1,0,0.1c0,0,0,0,0,0.1c-0.2,0-0.3,0-0.52,0l0,0c0,0,0,0,0,0.1
c0,0,0,0,0.1,0.1c0,0,0,0.1,0,0.1l-0,0c-3.1-0-6.2-0-9.3-0
c-0,0-0.1,0-0.1,0.1c-0.1,0-0.3,0-0.4,0c0,0.03,0,0.1,0,0.09h-0v-0
c0-0.02,0-0,0-0.1c-0.4,0-0.8,0-1.2,0.1v0c-0,0-0.1,0-0.1,0c0,0,0,0.05,0,0.1
c-0.2-0-0.3-0-0.5-0c-0,0.02-0,0-0.1,0.1c-0,0-0,0.1-0,0.1
c-0,0-0.1,0-0.1,0.02c0,0,0,0.1,0,0.1c0,0,0,0.1,0,0.1c0,0,0,0.06,0,0.1s0,0.1,0,0.1
v0c0.1,0,0.1,0,0.2,0c0,0,0,0.1,0,0.1s0,0.1,0,0.1c0,0,0,0.1,0,0.1
c0,0,0,0.1,0,0.1c0,0,0,0.1,0,0.1c0,0,0,0.1,0,0.1c0,0,0,0.1,0,0.1c0,0,0,0.1,0,0.1
c0,0.05,0,0.1,0,0.1s0,0.1,0,0.1c0,0,0,0.1,0,0.1c0,0,0,0.1,0,0.1s0,0.1,0,0.1s0,0.1,0,0.1
c0,0,0,0.1,0,0.1c0,0,0,0,0,0.1c-0.1-0-0.2-0-0.4,0c0,0,0,0.1,0,0.1
c0,0,0,0,0,0.1c-0.1,0-0.24,0-0.4,0c-0.2,0-0.4,0-0.61,0v0c0,0,0,0,0,0.1
s-0,0-0,0.1c-0,0-0,0.1-0,0.1c-0,0-0,0-0.07,0
c-0,0-0,0-0.1,0c-0,0-0,0-0.07,0l-0,0c-0,0-0.1,0-0.1,0
c-0.1,0-0.1,0-0.2,0c-0,0-0.1,0-0.1,0v0c-0.24,0-0.5,0.1-0.7,0.1c0,0,0,0,0,0.1
c-0.2,0-0.4,0.1-0.61,0.1c-0,0-0.1,0-0.1,0.07c-0.6,0-1.2,0.1-1.9,0.1
c-0,0-0.1,0-0.1,0.1c-0.5-0-1-0-1.5-0c-0,0-0,0-0.1,0.1h-0
c-0,0-0.1,0-0.2,0c-3.4,0-6.7,0-10.1,0c-0.1,0-0.2,0-0.3,0c0,0,0,0,0,0.07
c-0.5,0-1.1,0.1-1.6,0.1c0,0,0,0,0,0.1c-0.6,0-1.1,0.06-1.7,0.1
c-0,0-0.1,0-0.1,0.1c-0.5,0-0.9,0.1-1.3,0.1c-0,0-0.1,0-0.1,0.1
c-0.4,0-0.8,0.06-1.3,0.1c0,0,0,0,0,0.1c-0.5,0-1,0.06-1.4,0.1c0,0,0,0,0,0.1
c-0.5,0-0.9,0.06-1.3,0.1c-0,0-0.1,0-0.1,0.1c-0.6,0-1.1,0.1-1.7,0.1
c-0,0-0.1,0-0.1,0.1c-0.7-0-1.5-0-2.2-0c-0-0-0.1-0.06-0.1-0.1
c-0.4-0-0.8-0-1.1-0.1c-0-0-0.06-0.1-0.1-0.1c-0.12-0-0.25-0-0.4-0.1
c0-0,0-0.06,0-0.1c-0.12-0-0.2-0-0.4-0.1c0-0,0-0.1,0-0.1c-0-0-0.1-0-0.2-0.1
c0-0,0-0.06,0-0.1c-0.12-0-0.24-0-0.4-0.1c0-0,0-0.06,0-0.1c-0-0-0.1-0-0.18-0.1
c-0-0-0-0.1-0-0.1c-0-0-0.1-0.1-0.1-0.1c-0-0-0.1-0.1-0.1-0.1
c-0.1-0-0.2-0.1-0.3-0.1c-0-0-0-0.1-0-0.1c-0-0-0.1-0.1-0.1-0.1
c-2.52,0-5,0-7.6,0.1c0,0,0,0,0,0.1c-0.79-0-1.58-0-2.4-0
c-0-0-0.1-0.1-0.1-0.1c-0.12-0-0.3-0-0.4-0.1c0-0,0-0.1,0-0.1
c-0,0-0,0-0.1,0c0,0-0,0-0,0l-0.1,0.1c-0,0-0,0-0.1,0
c0,0-0,0-0,0c0,0-0,0-0,0l-0,0c-0,0-0.05,0-0.1,0h-0
c-0,0-0.1,0-0.1,0l-0,0h-0v0l-0.1,0l-0,0h-0
c-0,0-0,0-0.1,0h-0c-0,0-0.1,0-0.1,0c0,0-0,0-0,0
c-0,0-0,0-0,0c-0,0-0,0-0,0c-0,0-0,0-0,0
c-0,0-0,0-0,0c-0,0-0,0-0.07,0c-0,0-0,0-0,0
c-0,0-0,0-0.1,0H41.83c0,0-0,0-0,0c-0,0-0,0-0.1,0
c0,0-0,0-0,0v0c-0.1,0-0.24,0-0.4,0l-0,0c-0,0-0,0-0.1,0
l-0.1,0.1v0l-0,0v0c-0,0-0.1,0-0.1,0l-0,0v0h-0
c-0,0-0,0-0.1,0l-0.1,0.1v0.07c-0,0-0.1,0-0.1,0l-0.1,0.1v0.1
c-0,0-0.1,0-0.1,0c-0,0-0,0-0.1,0v0.1c-0,0-0.1,0-0.1,0v0
c-0,0-0,0-0.1,0c0,0-0,0-0,0s-0,0-0,0L40.1,16.9v0.07
c-0.1,0-0.1,0-0.2,0c0,0-0,0-0,0v0.07c-0,0-0.06,0-0.1,0c-0,0-0,0-0.1,0
c-0.1,0-0.2,0-0.25,0c-0.1,0-0.2,0-0.3,0v0.1c-0.1,0-0.1,0-0.2,0
c-0,0-0.1,0-0.1,0c-0.3,0-0.6,0-0.9,0c-0.3,0-0.6,0-0.8,0
c-0,0-0.1-0-0.1-0c-0,0-0.1-0-0.1-0c-0,0-0-0-0.1-0v-0
c-0-0-0.1-0-0.1-0c0,0,0,0,0,0v0.3c0,0,0,0,0,0l0,0
v0c0,0,0,0.1,0,0.1c-0,0-0,0-0,0c-0-0-0-0-0-0
c-0.2,0-0.4,0-0.6,0c-0,0-0.06-0-0.1-0l-0.07-0.1v-0.1c-0-0-0.1-0-0.1-0v-0
l-0-0v-0c-0,0-0-0-0-0l-0-0c-0,0-0-0-0.1-0
c0-0-0-0-0-0v-0.1l-0-0v-0l-0.2-0.2v-0c-0,0-0-0-0-0l-0.1-0.07
v-0c0-0-0-0-0-0v-0.1c-0-0-0-0-0.07-0l-0-0
c0-0-0-0-0-0v-0c-0,0-0-0-0-0V16.36l-0-0v-0
c-0,0-0-0-0-0l-0-0v-0h-0v-0c0-0-0-0-0-0
c0-0-0-0-0-0l-0.1-0.1v-0c0-0-0-0-0-0v-0l-0-0v-0.2h-0
c0-0-0-0-0-0v-0l-0-0V15.5H34.51c-0.1-0-0.12-0-0.2-0c-0.4,0-0.85,0-1.3,0
c-0.2,0-0.46,0-0.7,0v0c-0,0-0.1,0-0.1,0c-0.1,0-0.1,0-0.2,0.07
c-0.3,0-0.5,0-0.8,0.1c-0,0-0.06,0-0.1,0c-0,0-0.1,0-0.1,0
c-0.1,0-0.1,0-0.1,0c-0,0-0,0-0.1,0c-0.1,0-0.1,0-0.1,0
c-0,0-0.1,0-0.1,0c-0,0-0.1,0-0.1,0c-0.1,0-0.12,0-0.1,0.1
c-0.1,0-0.1,0-0.2,0.1c0,0-0,0-0.1,0.1c-0,0-0.1,0-0.1,0
c-0,0-0.1,0-0.1,0.1c-0,0-0.1,0-0.1,0v0c-0,0-0,0-0.1,0
c-0,0-0.01,0-0,0.1c-0,0-0,0-0.1,0.1l-0,0h-0v0
c-0,0-0.1,0.1-0.1,0.1c-0,0-0.1,0.1-0.1,0.1c-0.1,0-0.1,0.1-0.2,0.1
c0,0,0,0.1,0,0.1c0,0,0,0.1,0,0.1v0c-0,0-0.1,0.06-0.18,0.1c0,0,0,0,0,0.1
c-0,0-0.1,0.06-0.18,0.1c0,0,0,0.06,0,0.1c0,0,0,0.1,0,0.1v0
c-0,0-0.1,0.1-0.2,0.1c0,0,0,0.06,0,0.1c0,0,0,0.1,0,0.1v0
c-0,0-0.1,0.1-0.18,0.1c0,0,0,0.06,0,0.1s0,0.1,0,0.1c0,0,0,0.1,0,0.1s0,0.1,0,0.1
c0,0,0,0.1,0,0.1c0,0,0,0.1,0,0.1s0,0.1,0,0.1c0,0,0,0.1,0,0.1c0,0,0,0.1,0,0.1
s0,0.1,0,0.1c0,0.05,0,0.1,0,0.1c0,0,0,0.1,0,0.1c-0,0-0,0.1-0,0.1
c-0,0-0.06,0.1-0.1,0.1l-0,0c-0.06-0-0.12-0-0.18,0c-0,0-0,0-0,0.1
c-0,0-0,0.1-0.1,0.1l-0.1,0c-0,0-0.1,0-0.2,0h-0.1
c-0.1-0-0.1-0-0.2-0c-0-0-0-0.1-0.1-0.1c-0-0-0-0.06-0-0.1v-0
c-0.2-0-0.3-0-0.5-0.02v0c-0,0-0.1,0.1-0.18,0.1c0,0,0,0,0,0.1
c-0.06,0-0.1,0-0.2,0.1c0,0,0,0.1,0,0.1c0,0,0,0.1,0,0.1c0,0,0,0,0,0.1
c-0,0-0.1,0.06-0.18,0.1c0,0,0,0,0,0.1c-0.28-0-0.6-0-0.8-0
c-0.4-0-0.8-0-1.2-0c0,0,0,0,0,0.1c0,0,0,0,0.1,0.1
c0,0,0.06,0.1,0.1,0.1c0,0,0,0,0,0.1v0l0,0c0,0,0,0.1,0,0.1
c-0,0-0,0-0,0.1c-0,0-0,0.1-0,0.1c-0,0-0,0-0.1,0
c-0,0-0,0-0.1,0c-0,0-0.06,0-0.1,0c-0.1,0-0.12,0-0.1,0c-0.1-0-0.1-0-0.2-0
c-0-0-0.06-0-0.1-0.07c-0-0-0-0.1-0.1-0.1c-0,0-0-0-0.1-0.1
c0-0,0-0.1,0-0.1v-0c0-0,0-0.1,0-0.1c0-0,0-0.1,0-0.1c-0,0-0-0-0.1-0.1
c0-0-0-0-0-0.1c0-0,0-0,0-0.1c-0-0-0.1-0.1-0.1-0.1
c-0-0-0.1-0-0.1-0.1c0-0-0-0-0-0.1c-0-0-0-0.1-0.1-0.1
c-0-0-0-0-0.1-0.1c-0-0-0-0.06-0-0.1c-0-0-0-0-0-0.1v-0
c-0.1-0-0.1-0-0.2-0.1c-0-0-0-0.1-0.1-0.1c-0-0-0-0.1-0.1-0.1
c-0.1-0-0.1-0-0.2-0.1c-0.1,0-0.1,0-0.2,0c-0,0-0.1,0-0.18,0
c-0-0-0.1-0-0.2-0c-0-0-0-0-0.1-0.07c-0-0-0-0.1-0.1-0.1
c0-0,0-0,0-0.1c0-0,0-0,0-0.1v-0.1c0-0,0-0.1,0-0.1c0-0,0-0,0-0.1
c-0.1,0-0.18,0.1-0.3,0.1c-0.1,0-0.2,0.1-0.3,0.1c0,0,0,0.1,0,0.1
c-0.1,0-0.18,0.1-0.3,0.1c-0.1,0-0.2,0-0.3,0.07c-0.1,0-0.2,0.1-0.4,0.1
c-0,0-0.1,0-0.18,0.1c-0.1,0-0.2,0.06-0.25,0.1c-0,0-0.1,0-0.1,0.1
c-0.1,0-0.24,0.1-0.4,0.1c0,0,0,0,0,0.1c-0.1,0-0.24,0.06-0.4,0.1c0,0,0,0,0,0.1
c-0.12,0-0.2,0.1-0.4,0.1c0,0,0,0,0,0.1c-0.1,0-0.3,0.06-0.4,0.1
c-0,0-0.1,0-0.1,0.1c-0,0-0.1,0.06-0.18,0.1c0,0,0,0,0,0.1
c-0.1,0-0.3,0.06-0.43,0.1c-0,0-0.1,0-0.1,0.1c-0.1,0-0.2,0.06-0.4,0.1
c0,0,0,0,0,0.1c-0.1,0-0.2,0.1-0.4,0.1c0,0,0,0,0,0.1c-0.1,0-0.3,0.06-0.43,0.1
c-0,0-0.1,0-0.1,0.1c-0.1,0-0.2,0.1-0.4,0.1c0,0,0,0,0,0.07
c-0,0-0.1,0.06-0.2,0.1v0.1c-0.1,0-0.2,0.06-0.3,0.1c-0,0-0.1,0-0.1,0.1
c-0.1,0-0.2,0.1-0.4,0.1c0,0,0,0,0,0.1c-0.1,0-0.2,0.1-0.4,0.1c0,0,0,0,0,0.1
c-0.1,0-0.2,0.1-0.3,0.1c-0,0-0.1,0-0.1,0.1c-0.1,0-0.18,0.06-0.3,0.1
c-0,0-0.1,0-0.1,0.1c-0.1,0-0.2,0.06-0.3,0.1c-0,0-0.1,0-0.1,0.1
c-0,0-0.1,0.06-0.2,0.1c0,0,0,0,0,0.07c-0.12,0-0.2,0.1-0.4,0.1c0,0,0,0,0,0.07
c-0.12,0-0.2,0.1-0.36,0.1c0,0,0,0,0,0.1c-0.1,0-0.24,0.06-0.4,0.1c0,0,0,0,0,0.1
c-0.2,0-0.3,0.06-0.5,0.1c0,0,0,0,0,0.1c-0.1,0-0.18,0.1-0.3,0.1
c-0,0-0.1,0-0.1,0.1c-0.12,0-0.24,0.06-0.4,0.1c0,0,0,0,0,0.1
c-0.12,0-0.24,0.1-0.36,0.1c0,0,0,0,0,0.1c-0.1,0-0.2,0.1-0.4,0.1c0,0,0,0,0,0.1
c-0.2,0-0.3,0.1-0.5,0.1c0,0,0,0,0,0.1c-0.12,0-0.2,0.06-0.4,0.1c0,0,0,0,0,0.1
c-0.12,0-0.2,0.06-0.36,0.1c0,0,0,0,0,0.1c-0.1,0-0.2,0.06-0.4,0.1c0,0,0,0,0,0.1
c-0.12,0-0.2,0.06-0.4,0.1c0,0,0,0,0,0.1c-0.1,0-0.18,0.1-0.3,0.1
c-0,0-0.1,0-0.1,0.1c-0.12,0-0.2,0.1-0.36,0.1c0,0,0,0,0,0.07
c-0.1,0-0.2,0.1-0.4,0.1c0,0,0,0,0,0.1c-0.2,0-0.3,0.1-0.5,0.1c0,0,0,0,0,0.1
c-0.1,0-0.3,0.06-0.43,0.1c-0,0-0.1,0-0.1,0.1c-0.1,0-0.3,0.1-0.43,0.1
c-0,0-0.1,0.05-0.1,0.1c-0.1,0-0.24,0.1-0.4,0.1c0,0,0,0,0,0.1
c-0.1-0-0.2-0-0.3,0c0,0,0,0.06,0,0.1c0,0,0,0.06,0,0.1v0c-0,0-0,0.1-0.1,0.1
l-0,0c-0,0-0,0-0,0c-0,0-0.1,0-0.1,0c-0,0-0.1,0-0.1,0
c-0-0-0.1-0-0.1-0.1H4.2c-0,0-0.1,0-0.1,0c-0,0-0.1,0-0.1,0.1
c-0,0-0.1,0-0.1,0c-0-0-0.1-0-0.2-0.1c-0,0-0-0-0.07-0.1v-0
c-0-0-0-0-0.1-0.1c0,0,0,0,0,0.1v0c-0,0-0,0-0.1,0.1l-0,0.1
c0,0-0,0.1-0,0.1c-0,0-0.1,0-0.1,0c-0,0-0.1,0-0.2,0.07
c-0.1,0-0.2,0-0.3,0c-0.1-0-0.13-0-0.18-0.07c-0,0-0,0-0.1,0c-0-0-0.1-0-0.1-0.1
c-0-0-0-0-0.07-0.1c-0-0-0.1-0-0.18-0.1c-0,0-0.1-0-0.1-0
c-0.1-0-0.2-0-0.2-0.1C1.7,27.2,1.7,27.15,1.6,27.1c-0-0-0-0-0.1-0.1
c-0-0-0.1-0.1-0.1-0.1C1.4,26.9,1.4,26.9,1.4,26.9c0-0-0-0.1-0-0.1
c0-0-0-0-0-0.1c0-0-0-0-0-0.1c0-0-0-0.06-0-0.1v-0.1
c0-0,0-0,0-0.1v-0.1c0-0,0-0.1,0-0.1c0-0,0-0,0-0.1c0-0,0-0,0-0.1
c0-0,0-0.1,0-0.1c0-0,0-0,0-0.1c0-0,0-0.1,0-0.1c0-0-0-0-0-0.1
c-0-0-0-0-0-0.1c-0-0-0-0.1-0-0.1v-0.07c0-0,0-0,0-0.1v-0.1
c0-0,0-0.1,0-0.1c0-0,0-0,0-0.1c0-0,0-0.1,0-0.1c0-0,0-0,0-0.1
c-0-0-0-0-0-0.1c-0-0-0-0.06-0.1-0.1c0-0-0-0-0-0.1
c0-0,0-0,0-0.07c0-0,0-0.1,0-0.1v-0.1c0-0,0-0.06,0-0.1v-0c0-0,0-0.1,0-0.1v-0.07
c0-0,0-0.06,0-0.1c0-0,0-0,0-0.1c0-0,0-0,0-0.1c0-0,0-0.1,0-0.1
c0-0-0-0-0-0.1c0-0,0-0,0-0.1c0-0-0-0.1-0-0.1c0-0,0-0,0-0.07
s0-0.1,0-0.1c0-0,0-0,0-0.07c0-0,0-0,0-0.1v-0.1c0-0,0-0.06,0-0.1c0-0,0-0.06,0-0.1v-0
c0-0,0-0.1,0-0.1c0-0,0-0,0-0.1c0-0,0-0.06,0-0.1c0-0,0-0,0-0.1c0-0,0-0,0-0.1
c0-0,0-0.1,0-0.1v-0.1c0-0-0-0-0-0.1c0-0-0-0.1-0-0.1
c-0-0-0-0.1-0.1-0.1c0-0,0-0.06,0-0.1v-0.07c0-0,0-0,0-0.1c0-0,0-0,0-0.1
c0-0,0-0.1,0-0.1c0-0,0-0,0-0.1c0-0,0-0,0-0.07c0-0,0-0.1,0-0.1v-0.1
c0-0,0-0.1,0-0.1v-0c0-0,0-0.1,0-0.1c0-0,0-0.1,0-0.1V20.81c0-0,0-0,0-0.1
c0-0,0-0,0-0.1c0-0,0-0.1,0-0.1c0-0,0-0,0-0.1c0-0,0-0,0-0.1c0-0,0-0.1,0-0.1
c-0-0-0-0-0.1-0.1c0-0-0-0.06-0-0.1c0-0,0-0,0-0.1c0-0,0-0,0-0.1
c0-0,0-0.1,0-0.1v-0.1c0-0,0-0.1,0-0.1v-0c0-0,0-0.1,0-0.11c0-0,0-0,0-0.07
c0-0,0-0.1,0-0.1c0-0,0-0,0-0.1c0-0,0-0,0-0.1c0-0,0-0.1,0-0.1c0-0,0-0,0-0.1
c0-0,0-0,0-0.1v-0.1c0-0,0-0.1,0-0.1c-0-0-0-0.06-0.1-0.1c-0,0-0-0-0-0
c0-0,0-0.1,0-0.1v-0.1c0-0,0-0.1,0-0.1c0-0,0-0,0-0.1c0-0,0-0,0-0.1
c0-0,0-0.1,0-0.1c0-0,0-0,0-0.07s0-0.06,0-0.1v-0c0-0,0-0.1,0-0.1c0-0,0-0.06,0-0.1v-0.1
c-0-0-0-0-0.1-0.1l-0-0.1c0-0,0-0.1,0-0.1c0-0,0-0,0-0.1s0-0,0-0.1
c0-0,0-0.1,0-0.1c0-0,0-0,0-0.1c0-0,0-0.06,0-0.1V16.9c0-0,0-0.1,0-0.1c0-0,0-0.1,0-0.1
v-0.1c0-0,0-0.1,0-0.1v-0c-0-0-0-0.1-0.1-0.1c0-0-0-0-0-0.1
c0-0,0-0.1,0-0.1c0-0,0-0,0-0.1c0-0,0-0,0-0.1c0-0,0-0.1,0-0.1c0-0,0-0,0-0.1
c0-0,0-0,0-0.1c0-0,0-0.1,0-0.1c0-0,0-0,0-0.1c0-0-0-0.06-0-0.1
c-0,0-0-0-0.1-0c0-0-0-0.1-0-0.1v-0.1c0-0,0-0.1,0-0.1c0-0,0-0.06,0-0.1
v-0c0-0,0-0.1,0-0.1c0-0,0-0,0-0.1c0-0,0-0.1,0-0.1c0-0,0-0,0-0.1
c0-0,0-0,0-0.07c0-0,0-0.1,0.1-0.1c0,0,0-0,0.1-0l0-0h0
c0-0,0-0,0-0.1V14.28c0-0,0-0.1,0-0.1s0-0.1,0-0.1c0,0,0-0,0.1-0
c0-0,0.1-0.1,0.1-0.1c0-0,0-0,0.1-0.1c0-0,0-0.1,0.1-0.1
c0-0,0-0,0.1-0.1c0,0,0.1-0,0.1-0c0.1-0,0.1-0,0.18-0.1
c0-0,0-0,0.1-0.1c0,0,0.1,0,0.1,0c0.1-0,0.1-0,0.2-0.07
c0.1-0,0.2-0.1,0.2-0.1c0,0,0.1-0,0.1-0c0,0,0.1,0,0.1,0c0.1,0,0.2,0,0.25,0
c0,0,0.1,0,0.1,0c0,0,0.1,0,0.1,0c0,0,0,0,0.1,0c0,0,0.1,0,0.2,0.1
c0,0,0,0.07,0.1,0.07c0,0,0,0.06,0.07,0.1c0,0,0.1,0,0.1,0
c0.1-0,0.3-0.05,0.43-0.1c0-0,0-0,0-0.1h0c0,0,0,0,0.1,0c0.4,0,0.7,0,1.1,0
l0,0c0.49,0,1,0,1.5,0c0,0,0.1,0.06,0.1,0.1l0,0
c0.1,0,0.3,0,0.4,0.02c0.2,0,0.4,0,0.5,0c0,0,0,0,0.1,0.1
c0.2,0,0.5,0,0.7,0c0-0,0-0,0.1-0.1h0c0.6,0,1.2-0,1.9-0c0,0,0.1,0,0.1,0
c0-0,0.1-0,0.1-0c0.1-0,0.1-0,0.18-0V13.13c0.1,0,0.3,0,0.4,0
c0,0,0,0,0.1,0c0.1-0,0.1-0,0.2-0c0-0,0-0,0-0v-0c0.1,0,0.2,0,0.25,0
h0c0,0,0-0,0-0c0.1,0,0.3,0,0.4,0h0c0,0,0-0,0-0c0.1,0,0.1,0,0.2,0
c0,0,0,0,0.1,0c0,0,0,0,0.1,0c0.12-0,0.3-0,0.4-0c0-0,0-0,0.1-0
c0,0,0-0,0.1-0c0.1,0,0.1,0,0.2,0c0,0,0,0,0.1,0s0-0,0.1-0h0
c0,0,0,0,0.1,0c0,0,0-0,0.1-0c0.12,0,0.3,0,0.4,0c0.1-0,0.3-0,0.43-0
c0-0,0-0,0.1-0c0,0,0-0,0-0c0.1,0,0.3,0,0.4,0c0,0,0,0,0.1,0v-0
c0.3,0.02,0.5,0,0.79,0c0,0,0.1,0,0.1,0c0-0,0-0.01,0-0
c0.2-0,0.4-0,0.5-0c0,0,0,0,0.1,0h0l0-0c0,0,0.05,0,0.1,0h0.1
c0.1-0,0.3-0,0.4-0c0,0,0.1,0,0.1,0c0,0,0.1,0,0.1,0c0-0,0.1-0,0.1-0
c0,0,0.1,0,0.1,0c0,0,0.1,0,0.1,0c0,0,0.06-0,0.1-0c0,0,0.1,0,0.1,0
c0,0,0.1,0,0.1,0c0.2,0,0.42-0,0.6-0c0,0,0,0,0.1,0c0,0,0,0,0.1,0
s0-0,0-0c0,0,0,0,0.1,0c0,0,0,0,0.1,0c0,0,0,0,0.1,0
c0-0,0-0,0-0c0,0,0.1,0,0.2,0c0,0,0.1,0,0.1,0c0-0,0.1-0,0.1-0
c0.1,0,0.1,0,0.18,0c0,0,0.1,0,0.18,0c0,0,0.1-0,0.1-0c0,0,0.1,0,0.1,0
c0,0,0.1,0,0.1,0c0,0,0.1-0,0.1-0c0,0,0,0,0.1,0c0,0,0,0,0.1,0
c0,0,0-0,0.1-0c0,0,0,0,0.1,0c0,0,0,0,0.1,0c0,0,0,0,0.1,0
c0-0,0-0,0.1-0c0,0,0.1,0,0.1,0c0,0,0.1,0,0.1,0c0-0,0.1-0,0.1-0
c0,0,0.1,0,0.18,0c0,0,0.1,0,0.1,0s0.1-0,0.1-0c0,0,0.1,0,0.1,0s0.1,0,0.1,0
c0.2,0,0.4-0,0.6-0c0,0,0,0,0.1,0h0c0,0,0-0,0.1-0h0c0,0,0,0,0.1,0
h0l0-0c0,0,0.1,0,0.1,0c0,0,0.1,0,0.1,0c0-0,0.1-0,0.1-0
c0,0,0.1,0,0.1,0c0,0,0.1,0,0.1,0c0.1,0,0.2-0,0.3-0v0c0,0,0.1,0,0.1,0v0.2
l0,0v0l0,0v0c0,0,0.1,0,0.1,0c0.1,0,0.1,0,0.2,0
c0,0,0,0,0.1,0v0c0.1,0,0.1,0,0.2,0c0.1,0,0.2,0,0.25,0
c0.1,0,0.3,0,0.4,0c0.1-0,0.1-0,0.18-0c0-0,0-0,0.1-0l0-0
c0,0,0.1-0,0.1-0c0,0,0-0,0.1-0c0,0,0.1,0,0.1,0c0-0,0.1-0,0.1-0
c0-0,0.1-0,0.1-0v-0c0,0,0.1-0,0.1-0c0,0,0-0,0-0
c0.05,0,0.1,0,0.1,0c0-0,0.06-0,0.1-0c0,0,0,0,0.1,0h0c0-0,0-0,0-0
v-0c0,0,0.1-0,0.1-0c0,0,0-0,0-0c0,0,0.1,0,0.1,0
c0-0,0.06-0,0.1-0c0-0,0.1-0,0.1-0v-0c0,0,0.1-0,0.1-0v-0
c0,0,0,0,0.1,0c0.1-0,0.1-0,0.2-0c0-0,0.1-0,0.1-0v-0
c0,0,0-0,0.1-0v-0c0.1,0,0.1,0,0.18,0c0-0,0.1-0,0.1-0
c0-0,0.1-0,0.1-0l0-0c0,0,0.1-0,0.1-0v-0c0.1,0,0.1,0,0.2,0
c0-0,0.1-0,0.1-0c0-0,0-0,0.1-0v-0c0,0,0.1-0,0.1-0
c0,0,0-0,0-0c0,0,0.1,0,0.1,0c0-0,0-0,0.1-0
c0-0,0-0,0.1-0l0-0c0,0,0.1-0,0.1-0c0,0,0-0,0.1-0h0
c0-0,0.06-0,0.1-0c0-0,0-0,0.1-0l0-0c0,0,0.06-0,0.1-0v-0
c0,0,0.1,0,0.1,0c0-0,0-0,0.1-0c0-0,0.1-0,0.1-0l0-0
c0,0,0-0,0.1-0c0,0,0-0,0.1-0h0c0-0,0.1-0,0.1-0
c0-0,0-0,0.1-0v-0c0,0,0.06-0,0.1-0v-0c0,0,0,0,0.1,0
c0,0,0,0,0.1,0l0-0h0c0-0,0.1-0,0.1-0v-0c0,0,0-0,0.1-0v-0
c0,0,0.1,0,0.1,0c0-0,0-0,0.1-0c0-0,0.1-0,0.1-0V10.26
c0,0,0-0,0.1-0c0,0,0-0,0.1-0c0,0,0,0,0.1,0c0-0,0.1-0,0.1-0
c0-0,0-0,0.1-0V10.08c0,0,0.1-0,0.1-0V10.01c0,0,0.1,0,0.1,0
c0-0,0-0,0.1-0c0-0,0.1-0,0.1-0V9.9c0,0,0.1-0,0.1-0V9.8
c0,0,0,0,0.1,0c0-0,0.1-0,0.1-0c0-0,0-0,0.1-0l0-0
c0,0,0-0.01,0.1-0V9.7c0,0,0.06,0,0.1,0c0-0,0-0,0.1-0
C33.1,9.59,33.17,9.58,33.2,9.58V9.5c0,0,0-0,0.1-0V9.5c0,0,0.1,0,0.1,0
c0-0,0.1-0,0.1-0C33.6,9.4,33.6,9.4,33.6,9.4V9.4c0,0,0-0,0.1-0
c0,0,0-0,0.1-0c0,0,0,0,0.1,0c0-0,0.1-0,0.1-0
c0-0,0-0,0.1-0l0-0c0,0,0.1-0,0.1-0V9.1c0,0,0.1,0,0.1,0
c0-0,0-0,0.1-0c0-0,0.1-0,0.1-0V9c0,0,0-0,0-0V8.9
c0,0,0.1,0,0.1,0c0-0,0-0,0.1-0c0-0,0.1-0,0.1-0V8.8
c0,0,0-0,0.1-0V8.8c0,0,0.1,0,0.1,0l0-0c0-0,0.1-0,0.1-0V8.6
c0,0,0-0,0.1-0c0,0,0-0,0.1-0V8.5c0,0,0,0,0.1,0
c0-0,0.1-0,0.1-0V8.5c0,0,0-0,0.1-0c0,0,0-0,0.1-0h0
c0-0,0.1-0,0.1-0c0-0,0-0,0.1-0V8.3c0,0,0.1-0,0.1-0V8.2
c0,0,0,0,0.1,0c0-0,0.1-0,0.1-0l0-0V8.1c0,0,0-0,0.1-0
c0,0,0-0,0.1-0h0L36.52,8c0-0,0.1-0,0.1-0V7.9c0,0,0-0,0.1-0
V7.9c0,0,0.1,0,0.1,0l0-0c0-0,0-0,0.1-0l0-0c0,0,0-0,0.1-0
V7.7c0,0,0.1,0,0.1,0c0-0,0-0,0-0c0-0,0-0,0-0V7.6
c0,0,0-0,0-0V7.5c0,0,0.06,0,0.1,0V7.5c0,0,0,0,0.1,0V7
c0.1,0,0.2,0.01,0.4,0V6.6c0.4,0,0.8,0,1.2,0V6.6c0.2,0,0.4,0,0.5,0
c0,0,0,0,0.1,0v0.4c0.1,0,0.2,0,0.3,0v0c0.1,0,0.3,0,0.4,0v0c0,0,0,0,0,0
v0.4c2.2,0,4.4,0,6.5,0c0,0,0,0,0,0.1c0.1,0,0.1,0,0.2,0
c-0-0-0-0-0.1-0V7.48c0.1,0,0.3,0,0.43,0v0l-0,0c0.7,0,1.5,0,2.2,0V7.5
c0.2-0,0.3-0,0.5,0v0c0,0,0.1,0,0.1,0V7.5c0.1,0,0.3,0,0.4,0v0c0.1,0,0.18,0,0.3,0
V7.5c0.1,0,0.3,0,0.4,0v0c0.4,0,0.8,0,1.3,0V7.5c0.1,0,0.3,0,0.43,0v0c0.1,0,0.2,0,0.3,0
V7.5c0.3-0,0.6-0,0.9,0v0c0.1,0,0.3,0,0.4,0c0,0,0,0.06,0,0.1
c0,0,0,0.1,0.1,0.1c0.4,0,0.8,0,1.3,0c0,0,0,0.1,0,0.1v0.1
c0,0,0,0,0.1,0c0,0,0.1,0.1,0.1,0.1v0l0-0c0,0,0.1,0,0.1,0
c12.5,0,24.9,0,37.4,0c-0-0-0-0-0.1-0.1c0-0,0-0.1,0-0.1V7.8
c0.3,0,0.6,0,0.9,0c0,0,0,0,0.1,0.1c0.2,0,0.3,0.01,0.5,0
c0-0,0-0,0-0.1c0-0.1,0-0.2,0-0.3c0-0,0-0.1,0-0.1s0-0.1,0-0.1c0-0,0-0.1,0-0.1
c0.1-0,0.1-0.1,0.18-0.1c0-0,0-0,0-0.1V7c0.79,0,1.6,0,2.4,0
C97.68,7.08,97.7,7.1,97.74,7.2z M35.1,14.2c-0,0-0.1,0-0.1,0c0-0,0.1-0,0.1,0
L35.1,14.2z M36.7,15.3c-0,0-0,0-0.1,0c0,0,0,0,0,0v0.7
c0,0,0,0,0.1,0v0.1c0,0,0,0,0.1,0c0,0,0,0,0,0v0
c0,0,0,0,0,0v0c0,0,0,0,0,0c0,0,0.1,0,0.1,0v0.1h0
c0,0,0,0,0.1,0.02c0,0,0.06,0,0.09,0v0c0,0,0,0,0,0
c0,0,0.1,0,0.1,0v0c0,0,0,0,0.1,0c0,0,0.1,0,0.1,0
c0,0,0.1,0,0.2,0c0.2-0,0.48-0,0.72-0c0.07-0,0.1-0,0.2-0v-0.1c0,0,0.1,0,0.1,0
c0.1-0,0.2-0,0.4-0c0-0,0-0,0.1-0c0-0,0.1-0,0.1-0v-0
c0,0,0-0,0-0v-0c0,0,0.1,0,0.1,0v-1.4c-0.9-0-1.89-0-2.8-0V15.3z
 M40.1,14.5c-0.3,0-0.6,0.01-0.9,0c0.3-0,0.6-0,0.9,0V14.5z M1,14.7
c0,0-0,0-0,0l-0,0c0,0,0,0,0,0.1v0c0-0,0.1-0.1,0.1-0.1
c0-0,0-0.1,0.1-0.1v-0c-0,0-0,0-0,0.1C1,14.7,1,14.7,1,14.7z
 M1.2,14.5c0-0,0-0,0.1-0c0-0,0-0.1,0-0.1c-0,0-0,0-0.1,0.1V14.5z
 M1.5,14.2c0-0,0-0,0-0.1l-0,0c-0.1,0-0.1,0-0.18,0.1
c-0,0-0.04,0-0.1,0.1c0,0,0.1,0,0.1,0V14.28C1.4,14.3,1.5,14.2,1.5,14.2z
 M1.21,17.4c0,0.01,0.02,0,0,0v-0H1.21z M3.4,26.9c0,0,0,0.1,0.1,0.1
c0,0,0,0,0,0.1v-0c0-0,0-0.1,0-0.1c0-0,0-0,0-0.1
c0-0.01,0-0,0-0c-0.1,0-0.1,0-0.2,0C3.35,26.9,3.4,26.9,3.4,26.9z"/>
</g>
</g>
</g>
<g id="guides">
</g>
</svg>
