<svg xmlns="http://www.w3.org/2000/svg"
 width="37.9px" height="32px" viewBox="0 0 37.9 32">
<g id="Selected_Items">
<g>
<g id="Selected_Items_13_">
<path fill-rule="evenodd" clip-rule="evenodd" fill="#FFFFFF" d="M37.2,10.7c-0.12,0.2-0.3,0.4-0.6,0.4
c-0.4,0-3.5,0.1-9.1,0.1c-0.2,0-0.4,0-0.6,0.1c-0.36,0.1-0.6,0.3-0.7,0.6
c-0.1,0.2-0.1,0.7-0,1.4c0.03,0.4,0.1,0.9,0.18,1.6c0,0.4,0.09,0.7,0.2,1.1
c0,0.2-0.2,0.3-0.5,0.4c-0.7,0.1-1.3,0.3-1.88,0.3c-1,0.1-2.1,0.2-3.3,0.3
c-1.8,0-3.9-0.03-6.1-0.2c-1.9,5.2-2.91,7.9-2.91,8.2c0,0.4,0.1,1.5,0.2,3.45
c0.4,0.3,0.8,0.6,1.1,0.67c0.2,0.1,0.3,0.2,0.3,0.36c0,0.1-0.03,0.1-0.09,0.2l-0.3,0.2
c-0.33,0.1-0.7,0.1-1.1,0c-0.6-0.09-4.4-0.85-11.4-2.3c-0.4-0.1-0.4-1,0-3
c0.1-0.8,0.5-2,1.03-3.5c0.6-1.6,1.09-2.8,1.6-3.7c0.5-0.9,0.91-1.9,1.2-3
c0.4-1.1,0.5-1.8,0.4-2.3c-0.1-0.3-0.5-0.7-1.3-1.2c-0.6-0.3-1.2-0.5-1.7-0.7
c-0.3-0.03-0.5-0.2-0.7-0.4c-0.12-0.12-0.3-0.3-0.4-0.5C0.6,9.5,0.6,9.1,0.6,8.6
c0-0.24,0-0.6,0-1.12c0-0.8,0.1-1.3,0.18-1.4C1.34,5.1,1.77,4.4,2.1,3.9C2.3,3.5,2.6,3.2,2.8,3
C3.1,2.7,3.3,2.6,3.5,2.6c0.2,0.03,0.4,0.03,0.7,0l0.4-0c0.1-0.3,0.3-0.5,0.4-0.6
c0.12-0.1,0.6-0.1,1.3,0.1l0.2,0.5h12.3v0.4h5.3V2.6l12.27-0l0.4,0.2
c0.2,0.1,0.4,0.3,0.4,0.5c0.1,1.2,0.1,2.3,0.2,3.3c0.06,2,0,3.1-0,3.3
C37.3,10.41,37.2,10.7,37.2,10.7z M24.4,11.8c-0.1-0.1-0.3-0.1-0.4-0.1v0.1l-4-0
c-0.2,0.6-0.1,1,0.2,1.4c0.4,0.6,0.7,0.97,0.9,1.2c0.2,0.2,0.5,0.3,0.85,0.4
c0.3,0.03,0.4,0.1,0.4,0.2c-0,0.1-0.1,0.2-0.4,0.2c-0.1,0-0.3,0-0.6,0
c-0.3-0.1-0.69-0.3-1.1-0.6c-0.6-0.5-1.03-1-1.2-1.3c-0.1-0.39-0.2-0.9-0.2-1.5l-0.8-0
c-0.5,0-0.9,0.2-1.3,0.6c-0.3,0.4-0.4,0.8-0.4,1.3c0,0.3,0,0.7,0,1.2
c0.1,0.36,0.4,0.6,0.9,0.9c0.8,0.3,1.5,0.4,2.2,0.36c0.8-0.1,1.5-0.2,2-0.2
c0.2-0.03,0.67-0,1.3,0c0.6,0.1,1.1,0.1,1.3,0.1c0.39,0,0.6-0.03,0.8-0.1
c0.1-0.06,0.2-0.2,0.4-0.4c0.1-0.18,0.1-0.7,0.1-1.4c-0.03-0.7-0.1-1.3-0.4-1.7
C24.88,12.1,24.7,11.9,24.4,11.8z"/>
</g>
</g>
</g>
<g id="guides">
</g>
</svg>
