<svg xmlns="http://www.w3.org/2000/svg" width="37.75px"
 height="32px" viewBox="0 0 37.75 32">
<g id="Selected_Items">
<g>
<g id="Selected_Items_41_">
<path fill-rule="evenodd" clip-rule="evenodd" fill="#FFFFFF" d="M37.1,2.5v0.1c0,0,0,0.1,0,0.1
c0,0.1,0,0.1,0,0.1c0,0,0,0.1,0,0.1c0.1,0,0.3,0,0.4,0c0,0,0,0.1,0,0.1c0,0.2,0,0.3,0,0.5
c0,0.1,0,0.3,0,0.4c0,0.2,0,0.3,0,0.46c0,0.14,0,0.3,0,0.4c0,0.2,0,0.3,0,0.46c0,0.1,0,0.3,0,0.4
c0,0.2,0,0.32,0,0.5c0,0.1,0,0.3,0,0.4c0,0.2,0,0.3,0,0.5c0,0.14,0,0.3,0,0.4c0,0.2,0,0.3,0,0.46
s0,0.3,0,0.4c0,0.2,0,0.32,0,0.46s0,0.3,0,0.4c0,0.2,0,0.3,0,0.4c0,0.1,0,0.2,0,0.3
c0,0.1,0,0.1,0,0.1c0,0,0,0.1,0,0.1v0.3c0,0.1,0,0.1,0,0.1c0,0.1,0,0.1,0,0.1v0.1
c0,0,0,0.1,0,0.1c0,0,0,0.07,0,0.1v0.1c0,0,0,0.1,0,0.1v0.04c0,0,0,0.1,0,0.1
c-3.4,0-6.7,0-10.1,0l-0,0v0c0,0,0,0.1,0,0.1c-0,0-0.1,0-0.1,0
c-0.1,0-0.1,0.1-0.1,0.1l-0,0v0c-0,0-0.1,0-0.1,0c0,0-0,0.1-0,0.1
h-0c-0,0-0.1,0.1-0.1,0.1c-0,0-0,0-0,0v0c-0,0-0.1,0-0.1,0
c-0,0-0.1,0-0.1,0c0,0.1,0,0.1,0,0.2c0,0.1,0,0.2,0,0.4c0,0.1,0,0.2,0,0.4c0,0.1,0,0.3,0,0.4
c0,0.1,0,0.3,0,0.4c0,0.1,0,0.3,0,0.4c0,0.14,0,0.3,0,0.4c0,0.1,0,0.3,0,0.4c0,0.1,0,0.2,0,0.4
c0,0.1,0,0.2,0,0.4c0,0.1,0,0.2,0,0.4c0,0,0,0.1,0,0.1c0.1,0,0.2,0,0.2,0c0,0,0,0.1,0,0.1
v0.1c0,0.03,0,0.1,0,0.1c0,0,0,0.1,0,0.1v0.04c0,0.03,0,0.1,0,0.1v0.1c0,0,0,0.1,0,0.1v0.1h-0
v0.04c0,0,0,0.1,0,0.1v0.1c0,0,0,0.1,0,0.1v0c0,0.03,0,0.1,0,0.1c0,0,0,0.1,0,0.1
c-4.1,0-8.2,0-12.4,0c0,0.1,0,0.1,0,0.1c0,0.1,0,0.1,0,0.1c-0.03,0-0,0.1-0,0.1
c-0,0.1-0.1,0.1-0.1,0.1c0,0,0,0.1,0,0.1c0,0,0,0.1,0,0.1v0.1c0,0,0,0.1,0,0.1
c0,0.1,0,0.1,0,0.1c0,0.1,0,0.1,0,0.1c-0,0-0.04,0.1-0.04,0.1c-0.1,0-0.1,0.1-0.1,0.1
c0,0,0,0.07,0,0.1c0,0,0,0.1,0,0.1c0,0,0,0.07,0,0.1c0,0,0,0.1,0,0.1c0,0.1,0,0.1,0,0.1
c-0,0.1-0,0.1-0,0.1c-0.1,0-0.1,0.1-0.1,0.1c0,0,0,0.07,0,0.1c0,0,0,0.1,0,0.1
c0,0,0,0.1,0,0.1s0,0.1,0,0.1c0,0.1,0,0.1,0,0.1c0,0.1,0,0.1,0,0.1c-0.1,0-0.1,0.07-0.2,0.1
c0,0,0,0.1,0,0.1s0,0.1,0,0.1c0,0,0,0.1,0,0.1c0,0,0,0.1,0,0.1s0,0.1,0,0.1
c-0,0-0.07,0-0.1,0.1c0,0,0,0.1,0,0.1c0,0,0,0.07,0,0.1c0,0,0,0.1,0,0.1
c0,0,0,0.1,0,0.1c-0,0-0,0.1-0,0.1c-0,0.1-0.07,0.1-0.1,0.1c0,0.1,0,0.1,0,0.1
c0,0,0,0.07,0,0.1c-0,0-0,0-0,0.1c-0,0-0.1,0.1-0.1,0.1c0,0,0,0.1,0,0.1
c0,0.1,0,0.1,0,0.1c-0,0-0,0.1-0,0.1c-0,0.1-0.07,0.1-0.1,0.1c0,0.1,0,0.1,0,0.1
s0,0.1,0,0.1c-0,0-0.04,0-0.04,0.1c-0,0-0.1,0.1-0.1,0.1c0,0,0,0.1,0,0.1
c0,0.1,0,0.1,0,0.1c0,0,0,0.1,0,0.1c-0.1,0-0.1,0-0.2,0.1c-0,0-0,0-0,0.1
c-0,0-0.1,0.1-0.1,0.1c0,0,0,0.1,0,0.1c0,0.1,0,0.1,0,0.1c0,0,0,0.1,0,0.1v0.1
c-0.1,0-0.11,0.1-0.2,0.1c0,0,0,0.1,0,0.1c0,0.1,0,0.1,0,0.1c0,0,0,0.1,0,0.1
c-0,0-0.07,0.07-0.1,0.1v0.1c0,0,0,0.1,0,0.1c0,0.1,0,0.1,0,0.1
c-0.1,0.1-0.1,0.1-0.2,0.1c0,0.03,0,0.1,0,0.1c0,0.1,0,0.1,0,0.1c0,0,0,0.1,0,0.1
c-0,0-0,0.1-0,0.1c-0.1,0-0.1,0-0.1,0.1c0,0,0,0.1,0,0.1c0,0.1,0,0.1,0,0.1
c0,0.1,0,0.1,0,0.1v0c-0.1,0-0.1,0.1-0.2,0.1v0.1c0,0,0,0.1,0,0.1c0,0.1,0,0.1,0,0.1
c0,0.1,0,0.1,0,0.1v0c-0,0.03-0.07,0.1-0.1,0.1c0,0,0,0.07,0,0.1c0,0,0,0.1,0,0.1
c0,0.1,0,0.1,0,0.1c0,0.1,0,0.1,0,0.1c0,0,0,0.1,0,0.1c0,0,0,0.1,0,0.1v0
c-0.1,0-0.1,0.1-0.2,0.1c0,0,0,0.1,0,0.1c0,0,0,0.1,0,0.1c0,0,0,0.1,0,0.1
c0,0,0,0.1,0,0.1c0,0,0,0.1,0,0.1c0,0.1,0,0.1,0,0.1c0,0.1,0,0.1,0,0.1s0,0.1,0,0.1
c0,0,0,0.1,0,0.1c0,0.03,0,0.1,0,0.1c0,0,0,0.1,0,0.1c0,0,0,0.1,0,0.1c0,0.03,0,0.1,0,0.1v0.1
h0c0,0,0,0,0,0.04v0.21l0,0v0.1c0,0,0.04,0,0.04,0v0
c0,0,0,0,0,0v0c0,0,0,0,0,0v0l0.04,0v0.2c0,0,0.1,0,0.1,0.04
v0l0,0v0.04h0v0c0,0,0,0,0,0h0V29.6c0,0,0,0,0,0v0
c0,0,0.1,0,0.1,0v0c0,0,0.1,0,0.1,0c0.03,0,0.1,0,0.1,0v0
c0,0,0,0,0.04,0h0.1c0.1,0,0.1,0,0.1,0v0h0v0c0.1,0,0.1,0,0.1,0v0
c0,0,0.1,0,0.1,0c0,0,0,0,0,0v0.3c-0.2,0-0.4,0-0.5,0c-0.1,0-0.2,0-0.3,0v-0.04
c-0,0-0.1,0-0.1,0l-0,0.04c-0.2,0-0.3,0-0.5,0c-0.1,0-0.2,0-0.29,0c-0.3,0-0.7,0-1,0
c-0.1-0-0.2-0-0.2-0v-0.1h-0c-0.1,0-0.2,0-0.3,0c-0.1-0-0.1-0-0.2-0v-0.2
c-0.11,0-0.2,0-0.4,0c-0.1-0-0.3-0-0.4-0V29.89C8.76,29.9,8.6,29.85,8.5,29.85
c-0.1,0-0.3-0-0.4-0v-0H8c-0.1,0-0.1,0-0.1,0H7.83c-0.3-0-0.68-0-1-0
c0-0,0-0.1,0-0.1c-0.3-0-0.64-0.1-0.9-0.1c-0,0-0.1-0-0.1-0.1c-0.2,0-0.3-0-0.5-0.04
c-0-0.03-0.1-0.1-0.1-0.1c-0.2-0-0.3-0.1-0.5-0.1c-0,0-0.1-0-0.1-0.1
c-0.2,0-0.3-0-0.5-0c-0-0-0.1-0.1-0.1-0.1c-0.2-0-0.32-0.1-0.46-0.1V28.89
c-0.1,0-0.2-0-0.3-0c-0-0.03-0.1-0.1-0.1-0.1c-0.1-0-0.1-0.1-0.2-0.1
c-0.1,0-0.2,0-0.3,0c0-0,0-0.1,0-0.1c0-0.1,0-0.1,0-0.1c0-0,0-0.1,0-0.1c0-0.1,0-0.1,0-0.1
c0-0,0-0.07,0-0.1v-0.1c-0.8,0-1.6,0-2.3,0v-0.04c0-0.03,0-0.1,0-0.1v-0.1c-0,0-0.1,0-0.2,0
c0-0.1,0-0.1,0-0.1c0-0.1,0-0.1,0-0.1c0-0,0-0.1,0-0.1c0-0.1,0-0.1,0-0.1c0-0,0-0.1,0-0.1
c0-0.03,0-0.07,0-0.1c0-0,0-0.1,0-0.1c0-0,0-0.1,0-0.1c0-0.1,0-0.1,0-0.1c0-0.1,0-0.1,0-0.1
c0-0,0-0.1,0-0.1c0-0,0-0.1,0-0.1c0-0,0-0.1,0-0.1c0-0,0-0.1,0-0.1c0-0.1,0-0.1,0-0.1
c0-0,0-0.1,0-0.1c0-0.1,0-0.1,0-0.1c0-0.1,0-0.1,0-0.1c0-0,0-0.1,0-0.1c0-0,0-0.1,0-0.1
c0-0,0-0.1,0-0.1c0-0,0-0.1,0-0.1v-0.1c0-0.1,0-0.1,0-0.1c0-0.03,0-0.1,0-0.1v-0
c0.1-0,0.1-0,0.2-0c0-0.1,0-0.1,0-0.1c0-0.1,0-0.1,0-0.1c0-0,0-0.1,0-0.1
c0-0,0-0.1,0-0.1c0-0,0-0.1,0-0.1c0-0,0-0.1,0-0.1c0-0,0-0.1,0-0.1
c0-0.1,0.1-0.1,0.1-0.1c0-0.1,0-0.1,0-0.1c0-0.1,0-0.1,0-0.1c0-0,0-0.1,0-0.1
c0-0,0-0.1,0-0.1c0-0,0-0.1,0-0.1c0.1-0,0.1-0.04,0.2-0.04c0-0.1,0-0.1,0-0.1
c0-0.1,0-0.1,0-0.1s0-0.1,0-0.1c0-0,0-0.1,0-0.1c0-0.03,0-0.07,0-0.1c0-0,0-0.1,0-0.1
c0-0.1,0-0.1,0-0.1c0.1-0.1,0.1-0.1,0.1-0.1c0-0.1,0-0.1,0-0.1c0-0,0-0.1,0-0.1
c0-0,0-0.1,0-0.1c0-0,0-0.1,0-0.1c0-0,0-0.1,0-0.1c0.1-0,0.1-0,0.2-0
c0-0.1,0-0.1,0-0.1c0-0,0-0.1,0-0.1c0-0,0-0.1,0-0.1c0-0,0-0.1,0-0.1c0-0,0-0.1,0-0.1
c0.1-0.03,0.1-0,0.1-0c0-0.1,0-0.1,0-0.1c0-0,0-0.1,0-0.1c0-0,0-0.1,0-0.1
c0.1-0,0.1-0.1,0.2-0.1c0-0,0-0.1,0-0.1c0-0.1,0-0.1,0-0.1c0-0.1,0-0.1,0-0.1
c0.1-0,0.1-0.1,0.1-0.1c0-0.1,0-0.1,0-0.1c0-0,0-0.07,0-0.1c0.1-0,0.1-0.07,0.1-0.1
c0-0,0-0.1,0-0.1c0-0,0-0.1,0-0.1c0.1,0,0.1-0,0.1-0c0-0.1,0-0.1,0-0.1
s0-0.1,0-0.1c0.1-0,0.1-0.1,0.1-0.1c0-0,0-0.1,0-0.1c0-0,0-0.1,0-0.1s0-0.1,0-0.1
v-0c0.1-0,0.1-0.1,0.1-0.1c0-0,0-0.1,0-0.1c0-0.1,0-0.1,0-0.1c0-0.1,0-0.1,0-0.1
c0.1-0,0.1-0.1,0.2-0.1c0-0,0-0.1,0-0.1c0-0,0-0.1,0-0.1c0-0,0.1-0.1,0.1-0.1
c0-0.1,0-0.1,0-0.1c0-0,0-0.1,0-0.1c0-0.1,0.1-0.1,0.1-0.1
c0-0.1,0-0.1,0-0.1c0-0,0.1-0.1,0.1-0.1c0-0,0-0.1,0-0.1
c0-0,0-0.1,0-0.1c0-0,0-0.1,0-0.1c0.1-0.1,0.1-0.1,0.2-0.1c0-0.1,0-0.1,0-0.1
c0-0.1,0-0.1,0-0.1c0-0,0.07-0.1,0.1-0.1c0-0,0-0.1,0-0.1c0-0,0-0.1,0-0.1
c0-0,0-0.1,0-0.1c0.1-0,0.1-0.1,0.1-0.1c0-0.1,0-0.1,0-0.1v-0.1
c0.1-0,0.1-0.1,0.1-0.1c0-0,0-0.1,0-0.1v-0.1c0.1-0,0.1-0.1,0.2-0.1
c0-0,0-0.07,0-0.1c0.1-0,0.1-0.1,0.1-0.1c0-0.1,0-0.1,0-0.1c0-0.1,0.1-0.1,0.1-0.1
c0-0.1,0.1-0.1,0.1-0.1c0-0.1,0-0.1,0-0.1c0-0,0-0.1,0-0.1c0-0,0-0.1,0.1-0.1
c0-0,0-0.1,0-0.1c0-0,0-0.1,0-0.1c0.1-0.1,0.1-0.1,0.1-0.1
c0-0.1,0-0.1,0-0.1c0-0.1,0-0.1,0-0.1c0.1-0,0.1-0.1,0.1-0.1c0-0,0-0.07,0-0.1
c0-0,0-0.1,0-0.1c0-0,0-0.1,0-0.1c0.1-0,0.1-0.04,0.2-0.04c0-0.1,0-0.1,0-0.1
c0-0,0-0.07,0-0.1c0-0,0-0.1,0-0.1c0.1-0,0.1-0.1,0.1-0.1c0-0,0-0.07,0-0.1
c0-0,0-0.1,0-0.1c0-0.1,0-0.1,0-0.1c0-0,0-0.1,0-0.1c0-0.1,0-0.1,0-0.1s0-0.1,0-0.1v-0
c0.1,0,0.1-0,0.2-0c0-0.1,0-0.1,0-0.1c0-0,0-0.07,0-0.1v-0.1c-0.1,0-0.1-0-0.2-0
c0-0,0-0.1,0-0.1v-0c0-0,0-0.1,0-0.1c-0.1,0-0.11-0-0.2-0c-0-0-0.1-0.1-0.1-0.1
c0-0,0-0.07,0-0.1c0-0-0-0.1-0-0.1c-0.1-0-0.2-0.1-0.2-0.1c0-0,0-0.1,0-0.1
c-0.1-0-0.1-0.1-0.2-0.1c-0-0-0.1-0.1-0.1-0.1v-0.1c-0.1-0-0.1-0.1-0.2-0.1
c-0-0.03-0.1-0.1-0.1-0.1c-0.1-0-0.11-0-0.2-0c0-0,0-0.1,0-0.1
c-0.1-0-0.1-0.1-0.2-0.1c0-0,0-0.1,0-0.1c-0.1-0-0.2-0-0.29-0c0-0,0-0.1,0-0.1
c-0.1-0-0.1-0.1-0.2-0.1c-0-0-0.1-0.1-0.1-0.1c-0.1-0-0.1-0-0.2-0
c0-0,0-0.1,0-0.1c-0.2-0-0.3-0.1-0.5-0.1c-0-0-0.1-0.1-0.1-0.1
c-0.1-0-0.1-0-0.2-0c0-0,0-0.1,0-0.1c-0.2-0-0.4-0.1-0.6-0.1c0-0,0-0.1,0-0.1
c0-0,0-0.1,0-0.1c0-0,0-0.1,0-0.1c-0.1,0-0.25,0-0.4,0c0-0,0-0.1,0-0.1c0-0,0-0.1,0-0.1
V9.9c0-0.1,0-0.1,0-0.1c0-0.1,0-0.1,0-0.1c0-0,0-0.1,0-0.1c0-0.03,0-0.1,0-0.1
c0-0,0-0.1,0-0.1c0-0,0-0.07,0-0.1c0-0,0-0.1,0-0.1V9c0-0.1,0-0.1,0-0.1
c0-0.1,0-0.1,0-0.1c0-0.03,0-0.1,0-0.1C0.4,8.6,0.46,8.6,0.5,8.6c0-0.03,0-0.1,0-0.1
c0-0,0-0.1,0-0.1c0-0.1,0-0.1,0-0.1V8.2c0-0.1,0-0.1,0-0.1c0-0.1,0-0.1,0-0.1
c0-0,0-0.07,0-0.1c0-0,0-0.1,0-0.1c0-0,0-0.1,0-0.1c0.2-0,0.32-0,0.5-0
c0-0.1,0-0.1,0-0.1c0-0,0-0.1,0-0.1c0-0,0-0.1,0-0.1c0-0,0-0.1,0-0.1c0-0,0-0.1,0-0.1
c0-0,0-0.1,0-0.1c0-0.1,0-0.1,0-0.1V6.7c0-0.1,0-0.1,0-0.1s0-0.07,0-0.1c0-0,0-0.1,0-0.1
c0.1-0,0.1-0.1,0.1-0.1c0-0,0-0.1,0-0.1c0-0.1,0-0.1,0-0.1c0.1-0.1,0.1-0.1,0.1-0.1
c0-0,0-0.1,0.04-0.1c0-0.1,0-0.1,0-0.1c0-0,0-0.1,0-0.1V5.57c0.1,0,0.1-0,0.1-0
c0-0.1,0-0.1,0-0.1c0-0.03,0-0.07,0-0.1c0-0,0-0.07,0-0.1c0.1-0,0.1-0.1,0.2-0.1
c0-0,0-0.1,0-0.1c0-0,0-0.1,0-0.1c0.1-0,0.1-0.1,0.1-0.1c0-0,0-0.1,0-0.1
c0-0,0-0.1,0-0.1V4.6c0.1-0,0.1-0.1,0.2-0.1c0-0,0-0.1,0-0.1c0.1,0,0.1-0,0.1-0
c0-0,0-0.07,0-0.1c0-0,0-0.1,0-0.1V4.1c0.1,0,0.1-0,0.2-0c0-0,0-0.1,0-0.1
C2.17,4,2.21,3.9,2.2,3.9c0-0,0-0.1,0-0.1s0-0.1,0-0.1V3.7C2.3,3.7,2.4,3.6,2.4,3.61
c0-0,0-0.1,0-0.1c0.1,0,0.1-0,0.1-0c0-0,0-0.1,0-0.1c0.1-0,0.1-0.1,0.2-0.1
c0-0,0-0.1,0-0.1c0.1,0,0.1-0,0.1-0c0-0,0-0.1,0-0.1C2.9,3.1,2.9,3.1,2.99,3.1
c0-0,0-0.1,0-0.1V2.9c0-0,0-0.1,0-0.1V2.65c0.4,0,0.8,0,1.2,0c0-0,0-0.1,0-0.1
c0-0,0-0.1,0-0.1c0-0,0-0.07,0-0.1c0-0,0-0.1,0-0.1V2.19c0-0.1,0-0.1,0-0.1c0-0,0-0.1,0-0.1
V1.9c4.8,0,9.51,0,14.3,0c0,0,0,0.1,0,0.1c0,0.1,0,0.1,0,0.1c0,0.1,0,0.1,0,0.1
c0,0,0,0.1,0,0.1c0.2,0,0.4,0,0.6,0v0.1c0.1,0,0.1,0.1,0.1,0.1c0,0,0,0.1,0,0.1
c0,0.1,0,0.1,0,0.1c0,0.1,0,0.1,0,0.1c0,0,0,0.1,0,0.1c0,0.1,0,0.1,0,0.1c0,0,0,0.1,0,0.1
v0c1.7,0,3.5,0,5.3,0V3.2c0-0.03,0-0.1,0-0.1V3.1c0-0.1,0-0.1,0-0.1c0-0.1,0-0.1,0-0.1
c0-0,0-0.1,0-0.1c0-0,0-0.1,0-0.1c0-0,0-0.1,0-0.1c0-0,0-0.07,0-0.1c0-0,0-0.1,0-0.1V2.19
c0-0.1,0-0.1,0-0.1c0-0,0-0.1,0-0.1V1.9c3.56,0,7.1,0,10.6,0V1.9
c0.3,0,0.7,0,1,0h0.3c0.2,0,0.39,0,0.6,0c0,0,0,0.1,0,0.1c0.1,0,0.1,0,0.2,0
c0,0.1,0,0.1,0,0.1c0,0,0,0.07,0,0.1C37.1,2.4,37.1,2.4,37.1,2.5z M17.55,11.7
c-0.1,0-0.2,0.1-0.2,0.1c-0,0-0.1,0.1-0.1,0.1c-0,0-0.1,0.1-0.1,0.1
c0,0,0,0.1,0,0.1c-0,0-0.1,0.1-0.1,0.1c0,0,0,0.1,0,0.1c0,0.1,0,0.1,0,0.1
c-0.1,0-0.1,0.1-0.2,0.1c0,0,0,0.1,0,0.1c0,0.1,0,0.1,0,0.1c-0,0-0.1,0.1-0.1,0.1
c0,0,0,0.1,0,0.1c0,0.1,0,0.1,0,0.1c0,0.1,0,0.1,0,0.1c-0,0-0.1,0.1-0.1,0.1
c-0,0-0.1,0.1-0.1,0.1c0,0,0,0.1,0,0.1c0,0,0,0.1,0,0.1c0,0-0,0.1-0,0.1
c-0,0-0.1,0.1-0.1,0.1c0,0.1,0,0.1,0,0.1c0,0.1,0,0.1,0,0.1c-0,0-0,0.1-0,0.1
l0,0.1c0,0,0,0.1,0,0.1c0,0,0,0.1,0,0.1c0,0.1,0.1,0.1,0.1,0.1
c0,0,0,0.1,0,0.1c0,0.1,0,0.1,0,0.1c0.1,0.1,0.1,0.1,0.1,0.1
c0,0,0,0.1,0,0.1c0,0,0,0,0,0.1c0.03,0,0.1,0.1,0.1,0.1c0,0,0,0.1,0,0.1
c0,0.1,0,0.1,0,0.1c0,0,0,0.1,0,0.1c0,0.1,0,0.1,0,0.1c0,0,0,0.1,0,0.1c0,0,0,0.07,0,0.1
v0.1c0,0,0,0.1,0,0.1c0,0,0,0.1,0,0.1c0,0.1,0,0.1,0,0.1s0,0.1,0,0.1c0,0.1,0,0.1,0,0.1
c2.8,0,5.5,0,8.3,0v-0.1c0-0,0-0.1,0-0.1V16.25c0-0,0-0.1,0-0.1v-0.2c0.2,0,0.4,0,0.7,0
v-0c0-0,0-0.1,0-0.1v-0c0.03,0,0.1-0,0.1-0v-0.04c0-0.1,0-0.2,0-0.3c0-0.11,0-0.2,0-0.29
c0-0.1,0-0.3,0-0.3c0-0.1,0-0.2,0-0.4c0-0.1,0-0.2,0-0.3c0-0.1,0-0.2,0-0.3c0-0.1,0-0.2,0-0.3
c0-0.1,0-0.2,0-0.3c0-0.1,0-0.2,0-0.3c0-0.1,0-0.2,0-0.3c0-0.1,0-0.2,0-0.3c0-0,0-0.07,0-0.1
c-0.11,0-0.2,0-0.4,0v-0c0-0,0-0.1,0-0.1c-0,0-0.1-0-0.1-0v-0h-0.1
c0-0-0-0.1-0-0.1v-0c0-0-0-0-0-0v-0c-0,0-0.1,0-0.1,0v-0.1h-0.1
c0-0-0-0.1-0-0.1l-0.1-0c-0-0-0.1-0-0.1-0c-0.1-0-0.1-0.04-0.1-0.04v-0.1
h-0c-1.5,0-3,0-4.5,0c0,0,0,0.1,0,0.1v0.04c0,0,0,0.1,0,0.1s0,0.1,0,0.1v0.1
c-0.1,0-0.1,0.1-0.2,0.1c0,0.1,0,0.1,0,0.1c0,0,0,0.1,0,0.1c0,0,0,0.1,0,0.1
c0,0,0,0.1,0,0.1c0,0,0,0.1,0,0.1c0,0.1,0,0.1,0,0.1c0,0.1,0,0.1,0,0.1c0,0.1,0,0.1,0,0.2
v0c0,0,0,0.1,0,0.1c0,0,0,0.1,0,0.1c0,0,0,0.1,0,0.1c0,0,0,0.1,0,0.1
c0,0.1,0,0.1,0,0.1c0,0.1,0,0.1,0,0.1s0,0.1,0,0.1v0.1c0,0,0,0.1,0,0.1
c0,0,0.04,0,0.04,0c0,0,0,0.04,0,0.04c0,0.03,0,0,0,0c0,0,0,0,0,0
c0,0,0,0.1,0,0.1c0,0,0.1,0,0.1,0c0,0,0.1,0.1,0.1,0.1v0
c0,0,0,0,0,0c0,0,0,0.1,0,0.1l0,0.04c0,0,0.1,0,0.1,0
c0,0,0,0.1,0,0.1c0,0,0.1,0,0.1,0.04l0,0c0,0,0.1,0,0.1,0.04v0.1
c0,0,0.1,0,0.1,0c0,0,0.1,0.1,0.1,0.1v0c0,0,0.1,0,0.1,0
c0.1,0,0.1,0,0.2,0v0.1c0.1,0,0.1,0,0.2,0c0.1,0,0.1,0.1,0.1,0.1v0
c0.1,0,0.2,0,0.2,0.04c0.1,0,0.1,0,0.2,0v0.1c0.2,0,0.4,0,0.6,0c0,0,0,0.1,0,0.1v0.1
c0,0,0,0.1,0,0.1c0,0,0,0.1,0,0.1v0c0,0,0,0.1,0,0.1v0.1c0,0,0,0.1,0,0.1v0.1
c-0.4,0-0.9,0-1.3,0v-0c-0.1-0-0.1-0.04-0.2-0.04c-0.1-0-0.1-0.1-0.2-0.1v-0
c-0-0-0.07-0.04-0.1-0.04c-0.1,0-0.1-0-0.2-0v-0c-0-0-0.1-0-0.1-0
c-0.1-0-0.1-0.1-0.2-0.1v-0l-0-0.04c-0-0-0.1-0-0.1-0v-0
c-0.1-0-0.1-0.1-0.1-0.1c-0,0-0.1-0-0.1-0c0-0,0-0.1,0-0.1
c-0-0-0.1-0.04-0.1-0.04c-0-0.03-0.1-0-0.1-0c-0-0-0.04-0.1-0.04-0.1l-0-0
c0-0-0-0.1-0-0.1c-0-0-0.1-0-0.1-0v-0c-0-0-0.1-0.1-0.1-0.1v-0
c-0-0-0.1-0.1-0.1-0.1l-0-0v-0.04c-0,0-0.1-0-0.1-0v-0
c-0-0-0.1-0.1-0.1-0.1v-0.04c0-0-0.03-0-0.1-0v-0c0-0,0-0.1,0-0.1
c-0.1,0-0.1,0-0.2,0c0-0,0-0.1,0-0.1c0-0-0-0-0-0c0-0-0-0.1-0.04-0.1V13.58
c0-0,0-0.1,0-0.1v-0c0-0,0-0.1,0-0.1v-0.1c0-0,0-0.1,0-0.1v-0.1c0-0,0-0.1,0-0.1
c0.1,0,0.1-0,0.1-0c0-0,0-0.1,0-0.1c0-0.1,0-0.1,0-0.1c0-0.1,0-0.1,0-0.2
c0-0.1,0-0.1,0-0.2c0-0.1,0-0.1,0-0.2c0-0.1,0-0.1,0-0.2c0-0.1,0-0.1,0-0.2c0-0.1,0-0.1,0-0.2
s0-0.1,0-0.2s0-0.1,0-0.1c0-0.1,0-0.2,0-0.2c-0.3,0-0.5,0-0.71,0v0c0,0,0,0.1,0,0.1v0
c-0.1,0-0.3,0.1-0.46,0.1v0c-0,0-0.1,0.1-0.1,0.1C17.55,11.6,17.55,11.7,17.55,11.7z
 M7.2,29.6c0.1,0,0.2,0,0.2,0V29.6c-0.1-0-0.2-0-0.3-0L7.2,29.6z"/>
</g>
</g>
</g>
<g id="guides">
</g>
</svg>
