<svg xmlns="http://www.w3.org/2000/svg"
 width="68.4px" height="32px" viewBox="0 0 68.4 32">
<g id="Selected_Items">
<g>
<g id="Selected_Items_40_">
<path fill-rule="evenodd" clip-rule="evenodd" fill="#FFFFFF" d="M46.44,18.8c-0.4,0.2-0.7,0.4-0.9,0.6
c-0.2,0.2-0.2,0.6-0.2,1.1c0,0.7,0,1.2,0.04,1.7h1.6v0.8l0.3,0.1
c0.2,0.1,0.34,0.1,0.4,0.2c0.2,0.2,0.4,0.4,0.7,0.4c0.5,0.2,1.1,0,1.75-0.4
c0.7-0.5,0.9-1.1,0.61-2c-0.2-0.7-0.7-1.2-1.3-1.5c-0.2-0.1-0.4-0.3-0.6-0.7l-0.3-0.5
c-0.2-0-0.4-0-0.6-0C47.3,18.6,46.82,18.7,46.44,18.8z M35.4,22
c0.4-0.4,0.7-0.9,0.7-1.3c0-0.5-0.1-0.9-0.4-1.4l-0.3-0.6h-5.6c-0.7,0.7-1.2,1.2-1.63,1.5
c-0.2,0.2-0.27,0.4-0.2,0.7c0,0.2,0,0.4,0.1,0.9c0,0.9,0.3,1.6,0.8,2
c0.6,0.5,1.2,0.7,1.75,0.7c0.2-0.1,0.8-0.3,1.75-0.7c0.8-0.38,1.5-0.7,1.9-0.9
C34.7,22.5,35.1,22.2,35.4,22z M55.5,10.5c0.1-0.1-0.1-0.2-0.3-0.5c-3.1,0-5.2,0-6.1,0
C48.42,10,47.35,9.9,45.83,9.86l-2.2-0.1v1.2h11.6c0-0.1,0-0.11,0-0.2
C55.41,10.7,55.4,10.6,55.5,10.5z M56.9,9.86c-0.1-0-0.2-0-0.4,0H56.25v0.8l0.3,0
c0.2,0.1,0.3,0.23,0.3,0.4c0,0.19-0.1,0.4-0.2,0.5l-0.2,0.2l0.2,2h0.5V10.39
c0-0.2-0-0.3-0.04-0.3C57.1,10,57,9.9,56.9,9.86z M67.8,16.9c-0.1,0.2-0.3,0.3-0.6,0.3
h-5.6l-0.2-0.2c-0.1,0-0.1,0.1-0.2,0.1c-0.1,0.1-0.2,0.1-0.2,0.2s0.2,0.2,0.5,0.6
c0.3,0.4,0.5,0.8,0.4,1c-0.1,0.3-0.2,1.2-0.3,2.6c-0.1,1.4-0.2,2.2-0.2,2.4
c0,0.2-0.1,0.3-0.2,0.3c-0.1,0.1-0.2,0.1-0.4,0.1h-2.36c-0.1,0-0.2-0.1-0.3-0.3
c-0.1-0.2-0.2-0.5-0.2-0.9c0-0.5-0-0.91-0-1.3c-0.1-0.5-0.1-0.77-0.2-0.9
c-0.1-0.1-0.5-0.2-1.22-0.2c-0.7-0.1-1.2-0-1.3,0.1c-0.2,0.2-0.3,0.3-0.4,0.4
c-0.2,0.2-0.3,0.4-0.3,0.5c-0,0.1-0.1,0.8-0.2,2.2c-0.3,1.5-0.9,2.6-1.7,3.46
c-0.9,0.9-2.2,1.5-4.1,1.9c-1.4,0.27-2.6,0.3-3.5,0.2c-0.5-0.1-0.9-0.2-1-0.3
c-0.1-0-0.1-0.1,0-0.4c0.7-2.3,0.95-3.5,0.9-3.7c-0.1-0.19-0.1-0.3-0.2-0.4
c-0.1-0.1-0.3-0.2-0.4-0.2c-0.2-0-0.6-0-1.3-0c-0.4-0-0.8-0.04-1.18-0.04
c-0.1,0-0.2,0.1-0.2,0.2c-0.1,0.2-0.2,0.3-0.2,0.4c-0.1,0.1-0.4,0.4-1,0.8
c-0.7,0.6-1.44,1.1-2.2,1.5c-2.3,1.4-4.3,2.2-5.9,2.2c-1.5,0-3.2-0.1-5-0.2l-2.2-0.2
l-0-1.3c-3.31-1.4-5.2-2.1-5.7-2.1c-0.3-0-0.6-0-0.9-0l-0.4-0l-0.3,0.6
c-0.2,0.4-0.5,0.5-0.7,0.5H1.5c-0.2,0-0.46-0.2-0.65-0.5c-0.1-0.3-0.2-0.6-0.2-1V18.45
c0-1.4-0-3-0.1-4.7c-0.1-1.4-0.1-2.1-0.1-2.1c0.1-0.5,0.2-0.8,0.4-0.8h20.6
c0.1,0,0.5-0.1,1.1-0.2c0.6-0.1,1.02-0.2,1.3-0.2h14.7l0-1.7c0-0.1,0.2-0.6,0.6-1.5
c0.4-1,0.7-1.52,0.7-1.71c0-0.2,0.2-0.34,0.5-0.53c0.2-0.1,0.3-0.1,0.49-0.2
c0-0.2,0-0.5,0.1-0.7c0.08-0.5,0.1-0.8,0.2-0.9c0.4-0.5,0.7-0.8,0.9-0.8
c0.3,0,0.5,0.1,0.6,0.4c0.1,0.2,0.1,0.4,0.2,0.7c0.1,0.19,0.1,0.6,0,1.22
c-0,0-0.1,0-0.1,0c-0.1,0.1-0.1,0.1-0.1,0.3v0.9h11.6l1.5-0.9
c0.3,0,0.4-0.1,0.4-0.3v-0.65H55.72V3.2l0.2-0.2l0.4-0.3l0.9-0.1c0.1,0,0.1,0.1,0.2,0.2
c0,0.1,0,0.23,0,0.4v1.79l0.2,0.6c0.1,0.4,0.2,0.6,0.3,0.6c0.11,0,0.5,0,1.1,0
c1.6,1.8,2.5,2.7,2.6,2.8c0.2,0.2,0.3,0.5,0.3,0.8v4.4h5.6l0.2,0.2
c0.2,0.2,0.3,0.6,0.3,1.1C68,16.2,67.93,16.7,67.8,16.9z"/>
</g>
</g>
</g>
<g id="guides">
</g>
</svg>
