<svg xmlns="http://www.w3.org/2000/svg" width="52.5px"
 height="32px" viewBox="0 0 52.5 32">
<g id="Selected_Items">
<g>
<g id="Selected_Items_42_">
<path fill-rule="evenodd" clip-rule="evenodd" fill="#FFFFFF" d="M52.3,6.9l-0.5,1.3v2.45h-2.5v-0.3h-0.6v0.4
h-3.9v-0.4l-3.9-0l-0.7,0.3h-5.9c-0.2,0-0.4,0.03-0.6,0.1c-0.5,0.1-0.8,0.2-1,0.4
l-0,0c-0.4,0.3-0.6,0.5-0.6,0.5c-0.21,0.3-0.3,0.6-0.4,0.9c-0,0.3-0,0.8-0,1.5
c0,0.3,0,0.7,0,1c-0.4-0.03-0.9-0-1.3-0h-0c-0.4,0-0.8,0-1.1,0
c-0.3,0-0.6,0-0.8,0.1c-0.4,0.1-0.68,0.2-0.9,0.4c-0.12,0.1-0.2,0.3-0.4,0.5
c-0.1,0.1-0.1,0.1-0.1,0.2c-0.1,0.2-0.21,0.6-0.27,1c-0.1,0.5-0.1,0.8-0.2,0.9
c-0.2,0.4-0.4,0.8-0.6,1c-0.5,0.5-1.09,0.9-1.8,1.1c-0.1,0-0.1,0.1-0.2,0.1
c-0.8,0.2-1.5,0.4-2.2,0.5c-0.7,0.06-1.3,0.1-1.8,0c-0.1,0-0.3-0-0.4-0.1
c-0.3-0.1-0.56-0.3-0.9-0.5c-0.1-0.1-0.2-0.2-0.4-0.4l-0.2-0.2l-0.3,0.3
c-0.2-0-0.3-0.06-0.5-0.09c-0.2-0-0.4-0.06-0.6-0.1c-0.2,0-0.3-0-0.5-0
c-0.4-0.06-0.68-0.1-1-0.1c-0.6-0.1-1-0-1.2,0c-0.4,0.2-0.71,0.4-1,0.6
c-0.3,0.3-0.4,0.6-0.5,0.9c-0.03,0.5,0.09,0.9,0.4,1.2c0.06,0.1,0.15,0.3,0.3,0.4
c0.06,0.1,0.1,0.2,0,0.3c0,0.06-0.06,0.2-0.2,0.3c-0.06,0.06-0.2,0.2-0.4,0.3
c-0.3,0.3-0.5,0.6-0.5,1c-0.1,0.5,0,0.9,0.3,1.3l0.2,0.4c0.1,0.1,0.1,0.2,0,0.4
c-0.03,0.1-0.09,0.2-0.2,0.3c-0.09,0.1-0.2,0.1-0.5,0.2c-0.4,0.21-0.7,0.4-0.9,0.6
c-0.15,0.2-0.3,0.5-0.4,0.8c-0.1,0.3-0.2,0.5-0.4,0.7c-0.3,0.2-1,0.4-2.1,0.6
c-1.2,0.2-2.2,0.3-3,0.2c-1.2-0.1-2.2-0.2-3-0.4c-1.2-0.3-1.8-0.7-1.95-1.3
c-0.1-0.2,0-0.5,0.2-0.9c0.06-0.1,0.1-0.1,0.1-0.2c0.2-0.3,0.3-0.5,0.4-0.7
c0.2-0.3,0.3-0.59,0.4-0.9c0.1-0.3,0.3-0.7,0.5-1.27c0.3-0.7,0.5-1.3,0.6-1.7
c0.5-1.5,1-2.6,1.4-3.4c0.4-0.8,1.12-1.9,2.1-3.4c1-1.5,1.68-2.5,2-3
c0.2-0.3,0.4-0.7,0.5-1c0.03-0.2,0.03-0.5,0-0.9c0-0.4,0-0.7,0-0.8c0-0.3,0.1-0.53,0.2-0.8
c0.2-0.3,0.7-0.5,1.5-0.68c0.3-0.1,0.6-0.1,0.9-0.1h0.3c0.1-0.1,0.3-0.2,0.4-0.4
c0.33-0.2,0.6-0.41,0.9-0.5c0.2-0.1,0.5-0.2,0.9-0.3l0.5-0.1l-0.3-0.68
c-0.2-0.4-0.5-0.7-0.77-0.9c-0.3-0.2-0.7-0.3-1.1-0.3c-0.1-0-0.1-0-0.2-0
c-0.3-0-0.6-0-0.8-0l-0-0.2c0.27-0,0.6-0,0.86-0c0.7-0.1,1.1-0.1,1.4,0
c0.2,0.1,0.5,0.2,0.9,0.5c0.03,0,0.1,0,0.09,0c0.3,0.2,0.5,0.3,0.59,0.3
c0.2,0,0.4-0.2,0.7-0.7c0.2-0.2,0.3-0.4,0.5-0.6l1,0l0.4-1l-0.1-0
c-0.1-0-0.1-0.1-0.1-0.1c-0.2-0.2-0.2-0.4-0.1-0.6c0.1-0.2,0.2-0.3,0.3-0.3
c0-0,0.1-0,0.1-0c0.09-0,0.2-0,0.2,0l0.1-0.5l0.5,0.1L17.93,2.9h1.6l0.5,0.3
h2.4V2.6l0.6-0.59l0.9,0v0.5h0.8V2.1h1v0.5h0.8v-0.5h1v0.5h0.9v-0.5h0.8v0.5h1V2.1
h0.8v0.5h0.9v-0.5h0.9v0.5h0.9v-0.5h0.9v0.5h0.9v-0.5h0.8v0.5h0.9V2.1h0.8v0.4h0.9V2.1h0.6
L40,2.2c0.3,0.1,0.62,0.2,0.9,0.3c0.4,0.2,0.9,0.4,1.6,0.8h5.3V2.5h2.6l0.2,0
c0.1,0,0.3,0.1,0.4,0.2c0.1,0.1,0.1,0.3,0.1,0.4l-0,0.2l1.3,1V6.9z M22.5,14.6
l0.3,0.2c-0.1,0.3-0.2,0.5-0.4,0.7c-0.06,0.1-0.2,0.3-0.3,0.5c-0,0-0.1,0-0.1,0
c-0.2,0.2-0.4,0.5-0.5,0.6c-0.1,0.3-0.1,0.6,0,0.9c0.06,0.3,0.2,0.5,0.5,0.8
c0.2,0.2,0.6,0.5,1,0.7c0.2,0.12,0.3,0.2,0.5,0.3l-0.1,0.3c-0.2-0.06-0.5-0.1-0.8-0.3
c-0.5-0.2-1-0.5-1.4-0.9c-0.2-0.3-0.4-0.65-0.59-1.1l-0.2-0.7l0.2-0.2l0-0.5
c-0.1,0-0.3-0-0.4-0c-0.4-0-0.6-0.1-0.8-0.1c-0.2-0.1-0.3-0.2-0.5-0.4l-0.2-0.2
l-0.2,0.1c-0.12,0.1-0.2,0.27-0.3,0.5c-0.3,0.5-0.5,0.9-0.5,1.3c0,0.1,0,0.1,0,0.2
c0,0.4,0.1,0.8,0.2,1.2c0.1,0.5,0.3,0.8,0.5,1c0.2,0.2,0.5,0.4,0.77,0.5
c0.4,0.2,0.8,0.24,1.4,0.3c0.5,0,1.2-0,1.9-0.1c0.4-0.1,0.7-0.2,1-0.2
c0.1-0.1,0.3-0.1,0.4-0.1c0.1-0.1,0.3-0.1,0.5-0.2c0.2-0.1,0.4-0.2,0.6-0.41
c0.5-0.4,0.8-0.7,0.9-0.9c0.2-0.3,0.2-0.6,0.3-0.9c0.06-0.3,0.06-0.7,0-1.1v-0
c-0-0.4-0.2-0.68-0.6-1c-0.2-0.2-0.6-0.4-1-0.7c-0.3-0.2-0.8-0.2-1.4-0.2H22.42
L22.5,14.6z"/>
</g>
</g>
</g>
<g id="guides">
</g>
</svg>
