<svg xmlns="http://www.w3.org/2000/svg" width="84.75px"
 height="32px" viewBox="0 0 84.75 32">
<g id="Selected_Items">
<g>
<g id="Selected_Items_43_">
<path fill-rule="evenodd" clip-rule="evenodd" fill="#FFFFFF" d="M20.6,7.5c4.6,0,9.1,0,13.7,0
c0.1,0,0.2,0,0.2,0.1c0.1,0,0.1,0.1,0.1,0.1l0,0h0
c0,0,0.1,0.1,0.1,0.1c0,0,0,0.1,0.1,0.13c0,0,0,0,0,0.1
c0,0,0,0.1,0,0.1c0,0,0.1,0,0.1,0V8.1c0.1,0,0.2,0,0.3,0c0,0,0.1,0.1,0.2,0.1
c0,0,0.1,0,0.13,0.1c16.2,0,32.4,0,48.6,0c0.1,0,0.2,0.1,0.2,0.1
c0,0,0.1,0,0.1,0.1c0,0,0,0.1,0.1,0.13c0,0,0,0.1,0,0.1s0,0.1,0,0.1
c0,0-0,0-0,0c0,0,0,0,0,0.1c0,0.1,0,0.1,0,0.1c0,0,0,0.1,0,0.1
c0,0,0,0.1,0,0.13c0,0,0,0,0,0.1c0,0.1,0,0.1,0,0.1c0,0,0,0.1,0,0.1c0,0,0,0.1,0,0.1
c0,0,0,0,0,0.1c0,0.1,0,0.1,0,0.13c0,0,0,0.1,0,0.1c0,0,0,0.1,0,0.1c0,0,0,0.1,0,0.13
c0,0,0,0,0,0.1c0,0,0,0.1,0,0.1c0,0,0,0.1,0,0.1c0,0,0,0.1,0,0.1c0,0,0,0,0,0.1
c0,0,0,0.1,0,0.1c0,0,0,0.1,0,0.1c0,0,0,0.1,0,0.1c-0,0-0.1,0-0.1,0
c-0,0-0.1,0.1-0.13,0.1c-0,0.1-0,0.1-0.1,0.1c-0.1,0-0.1,0.1-0.1,0.1
c-0,0-0,0.1-0,0.1c-0.1-0-0.2-0.1-0.2-0.1l-0-0c-0.6,0-1.1,0-1.7,0
c0,0,0,0.1,0,0.1c0,0,0,0,0,0.1c0,0,0,0,0,0.1c0,0,0,0.1,0,0.1v0
c0,0,0,0,0,0.1c0,0,0,0.1,0,0.1v0c0,0,0.01,0,0,0.1l0,0
c0.2,0,0.3,0,0.5,0v-0c0-0,0-0.1,0-0.1c0.5,0,1,0,1.6,0c0,0,0,0,0,0.1
c0,0,0,0.1,0,0.2c0,0,0,0.1,0,0.2c0,0,0,0.1,0,0.1c0,0,0,0.1,0,0.13c0,0,0,0.1,0,0.2
c0,0,0,0.1,0,0.13c0,0.1,0,0.1,0,0.2c0,0,0,0.1,0,0.1c0,0,0,0.1,0,0.1c0,0.1,0,0.12,0,0.2
c0,0,0,0.1,0,0.2v0c0,0,0,0,0,0.1v0.1c0,0,0,0,0,0.1v0.1c0,0,0,0.1,0,0.1v0.1
c0,0,0,0.1,0,0.1v0.1c0,0,0,0,0,0.1v0.1c0,0,0,0,0,0.1v0.1c0,0,0,0,0,0.1v0.2
c0,0,0,0,0,0.1v0.2c0,0,0,0,0,0.1c0,0,0,0.1,0,0.1c-0.5,0-1-0-1.5-0v0
c-0.13,0-0.26,0-0.39,0c-0,0-0,0-0,0c-0,0-0.1,0-0.1,0
c-0,0-0,0.1-0.1,0.1c0,0,0,0,0,0.1c-0,0-0,0-0,0.1
c-0,0-0,0.1-0,0.1c0,0-0,0-0,0.1c0,0-0,0-0.1,0.1
c-0,0-0,0.1-0.1,0.1c0,0-0,0-0,0c0,0,0,0,0,0.1
c-0.1,0-0.1,0.1-0.1,0.1c-0,0-0,0-0.1,0.1c0,0-0,0-0,0.1
c-0,0-0.1,0.1-0.1,0.1c-0,0-0,0-0,0.1c-0,0-0,0.1-0,0.1v0
c-0,0-0.1,0-0.1,0v0.1c-0,0-0.1,0-0.2,0c-0,0-0.1,0.1-0.1,0.1v0.1
c-0.2,0-0.3,0-0.5,0v0c0,0,0,0.1,0,0.1v0.1c-7,0-14,0-20.9,0c0,0,0,0.1,0,0.1
c0,0,0,0,0,0.1v0.1c-0.5,0-1.1-0-1.6-0c0-0,0-0,0-0.1c0-0,0-0.1,0-0.1v-0
c0-0,0-0,0-0.1s0-0,0-0.1c-0.1-0-0.1-0.1-0.2-0.1c-0.1-0-0.2-0-0.3-0.1V16.71
c-0.1,0-0.2-0-0.2-0.1c-0.1-0-0.13-0-0.2-0.1v-0.1c-0.1,0-0.2-0-0.3-0
c-0.1-0-0.2-0.1-0.3-0.1c0-0,0-0,0-0.1c-3.5,0-6.9,0-10.4,0c-0.1-0-0.2-0.1-0.26-0.1
c-0-0-0.1-0-0.1-0.1c-0-0-0.1-0-0.2-0.1c-0-0-0.1-0.1-0.1-0.1
c-0-0-0.1-0-0.1-0.1c0-0.1,0-0.11,0-0.1s0-0.1,0-0.1s0-0.1,0-0.13c-0.8,0-1.6,0-2.4,0
c0,0,0,0,0,0.1c0,0,0,0.1,0,0.1v0c0,0,0,0,0,0.1c0,0,0,0.1,0,0.1
c0,0,0,0,0,0.1v0.1c-0.2,0-0.5,0-0.7,0v0.1c0,0,0,0,0,0.1c0,0,0,0,0,0.1
c0,0,0,0.1,0,0.1s0,0,0,0.1v0c-0.5,0-1-0.01-1.6-0c-0-0-0-0-0.1-0.1v-0
c0-0,0-0.1,0-0.1c0-0,0-0,0-0.1c0-0,0-0.1,0-0.1c-2.6,0-5.2,0-7.8,0H32.99
c-0,0-0.1,0-0.1,0.1c-0,0-0.1,0-0.1,0c-0,0-0.1,0-0.1,0
c-0.1,0-0.1,0-0.1,0.1c-0,0-0.1,0.1-0.2,0.1c-0,0-0.1,0-0.1,0
c-0.1,0-0.1,0-0.1,0c-0,0-0.1,0-0.1,0.1c0,0-0,0.1-0.1,0.1
c-0,0-0.1,0-0.13,0.1c0,0-0,0-0.1,0c0,0-0,0-0,0
c-0,0-0.1,0-0.1,0c-0,0-0.1,0.1-0.1,0.1v0.1c-0,0-0.1,0-0.1,0
c0,0,0,0.1,0,0.1v0.1c-0,0-0.1,0-0.1,0h-0.1v0.2c-0.2,0-0.3,0-0.5,0h-0
c-0.1,0-0.2,0-0.3,0h-0c-0,0-0.1,0.01-0.1,0H30.33c-0.1,0-0.2,0-0.3,0.1h-0
c-0.1,0-0.2,0-0.3,0h-0.1c-0,0-0.1,0-0.1,0h-0c-0,0-0.1,0-0.1,0h-0
c-0,0-0,0-0.1,0h-0c-0.1,0-0.1,0-0.1,0h-0c-0,0-0,0-0,0.1h-0.1
c-0,0-0.1,0-0.1,0h-0c-0.1,0-0.1,0-0.1,0h-0c-0,0-0.1,0-0.2,0h-0
c-0,0-0,0-0.1,0h-0.1c-0,0-0,0-0,0.1h-0c-0,0-0,0-0.1,0h-0
c-0,0-0.1,0.01-0.1,0h-0c0,0-0,0-0,0s-0.1,0-0.1,0h-0
c-0,0-0,0-0.1,0h-0c-0,0-0.1,0-0.1,0.1h-0c-0,0-0,0-0.1,0h-0
l-0.1,0h-0c-0,0-0,0-0.1,0h-0c-0,0-0,0.01-0,0h-0.1
c-0,0-0,0-0.1,0.1h-0c0,0-0,0-0,0c-0,0-0.1,0-0.1,0h-0
c-0,0-0,0-0,0h-0c-0,0-0,0-0,0h-0.1c-0,0-0,0.01-0,0h-0
c-0,0-0,0-0.1,0.1c-0,0-0.1,0-0.1,0h-0c-0.02,0-0,0-0,0h-0
c0,0-0,0-0,0c-0,0-0.1,0-0.1,0c-0,0-0,0-0,0.1h-0
c0,0-0,0-0,0c-0.1,0-0.1,0-0.13,0h-0l-0.1,0.1v0h-0.1
c-0,0-0,0-0,0.1h-0c0,0-0,0-0,0c-0,0-0.1,0-0.1,0h-0
c0,0-0,0-0,0c-0,0-0,0-0.1,0h-0c0,0-0,0.1-0.1,0.1
c-0,0-0,0.01-0.1,0h-0c-0,0-0,0-0,0h-0.1c-0,0-0,0-0,0h-0
c-0,0-0,0-0,0h-0c-0,0-0,0-0,0H25.27c0,0-0,0.1-0,0.1
c-0,0-0,0-0,0h-0c-0,0-0,0.01-0,0h-0.1l-0.1,0.1
c-0,0-0,0-0,0.1h-0c-0,0-0.1,0-0.1,0h-0c0,0-0,0-0,0
c-0,0-0,0-0,0h-0c0,0-0,0-0,0c-0,0-0.1,0-0.1,0.1h-0
c0,0-0,0-0,0c-0,0-0,0.01-0,0h-0c-0,0-0.1,0-0.1,0h-0
c-0,0-0,0-0,0h-0v0c-0,0-0,0.02-0,0.1h-0c-0,0-0.1,0-0.1,0H24.2
c-0,0-0,0-0,0h-0l-0.1,0.1c-0,0-0,0-0.1,0.1c0,0-0.01,0-0,0
c-0,0-0,0-0,0h-0l-0.1,0.1c-0,0-0,0-0,0.1h-0l-0.1,0.1
c-0,0-0,0.01-0,0h-0c-0,0-0,0-0,0.1h-0.1c-0,0-0,0-0,0h-0
c-0,0-0,0-0.1,0c-0,0-0.1,0-0.1,0c-0,0-0,0-0.1,0h-0
c-0,0-0.1,0-0.1,0c-0,0-0,0-0.1,0.1H22.87c-0,0-0.1,0.01-0.1,0
c-0,0-0,0-0.1,0h-0c-0,0-0,0-0,0h-0c-0.1,0-0.1,0-0.13,0h-0
c-0,0-0,0-0,0.1h-0.1c-0,0-0,0-0.1,0h-0c-0,0-0,0-0.1,0h-0.1
c-0,0-0.1,0-0.1,0h-0c-0,0-0.1,0-0.1,0c-0.1,0-0.2,0-0.3,0h-0
c-0.1,0-0.1,0-0.1,0.1h-0c-0.1,0-0.1,0-0.2,0h-0c-0.1,0-0.2,0-0.3,0H20.86
c-0.4,0-0.7,0-1.1,0l-0-0c-0.1,0-0.12,0-0.2,0v-0c-0,0-0.1,0-0.13,0l-0-0.1
c-0,0-0.1,0-0.2,0l-0-0c-0.1,0-0.14,0-0.2,0l-0-0c-0,0-0,0-0.1,0v-0
c-0.1,0-0.1,0-0.1,0l-0-0c-0,0-0.1,0-0.1,0l-0-0c-0,0-0.1,0-0.1,0l-0-0.1
c-0,0-0.1,0-0.1,0v-0c-0,0-0.1,0-0.1,0l-0.1-0h-0l-0-0c-0.02,0-0,0-0.1,0
l-0-0H17.94l-0-0.1c-0,0-0,0-0.1,0v-0c-0,0-0.1,0-0.1,0l-0-0
c-0,0-0,0-0.1,0l-0-0c-0,0-0.1,0-0.1,0v-0h-0l-0.1-0.1h-0v-0
c-0,0-0.1,0-0.1,0v-0h-0v-0h-0v-0h-0v-0.1h-0v-0h-0.1v-0l-0-0h-0
l-0.1-0.13v-0H16.87V19.92l-0.1-0.1v-0.1h-0v-0h-0v-0l-0.1-0.1v-0l-0.1-0.1v-0
h-0v-0l-0.1-0v-0.1l-0-0h-0v-0l-0-0v-0l-0-0.1v-0
c-0-0-0.1-0-0.1-0v-0l-0.1-0.1v-0.1l-0-0c0-0-0-0-0-0v-0.1
l-0.1-0.1v-0l-0-0v-0l-0.1-0.1v-0l-0-0h-0.1v-0.1L15.8,18.33v-0l-0-0
v-0l-0.1-0.1v-0.1l-0.2-0.1v-0.1l-0-0v-0c-0,0-0.1-0-0.1-0l-0.3-0.3v-0
h-0v-0.1c-0,0-0-0-0-0h-0.1l-0.1-0.1c0-0-0.01-0-0-0v-0l-0.2-0.2
c-0.2,0-0.4,0-0.6,0c-0,0-0,0-0.1,0c-0.2,0-0.4,0.1-0.6,0.13
c-0,0-0.1,0-0.1,0.1c-0,0-0.1,0-0.1,0c0-0,0-0,0-0.1c0-0.1,0-0.1,0-0.1
c0-0,0-0.1,0-0.1h-0v0l-0,0c-0.1,0-0.12,0-0.2,0c-0.1,0-0.1,0.1-0.2,0.1
c-0,0-0,0-0.1,0.1c-0,0-0.1,0-0.1,0l-0,0c-0,0-0.1,0-0.1,0.1
c-0,0-0.1,0-0.1,0.1l-0.1,0.1c-0,0-0.1,0-0.2,0c-0,0-0,0.1-0.1,0.1
c0,0-0,0-0,0l-0.1,0c-0,0-0.1,0-0.1,0c-0,0-0.1,0.1-0.1,0.1v0
c-0,0-0.1,0-0.2,0c-0,0-0.1,0-0.1,0.1v0.1c-0,0-0.1,0-0.2,0
c-0.1,0-0.1,0-0.2,0.1c-0,0-0.1,0.1-0.1,0.1c0,0-0,0-0,0l-0,0
c-0.1,0-0.1,0-0.13,0c-0,0-0,0-0.1,0.1l-0.1,0.1c-0.1,0-0.12,0-0.2,0v0
l-0,0c-0.1,0-0.1,0.1-0.2,0.1c-0,0-0,0-0.1,0.1c-0,0-0.1,0-0.1,0.1
c0,0.1,0,0.1,0,0.13c-0,0-0,0-0.1,0c-0,0-0,0-0.1,0.1
c-0.1,0.1-0.1,0.1-0.2,0.2c-0.1,0-0.2,0.1-0.2,0.13l-0,0c0,0,0,0,0,0.1
c-0,0-0.1,0-0.1,0c-0,0-0,0-0.1,0c-0,0-0,0.1-0.1,0.1
c0,0-0,0-0.1,0.1c-0,0-0,0.1-0.1,0.1c-0,0-0.1,0-0.13,0.1
c-0,0-0,0-0.1,0.1c0,0-0,0.1-0,0.1c-0,0-0,0-0.1,0.1
c-0,0-0.1,0-0.1,0c-0,0-0,0.1-0.1,0.1C9,20.07,9,20.1,8.9,20.1
c-0,0-0,0-0,0.1c-0,0-0,0.1-0.1,0.1v0.1c-0.1,0-0.1,0-0.1,0
c-0,0-0,0.1-0.1,0.1v0.1c-0,0-0.1,0-0.1,0c-0,0-0,0-0.1,0.1
c-0,0-0,0.1-0.1,0.1c-0,0-0.1,0-0.1,0.1c-0,0-0,0.1-0,0.1
c0,0-0,0-0,0c0,0.02-0,0-0,0.1c-0,0-0.1,0-0.1,0.1
c0,0-0,0.1-0,0.1c-0,0-0,0-0.1,0.1c-0,0-0.1,0.1-0.1,0.1
c-0.02,0-0,0-0,0.1c-0,0-0,0-0.1,0.1c-0,0-0.1,0-0.1,0
c0,0,0,0.1,0,0.1c-0,0-0,0-0.1,0.1c-0,0-0,0.1-0,0.1
c-0,0-0.1,0-0.1,0.1c-0,0-0,0-0.1,0.1c-0,0-0,0.1-0.1,0.1
c-0,0-0,0-0,0.1c0,0-0,0-0.1,0c0,0-0,0.1-0,0.1
c-0,0-0.1,0-0.1,0.1c0,0,0,0,0,0.1s-0,0.1-0.1,0.1c0,0-0,0-0,0.1
c0,0,0,0,0,0.1v0.1c-0,0-0.1,0-0.1,0c-0,0-0,0-0,0.1
c-0,0-0.1,0-0.1,0.1c0,0-0,0.1-0,0.1c0,0-0,0-0,0.1
c-0,0-0,0.1-0,0.1c0,0-0.01,0-0,0c0,0-0,0-0.1,0.1c0,0,0,0.1,0,0.1
c0,0,0,0,0,0.1v0.1c-0,0-0.1,0-0.1,0c-0,0-0,0.1-0,0.1
c-0,0-0,0-0,0.1v0.1c-0.1,0-0.1,0-0.13,0c0,0-0,0-0,0.1
c0,0-0,0-0,0.1c0,0,0,0.1,0,0.1C6.2,23.9,6.2,23.9,6.2,23.9
c-0,0-0,0-0.1,0c0,0,0,0.1,0,0.1c-0,0-0,0-0.1,0.1c0,0,0,0,0,0.1
c0,0,0,0.1,0,0.1c0,0.02,0,0,0,0.1s0,0.1,0,0.1c0,0,0,0,0,0.1v0c-0.1,0-0.1,0-0.13,0
c0,0,0,0,0,0.1c0,0,0,0.1,0,0.1v0c-0.5,0-1.1-0-1.6-0c-0.1-0-0.1-0.1-0.2-0.1
v-0.1c-0.1,0-0.1-0-0.1-0c-0.1-0-0.15-0-0.2-0.1c0-0-0-0.1-0-0.1L3.8,24.33
c-0.1-0-0.2-0-0.2-0.1v-0.1c-0.1,0-0.1-0-0.2-0c-0-0-0-0-0.1-0.1
l-0.1-0.1c-0,0-0-0-0.1-0c-0-0-0.1-0-0.2-0.1c0-0-0.01-0.1-0-0.1
c-0,0-0.1-0-0.1-0c0-0,0-0,0-0.1c-0-0-0.1-0-0.1-0.1
c-0-0-0.1-0.1-0.1-0.1c-0-0-0.1-0-0.1-0.1c-0-0-0-0.1-0.1-0.1
c-0-0-0.1-0-0.1-0.1c0-0-0.01-0-0-0.1c-0.02,0-0.1-0-0.1-0
c0-0-0-0.1-0-0.1c-0-0-0.1-0-0.1-0.1v-0c-0-0-0.1-0.1-0.1-0.1
c0-0-0-0-0.1-0.1c-0,0-0.1-0.01-0.1-0c0-0,0-0.1,0-0.1
c-0-0-0-0-0.1-0.1c-0.1-0-0.1-0-0.1-0.1c-0-0-0-0.1-0-0.1
c-0-0-0.1-0-0.1-0.1C1.6,22.4,1.55,22.4,1.53,22.32c0-0-0.01-0-0-0.1l-0-0
c-0.1-0-0.1-0-0.13-0.1c0-0-0-0.1-0-0.1L1.27,22c-0.1-0-0.1-0-0.1-0.1
c0-0,0-0.1,0-0.1c-0,0-0-0-0-0c-0-0-0-0-0-0.1s0-0.1,0-0.1
c-0,0-0.1-0-0.1-0c0-0-0.01-0-0-0.1c0-0-0-0.1-0-0.1v-0
c-0-0-0.1-0-0.13-0.1c0-0,0-0,0-0.1v-0.1c-0-0-0-0-0-0.1
c-0-0-0-0-0-0.1c0-0,0-0.1,0-0.1s0-0,0-0.1s0-0,0-0.1c0-0,0-0.1,0-0.1
c0-0,0-0,0-0.1v-0c0-0,0-0.1,0-0.1c0-0,0-0,0-0.1s0-0,0-0.1c0-0.1,0-0.1,0-0.2
c0-0,0-0.1,0-0.1c0-0,0-0,0-0.1v-0c0-0,0-0,0-0.1c0-0,0-0.1,0-0.1
c0-0,0-0,0-0.1c0-0,0-0.1,0-0.1c0-0,0-0.1,0-0.1c0-0,0-0.1,0-0.1
c0,0,0-0,0.1-0v-0c0-0.13,0-0.3,0-0.4c0-0.1,0-0.27,0-0.42c0-0.2,0-0.3,0-0.4
c0-0.2,0-0.3,0-0.4c0-0.2,0-0.3,0-0.5c0-0.1,0-0.3,0-0.42c0-0.2,0-0.3,0-0.4c0-0.2,0-0.3,0-0.4
c0-0.2,0-0.3,0-0.5c0-0.1,0-0.2,0-0.4c0-0.15,0-0.3,0-0.4c0-0,0-0,0-0.1
c-0-0-0-0-0.1-0c0-0,0-0,0-0.1v-0.1c0-0,0-0,0-0.1c0-0,0-0,0-0.1
c0-0,0-0.1,0-0.1c0-0,0-0,0-0.1c0-0,0-0,0-0.1c0-0,0-0.1,0-0.1s0-0,0-0.1v-0
c0-0,0-0.1,0-0.1c0-0,0-0,0-0.1c0-0,0-0,0-0.1c0-0,0-0.1,0-0.1c0-0,0-0,0-0.1
c0-0,0-0.1,0-0.1c0-0,0-0,0-0.1v-0c0-0,0-0,0-0.1c0-0,0-0.1,0-0.1
c0-0,0-0,0-0.1c0-0.1,0-0.1,0-0.1c0.54,0,1.08,0,1.6,0c0,0,0,0.1,0,0.1
c0,0,0.1,0,0.1,0.1c0,0,0.1,0,0.1,0c0,0,0,0.1,0,0.1
c0,0,0.1,0,0.13,0.1c0.1,0,0.1,0,0.2,0c0,0,0,0,0,0.1
c0,0,0,0.1,0.1,0.1c0,0,0.1,0,0.2,0c0,0,0,0,0,0.1
c0.1,0,0.1,0.1,0.2,0.1c0.1,0,0.1,0,0.2,0c0,0.02,0,0,0,0.1
c0.1,0,0.2,0.1,0.2,0.1c0.13,0,0.26,0,0.4,0c0,0,0,0,0,0.1
c0.11,0,0.2,0.1,0.3,0.1c0.4,0,0.7,0,1.1,0c0.1-0,0.2-0.1,0.3-0.1
c0-0,0.1-0,0.1-0.1h0c0.13-0,0.26-0,0.4-0c0.1-0,0.2-0.1,0.3-0.1
c0-0,0-0,0-0.1h0C6.8,13.8,6.88,13.79,7.01,13.79c0.1-0,0.26-0.1,0.4-0.1
c0-0,0-0,0-0.1c0.13-0,0.3-0,0.4-0c0.1-0,0.14-0.1,0.2-0.1c0-0,0-0,0-0.1h0
c0.1-0,0.1-0,0.2-0c0.1-0,0.2-0,0.26-0.1c0-0,0-0.1,0-0.1h0.1
c0-0,0.1-0,0.1-0c0.1-0,0.2-0,0.4-0.1c0-0,0-0.1,0-0.1h0
c0.1-0,0.1-0,0.2-0c0.1-0,0.2-0,0.3-0.1c0-0,0-0.1,0-0.1
c0.1-0,0.2-0,0.3-0c0.1-0,0.1-0,0.2-0.1c0-0,0-0.1,0-0.1
c0-0,0.1-0,0.2-0c0-0,0.1-0,0.2-0.1c0-0,0-0.1,0-0.1
c0.1-0,0.2-0,0.3-0c0-0,0.1-0,0.2-0.1c0-0,0-0,0-0.1h0
c0-0,0.1-0.1,0.1-0.1c0.1-0,0.1-0,0.1-0.1c0-0,0-0,0.1-0.1
c0-0,0.1-0.1,0.1-0.1v-0c0.1-0,0.1-0,0.2-0c0-0,0-0,0.1-0.1
l0.1-0.1c0-0,0.1-0,0.2-0c0-0,0-0,0-0.1c0-0,0.1-0,0.1-0
c0-0,0.1-0.1,0.1-0.1c0-0,0-0,0-0.1h0c0-0,0.1-0,0.2-0
c0-0,0.1-0.1,0.1-0.1c0-0,0.1-0,0.1-0.1c0-0,0-0,0.1-0v-0
c0.1-0,0.1-0.1,0.2-0.1c0-0,0-0,0-0.1h0c0-0,0.1-0,0.1-0
c0.1-0,0.1-0,0.2-0.1c0-0,0-0.1,0-0.1h0c0-0,0.1-0,0.2-0
c0-0,0-0,0.1-0.1c0-0,0-0.1,0.1-0.1c0-0,0.1-0,0.1-0v-0
c0-0,0.1-0,0.1-0c0-0,0-0.1,0-0.1h0.1c0-0,0.1-0,0.1-0
c0.1-0,0.1-0,0.1-0.1c0-0.02,0-0.1,0-0.1h0c0-0,0.1-0,0.2-0
c0-0,0-0,0.1-0.1c0-0,0-0,0-0.1c0.1-0,0.1-0.1,0.2-0.1
c0.1-0,0.1-0,0.2-0.1c0-0,0-0,0-0.1h0c0-0,0.1-0.1,0.1-0.1
C14.9,9.9,15,9.9,15.1,9.9c0-0.02,0-0,0-0.1c0.1-0,0.1-0.1,0.2-0.1
c0-0,0.11-0,0.2-0.1c0-0,0-0,0-0.1h0c0-0,0.1-0.03,0.2-0.03
c0-0,0.1-0.1,0.1-0.1c0-0,0-0,0-0.1c0.1-0,0.2-0,0.2-0
c0.1-0,0.1-0.1,0.2-0.1c0-0,0-0,0-0.1h0.1c0-0,0.1-0,0.2-0
c0.1-0,0.1-0.1,0.2-0.1c0-0,0-0,0-0.1c0.13-0,0.2-0,0.4-0
c0-0,0.1-0.1,0.2-0.1c0-0,0-0,0-0.1h0c0-0,0.1-0,0.2-0
c0-0,0.1-0,0.2-0.1c0-0,0-0.1,0-0.1h0c0-0,0.1-0,0.1-0
c0.1-0,0.1-0,0.1-0.1c0-0,0-0.1,0-0.1h0c0.1-0,0.2-0,0.2-0h0.1
c0-0,0-0,0-0.1c0-0,0-0.1,0-0.1c0.1-0,0.15-0,0.26-0c0-0,0.1-0,0.2-0
c0-0,0-0,0.1-0c0-0,0-0,0.1-0V8.1h0.1c0-0,0-0,0.1-0.1
c0.2-0,0.3-0,0.5-0.1c0-0.1,0.1-0.1,0.1-0.1c0.2-0,0.4-0,0.7-0.1
c0-0.1,0-0.1,0.1-0.1c0.1-0,0.2-0,0.3-0.1C20.6,7.51,20.6,7.5,20.6,7.5z M19.8,17.1
v0.1l-0,0v0c-0,0-0,0-0,0v0h-0.1v0.1c-0,0-0,0-0,0v0
l-0,0v0.1l-0,0.1v0.1h-0v0c-0,0-0,0-0,0v0.1L19.4,17.78v0.1h-0v0.13
h-0V18.2h-0v0.1c-0,0-0,0-0,0v0.2c-0,0-0.1,0-0.1,0v0.2h-0v0.4
l0,0v0.6c-0.2,0-0.4,0-0.6,0V19.66h-0v-0.1l-0-0v-0.1h-0v-0l-0-0.1v-0.1h-0
v-0.1l-0.1-0.1v-0.1l-0-0v-0.2l-0-0v-0.2l-0-0v-0c0-0.1,0-0.1,0-0.1
c0-0,0-0.1,0-0.1c0-0.1,0-0.1,0-0.13c0-0,0-0.1,0-0.1c0-0.1,0-0.1,0-0.1s0-0,0-0.1
c0-0,0-0.1,0-0.1c0-0.02,0-0,0-0.1s0-0,0-0.1c0-0.1,0-0.1,0-0.13c0-0,0-0,0-0.1
c0-0,0-0.1,0-0.1c0-0,0-0,0-0.1v-0h-0l-0.1,0c0,0-0,0-0,0l-0.13,0.2
v0l-0.2,0.2v0l-0,0v0.1l-0.1,0.1v0l-0,0v0.1l-0,0.1v0.2l-0,0.1v0.26
l0,0v0.2l0,0v0.1l0,0v0.1l0.1,0v0.1l0,0v0l0.1,0.1v0.1h0
l0.13,0.1v0h0l0.1,0.1h0v0h0l0,0h0l0.1,0h0v0.1h0l0,0h0
l0,0c0,0,0.1,0,0.1,0v0c0,0,0,0,0.1,0v0h0l0.1,0.1h0c0.1,0,0.1,0,0.2,0
v0h0v0h0v0h0v0h0v0c0.1,0,0.1,0,0.2,0l0,0.1c0,0,0.1,0,0.1,0
l0,0c0,0,0.1,0,0.1,0v0c0,0,0.1,0,0.1,0l0,0h0l0,0c0.2,0,0.4,0,0.6,0
v0.1c0.13,0,0.3,0,0.4,0v-0.1c0,0,0.1,0,0.1,0v-0c0.1,0,0.2,0,0.4,0v-0c0,0,0.1,0,0.1,0
v-0c0,0,0.1,0,0.13,0v-0c0,0,0.1,0,0.1,0v-0.1c0,0,0.1,0,0.1,0v-0h0v-0
c0,0,0.1,0,0.1,0l0-0c0,0,0,0,0.1,0v-0c0,0,0.1,0,0.13,0v-0c0,0,0.1,0,0.1,0
l0.1-0.1c0,0,0,0,0.1,0v-0c0.02,0,0,0,0.1,0l0-0c0,0,0.1,0,0.1,0v-0l0.1-0.1
c0,0,0.1,0,0.1,0l0.1-0.1h0c0-0,0.01-0,0-0l0.1-0c0,0,0,0,0.1,0v-0.1
c0,0,0-0,0-0c0,0,0.1,0,0.1,0v-0l0.1-0.1c0,0,0,0,0.1,0
c0-0,0-0.1,0.1-0.1c0-0,0-0,0-0l0-0h0l0-0h0.1l0-0v-0.1
c0-0,0-0,0-0v-0h0v-0c0-0,0-0,0-0v-0.2h0V18.85l0.1-0v-0.1
h0V18.72c0-0,0.01-0,0-0v-0c0-0,0-0,0-0V18.59l0-0.1
c0-0,0-0,0.1-0v-0.1h0V18.2c0-0-0.01-0-0-0v-0.1l-0.1-0v-0.1
c0-0-0-0.1-0-0.1v-0.1l-0-0V17.78l-0-0v-0.1l-0-0v-0l-0.1-0v-0
l-0.2-0.2v-0l-0.1-0.1h-0l-0-0v-0h-0l-0.1-0.1c-0,0-0,0-0.1,0l-0.1-0.1
c-0-0-0.1-0-0.1-0c-1,0-2.1,0-3.1,0c-0,0-0,0-0,0
C19.8,17.1,19.8,17.1,19.8,17.1z M19.1,20c0-0,0-0,0-0.1c0,0,0.1,0,0.2,0
C19.2,19.9,19.1,19.9,19.1,20z M2.3,19.4c0-0,0-0,0-0.1
c0-0,0-0,0-0.1c-0,0-0,0-0.1,0v0C2.3,19.3,2.3,19.3,2.3,19.4z"/>
</g>
</g>
</g>
<g id="guides">
</g>
</svg>
