<svg xmlns="http://www.w3.org/2000/svg" width="98px"
 height="32px" viewBox="0 0 98 32">
<g id="Selected_Items">
<g>
<g id="Selected_Items_44_">
<path fill-rule="evenodd" clip-rule="evenodd" fill="#FFFFFF" d="M96.9,14.2c0,0,0,0.1,0,0.1v0
c0,0,0,0.1,0,0.1c0,0,0,0,0,0.1c0,0,0,0,0,0.1c0,0,0,0.1,0,0.1v0
c0,0,0,0.1,0,0.1c0,0,0,0,0,0.1s0,0.05,0,0.1c0,0,0,0.05,0,0.1c0,0,0,0,0,0.1v0.1
c-0.1,0-0.1,0-0.2,0c-1.19,0-2.4,0-3.5,0v0.1c-0.1,0-0.3,0-0.4,0v-0.1c-1.7,0-3.3,0-5,0
c0,0,0,0.05,0,0.1c0,0,0,0.1,0,0.1c0,0,0,0.1,0,0.1v0c-0.1,0-0.1,0-0.2,0v-0.1
c-0.05,0-0.1,0-0.1,0v-0c0-0,0-0.05,0-0.1v-0c0-0,0-0.1,0-0.1c-0.1,0-0.3,0-0.52,0v0.1
c-0.05,0-0.1,0-0.2,0v-0.1c-0.1,0-0.3,0-0.52,0c0,0,0,0.05,0,0.1v0.1c0,0,0,0.1,0,0.1
c-0.05,0-0.1,0-0.2,0c-0,0-0.1,0-0.1,0v0c-0.05,0-0.1,0-0.2,0v-0c0-0,0-0.1,0-0.1
c0-0.05,0-0.1,0-0.1c0-0,0-0.1,0-0.1c0-0,0-0.05,0-0.1c-3,0-5.9,0-8.8,0
c-0,0-0-0-0-0c-0,0-0-0-0-0c-0,0-0,0-0.1,0h-0.1v0.26
c-0.1,0-0.2,0-0.3,0c-4.5,0-8.9-0-13.4-0v0.41c-0,0-0,0-0.1,0v0.6
c0,0,0.1,0,0.1,0v0.3c-0,0-0.1,0-0.1,0l-0,0h-0c0,0-0,0-0,0v-0
c0,0,0-0,0-0c-0.1,0-0.3,0-0.4,0v0.1c-0.1,0-0.2,0-0.4,0v-0.3c-0.2,0-0.5,0-0.7,0
v0.3c-0.1,0-0.21,0-0.3,0v-0.3c-0.1,0-0.31,0-0.5,0v0.26c-0.1,0-0.3,0-0.4,0v-0.26c-0.2,0-0.36,0-0.6,0v0.26
c-0.1,0-0.3,0-0.4,0v-0.26c-0.2,0-0.3,0-0.5,0v0.26c-0.15,0-0.3,0-0.4,0v-0.26c-0.2,0-0.36,0-0.6,0v0.26
c-0.1,0-0.2,0-0.3,0v-0.26h-0.15c-0.1,0-0.2,0-0.3,0v0.3c-0.1,0-0.2,0-0.3,0v-0.3c-0.2,0-0.36,0-0.6,0
v0.26c-0.1,0-0.21,0-0.3,0v-0.26c-0.15,0-0.3,0-0.5,0v0.26c-0.1,0-0.3,0-0.41,0v-0.26c-0.2,0-0.3,0-0.5,0v0.26
c-0.1,0-0.26,0-0.4,0v-0.26c-0.2,0-0.3,0-0.5,0v0.2c-0.1,0-0.2,0-0.3,0v-0.2c-0.15,0-0.3,0-0.5,0v0.26
c-0.1,0-0.21,0-0.3,0v-0.26c-0.1,0-0.3,0-0.5,0v0.26c-0.1,0-0.2,0-0.3,0v-0.26c-0.2,0-0.4,0-0.6,0v0.2
c-0.1,0-0.3,0-0.4,0v-0.2c-0.1,0-0.31,0-0.5,0v0.26c-0.1,0-0.2,0-0.3,0v-0.26c-0.2,0-0.41,0-0.6,0v0.26
c-0.4,0-0.8,0-1.2,0v-0.26c-0.1,0-0.3,0-0.41,0v0.1l-0,0v0l-0,0v0.1
c0,0-0,0-0,0c-0,0-0,0-0,0h-0c-0.1,0-0.2,0-0.3,0
c-0.1,0-0.1,0-0.2,0c-0,0-0.1,0-0.1,0l-0,0c-0,0-0.1,0-0.1,0
l-0,0h-0c-0.1,0-0.1,0-0.2,0c-0.05,0-0.1,0-0.1,0l-0,0v0
c-0,0-0.05,0-0.1,0l-0.1,0c0,0-0,0-0,0l-0.1,0.1h-0
c0,0-0,0-0,0v0.1l-0,0H45.42v0c0,0,0,0.05,0,0.1v0c0,0,0,0,0,0.1v0.52
c0,0,0,0.05,0,0.1c0,0.05,0,0.1,0,0.1c0,0.05,0,0.1,0,0.1v0.1c0,0.05,0,0.1,0,0.1c0,0.05,0,0.1,0,0.1
c0,0.05,0,0.1,0,0.1s0,0.1,0,0.1c0,0,0,0.05,0,0.1v0l0.1,0.11h0c0,0,0,0,0.1,0
c0,0,0,0,0,0l0,0c0,0,0,0,0,0v0.7h-0c0,0-0,0-0,0
v0h-0c-0.1,0-0.2,0-0.26,0v0.1c-0,0-0.1,0-0.1,0c-0,0-0,0-0.1,0v0c0,0.1,0,0.1,0,0.2
c0,0.1,0,0.1,0,0.2c0,0,0,0.1,0,0.2c0,0.1,0,0.2,0,0.2c0,0.1,0,0.1,0,0.2c0,0.1,0,0.1,0,0.2
c0,0.1,0,0.15,0,0.2s0,0.1,0,0.2c0,0.1,0,0.1,0,0.2c0,0.1,0,0.2,0,0.3c0,0.05,0,0.1,0,0.2
c0,0.1,0,0.1,0,0.2c0,0.1,0,0.1,0,0.2s0,0.1,0,0.2c0,0.1,0,0.1,0,0.2c0,0,0,0.11,0,0.2
c0,0.1,0,0.2,0,0.2c0,0.1,0,0.1,0,0.2c0,0.1,0,0.1,0,0.2c0,0.1,0,0.1,0,0.2c0,0,0,0.1,0,0.2
c0,0.1,0,0.1,0,0.2c0,0.1,0,0.2,0,0.3c0,0.05,0,0.1,0,0.2c0,0.1,0,0.1,0,0.2c0,0.1,0,0.1,0,0.2
c0,0.1,0,0.1,0,0.2c0,0.1,0,0.2,0,0.26c0,0,0,0.1,0,0.2c0,0.1,0,0.2,0,0.2c0,0.1,0,0.1,0,0.2
c0,0,0,0.1,0,0.2c0,0.1,0,0.1,0,0.2c0,0,0,0.1,0,0.1v0.1c0,0.1,0,0.1,0,0.2v0.1
c0,0,0,0.1,0,0.1c0,0,0,0.05,0,0.1c0,0,0.05,0,0.1,0v0.2c-2.2,0-4.3,0-6.47,0c-0.05,0-0.1,0-0.1,0
c-0,0-0.1,0-0.1,0v-0.1c0-0,0-0,0-0.1s0-0.05,0-0.1v-0.1c0-0,0-0,0-0.1v-0
c0-0,0-0,0-0.1v-0c0-0,0-0.05,0-0.1h-0v-0c-0.1,0-0.2,0-0.3,0v-0.4
c0,0,0-0,0.1-0c0-0.1,0-0.2,0-0.2c0-0.1,0-0.1,0-0.2c0-0.1,0-0.1,0-0.2
c0-0.1,0-0.1,0-0.2c0-0.05,0-0.1,0-0.2c0-0.1,0-0.1,0-0.2c0-0.1,0-0.2,0-0.3c0-0,0-0.1,0-0.2
c0-0.1,0-0.1,0-0.2s0-0.1,0-0.2c0-0.1,0-0.1,0-0.2c0-0.1,0-0.2,0-0.26c0-0,0-0.1,0-0.2
c0-0.1,0-0.2,0-0.2c0-0.1,0-0.1,0-0.2c0-0.1,0-0.1,0-0.2c0-0.1,0-0.1,0-0.2c0-0.05,0-0.1,0-0.2
c0-0.1,0-0.1,0-0.2c0-0.1,0-0.2,0-0.26c0-0.05,0-0.1,0-0.2c0-0.1,0-0.1,0-0.2c0-0.1,0-0.1,0-0.2
c0-0.1,0-0.1,0-0.2c0-0.1,0-0.2,0-0.3c0-0,0-0.11,0-0.2c0-0.1,0-0.1,0-0.2c-0.05,0-0.1,0-0.1,0
c-0.1,0-0.2,0-0.3,0h-0c-0,0-0.05,0-0.1,0c-0,0-0,0-0,0h-0
c-0,0-0.1,0-0.1,0c-0.05,0-0.1,0-0.1,0v0.1c-1.6,0-3.2,0-4.76,0
c-0.1,0-0.3,0-0.4,0v0.2l-0.1,0.1v0l-0,0v0h-0l-0,0v0.1h-0
c0,0-0,0-0,0v0.1c-0,0-0,0-0,0v0.1h-0l-0.1,0.1v0
c-0,0-0,0-0,0V23h-0v0.1h-0v0c-0,0-0,0-0,0v0h-0.1v0.1h0
v0.1l0,0v0c0,0,0,0,0,0v0h0v0c0,0,0,0,0,0v0.4
c-0,0-0,0-0.1,0c-0.2,0-0.36,0-0.6,0l-0,0v0.1c-0,0-0,0-0,0v0
c0,0-0,0-0,0l-0,0v0h-0v0c0,0-0,0-0,0v0l-0,0v0
h-0V24.6h-0v0.1l-0,0v0H30.77v0c0,0-0,0-0,0v0h-0v0
c0,0-0,0-0,0c0,0-0,0-0,0v0.1h-0v0.2c0,0-0,0-0,0
c0,0-0,0-0,0v0c-0,0-0,0-0.1,0v0.1h-0v0.1l-0,0v0
c0,0-0,0-0,0v0c0,0-0,0-0,0v0l-0,0c0,0-0,0-0,0
v0.1c0,0-0,0-0,0l-0,0c0,0-0,0-0,0v0l-0,0v0h-0v0
c-0,0-0.1,0-0.1,0v0l-0,0c0,0-0,0-0,0v0
c0,0-0,0-0,0v0c0,0-0,0-0,0v0.1c-0,0-0,0-0,0v0h-0
l0,0v0c0,0,0,0,0,0v0h0v0.5l-0,0c0,0-0,0-0,0v0
h-0V27.5l-0,0v0.1l-0,0c-0,0-0.05,0-0.1,0v0c-0.2,0-0.36,0-0.6,0
c-0-0-0.1-0-0.1-0c-0,0-0.05-0-0.1-0c-0-0-0-0-0.1-0
c-0-0-0.1-0-0.1-0c-0.1-0-0.1-0-0.2-0v-0c-0.1-0-0.1-0-0.2-0
c-0.1-0-0.1-0-0.2-0s-0.1,0-0.1,0c-0.05-0-0.1-0-0.1-0
c-0.1-0-0.15-0-0.2-0c-0-0-0.1-0-0.1-0c-0,0-0.1-0-0.1-0
c-0.05-0-0.1-0-0.11-0c-0.1-0-0.1-0-0.1-0c-0,0-0.1-0-0.1-0
c-0.1-0-0.1-0-0.2-0c-0-0-0.1-0-0.1-0c-0,0-0.1,0-0.1,0v-0
c-0.05-0-0.1-0-0.1-0c-0.05-0-0.1-0-0.1-0c-0,0-0.1-0-0.1-0
c-0-0-0.1-0-0.1-0c-0-0-0.1-0-0.1-0c-0-0-0.1-0-0.15-0
c-0.1,0-0.1-0-0.1-0c-0-0-0-0-0.1-0c-0-0-0.1-0-0.1-0
c-0.05,0-0.1,0-0.15,0c-0.1-0-0.1-0-0.2-0l-0-0v-0.4h0v-0.1c0,0,0-0,0-0
h0c0-0,0-0,0-0V25.9l0-0v-0c0-0,0-0,0.1-0v-0.1h0v-0
c0,0,0.1,0,0.1,0v-0.1h0v-0c0-0,0.05-0,0.1-0v-0.1h0c0,0,0-0,0-0
v-0h0v-0.1h0v-0.1c0,0,0-0,0-0v-0h0v-0c0-0,0.05-0,0.1-0
v-0.1h0c0-0,0-0,0-0l0-0V24.86l0-0c0-0,0-0,0-0v-0.1
c0,0,0-0,0-0v-0h0.1v-0.1l0.1-0.1v-0.1c0,0,0-0,0-0
c0,0,0-0,0-0h0c0-0,0-0,0-0v-0.1l0.1-0.1v-0l0.1-0.1
c0,0,0-0,0-0v-0h0.1v-0.1l0-0v-0.1l0-0v-0.1h0v-0h0l0.1-0
v-0.1l0-0v-0.1h0v-0c0,0,0-0,0-0v-0h0l0-0v-0.1h0v-0.15h0
l0-0v-0.1c0,0,0.05,0,0.1,0h0v-0.1h0c0-0,0-0,0-0v-0.1h0v-0
l0-0h0v-0.1c0-0,0-0,0-0v-0.1l0-0c0-0,0-0,0-0v-0.1h0.1
v-0.1c0,0,0,0,0.1,0c0-0,0-0,0-0v-0c0,0,0-0,0-0v-0.1l0-0
h0l0.1-0.1v-0.1c0,0,0.05,0,0.1,0c0-0,0-0,0-0v-0.1h0v-0l0-0v-0
h0c0,0,0-0,0-0v-0l0-0c0-0,0-0,0-0v-0.1h0v-0l0-0
c0,0,0-0,0-0h0v-0l0-0v-0.1h0V20.77h0v-0l0-0
c0,0,0-0,0-0h0l0.1-0.1v-0c0,0,0-0,0-0v-0h0v-0.1
c0,0,0-0,0-0l0-0v-0l0-0v-0h0l0-0c0-0,0-0,0-0
l0-0v-0c0-0,0-0,0.1-0v-0h0.1v-0.1h0v-0.1l0-0v-0.1h0
c0-0,0-0,0-0v-0.3h0V19.17l-0-0v-0.1c-0-0-0.05-0-0.1-0V18.91
c0-0-0-0-0-0v-0l-0-0c0-0-0-0-0-0v-0l-0-0h-0l-0.1-0.1
v-0H28.91c-0-0-0.05-0-0.1-0l-0-0v-0.1c-0-0-0.1-0-0.1-0l-0-0
c0-0-0-0-0-0c-0-0-0-0-0.1-0c0-0-0-0-0-0h-0v-0
c0-0-0-0-0-0c-0,0-0-0-0-0c-0-0-0-0-0.1-0
c-1.2-0-2.4-0-3.5-0v-0c-0,0-0-0-0-0v-0c0-0-0-0-0-0
l-0.1-0.1c-0,0-0-0-0.1-0h-0c-0,0-0.05,0-0.1,0c0-0-0-0-0-0
c-0,0-0.1,0-0.1,0v0c-0,0-0,0-0.1,0h-0.1c-0.3,0-0.67,0-1,0v-0.1
c-0.8,0-1.5,0-2.3,0c-0,0-0.05,0-0.1,0c-0.2,0-0.4,0-0.6,0h-0l-0.1,0.1
c-0,0-0,0-0,0c-0,0-0,0-0,0h-0c0,0-0,0-0,0h-0v0
l-0,0c0,0-0,0-0,0c0,0-0,0-0,0v0l-0,0
c0,0-0,0-0,0v0.1c-0,0-0,0-0.1,0l-0,0H19.54v0l-0,0
c-0,0-0,0-0,0c-0,0-0,0-0,0h-0c-0,0-0.05,0-0.1,0v0
c-0,0-0,0-0,0h-0v0c-0,0-0.05,0-0.1,0c-0,0-0,0-0.1,0
c-0,0-0,0-0,0h-0v0.1l-0,0v0c0,0-0,0-0,0v0
c-0,0-0,0-0,0c-0,0-0,0-0,0h-0c0,0-0,0-0,0v0
c-0,0-0,0-0,0H18.72v0.1c-0,0-0,0-0,0l-0.1,0.1v0
c0,0-0,0-0,0h-0c-0,0-0,0-0,0h-0c0,0-0,0-0,0v0
c-0,0-0,0-0,0c-0,0-0,0-0,0h-0v0l-0,0v0
c-0,0-0,0-0,0h-0.1v0c-0,0-0,0-0,0v0h-0v0h-0
c0,0-0,0-0,0c-0,0-0,0-0.1,0h-0v0c0,0-0,0-0,0v0h-0
v0l-0,0V20.1l-0,0c0,0,0,0.05,0,0.1v0c-0,0-0,0.05-0,0.1
s0,0,0,0c0,0,0,0.05,0,0.1c0,0,0,0.05,0,0.1c0,0,0,0,0,0.1c0,0,0,0,0,0.1v0.1
c0,0,0,0,0,0.1c0,0,0,0,0,0.1s0,0.05,0,0.1c0,0,0,0.05,0,0.1v0c0,0,0,0.1,0,0.1
c0,0,0,0,0,0.1v0c-0,0-0.1,0.05-0.1,0.1c0,0,0,0.05,0,0.1c-0,0-0.05,0-0.1,0
c0,0,0,0,0,0.1c-0,0-0,0-0.1,0.1c-0,0-0.05,0-0.1,0
c0,0-0,0-0,0s-0.1,0-0.1,0c-0,0-0.05,0-0.1,0c-0-0-0-0-0.1-0
c-0,0-0-0-0-0c-2.2,0-4.4,0-6.62,0c-0.8,0-1.5,0-2.3,0c-0.7,0-1.4,0-2.1,0V21.55
c-0,0-0,0-0.1,0v-0.1H6c0-0-0-0-0-0V21.29c-0,0-0.1,0-0.11,0v-0
c0-0.1,0-0.1,0-0.2v-0c-0.1-0-0.2-0-0.2-0c0-0,0-0.05,0-0.1v-0c0-0,0-0,0-0.1
V20.77c0-0,0-0.05,0-0.1c-0.7,0-1.4,0-2.1,0c0,0,0,0.1,0,0.1c0,0.1,0,0.1,0,0.2
c0,0.1,0,0.15,0,0.2s0,0.1,0,0.2c0,0.1,0,0.2,0,0.3c0,0.05,0,0.1,0,0.2c0,0.1,0,0.1,0,0.2
c0,0.1,0,0.1,0,0.2c0,0.1,0,0.15,0,0.2c0,0.1,0,0.1,0,0.2c0,0.05,0,0.1,0,0.2c0,0,0,0.05,0,0.1v0.4
c-0.1,0-0.2,0-0.4,0v-0c-0.3-0-0.7-0-1-0v0.26c-0,0-0,0-0.1,0v0.4H2
c-0,0-0.05,0-0.1,0c-0.1,0-0.31,0-0.5,0c0,0,0,0,0,0l0,0H1.5
c-0,0-0.1,0-0.1,0L1.3,24.19c-0,0-0,0-0.1,0c-0.1,0-0.2,0-0.2,0c-0.1,0-0.2,0-0.3,0v-0
c0-0,0-0.1,0-0.1c0-0,0-0.1,0-0.1v-0.1c0-0.05,0-0.1,0-0.1c0-0,0-0.1,0-0.1c0-0,0-0,0-0.1
c0-0.05,0-0.1,0-0.1c0-0,0-0.1,0-0.1c0-0,0-0.1,0-0.1c0-0,0-0.1,0-0.1c0-0.05,0-0.1,0-0.1
c0-0,0-0.1,0-0.1c0-0,0-0.1,0-0.1c0-0,0-0.1,0-0.1c0-0,0-0.1,0-0.1c0-0,0-0.05,0-0.1
c0-0.05,0-0.1,0-0.1c0-0,0-0.1,0-0.1c0,0,0.1,0,0.2,0v-0.3c0-0,0-0,0-0v-0
c0-0.05,0-0.1,0-0.2c0-0.1,0-0.1,0-0.2c0-0.1,0-0.1,0-0.2c0-0.1,0-0.1,0-0.2s0-0.1,0-0.2
c0-0.1,0-0.1,0-0.2c0-0.1,0-0.1,0-0.2c0-0.1,0-0.2,0-0.3c0-0,0-0.1,0-0.2c0-0.1,0-0.1,0-0.2
c0-0.1,0-0.15,0-0.2c0-0.1,0-0.1,0-0.2c0-0.1,0-0.1,0-0.2c0-0,0-0.1,0-0.2c0-0.1,0-0.2,0-0.2
c0-0.1,0-0.1,0-0.2c0-0.1,0-0.1,0-0.2c0-0.1,0-0.1,0-0.2c0-0.1,0-0.1,0-0.2c0-0.1,0-0.1,0-0.2
c0-0.1,0-0.2,0-0.26c0-0,0-0.1,0-0.2c0-0.1,0-0.1,0-0.2s0-0.1,0-0.2c0-0.1,0-0.1,0-0.2
c0-0.1,0-0.2,0-0.3c0-0.05,0-0.1,0-0.2c0-0.1,0-0.2,0-0.2c0-0.1,0-0.1,0-0.2c0-0.1,0-0.1,0-0.2
c0-0.1,0-0.1,0-0.2H0.9v-0l-0-0c-0-0-0-0.05-0-0.1c0-0,0-0,0-0.1
c0-0,0-0,0-0.1v-0c0-0,0-0.05,0-0.1c0-0,0-0,0-0.1c0-0,0-0.1,0-0.1v-0
c0-0,0-0,0-0.1v-0c0-0,0-0,0-0.1c0-0,0-0,0-0.1c0-0,0-0,0-0.1
c0-0,0-0,0-0.1v-0.1c0-0,0-0,0-0.1c0-0,0-0.05,0-0.1c0-0,0-0.05,0-0.1s0-0.05,0-0.1v-0
c0-0,0-0,0-0.1s0-0,0-0.1v-0.1H0.7c-0,0-0-0-0-0v-0.2c0-0,0-0.1,0-0.1v-0.26
c-0.05,0-0.1,0-0.2,0v-0.3c0.3,0,0.5,0,0.8,0v0c0.3,0,0.5,0,0.8,0v0.3c-0,0-0.1,0-0.1,0
l0,0c0.5,0,0.9,0,1.4,0v0.3c0,0,0.1,0,0.1,0v0c0,0.05,0,0.1,0,0.2c0,0.1,0,0.2,0,0.2
c0,0.1,0,0.1,0,0.2c0,0.1,0,0.1,0,0.2c0,0.1,0,0.1,0,0.2c0,0.05,0,0.1,0,0.2c0,0.1,0,0.1,0,0.2
c0,0.1,0,0.16,0,0.26c0,0.05,0,0.1,0,0.2c0,0.1,0,0.1,0,0.2s0,0.1,0,0.2c0,0.1,0,0.1,0,0.2
c0,0.1,0,0.2,0,0.26c0,0,0,0.1,0,0.2c0.8,0,1.5,0,2.3,0c0-0.1,0-0.1,0-0.2c0-0.1,0-0.1,0-0.2
c0-0.1,0-0.1,0-0.2c0-0.05,0-0.1,0-0.1c0,0,0.1,0,0.11,0c0.1,0,0.1,0,0.2,0c1.1,0,2.2,0,3.3,0
c0-0.1,0-0.1,0-0.15c0-0,0-0.1,0-0.1s0-0.1,0-0.1c0-0,0-0.1,0-0.1c0-0.1,0-0.1,0-0.1
c0-0,0-0.1,0-0.1c0-0.05,0-0.1,0-0.1v-0c-0.9,0-1.9,0-2.8,0v-0.1c-0.1,0-0.2,0-0.4,0v-0.4
c-0,0-0-0-0-0v-0.3H6.2v-0c0-0,0-0.1,0-0.2c0-0,0-0.1,0-0.1
c0-0.1,0-0.1,0-0.2c0-0.1,0-0.1,0-0.1c0-0,0-0.1,0-0.2c0-0.05,0-0.1,0-0.1c0-0.05,0-0.1,0-0.2
c0-0.05,0-0.1,0-0.1c0-0.1,0-0.1,0-0.2c0-0.1,0-0.1,0-0.2c0-0,0-0.1,0-0.1c0-0,0-0.11,0-0.2
c0-0,0-0.1,0-0.1c0-0.05,0-0.1,0-0.1c0-0,0-0.1,0-0.1c0-0.1,0-0.1,0-0.2c0-0,0-0.1,0-0.1
c0-0.05,0-0.1,0-0.2c-0,0-0-0-0-0v-0.3c0-0,0-0,0-0V10.06
c0,0,0.1,0,0.1,0V9.9c0.05,0,0.1-0,0.1-0V9.8c0.1,0,0.1-0,0.2-0
c0,0,0-0,0-0c0.1,0,0.2,0,0.4,0c3.1,0,6.3,0,9.4,0c0.1,0,0.2,0,0.3,0
c0.4-0,0.9-0,1.3-0H18.2V9.7c0.2,0,0.5,0,0.8,0c0.2,0,0.4,0,0.6,0
h0.2c0.4,0,0.7,0,1.1,0v0c0.1,0,0.2,0,0.3,0L21.3,9.8h0l0,0c0,0,0,0,0,0
v0.5c-0,0-0,0-0,0h-0v0.1l-0,0v0.1c-0,0-0,0-0,0l-0,0
c0,0-0,0-0,0c0,0-0,0-0,0l-0.1,0.1v0l-0.1,0.1v0l-0.1,0.1h-0
v0.1l-0.1,0v0l-0.1,0.1h-0v0l-0.1,0.1v0l-0.1,0.1v0c-0,0-0,0-0,0
v0c0,0-0,0-0,0v0.1c-0,0-0.1,0-0.1,0c0,0-0,0-0,0
c0,0-0,0-0,0l-0,0c-0,0-0.05,0-0.1,0v0.1c-0,0-0,0-0,0v0h-0
v0.1c-0,0-0,0-0,0l-0.1,0.1h-0v0c-0,0-0,0-0,0L19.8,12.4
c0,0-0,0-0,0v0c-0,0-0,0-0,0l-0.1,0.1h-0v0l-0.1,0.1v0h-0
v0.1c-0,0-0,0-0,0v0h-0c0,0-0,0-0,0h-0c-0,0-0,0-0,0
l-0,0v0h-0l-0,0v0h-0c0,0-0,0-0,0l-0.1,0.1h-0v0l-0,0
v0h-0v0l-0,0v0l-0.1,0.1h-0l-0.1,0.1c-0,0-0,0-0,0H18.61l-0.1,0.1
h-0v0c-0,0-0,0-0,0v0c-0,0-0.1,0-0.1,0l-0,0c0,0-0,0-0,0
L18.2,14c-0,0-0.05,0-0.1,0c0,0-0,0-0,0c-0,0-0,0-0.1,0l-0,0v0
h-0.1c0,0-0,0-0,0l-0.1,0.1h-0v0c-0,0-0,0-0.1,0h-0
c-0,0-0.1,0-0.1,0v0c-0,0-0.1,0-0.1,0c-1.3,0-2.6,0-3.9,0v0.11l-0,0v0.1l-0.1,0.1
c0,0,0,0,0,0.1s0,0.05,0,0.1v0c0,0,0,0.05,0,0.1v0.1c0,0,0,0,0,0.1v0
c0,0,0,0.05,0,0.1c0,0,0,0,0,0.1v0c0,0,0,0.05,0,0.1c0.9,0,1.9,0,2.8,0c0.62,0,1.2,0,1.8,0
h0c0-0,0-0,0-0v-0c0,0,0-0,0-0h0c0,0,0-0,0.1-0
c0,0,0-0,0-0H18.2c0-0,0-0,0-0v-0c0,0,0-0,0-0
c0,0,0-0,0-0h0c0-0,0-0,0-0h0l0.1-0.1h0
c0-0,0-0,0-0v-0.1c0,0,0-0,0-0v-0c0-0,0-0,0-0v-0h0
c0,0,0-0,0-0l0-0v-0.1c0,0,0-0,0-0h0
c0-0,0-0,0.1-0v-0c0,0,0-0,0.1-0v-0c0-0,0-0,0-0v-0
l0-0h0c0-0,0-0,0-0v-0.1c0,0,0-0,0-0h0v-0.1
c0,0,0-0,0-0h0l0-0v-0c0-0,0-0,0-0v-0.1h0l0-0
c0-0,0-0,0.1-0v-0l0-0h0c0-0,0-0,0-0h0
c0,0,0-0,0-0s0-0,0-0v-0h0c0-0,0-0,0-0v-0.1
c0,0,0-0,0-0c0,0,0-0,0-0l0-0c0,0,0.05,0,0.1,0v-0l0-0
v-0.1c0,0,0-0,0-0c0,0,0-0,0-0v-0.1h0l0-0
c0-0,0-0,0-0v-0c0,0,0-0,0-0h0v-0l0-0v-0
c0,0,0-0,0-0l0-0h0v-0h0c0,0,0-0,0-0l0.1-0.1v-0
c0,0,0-0,0-0c0,0,0-0,0-0h0c0-0,0-0,0-0v-0.1h0
c0-0,0-0,0-0c0-0,0-0,0-0c0,0,0-0,0-0
c0,0,0-0,0-0h0c0-0,0-0,0-0v-0.1c0,0,0-0,0-0
c0,0,0-0,0-0v-0c0,0,0-0,0-0c0,0,0-0,0-0h0
c0-0,0.05-0,0.1-0V11.77l0-0v-0h0c0-0,0-0,0-0
c0-0,0-0,0-0v-0h0v-0.11c0,0,0-0,0-0h0c0.1,0,0.1,0,0.2,0v-0
c0.2,0,0.4,0,0.7,0h0c0.1,0,0.2,0,0.3,0c0.05,0,0.1,0,0.1,0c0,0,0.1,0,0.1,0
c0.1,0,0.1,0,0.2,0h0c0.3,0,0.5,0,0.8,0h0.3v-0h0v-0l0-0V11.25l0-0h0.1v-0
c0-0,0-0.1,0-0.1c0-0,0-0.05,0-0.1c0-0,0-0.05,0-0.1c0-0,0-0,0-0.1v-0.1
c0-0,0-0.05,0-0.1c0-0,0-0.05,0-0.1c0-0,0-0.05,0-0.1c0-0,0.05-0,0.1-0.1
c0,0,0.05,0,0.1,0h0V10.32c0,0,0-0,0-0c0-0,0.1-0,0.1-0
c0.6,0,1.14,0,1.7,0V9.8c-0.42,0-0.9,0-1.3,0c-0.1,0-0.2,0-0.3,0c-0,0-0,0-0.1,0V9.1
c0.1,0,0.1,0,0.2,0c0.7,0,1.4,0,2.1,0c0-0,0-0,0-0l0-0c0,0,0-0,0-0
V8.9h0c0-0,0.1-0,0.1-0l0-0h0c0-0,0-0,0-0h0
c0.2,0,0.3,0,0.5,0c0,0,0,0,0.1,0h0c0,0,0.05,0,0.1,0v0h0l0,0.1
c0,0,0,0,0,0v0.3c0.8,0,1.6,0,2.4,0v0.1c0,0,0.05,0,0.1,0v0.1c0,0,0,0.1,0,0.1
v0c0,0,0,0,0,0.1c0,0,0,0.1,0,0.1c0,0,0,0,0,0.1c0,0,0,0,0,0.1v0
c0,0,0,0.05,0,0.1v0c0,0,0,0.05,0,0.1v0c1.14,0,2.3,0,3.5,0c0-0.05,0-0.1,0-0.1
c0-0.1,0-0.1,0-0.2c0-0.1,0-0.15,0-0.2c0-0.1,0-0.1,0-0.2c0-0.1,0-0.2,0-0.3c0-0,0-0.1,0-0.2
c0-0.1,0-0.1,0-0.2c0-0.1,0-0.1,0-0.2c0-0.1,0-0.1,0-0.2c0-0.1,0-0.2,0-0.3c0-0.05,0-0.1,0-0.2
c0-0.1,0-0.2,0-0.2c0-0.1,0-0.1,0-0.2c-0.2,0-0.5,0-0.7,0c0,0-0,0-0,0L33.67,7.5h-0
c-0,0-0.1,0-0.1,0h-0c0,0-0,0-0,0c-0,0-0,0-0,0V7.68h-0
v0c-0,0-0,0-0,0c-0,0-0.05,0-0.1,0l-0,0c-0,0-0,0-0,0
c-0.05,0-0.1,0-0.1,0L33,7.9c-0,0-0.1,0-0.1,0c-2.2-0-4.3-0-6.47-0v0
c-0.1-0-0.2-0-0.3-0h-0.1c0-0.1,0-0.1,0-0.1V7.5c0-0,0-0.1,0-0.1V7.3
c0-0.1,0-0.1,0-0.2c0-0.05,0-0.1,0-0.2c0-0.1,0-0.1,0-0.2c0-0.05,0-0.1,0-0.2c0-0.1,0-0.1,0-0.2
c0-0,0-0.1,0-0.1c0-0.1,0-0.1,0-0.2c0-0.05,0-0.1,0-0.2c0-0,0-0.1,0-0.1c0-0.1,0-0.1,0-0.2
c0-0.1,0-0.1,0-0.2c0-0,0-0.1,0-0.2c0-0.1,0-0.1,0-0.2s0-0.1,0-0.2c0.1,0,0.3,0,0.4,0l0,0
c2.2,0,4.4,0,6.5,0v0.1c0.05,0,0.1,0,0.2,0v0h0.1l0,0c0,0,0.1,0,0.1,0
l0.1,0h0c0.05,0,0.1,0,0.1,0V5.04c0,0,0.05,0,0.1,0c0,0,0,0,0,0
s0,0,0,0c0,0,0,0,0,0h0c0.2,0,0.3,0,0.5,0c0-0,0-0.1,0-0.1
c0-0.1,0-0.2,0-0.2c0-0.1,0-0.1,0-0.2c0-0.05,0-0.1,0-0.2c0.1,0,0.2,0,0.26,0c0,0,0,0,0.1,0
c0.8,0,1.6,0,2.4,0v0.4h-0c0,0.1,0,0.1,0,0.2c0,0,0,0.1,0,0.1c0.6,0,1.3,0,1.9,0V4.8
c0,0,0,0,0.1,0V4.7c0.2,0,0.3,0,0.52,0V4.6c-0,0-0-0-0.1-0V4.1l0-0V4
l0-0V3.85c0.1,0,0.2,0,0.3,0V3.85c0-0,0-0.1,0-0.11c0-0,0-0.1,0-0.1
c0-0,0-0.1,0-0.1c0-0,0-0.1,0-0.1V3.4l0-0V3.1c0.5,0,1,0,1.5,0v0.2
c0.1,0,0.1,0,0.2,0v0.52c-0,0-0,0-0,0v0.1c0,0,0,0.05,0,0.1v0c0.1,0,0.2,0,0.2,0
v0.7c0.2,0,0.4,0,0.6,0v0.2h0v0h0v0l0,0V5.04l0,0v0c0.4,0,0.9,0,1.3,0
c0-0.1,0-0.1,0-0.2c0-0,0-0.1,0-0.1h-0V4.4c0.77,0,1.5,0,2.3,0c0.1,0,0.2,0,0.4,0v0.2
c0,0,0,0.1,0,0.1v0.1c0,0.1,0,0.1,0,0.2c0.7,0,1.4,0,2.1,0h0c0-0,0-0,0-0
c0,0,0.1-0,0.1-0V5c0-0,0-0,0.1-0c0,0,0-0,0-0
c0,0,0.1,0,0.1,0c0,0,0.1,0,0.1,0c0-0,0.1-0,0.1-0c0.05-0,0.1-0,0.1-0h0.1
c0,0,0.05-0,0.1-0h0l0-0c0,0,0,0,0.1,0c0-0,0.05-0,0.1-0l0-0
c0,0,0.1,0,0.2,0c0,0,0.1-0,0.1-0c0-0,0.1-0,0.1-0h0
c0-0,0-0,0-0c0,0,0.1,0,0.2,0V4.52h0c0-0,0-0,0.1-0l0-0
c0,0,0.1,0,0.1,0c0,0,0.1-0,0.1-0h0c0-0,0.11-0,0.2-0h0
c0-0,0.1-0,0.1-0c0,0,0.1-0,0.1-0h0c0-0,0.1-0,0.1-0
c0.1-0,0.1-0,0.1-0l0-0c0.05,0,0.1,0,0.1,0c0.1,0,0.1,0,0.2,0h0
c0-0,0.1-0,0.1-0h0c0-0,0.1-0,0.1-0c0.1,0,0.1-0,0.2-0V4h0
c0-0,0-0,0.1-0V4c0.1,0,0.2,0,0.3,0c0.1,0,0.1-0,0.2-0h0
c0-0,0.1-0,0.2-0h0c0-0,0.1-0,0.1-0c0,0,0.1,0,0.1,0
c0.1-0,0.1-0,0.2-0c0.1-0,0.1-0,0.2-0l0-0c0,0,0.05,0,0.1,0h0
c0,0,0.1,0,0.1,0c0,0,0-0,0-0l0-0V3.6h0V3.6c0.1,0,0.2,0,0.3,0v0.1
c1.9-0,3.8-0,5.7-0h0c0,0,0.1,0,0.1,0c0.1,0,0.2,0,0.4,0v0.2c0,0,0,0.1,0,0.1
c0,0,0,0.1,0,0.1c0,0.05,0,0.1,0,0.2s0,0.1,0,0.2c0,0.1,0,0.1,0,0.2s0,0.1,0,0.2
c0,0.1,0,0.2,0,0.26c0,0,0,0.1,0,0.2c0,0.1,0,0.2,0,0.2c0,0.1,0,0.1,0,0.2c0,0,0,0.1,0,0.2
c0,0.1,0,0.1,0,0.2c0,0,0,0.1,0,0.2c0,0.1,0,0.1,0,0.2c0,0.1,0,0.1,0,0.2s0,0.1,0,0.2
c0,0.1,0,0.1,0,0.2c0,0.1,0,0.2,0,0.26c0,0.1,0,0.1,0,0.2c0,0.1,0,0.2,0,0.3c0,0.1,0,0.11,0,0.2
c0,0.1,0,0.1,0,0.2s0,0.1,0,0.2c0,0,0,0.1,0,0.2c-0.1,0-0.2,0-0.4,0V8.9c-1.9,0-3.8,0-5.7,0
H54.94c-0.2,0-0.36,0-0.6,0c-0.1-0-0.1-0-0.2-0c-0,0-0-0-0-0
c-0-0-0.1-0-0.2-0c-0,0-0.05,0-0.1,0c-0.1,0-0.1-0-0.2-0V8.7
c-0-0-0.1-0-0.11-0c-0.05-0-0.1-0-0.1-0l-0-0c-0.1-0-0.1-0-0.2-0
l-0.1-0c-0,0-0.05-0-0.1-0c-0.1-0-0.1-0-0.15-0c-0,0-0.1,0-0.1,0
c-0-0-0.1-0-0.11-0c-0,0-0.1-0-0.1-0c-0.05-0-0.1-0-0.1-0
c-0-0-0.1-0-0.1-0s-0.1-0-0.1-0V8.2c-0.05-0-0.1-0-0.1-0
c-0.05-0-0.1-0-0.2-0c-0,0-0.1-0-0.1-0c-0.1-0-0.1-0-0.1-0
c-0.1,0-0.1,0-0.2,0c-0,0-0.1-0-0.1-0c-0.1-0-0.1-0-0.2-0
C50.9,8,50.9,7.94,50.85,7.94c-0.05-0-0.1-0-0.1-0c-0.1,0-0.1-0-0.1-0
c-0-0-0.1-0-0.1-0H50.44c-0-0-0.1-0-0.1-0V7.8c-0,0-0.05,0-0.1,0V7.7
c-0,0-0,0-0.1,0c-0.05-0-0.1-0-0.1-0c-0,0-0.1-0-0.1-0
c-0.05-0-0.1-0-0.1-0c-0.05-0-0.1-0-0.1-0c-0-0-0.1-0-0.2-0
c-0.9,0-1.8,0-2.8,0v0c-0,0-0.1,0-0.1,0c0,0.1,0,0.1,0,0.1c0,0.1,0,0.1,0,0.2
c0,0.1,0,0.1,0,0.2c0,0.1,0,0.15,0,0.2c0,0.05,0,0.1,0,0.2c0,0.1,0,0.1,0,0.2
c0,0.1,0,0.2,0,0.3c0,0.05,0,0.1,0,0.2c0,0.1,0,0.1,0,0.2c0,0.1,0,0.1,0,0.2
c0,0.1-0,0.1-0,0.2c0,0.1,0,0.2,0,0.26c0,0,0,0.05,0,0.1c4.9,0,9.8,0,14.7,0v-0
c0-0,0-0.05,0-0.1s0-0,0-0.1V10c0-0,0-0.05,0-0.1V9.9c0-0,0-0,0-0.1V9.7
c0-0,0-0,0-0.1V9.6c0-0,0-0.05,0-0.1s0-0,0-0.1c0-0,0-0,0-0.1l-0-0V8.8
c0.1,0,0.1,0,0.2,0V8.7c0.9,0,1.7,0,2.6,0V8.72c0.1,0,0.2,0,0.3,0c0,0,0,0,0.1,0h0
v0l0,0c0,0,0.05,0,0.1,0v0h0l0,0c0,0,0.1,0,0.1,0v0h0
c0,0,0,0,0,0c0,0,0.1,0,0.1,0V8.72c0,0,0.05,0,0.1,0V8.7c0.3,0,0.6,0,0.9,0
h0l0,0v0c0,0,0.05,0,0.1,0v0.1h0v0l0,0c0,0,0,0,0,0v0.1h0
v0.1h0v0.1c0,0,0,0,0,0v0.1h0v0c0,0,0,0,0,0v0h0v0.1
c0,0,0,0,0,0v0.1L66.4,9.8v0.4c1,0,2,0,3,0c0-0,0-0,0.1-0
c0,0,0.1,0,0.1,0h0c2.2,0,4.4,0,6.6,0v0.26c0.2,0,0.3,0,0.5,0v0.3
c-0.1,0-0.3,0-0.41,0v0.2c0,0,0,0,0,0c0.1,0,0.2,0,0.26,0v0.1h0v0.4
c-0,0-0,0-0.1,0c0,0,0,0.1,0,0.1c0,0,0,0.11,0,0.2c0,0,0,0.1,0,0.1c0,0.05,0,0.1,0,0.2
c0,0.05,0,0.1,0,0.1c0,0.05,0,0.1,0,0.1c0,0.1,0,0.1,0,0.2c0,0.05,0,0.1,0,0.1c0,0.1,0,0.1,0,0.2
c0,0,0,0.1,0,0.1c0,0.05,0,0.1,0,0.2c0,0,0,0.1,0,0.1c0,0.1,0,0.1,0,0.2c0,0,0,0.1,0,0.1
c3,0,6.1,0,9.1,0c0-0,0-0.05,0-0.1c0-0,0-0.1,0-0.1c0-0.05,0-0.1,0-0.15c0,0,0,0,0.1,0
c0.1,0,0.3,0,0.4,0v0.2c0,0.05,0,0.1,0,0.1c0,0,0.1,0,0.1,0h0c0.2,0,0.4,0,0.6,0v-0.3
c0.1,0,0.1,0,0.2,0v0.1l0,0.1v0l0.1,0.1c0,0,0,0,0,0c0-0,0-0,0.1,0
c0-0,0-0.1,0-0.1c0-0,0-0.1,0-0.2c0-0,0-0,0-0.1c0.1,0,0.1,0,0.2,0v0
c0,0,0.1,0,0.1,0v0.1c0,0,0,0,0,0v0.2c1.6,0,3.2,0,4.8,0v-0.2c0.1,0,0.3,0,0.4,0
v0.2c1.3,0,2.6,0,3.9,0v0.2c0,0,0,0,0,0.1c0,0,0,0,0,0.1v0c0,0.05,0,0.1,0,0.1
C96.9,14.2,96.9,14.2,96.9,14.2z M63.3,10.2c0.5,0,1,0,1.5,0V10c-0.5,0-1.03,0-1.5,0V10.2z
 M43.9,5.5l0,0V5.5H43.9z M40,7.8c-0.3,0-0.6,0-0.9,0V7.5c-0.6,0-1.3,0-1.9,0v0h-0.1
v0c0,0.1,0,0.1,0,0.2c0,0.1,0,0.1,0,0.2c0,0,0,0.1,0,0.2c0,0.1,0,0.1,0,0.2
c0,0.1,0,0.1,0,0.2c-0,0.1-0,0.1-0,0.2c0,0.1,0,0.1,0,0.2c0,0,0.1,0,0.1,0
c2.2,0,4.5,0,6.7,0c0-0,0-0.05,0-0.1c0-0.1,0-0.2,0-0.3c0-0.05,0-0.1,0-0.2
c0-0.1,0-0.2,0-0.2c0-0.1,0-0.1,0-0.2c0-0.1,0-0.1,0-0.2c0-0.1,0-0.1,0-0.2c0-0.05,0-0.1,0-0.2
c-0.3-0-0.6-0-0.9-0h-0.1c-0.1,0-0.3,0-0.4,0v0.3c-0.3,0-0.7,0-1,0v0.3
c-0.5-0-1-0-1.5-0V7.8z M33.4,19v0.1h-0v0.26c-0,0-0.05,0-0.1,0
c0,0-0,0-0,0v0c0,0,0,0.1,0,0.1c0,0,0,0.05,0,0.1c0,0.05,0,0.1,0,0.1
c0,0.05,0,0.1,0,0.1c0,0,0,0.1,0,0.1c0,0,0,0.1,0,0.1c0,0,0,0.1,0,0.1c0,0,0,0,0,0.1
c0,0.05,0,0.1,0,0.1c0,0,0,0.1,0,0.1c0,0,0,0,0,0.1c0,0,0,0.1,0,0.1c0,0,0,0,0,0.1
h0c0,0,0,0,0,0v0.1l0.1,0.1v0.1l0,0c0,0,0,0,0,0
c0,0,0,0,0,0l0,0c0,0,0.1,0,0.1,0h0v0l0,0
c0,0,0,0,0.1,0c0,0,0.05,0,0.1,0c0,0,0,0,0.1,0
c0.05,0,0.1,0,0.1,0c1,0,2.1,0,3.1,0c0-0,0.1-0,0.1-0c0,0,0.1-0,0.1-0
c0-0,0.1-0,0.1-0v-0.1c0-0,0.05-0,0.1-0h0V21.29h0v-0l0.1-0.1v-0
c0-0,0.05-0,0.1-0v-0h0c0-0,0-0,0-0.1c0-0,0-0.05,0-0.1c0-0,0-0.1,0-0.1
c0-0,0-0.05,0-0.1v-0c0-0.05,0-0.1,0-0.1c0-0,0-0.1,0-0.1c0-0.05,0-0.1,0-0.1V20.36
c0-0,0-0.1,0-0.1c0-0,0-0.05,0-0.1c0-0,0-0,0-0.1c0-0,0-0.1,0-0.1v-0
c0-0,0-0.1,0-0.1c0-0,0-0,0-0.1c0-0,0-0.1,0-0.11l-0-0v-0.3c-0,0-0-0-0-0
c-0,0-0-0-0-0h-0l-0-0v-0.1c0-0-0-0-0-0v-0.1l-0.1-0.1H37.5
c-0,0-0.05,0-0.1,0h-0c-0.5,0-1,0-1.5,0h-0v0c-0,0-0,0-0,0h-0l-0,0
c-0,0-0,0-0,0c-0,0-0,0-0,0h-0c-0,0-0.05,0-0.1,0
c-0,0-0,0-0,0c-0,0-0,0-0.1,0l-0,0c-0,0-0,0-0,0h-0
v0c-0,0-0,0-0,0h-0v0l-0.1,0.1c-0,0-0,0-0,0h-0l-0.1,0.1
c-0,0-0,0-0.1,0v0l-0,0v0l-0,0v0l-0.1,0.1v0l-0,0V20.1
l-0,0v0l-0,0v0.1c-0,0-0.1,0-0.1,0v0.1c0,0,0,0,0,0
c0,0,0,0,0,0v0.2l0,0v0.2h0v0.1c0,0,0,0,0,0v0
c0,0,0,0,0,0c0,0,0,0,0,0v0.2c-0,0-0.1,0-0.1,0c-0,0-0.1,0-0.1,0
c-0,0-0.1,0-0.1,0l-0-0v-0h-0.1v-0h-0l-0.1-0.1v-0.1l-0-0v-0.1H34.19v-0
c-0,0-0-0-0-0v-0.1l-0-0V20.77h-0v-0.3l-0-0V20.36h-0v-0
c0-0,0-0,0-0.1v-0c0-0,0-0.05,0-0.1v-0.2c0-0,0-0,0-0.1v-0c0-0,0-0.1,0-0.1v-0.1
c0-0,0-0.05,0-0.1v-0.1c0-0,0-0,0-0.1v-0c0-0,0-0.05,0-0.1v-0.1l0-0v-0.26
c-0.1,0-0.2,0-0.3,0v0c-0.1,0-0.2,0-0.3,0H33.41v0H33.4z M22.1,11.8c0-0,0-0,0-0
v-0h-0V11.8z M3.5,17.2c0,0.1,0,0.1,0,0.2c0,0.1,0,0.1,0,0.2c0,0.1,0,0.1,0,0.2
c0,0.1,0,0.1,0,0.2s0,0.1,0,0.2s0,0.15,0,0.2c0,0.1,0,0.1,0,0.2c0,0.1,0,0.2,0,0.26
c0,0.05,0,0.1,0,0.2c0,0.1,0,0.1,0,0.2c0,0.1,0,0.15,0,0.2c0,0.1,0,0.1,0,0.2c0,0.1,0,0.1,0,0.2
c0,0,0,0.1,0,0.1c0.7,0,1.4,0,2.1,0c0-0,0-0,0-0.1v-0c0-0,0-0.05,0-0.1v-0
c0.1,0,0.1,0,0.2,0V19.84H5.8v-0.7c0-0,0-0,0-0c0-0.1,0-0.1,0-0.2c0-0.1,0-0.1,0-0.2
v-0.1c0-0,0-0,0-0.1c0-0.1,0-0.1,0-0.2c0-0.1,0-0.2,0-0.3c0-0,0-0.1,0-0.2
c0-0.1,0-0.1,0-0.2s0-0.1,0-0.2c0-0.1,0-0.1,0-0.2c0-0,0-0.1,0-0.1c-0.3,0-0.6,0-0.93,0
c-0,0-0.1,0-0.2,0c-0.4,0-0.8,0-1.19,0C3.5,17.1,3.5,17.1,3.5,17.2z M14.7,19.84
c0,0,0,0,0.1,0c0-0-0-0-0-0L14.7,19.84z"/>
</g>
</g>
</g>
<g id="guides">
</g>
</svg>
