<svg xmlns="http://www.w3.org/2000/svg"
 width="89.7px" height="32px" viewBox="0 0 89.7 32">
<g id="Selected_Items">
<g>
<g id="Selected_Items_63_">
<path fill-rule="evenodd" clip-rule="evenodd" fill="#FFFFFF" d="M26.5,2.11h0c0-0.03,0-0,0-0V2
c0,0,0.06,0,0.1,0V1.9h0l0-0V1.7l0-0V1.08c0-0.03,0-0.1,0-0.09V0.81c0.2,0,0.3,0,0.4,0
c0-0.03,0-0.1,0-0.1c0.2,0,0.4,0,0.6,0V0.72c0,0.06,0,0.1,0,0.2c0,0.06,0,0.1,0,0.18c0,0.09,0,0.2,0,0.2
c0,0.06,0,0.12,0,0.18c0,0.1,0,0.2,0,0.2c0,0.06,0,0.1,0,0.2c0,0.1,0,0.2,0,0.2c0,0.1,0,0.1,0,0.2
c0,0.1,0,0.1,0,0.1c0.15,0,0.3,0,0.4,0c0.21,0,0.4,0,0.6,0V2.2c0.2,0,0.4,0,0.6,0v0.18l0,0v0.1
c0.12-0.03,0.2-0.03,0.3,0V2.5c0-0,0-0.06,0-0.1c0-0.03,0-0.06,0-0.09s0-0.06,0-0.09c0-0.03,0-0.1,0-0.1
s0-0.06,0-0.09c0-0,0-0.06,0-0.1v-0.09h0.1V1.8c0.3,0,0.6,0,0.9,0V1.8c0.2,0,0.4,0,0.6,0
c0,0.06,0,0.1,0,0.1v0.2c0,0.03,0,0.1,0,0.1v0.09c0,0.03,0,0.06,0,0.09c0,0,0,0.06,0,0.1v0
c1.5,0,3.1,0,4.62,0V2.11h0c1,0,2,0,3,0v-0.09c0-0.03,0-0.1,0-0.1V1.9c0-0.03,0-0.06,0-0.09
c0-0.03,0-0.1,0-0.1V1.6c0-0,0-0.06,0-0.1V1.5c0.2,0,0.4,0,0.6,0v0.5c0,0,0,0,0,0
v0.18c0.1,0,0.3,0,0.4,0v0.8c-0,0-0.06,0-0.09,0v0.1h-0v0.18c-0.03,0-0,0-0,0v0
c-0.03,0-0,0-0,0v0.09h-0V3.59l-0,0v0.09l-0,0v0L39.9,3.86v0.09h-0v0
l-0,0l-0,0.1c0,0-0,0-0,0c0,0-0,0-0,0v0.1l-0,0v0h-0
v0.1h-0v0.1h-0v0.1c-0.03,0-0,0-0,0v0h-0v0l-0,0v0.1h-0v0
c0,0-0,0-0,0v0.1c-0.03,0-0,0-0,0v0h-0v0.1h-0v0.1h-0v0
c-0,0-0,0-0,0v0.1H39.01v0h-0v0.1l-0,0h-0v0.1H38.83v0.1h-0v0.18H38.74
c0,0.03-0,0-0,0v0L38.65,6.5l-0,0.1c-0.03,0-0,0-0,0v0
c-0.03,0-0,0-0,0v0h-0V6.91c0.5,0,1,0,1.5,0v0.4c1.1,0,2.2,0,3.32,0
c0.9,0,1.9,0,2.8,0v0.4c8.8,0,17.5,0,26.3,0v0.2c0.1,0,0.2,0,0.4,0V7.7c0.1,0,0.2,0,0.3,0
c0-0.1,0-0.1,0-0.2c0-0.09,0-0.2,0-0.3c0-0.09,0-0.18,0-0.27c0-0.09,0-0.2,0-0.27c0-0.06,0-0.1,0-0.2
c0-0.1,0-0.2,0-0.27c0-0.1,0-0.2,0-0.3c0-0.1,0-0.2,0-0.3s0-0.18,0-0.27c0-0.09,0-0.2,0-0.3
c0-0.1,0-0.2,0-0.3c0-0.1,0-0.1,0-0.2c0-0.1,0-0.2,0-0.3c0-0.1,0-0.18,0-0.27c0-0.1,0-0.2,0-0.3
c0-0.1,0-0.2,0-0.3c0-0.06,0-0.15,0-0.3c0-0.09,0-0.2,0-0.2c0-0.1,0-0.1,0-0.1c0.1,0,0.2,0,0.3,0
c0.1,0,0.24,0,0.4,0c0.1,0,0.2,0,0.3,0h0v0c0.06,0,0.1,0,0.1,0l0,0v0.3c0.09,0,0.18,0,0.3,0
h0c0,0,0.06,0,0.09,0V3.86c0,0.09,0,0.2,0,0.3v0c0,0.1,0,0.1,0,0.18c0.1,0,0.2,0,0.3,0
v0.4h0.09v0c0,0.1,0,0.1,0,0.3c0,0.1,0,0.2,0,0.2c0,0.1,0,0.2,0,0.3c0,0.1,0,0.2,0,0.2
c0,0.09,0,0.2,0,0.3c0,0.1,0,0.2,0,0.27c0,0.1,0,0.2,0,0.3c0,0.09,0,0.18,0,0.3c0,0.09,0,0.2,0,0.2
c0,0.1,0,0.2,0,0.2c0.12,0,0.24,0,0.4,0c0.12,0.03,0.2,0,0.3,0H75.7c0.03,0,0.1,0,0.1,0v0
c0,0.06,0,0.1,0,0.18c0,0.06,0,0.1,0,0.1c0,0.06,0,0.12,0,0.18c0,0.1,0,0.2,0,0.2c0,0.1,0,0.1,0,0.1v0.1
c0.09,0,0.2,0,0.2,0v0.1c0.6,0,1.2,0,1.84,0v0.2c0.03,0,0.06,0,0.1,0v0.6c-0.3,0-0.6,0-0.9,0v0.3
l-0.09,0v0c0.3,0,0.6,0,0.9,0v0.6c-0.7,0-1.4,0-2.1,0v0.1c2.9,0,5.8,0,8.7,0V10.05
c1.5,0,2.93,0,4.4,0c0.03,0,0.06,0,0.1,0v0.8c0,0.1,0,0.1,0,0.1s0,0.06,0,0.09v0.5c0,0.03,0,0.1,0,0.09
c0,0.03,0,0.1,0,0.1v0c0,0,0,0.1,0,0.1c0,0.03,0,0.06,0,0.09v0.1c0,0,0.1,0,0.1,0v0.6
c-0.12,0-0.2,0-0.3,0c-0.1,0-0.24,0-0.36,0c-1.6,0-3.2,0-4.7,0v0c-0.2,0-0.4,0-0.6,0
c0-0.03-0-0-0-0H82.92v-0.4c-2.6,0-5.1,0-7.7,0v0.4c-0.1,0-0.1,0-0.1,0v0.3
c-0.12,0-0.2,0-0.4,0v0c-0.03,0-0.06,0-0.09,0c0,0,0,0.1,0,0.1s0,0.1,0,0.1c0,0,0,0.1,0,0.1
c0,0.06,0,0.1,0,0.1c0,0,0,0.1,0,0.1c0,0.06,0,0.1,0,0.1c0,0,0,0.1,0,0.1c0,0.06,0,0.1,0,0.1
c0,0,0,0.1,0,0.1c0,0.03,0,0.1,0,0.1c0,0,0,0.1,0,0.1c0,0.03,0,0.06,0,0.09c0,0,0,0.06,0,0.09
c0,0.1,0,0.1,0,0.1c0,0.06,0,0.1,0,0.1c0,0.03,0,0.1,0,0.1v0.1c0,0.03,0,0.1,0,0.1c0,0,0,0.06,0,0.09
c-0.2,0-0.4,0-0.6,0v-0h-0.1c-0.2-0.03-0.4-0-0.6-0h-0.2l-0.1-0V14.49
c0.03,0,0.06-0,0.1-0c0-0.03,0-0.1,0-0.1c0-0,0-0.1,0-0.1c0-0.1,0-0.1,0-0.1
c0-0,0-0.1,0-0.1c0-0.03,0-0.1,0-0.1c0-0,0-0.1,0-0.1c0-0.03,0-0.1,0-0.1c0-0.1,0-0.1,0-0.1
c0-0.03,0-0.06,0-0.1c0-0.1,0-0.1,0-0.1c0-0.06,0-0.1,0-0.1c-0.1,0-0.18,0-0.3,0
c-0.03-0.03-0.1-0-0.1-0v-0.3c-0.1,0-0.2,0-0.4,0h-0c0,0.03-0,0-0,0v0.2
c0,0.03,0,0.06,0,0.1v0c0,0.03,0,0.1,0,0.1v0.1c0,0,0,0.1,0,0.1v0c0,0.03,0,0.06,0,0.1v0.1
c0,0.03,0,0.06,0,0.1v0.1c0,0.03,0,0.06,0,0.1v0.09c0,0.03,0,0.1,0,0.1v0h-0v0.1c-0.2,0-0.4,0-0.6,0
v0h-0v0.09h-0v0.09l-0.1,0.1v0c-0.03,0-0,0-0,0v0c0,0.03,0,0.1,0,0.1v0.09
c0,0.03,0,0.1,0,0.1c0,0.03,0,0.1,0,0.1c0,0.06,0,0.1,0,0.1c0,0,0,0.1,0,0.1v0.1c-0.15,0-0.3,0-0.5,0
L70.9,15.7h-0v0.09h-0v0.2c-0.27,0-0.5,0-0.8,0l-0-0c-6.16-0-12.3-0-18.5-0v0.2
c-0.24,0-0.5,0-0.7,0v-0.1h-0v-0.09c-0,0-0-0-0-0l-0-0v-0h-0v-0.09
c0-0.03-0-0-0-0c-2.2-0.03-4.4-0-6.6-0h-0l-0,0c-0,0-0,0-0,0
c-0,0-0.06,0-0.09,0l-0,0c-0.03,0-0.06,0-0.09,0c-0.03,0-0.06,0-0.09,0c0,0-0,0-0,0
l-0,0h-0c-0.03,0.03-0.06,0-0.09,0c0,0-0,0-0,0l-0,0c-0.03,0-0.06,0-0.1,0
v0c-0.03,0-0.06,0-0.1,0c-0,0-0.1,0-0.1,0l-0,0c-0.03,0-0.06,0-0.1,0
l-0,0h-0c-0.03,0.03-0.06,0-0.09,0c0,0.03-0,0-0,0l-0,0h-0
c0,0-0,0-0,0l-0,0h-0c-0,0-0,0-0,0l-0,0h-0
c-0.03,0-0,0-0,0l-0,0v0c0,0.1,0,0.12,0,0.18c0,0.1,0,0.12,0,0.2c0,0.06,0,0.1,0,0.1
c0,0.06,0,0.12,0,0.2c0,0.09,0,0.2,0,0.2c0,0.03,0,0.1,0,0.1c0,0.06,0,0.12,0,0.18v0.09c0.1,0,0.2,0,0.4,0v0.6
c-0.2,0-0.4,0-0.7,0h-0v1.3h0v0.4h0v0.4l0,0v0.3c0,0.03,0,0,0,0
v0.3h0v0.5l0,0c0,0.03,0,0,0,0v0.4c0,0,0,0,0,0v0l0,0v0.2
l0,0v0.1l0,0v0l0,0v0.2l0,0c0,0.03,0,0,0,0v0.2h0v0
c0,0,0,0,0,0v0.1l0,0v0l0,0v0h0v0.3l0.09,0v0.18
c0,0,0,0,0,0v0.1h0v0.1l0,0.09v0h0v0.2h0v0.09l0.1,0.1v0.2
c0,0,0,0,0,0c0,0.03,0,0,0,0v0.1l0,0v0.09h0v0.2h0v0.09l0,0.09
v0.09l0,0v0.09c0,0.03,0,0,0,0v0h0v0.1c0.03,0,0,0,0,0l0,0v0.1
c0,0.03,0,0,0,0v0.1c0,0.03,0,0,0,0l0,0.09v0.1c0.03,0,0,0,0,0v0
l0,0v0.1c0,0.03,0,0,0,0v0h0v0.2l0,0v0.1c0,0,0,0,0,0v0
c0,0,0,0,0,0v0h0v0.2l0.1,0v0l0,0v0.1c0.03,0,0,0,0,0v0
c0.03,0,0,0,0,0v0h0c0,0.03,0,0,0,0v0c0.03,0,0.06,0,0.09,0l0,0
v0.6h-0v0.1c-0.06,0-0.1,0-0.2,0v0.09c-0.09,0-0.2,0-0.3,0h-0c-0,0.03-0.06,0-0.09,0
c-0.03,0-0.1,0-0.1,0H43.54c-0.03,0-0.06,0-0.09,0l-0,0c-0.03,0-0.1,0-0.1,0
c-0.03,0-0.1,0-0.1,0c-0.03,0-0.06,0-0.1,0h-0l-0.09,0.1c-0,0-0.1,0-0.1,0h-0
c-0,0-0.1,0-0.1,0v0c-0.03,0-0.06,0-0.09,0h-0.09l-0,0h-0
c-0.03,0-0.06,0-0.1,0h-0c-0,0-0.1,0-0.1,0c-0.03,0-0.1,0-0.1,0h-0
c-0,0-0.06,0-0.1,0s-0.06,0-0.1,0l-0,0c-0.03,0-0.06,0-0.1,0c-0.06,0.03-0.1,0-0.1,0
c-0,0-0.1,0-0.1,0c-0,0-0.1,0-0.1,0h-0c-0,0-0.06,0-0.1,0h-0
c-0.03,0-0.06,0-0.1,0h-0c-0.06,0-0.09,0-0.09,0c-0,0-0.1,0-0.1,0h-0.1
c-0,0-0.06,0-0.09,0s-0.1,0-0.1,0c-0,0-0.06,0-0.09,0c-0.03,0-0,0-0,0
c-0.03,0-0.06,0-0.09,0H40.22l-0,0c-0.06,0-0.1,0-0.1,0c-0.09,0-0.18,0-0.27,0v0
c-0.03,0-0.1,0-0.1,0v0c-0.1,0.03-0.12,0-0.18,0c-0.03,0-0.1,0-0.1,0v0
c-0.03,0-0.06,0-0.1,0l-0.09,0c-0.1,0-0.1,0-0.1,0c-0.03,0-0.06,0-0.09,0v0
c-0.03,0-0.06,0-0.09,0c-0,0.03-0.1,0-0.1,0c-0.06,0-0.1,0-0.1,0c-0.1,0-0.2,0-0.3,0v0
c-0.06,0-0.1,0-0.1,0h-0c-0,0-0.1,0-0.1,0c-0.2,0-0.5,0-0.8,0V31.4h-0
c0-0.03-0-0-0-0v-0.2c-0.03,0-0-0-0-0l-0-0v-0.2c-0.03,0-0-0-0-0
v-0.2h-0v-0.2h-0v-0.3h-0.1v-0.27h-0v-0.1h-0v-0.09l-0-0v-0
c-0.03,0-0-0-0-0v-0.09h-0v-0.2l-0.1-0.09v-0.2h-0v-0.09c0-0-0-0-0-0v-0.09
c-0.03,0-0-0-0-0v-0.1c-0,0-0-0-0-0v-0.09l-0-0v-0.3c-0.03,0-0.06,0-0.1,0
v-0.3l-0-0v-0.1l-0-0v-0.2c0-0-0-0-0-0v-0.09h-0v-0.27l-0-0v-0.09h-0
c0-0.03-0-0-0-0v-0.18h-0v-0.1l-0-0v-0.2l-0-0v-0c-0,0-0-0-0-0
v-0.18c0-0.03-0-0-0-0v-0.1l-0-0v-0.09c-0.03,0-0-0-0-0v-0.09l-0-0v-0.1
l-0-0v-0.09L35.6,25.3v-0.09H35.51v-0.2l-0-0v-0.1l-0-0v-0.09h-0v-0.1l-0-0v-0.1
l-0-0v-0.09c0-0.03-0-0-0-0v-0.18h-0v-0.3c0-0-0-0-0-0v-0.1l-0-0
v-0.09c-0.03,0-0-0-0-0v-0.1h-0v-0.4c-0.03,0-0-0-0-0h-0v-0.27
c-0,0-0-0-0-0v-0.4l-0-0v-0.2l-0-0v-0.2h-0v-0.2l-0-0v-0.4
c0-0.03-0-0-0-0V20.95h-0v-0.4h-0v-0.3h-0v-0.1c0-0.03-0-0-0-0v-0.2
c-0.03,0-0-0-0-0v-0.1c-0,0-0-0-0-0c-2.2,0-4.5,0-6.7,0c-0.1,0-0.2,0-0.3,0
v0.2l-0,0v0c-0.03,0-0.06,0-0.1,0v0.09l-0,0v0.1l-0,0c0,0.03-0,0-0,0
c0,0.03-0,0-0,0v0.2c-0.03,0-0,0-0,0h-0.09v0.1l-0,0v0l-0.1,0.1v0.1
c-0.03,0-0,0-0,0v0.1H26.72v0l-0,0v0l-0,0v0c-0,0-0,0-0,0
v0H26.54v0c0,0.03-0,0-0,0l-0,0v0.1L26.4,21.8v0h-0v0.09
c-0,0-0,0-0,0v0l-0.1,0.09v0.09l-0.09,0v0.1h-0v0h-0v0
c0,0-0,0-0,0c0,0.03-0,0-0,0v0.09l-0,0v0l-0,0
c-0.03,0-0,0-0,0v0h-0l-0,0v0.09c0,0.03-0,0-0,0
c0,0-0,0-0,0l-0,0.1v0c-0,0-0,0-0,0v0l-0,0h-0v0
l-0,0v0.1c-0.03,0-0.06,0-0.1,0v0.09c-0,0-0,0-0,0v0l-0,0v0.09h-0v0
l-0,0h-0v0.18c-0,0-0,0-0,0c-0,0-0,0-0,0v0.09l-0,0v0
c0,0-0,0-0,0v0.09l-0,0v0.1c-0.03,0-0,0-0,0v0.1
c0,0-0,0-0,0v0.2c-0.03,0-0.06,0-0.09,0v0.3l-0,0v0.1h-0v0.6
c0,0-0,0-0,0v0c-0.24,0-0.5,0-0.7,0v-0c0-0-0-0-0-0l-0-0
c-0,0-0.06,0-0.09,0c-0-0.03-0.06-0-0.09-0v-0H23.49v-0c-0.06,0-0.1,0-0.1,0
c-0.03-0-0.06-0-0.09-0c-0.03-0.03-0.06-0-0.1-0h-0.1v-0c-0.03-0.03-0.1-0-0.09-0
s-0.1,0-0.1,0c-0.03-0.03-0.06-0-0.1-0v-0c-0.03,0-0.1,0-0.1,0v-0c-0.03,0-0.06,0-0.1,0
c0-0.03-0-0-0-0c-0.03-0.03-0.06-0-0.1-0H22.37c-0-0-0.1-0-0.1-0v-0
c-0.1,0-0.1,0-0.1,0c-0.03-0.03-0.1-0-0.1-0l-0.1-0.09c-0,0-0.1,0-0.1,0l-0-0h-0
c-0.03,0-0-0-0-0l-0.09-0l-0-0h-0c-0.03-0.03-0.06-0-0.1-0
c-0-0.03-0.1-0-0.1-0c-0.03-0-0.06-0-0.1-0l-0-0h-0.09c-0.03,0-0-0-0-0
l-0-0h-0v-0h-0.1c-0.03,0-0.06-0-0.09-0l-0.09-0c-0.03,0-0-0-0-0
c-0.06,0-0.1,0-0.1,0l-0-0c-0.03,0-0.1,0-0.1,0v-0c-0,0-0.1,0-0.1,0v-0h-0
c-0.06-0.03-0.1-0-0.1-0c-0-0.03-0.1-0-0.09-0v-0c-0,0-0.06,0-0.1,0h-0
c0-0-0-0-0-0c-0-0-0.1-0-0.1-0c-0,0-0.1,0-0.1,0v-0
c-0,0-0.06-0-0.1-0h-0c-0.1-0.03-0.12-0-0.18-0c0-0-0-0-0-0
c-0.03,0-0.1-0-0.1-0v-0c-0,0-0.1,0-0.1,0c-0-0.03-0.1-0-0.1-0h-0.09v-0h-0
l-0-0v-0c-0,0-0.1,0-0.1,0v-0.1h-0v-0.7h0v-0.1c0-0,0-0,0-0v-0.1h0
v-0.2c0.03,0,0-0,0-0h0c0.03,0,0-0,0-0v-0.1l0-0v-0l0-0
c0-0,0-0,0-0v-0l0-0v-0.09h0v-0h0V21.98l0-0v-0.09h0V21.8l0-0
v-0l0.1-0.1v-0h0v-0.1l0.1-0.09h0c0-0.03,0-0,0-0v-0l0.1-0.09
c0.03,0,0-0,0-0v-0c0-0.03,0-0,0-0c0.03,0,0-0,0-0
c0,0,0-0,0-0l0.1-0v-0l0-0c0-0.03,0-0,0-0v-0
c0-0.03,0-0,0-0v-0h0V20.59c0.03,0,0.06-0,0.1-0v-0c0,0,0-0,0-0
h0l0-0.09c0-0.03,0-0,0-0l0-0c0-0,0-0,0-0v-0
c0,0,0-0,0-0l0-0c0.03,0,0-0,0-0c0,0,0-0,0-0v-0
c0.03-0.03,0.1-0,0.09-0v-0c0-0.03,0-0,0-0l0-0v-0h0v-0.1
c0,0,0-0,0-0h0v-0l0-0h0c0-0.03,0-0,0-0v-0l0.1-0.1v-0
c0,0,0-0,0-0l0-0c0.03,0,0-0,0-0h0l0.09-0.09c0,0,0-0,0-0
v-0l0-0c0,0,0-0,0-0v-0h0v-0h0v-0l0-0
c0-0.03,0-0,0-0l0-0v-0c0.03,0,0-0,0-0c0.03,0,0-0,0-0v-0.09
l0-0h0v-0.1h0v-0.09l0-0c0.03,0,0-0,0-0v-0.09l0-0
c0,0,0-0,0-0v-0.2c0-0.03,0.1-0,0.1-0v-0.2c0.03,0,0-0,0-0v-0.4
h-0v-0.2c-0-0.03-0.1-0-0.1-0v-0.1h-0v-0L22.1,16.5v-0h-0l-0.2-0.18
c0-0.03-0-0-0-0l-0-0v-0h-0c-0.03-0.03-0.1-0-0.09-0h-0
c-0-0.03-0.1-0-0.1-0c0-0.03-0-0-0-0h-0c-0.03-0.03-0.1-0-0.1-0
c-0-0-0.06-0-0.1-0c-0.09-0.03-0.18-0-0.27-0h-0v-0c-0,0-0.1,0-0.09,0
c-0.06-0.03-0.1-0-0.1-0c-0,0-0.06,0-0.09,0c-0.03-0.03-0.06-0-0.1-0v-0h-0
c-0.1,0-0.1,0-0.1,0c-0.06-0.03-0.1-0-0.18-0c-0.06-0.03-0.1-0-0.1-0c-0.12,0-0.2,0-0.4,0
v-0.2c-0.06,0-0.1,0-0.2,0v-0c0-0.03,0-0.1,0-0.09c0-0,0-0.1,0-0.1c0-0.1,0-0.1,0-0.1
c0-0.03,0-0.1,0-0.09c0-0.1,0-0.1,0-0.1c0-0.06,0-0.1,0-0.1c0-0.03,0-0.1,0-0.1v-0c0-0.1,0-0.1,0-0.1
c0-0.1,0-0.1,0-0.1c0-0,0-0.1,0-0.1c0-0.03,0-0.06,0-0.09c0-0,0-0.1,0-0.1c0-0.03,0-0.1,0-0.09
c0-0.1,0-0.1,0-0.1c0-0.03,0-0.1,0-0.09v-0c-0.15,0-0.3,0-0.5,0v0.1c-0.1,0-0.2,0-0.3,0
c0,0,0,0.1,0,0.1c0,0.06,0,0.1,0,0.2c0,0.03,0,0.1,0,0.1c0,0.1,0,0.1,0,0.1c0,0.06,0,0.1,0,0.1
c0,0.06,0,0.12,0,0.2c0,0.03,0,0.1,0,0.1c0,0.1,0,0.1,0,0.1c0,0.06,0,0.12,0,0.2c0,0.03,0,0.06,0,0.09
c0,0.1,0,0.1,0,0.1l0,0v0.6c-0.1,0-0.1,0-0.2,0v0.1c-1,0-1.9,0-3,0v0.9
c-0,0-0.06,0-0.1,0v0.3c-0.2,0-0.4,0-0.6,0v-0h-0.1v0c-0.06,0-0.1,0-0.2,0
c-0.12,0-0.24,0-0.4,0c-0.18,0-0.4,0-0.6,0v0l-0,0v0.4c-0,0-0.06,0-0.1,0v0.3l-0,0v0.1
c-0.12,0-0.3,0-0.4,0c-0.4,0-0.7,0-1.1,0v-0.1c0-0.03,0-0.06,0-0.1v-0.09c0-0.03,0-0.06,0-0.09v-0
c0-0.03,0-0.1,0-0.09h-0c-0,0-0,0-0,0c-0.03,0-0.06,0.06-0.09,0.09l-0,0
c-0,0-0,0-0,0c-0.06,0-0.1,0-0.2,0c-0,0-0,0.06-0,0.09c-0.06,0-0.1,0-0.1,0
c-0.06,0-0.1,0-0.1,0c-0,0.03-0,0.06-0,0.1c-0.03,0-0,0-0,0
c-0.1,0-0.12,0-0.2,0c-0.03,0-0.06,0.1-0.1,0.1c-0.03,0-0,0-0,0
c-0,0-0.1,0-0.09,0c0,0.03,0,0.06,0,0.09c-0.06,0-0.1,0-0.1,0c-0.1,0-0.1,0-0.1,0
c-0.03,0.03-0.06,0-0.1,0c0,0.03,0,0.06,0,0.09c-0.1,0-0.1,0-0.1,0l-0,0
c-0.06,0.03-0.1,0.1-0.1,0.09c-0,0-0,0-0,0c-0.1,0.03-0.1,0.06-0.1,0.1
c-0.06,0-0.1,0-0.1,0c-0,0.03-0,0.1-0,0.09l-0,0c-0.06,0.03-0.1,0-0.1,0
c-0,0.03-0,0.1-0,0.1l-0.1,0c-0.03,0.03-0,0.1-0,0.09c-0,0-0,0-0,0
c-0.1,0-0.1,0-0.1,0v0c-0,0.03-0.1,0-0.09,0c-0,0.03-0.1,0.1-0.1,0.1v0
c-0.03,0.03-0.06,0.06-0.1,0.09v0l-0.1,0.1c0,0,0,0.1,0,0.09c-0.4,0-0.8,0-1.3,0c0-0.03,0-0.06,0-0.09
V19.11c0-0,0-0.06,0-0.09v-0.2c0-0,0-0.1,0-0.1c0-0.03,0-0.06,0-0.09v-0c0-0.1,0-0.1,0-0.1
c-0,0-0.06,0-0.1,0l-0,0c-0.06,0.03-0.1,0-0.2,0c0,0.03,0,0.1,0,0.1v0
c-0.06,0-0.1,0-0.18,0c-0.03,0-0.06,0-0.09,0c0,0.03-0,0-0,0
c-0,0.03-0.1,0-0.1,0c-0,0.03-0.06,0-0.1,0v0.09c-0.1,0.03-0.1,0-0.1,0
c-0.06,0-0.09,0-0.09,0c0,0.03-0,0-0,0c0,0.03-0,0-0,0V19.2c-0.03,0-0.06,0-0.09,0
c0,0.03,0,0.1,0,0.1s-0,0-0,0c-0.1,0-0.1,0-0.1,0l-0,0
c-0.03,0.03-0.06,0.1-0.09,0.1l-0,0v0c-0.03,0-0.06,0-0.09,0c-0.03,0.03-0,0.1-0,0.1v0H5.7
c-0,0.03-0.1,0-0.1,0c0,0.03-0,0-0,0c0,0.03-0,0.1-0,0.1l-0.09,0.09
c-0.03,0-0,0.1-0,0.09c-0.06,0-0.1,0-0.1,0l-0,0c-0,0.03-0.1,0-0.09,0
c0,0.03-0,0.06-0,0.09l-0,0c-0.03,0.03-0.1,0.1-0.09,0.09v0l-0.09,0.1c0,0.03-0,0-0,0
c-0.03,0.03-0,0.06-0,0.09c-0,0-0,0-0,0c-0.03,0-0,0.1-0,0.1
c-0.03,0-0.06,0-0.1,0v0c-0,0-0,0.1-0,0.1c-0.03,0-0.06,0-0.09,0c0,0.03,0,0.06,0,0.09
c-0.03,0-0.1,0-0.1,0c0,0.03-0,0.1-0,0.09c-0,0-0,0-0,0
c0,0.03-0,0-0,0c0,0,0,0.1,0,0.09H4.2c-0.03,0-0.1,0-0.1,0v0
c0,0.03-0,0.1-0,0.09c0,0.03-0,0-0,0c0,0,0,0.1,0,0.1V21.8c-0.06,0-0.1,0-0.1,0
v0c-0,0.03-0.1,0.06-0.1,0.09v0c0,0-0,0-0,0c0,0.03-0,0.06-0,0.09v0.1
c-0.1,0-0.09,0-0.09,0c0,0.03,0,0.06,0,0.09c-0,0-0,0-0,0l-0,0
c-0.03,0-0,0.1-0,0.09l-0,0v0c-0.03,0-0,0.06-0,0.1v0.09
c0,0-0,0-0.1,0c0,0.03,0,0.1,0,0.1v0c0,0.03-0,0.06-0,0.09v0.1
c-0.03,0-0.06,0-0.09,0v0.1c0,0,0,0.1,0,0.09v0.09c-0.1,0-0.2,0-0.3,0
c-0.3-0.03-0.6-0-0.9-0c-0.12,0-0.2,0-0.4,0c-0.06,0-0.09-0-0.09-0c0-0.03,0-0.06,0-0.09
c-0-0-0-0.06-0-0.1c-0,0-0-0-0-0v-0c0-0.03,0-0.1,0-0.1v-0
c0-0.03,0-0.06,0-0.09v-0.1c-0.03-0.03-0.06-0-0.1-0c0-0.03,0-0.1,0-0.09v-0c0-0.03,0-0.06,0-0.09v-0.09
l-0-0v-0c0-0.03,0-0.06,0-0.09v-0c0-0,0-0.06,0-0.1v-0l-0.09-0c0-0.03,0-0.1,0-0.1
c0-0.03,0-0.06,0-0.09v-0c0-0.03,0-0.06,0-0.1v-0c0-0.03-0-0-0-0c0-0.03-0-0.06-0-0.09v-0.1
c0-0.03,0-0.06,0-0.09c-0.03,0-0.06,0-0.1,0c0-0.03,0-0.06,0-0.09v-0.1c0-0.03,0-0.06,0-0.09V20.95c0-0.03,0-0.1,0-0.1
v-0c0-0.03-0-0.06-0-0.1c0-0.03,0-0.06,0-0.09v-0.1c0-0.03,0-0.06,0-0.09v-0c0-0.03-0-0.1-0-0.1
c-0.03,0-0-0-0-0v-0.1c0-0.03,0-0.1,0-0.1v-0c0-0,0-0.06,0-0.09L0.75,19.9v-0l-0-0
v-0c0-0.03,0-0.1,0-0.1v-0c0-0,0-0.1,0-0.1v-0.1c0-0.03,0-0.06,0-0.09c0-0,0-0.06,0-0.09V19.2
c0-0.03,0-0.1,0-0.09v-0.09c0-0,0-0.1,0-0.1v-0c0-0-0-0-0.09-0v-0c0-0,0-0.1,0-0.1
v-0.09c0-0.03,0-0.1,0-0.1v-0c0-0.03,0-0.06,0-0.09c0-0.03,0-0.1,0-0.1c-0.03,0-0-0-0-0v-0
c0-0.03,0-0.1,0-0.09v-0c0-0.03,0-0.06,0-0.1v-0.18c0-0.03,0-0.1,0-0.09v-0c0-0.03-0-0.1-0-0.09v-0
l-0-0v-0c0-0.03,0-0.06,0-0.09v-0.09c0-0,0-0.1,0-0.1v-0.1c0-0.03,0-0.1,0-0.09
c0-0.03-0-0-0-0v-0l-0-0c0-0.03,0-0.1,0-0.09v-0.09c0-0.03,0-0.1,0-0.09v-0.1
c0-0.03,0-0.1,0-0.09V16.33c0-0.03,0-0.1,0-0.09v-0.09c0-0,0-0.1,0-0.1H0.3c0-0.03,0-0.06,0-0.1v-0
c0-0,0-0.1,0-0.1v-0.1c0-0.03,0-0.1,0-0.09v-0.1c0-0.03,0-0.1,0-0.09v-0.09c-0-0.03-0-0.1-0-0.09
v-0.1c0-0.03,0-0.1,0-0.1v-0.09c0-0.03,0-0.1,0-0.1v-0c0-0.03,0-0.06,0-0.09v-0.2c0-0.03,0-0.1,0-0.09v-0
c0-0.03,0-0.1,0-0.09v-0.18c0-0.03,0-0.06,0-0.09v-0c0-0.1,0-0.1,0-0.1v-0c0-0,0-0.1,0-0.1
c-0-0.03-0-0.1-0-0.1l-0-0c0-0,0-0.1,0-0.1c0-0.03,0-0.06,0-0.1c0-0.1,0-0.1,0-0.1
s0-0.06,0-0.1c0-0.1,0-0.1,0-0.1c0-0.03,0-0.1,0-0.1c0-0.03,0-0.1,0-0.1v-0.1c0-0.03,0-0.06,0-0.09
c0-0.06,0-0.1,0-0.1c0-0.06,0-0.1,0-0.1c0-0,0-0.1,0-0.1c0-0.06,0-0.1,0-0.1c0-0.1,0-0.1,0-0.1
c0-0,0-0.1,0-0.1c0-0,0-0.1,0-0.1c0-0,0-0.1,0-0.1c0-0.03,0-0.06,0-0.09v-0.1c0-0.06,0-0.1,0-0.1
c0-0.1,0-0.1,0-0.1c0-0.03,0-0.1,0-0.1c0-0.03,0-0.1,0-0.1c0-0.03,0-0.1,0-0.1c0.03,0,0-0,0-0
l0-0c0-0.03,0-0.06,0-0.09v-0c0-0.03,0-0.1,0-0.1c0-0.03,0-0.06,0-0.09v-0.1c0-0.03,0-0.06,0-0.09v-0
c0-0,0-0.06,0-0.1V9.87c0-0.03,0-0.1,0-0.1V9.7c0-0.03,0-0.1,0-0.09V9.5c0-0.03,0-0.1,0-0.09V9.3
c0-0.03,0-0.06,0-0.09V9.2c0-0.03,0-0.06,0-0.09V8.9c0.03,0,0.06-0,0.1-0V8.8c0.4,0,0.9,0,1.3,0
v0.1c0.03,0,0.06,0,0.1,0v0l0,0v0.7c6.2,0,12.3,0,18.5,0c0,0,0-0,0-0l0-0
h0c0,0,0-0,0-0V9.6h0.09V9.5l0-0.09h0l0-0.1h0l0-0l0.09-0V9.2
c0.03,0,0.1-0,0.09-0l0-0h0V9.1c0-0.03,0-0,0-0h0V9l0.09-0.1
c0.03,0,0-0,0-0c0,0,0-0,0-0c0,0,0-0,0-0l0.09-0.1
c0.03,0,0-0,0-0h0c0-0.03,0-0,0-0V8.5l0.09-0c0-0.03,0-0,0-0h0
L22.1,8.21V8.2h0l0-0h0c0-0.03,0-0,0-0V8c0.03-0.03,0.06-0,0.1-0
c0.03-0.03,0.1-0,0.1-0c0.03,0,0.1-0,0.1-0l0.09-0.09c0.06,0,0.1,0,0.1,0V7.4
c0,0,0.06-0,0.09-0V7.2c0.2,0,0.4,0,0.6,0v0.1c2.2,0,4.4,0,6.5,0V6.91
c0-0.03-0-0-0-0V6.82L29.95,6.8V6.1c-0.09,0-0.2,0-0.3,0v0.4c-0,0-0,0-0,0
c-0.2,0-0.4,0-0.6,0V6.4l-0-0V6.1c-0.6,0-1.2,0-1.8,0v0.4h-0v0.1c-0.21,0-0.4,0-0.6,0V6.3
c-0.03,0-0.06,0-0.1,0V6.2c0-0.09,0-0.2,0-0.2s0-0.12,0-0.2c0-0.09,0-0.2,0-0.2c0-0.06,0-0.1,0-0.2
c0-0.06,0-0.1,0-0.2c0-0.06,0-0.1,0-0.2c0-0.06,0-0.1,0-0.2c0-0.1,0-0.2,0-0.2c0-0.1,0-0.1,0-0.2
c0-0.09,0-0.2,0-0.2c0-0.06,0-0.1,0-0.2c0-0.1,0-0.1,0-0.2c0-0.06,0-0.1,0-0.2c0-0.06,0-0.12,0-0.18
c0-0.1,0-0.1,0-0.2c0-0.1,0-0.12,0-0.18c0-0.1,0-0.2,0-0.2c0-0.06,0-0.1,0-0.2c0-0.06,0-0.12,0-0.2
c0,0,0.1,0,0.1,0v-0.18l0-0V2.11z M42.06,15.6l0-0H42.06V15.6z M33.2,16.4
c-0.9,0-1.9,0-2.8,0v0l-0,0.09h-0v0.1c-0.03,0-0,0-0,0v0.18l-0,0v0.1h-0
v0.2c0,0-0,0-0,0v0.7h0v0.1l0,0v0.09h0v0.2h0v0.6c0.9,0,1.72,0,2.6,0
v-0.27h0v-0c0.03,0,0-0,0-0h0l0.09-0.1h0v-0l0.1-0c0-0.03,0-0,0-0
l0.1-0.1h0.1l0-0c0-0.03,0-0,0-0l0.1-0.09c0,0,0-0,0-0
c0.03,0,0.1-0,0.09-0v-0c0,0,0.1,0,0.1,0v-0c0.03,0,0-0,0-0h0.09
c0-0.06,0-0.1,0-0.1c0-0.1,0-0.1,0-0.1c0-0,0-0.1,0-0.1c0-0,0-0.1,0-0.1s0-0.1,0-0.1
c0-0,0-0.1,0-0.1c0-0.03,0-0.1,0-0.1l-0-0c0-0-0-0-0-0c0-0.03-0-0-0-0
l-0.1-0c-0,0-0.06-0-0.09-0v-0c-0.03,0-0-0-0-0h-0c-0-0.03-0.06-0-0.09-0
v-0.1c-0,0-0.1-0-0.09-0c-0.03,0-0-0-0-0l-0-0h-0l-0-0
C33.2,16.4,33.2,16.4,33.2,16.4z M28.5,17.1c-0.03,0-0-0-0-0c-0.03,0-0-0-0-0
v-0c-0.09,0-0.2,0-0.3,0c0,0.06,0,0.1,0,0.1c0,0.1,0,0.1,0,0.2c0,0,0,0.1,0,0.1s0,0.1,0,0.1
c0,0.1,0,0.1,0,0.1c0,0.06,0,0.1,0,0.2c0,0.03,0,0.1,0,0.1c0,0.1,0,0.1,0,0.1c0,0.06,0,0.1,0,0.18
l0,0c0,0,0,0,0,0H28.2v0.09h0v0l0,0v0h0.09v0l0.1,0h0v0
c0,0.03,0.06,0,0.09,0h0v0h0l0.1,0v0.09c0.21,0,0.4,0,0.6,0v-0.09c-0,0-0.06,0-0.1,0
v-0.09c-0,0-0-0-0-0v-0h-0v-0c-0.03,0-0-0-0-0h-0v-0.1l-0-0
v-0.09c-0.03,0-0.06-0-0.09-0v-0.1h-0v-0.1l-0-0v-0.09l-0.1-0.1v-0h-0v-0
c0-0.03-0-0-0-0c0-0-0-0-0-0v-0.09l-0-0v-0h-0v-0.1l-0-0v-0.09
h-0v-0c-0.03,0-0-0-0-0V17.1z"/>
</g>
</g>
</g>
<g id="guides">
</g>
</svg>
