<svg xmlns="http://www.w3.org/2000/svg" width="99.75px"
 height="32px" viewBox="0 0 99.75 32">
<g id="Selected_Items">
<g>
<g id="Selected_Items_48_">
<path fill-rule="evenodd" clip-rule="evenodd" fill="#FFFFFF" d="M37.5,4.18c0-0,0-0,0-0.1
c0-0,0-0.05,0-0.1c0-0,0-0.1,0-0.1c0,0,0.05,0,0.1,0s0.1,0,0.1,0V3.9
c0.6,0,1.3,0,1.9,0c0.05,0,0.1,0,0.1,0c0.1,0,0.2,0,0.3,0c0.05,0,0.1,0,0.1,0
c0,0,0,0.1,0.1,0.1l0,0c0,0,0,0,0,0.1c0,0,0,0.05,0,0.1
c0,0,0,0,0,0.1c-0,0-0,0.1-0,0.1c-0,0-0,0.05-0,0.1
c-0,0-0,0-0,0v0c0,0,0,0,0,0.1s0,0.05,0,0.1c0,0,0,0.05,0,0.1v0
c0,0,0,0.05,0,0.1c0,0,0,0.05,0,0.1c0,0,0,0.1,0,0.1c0,0,0,0,0,0.1v0c0,0,0,0.05,0,0.1
s0,0.05,0,0.1c0,0,0,0,0,0.1c0,0,0,0.05,0,0.1h0c0,0,0,0,0,0
c0,0,0,0.1,0,0.1s-0,0.05-0,0.1c0,0-0,0-0,0.1l-0,0
c0,0,0,0,0,0.1c0,0,0,0,0,0.1c0,0,0,0.05,0,0.1c0,0.05,0,0.1,0,0.1v0c0,0,0,0.05,0,0.1
c0,0,0,0,0,0.1s0,0.05,0,0.1c0,0,0,0.1,0,0.1v0c0,0,0,0.1,0,0.1c0,0,0,0.1,0,0.1
c0,0,0,0.05,0,0.1V6.83c-0,0-0,0-0,0.1v0c2.5,0,5.1,0,7.7,0c0,0,0.05,0,0.1,0
c0-0,0-0,0-0c0.1-0,0.2-0,0.3-0.1c0-0,0.11-0,0.2-0
c0.1-0,0.2-0.05,0.2-0.1c0.1-0,0.1-0,0.2-0.1c0.1-0,0.2-0.05,0.3-0.1
c0.05-0,0.1-0,0.2-0.1c0.05-0,0.1-0.05,0.2-0.1c0.1-0,0.1-0.05,0.15-0.1
c0.1-0,0.15-0,0.2-0c0-0,0-0.05,0-0.1c0-0,0.1-0.1,0.1-0.1
c0-0,0.1-0,0.1-0c0-0,0.05-0.1,0.1-0.1c0.1,0,0.1-0,0.1-0
c0.05-0,0.1-0,0.2-0c0-0,0.1-0.1,0.1-0.1c0-0,0.05-0,0.1-0
c0,0,0.05-0,0.1-0h0c0-0,0-0.05,0-0.1c0-0,0-0,0.1-0.1l0.1-0.1
c0,0,0.1,0,0.1,0V5.5c0.6,0,1.12,0,1.6,0V5.5c0.2,0,0.4,0,0.6,0v0c0.1,0,0.2,0,0.3,0
c0,0,0-0,0-0c0.2,0,0.4,0,0.5,0l0,0c0.6,0,1.2,0,1.9,0c0,0,0.05,0,0.1,0
c0,0,0.1,0,0.1,0l0,0.1c0.05,0,0.1,0.05,0.1,0.1c0,0,0.05,0,0.1,0.1l0,0
c0,0,0,0,0,0.1c0,0,0,0,0,0.1c0,0-0,0.05-0,0.1c0,0-0,0.05-0,0.1
v0c-0,0-0.05,0-0.1,0c0,0.05-0,0.1-0,0.1c0,0,0,0,0,0.1s0,0,0,0.1v0
c0,0,0,0.05,0,0.1v0.1c0,0,0,0.05,0,0.1c0,0,0,0,0,0.1c0,0,0,0.1,0,0.1c0,0,0,0.1,0,0.1
c0,0,0,0.05,0,0.1c0,0,0,0.1,0,0.1c0,0.05,0,0.1,0,0.1c0,0,0,0.1,0,0.1c0,0,0,0.1,0,0.1
c0,0,0,0.1,0,0.11c0,0,0,0.1,0,0.1v0.1c0,0,0,0.1,0,0.1c0,0.05,0,0.1,0,0.1c0,0,0,0,0,0.1
c0,0,0,0.1,0,0.1c0,0,0,0.1,0,0.1V8.51c0,0,0,0.1,0,0.1c0,0,0,0.1,0,0.1
c0,0,0,0,0,0.1c0,0,0,0.1,0,0.1c0,0,0,0.1,0,0.1s0,0.1,0,0.1c0,0,0,0.05,0,0.1
c0,0.1,0,0.1,0,0.1c0,0,0,0.1,0,0.1s0,0.1,0,0.1c0,0,0,0.1,0,0.1c0,0,0,0.1,0,0.1
c0,0,0,0.05,0,0.1c0,0,0,0.1,0,0.1c0,0,0,0.1,0,0.1v0.1c0,0,0,0.1,0,0.1c0,0.05,0,0.1,0,0.1
c0,0.05,0,0.1,0,0.1s0,0.1,0,0.1c0,0,0,0.1,0,0.1c12.4,0,24.8,0,37.1,0c1.8,0,3.5,0,5.3,0
c0.1,0,0.1,0,0.2,0.1c0.05,0,0.1,0,0.1,0.1v0c0,0,0.1,0.1,0.1,0.1
c0,0,0.05,0.1,0.1,0.1l0,0.1c0,0.05,0,0.1,0,0.1c0,0.05,0,0.1,0,0.1c0,0.05,0,0.1,0,0.1
c0,0-0,0.1-0,0.1c0,0-0,0.1-0,0.1c-0,0-0.05,0.1-0.1,0.1v0.1
c0,0,0,0.1,0,0.1c0,0,0,0.1,0,0.11c0,0,0,0.05,0,0.1c0,0,0,0.1,0,0.1c0,0.05,0,0.1,0,0.1v0.1
c0,0,0,0.05,0,0.1c0,0,0,0,0,0.1v0c0,0,0,0.1,0,0.1c0,0-0,0.05-0,0.1
c-0,0-0,0.1-0,0.1c-0,0-0.1,0.1-0.1,0.11c-0.1,0-0.15,0.05-0.2,0.1
c-0.1,0-0.2,0-0.3,0c-0.1,0-0.1,0-0.2,0c-0.1-0-0.2-0.1-0.3-0.1
c-8-0-16-0-24-0.1c0,0,0,0.05,0,0.1c0,0,0,0.05,0,0.1c0,0,0,0.05,0,0.1
c0,0,0,0.1,0,0.1c0,0,0,0,0,0.1l0,0c0,0.05,0,0.1,0,0.1c0,0,0,0.1,0,0.1
c0,0,0,0.1,0,0.1c0,0,0,0.05,0,0.1c0,0,0,0.1,0,0.1v0.1c0,0,0,0.1,0,0.1
c0,0,0,0.1,0,0.1v0.1c0,0,0,0.1,0,0.1v0.1c0,0,0,0.1,0,0.1c0,0,0,0.1,0,0.1
c0,0,0,0,0,0.1c0,0,0,0.1,0,0.1v0.3c0,0.05,0,0.1,0,0.1c0,0,0,0.1,0,0.1v0.1
c0,0,0,0.1,0,0.1c0,0,0,0.1,0,0.1v0.1c0,0,0,0.1,0,0.1v0.1c0,0,0,0,0,0.1v0.7
c-0,0-0,0-0.1,0h-0c0,0,0,0.1,0,0.1c0,0.05,0,0.1,0,0.1c0,0,0,0,0,0.1
c0,0.05,0,0.1,0,0.1c0,0.05,0,0.1,0,0.1c0,0,0,0.1,0,0.1c0,0,0,0.1,0,0.1c0,0,0,0.1,0,0.1
c0,0,0,0,0,0.1c0,0,0,0.1,0,0.1c0,0,0,0.1,0,0.11v0.1c0,0,0,0.1,0,0.1
c-0,0-0.05,0.1-0.1,0.1c0,0.1-0,0.1-0,0.1c-0,0-0,0-0.1,0.1
c-0,0-0,0-0,0c0,0,0,0.1,0,0.1c0,0,0,0.1,0,0.1
c0,0-0,0.05-0,0.1c0,0-0,0.05-0,0.1c0,0.1,0,0.2,0,0.3c0,0.1,0,0.2,0,0.3
c0,0.1,0,0.2,0,0.3c0,0.1,0,0.15,0,0.2c0,0.1,0,0.2,0,0.3c0,0.1,0,0.2,0,0.26s0,0.2,0,0.3
c0,0.1,0,0.2,0,0.2c0,0.1,0,0.2,0,0.3c0,0.1,0,0.2,0,0.3c0,0.1,0,0.2,0,0.3c0,0.1,0,0.2,0,0.2v0
c0.05,0,0.1,0,0.1,0c0,0.05,0.05,0.1,0.1,0.1l0,0.1c0,0,0,0.05,0,0.1h0
c0,0.05,0,0.1,0.1,0.1c0,0.05,0,0.1,0,0.11c0,0,0,0.1,0,0.1c-0,0-0,0.1-0.1,0.11v0
c0,0,0,0.05,0,0.1v0.1c0,0,0,0.05,0,0.1s0,0,0,0.1c0,0,0,0,0,0.1c0,0,0,0.05,0,0.1v0
c0,0,0,0.05,0,0.1v0h-0v0h0c0,0,0,0,0,0h0c0,0,0.1,0.05,0.1,0.1
c0,0,0.05,0,0.1,0c0,0,0,0.05,0,0.1c0,0,0,0.05,0,0.1c0,0,0,0.05,0,0.1
c0,0,0,0.1,0,0.11v0c0,0,0,0.05,0,0.1c0,0,0,0,0,0.1c0,0,0,0.1,0,0.1
c0,0,0,0.05,0,0.1c0,0,0,0,0,0c0,0,0,0.1,0,0.1
c0,0,0,0,0,0.1c0,0,0.05,0.1,0.1,0.1c0,0,0,0,0,0
c0,0,0,0.05,0,0.1s0,0,0,0.1c0,0,0,0,0,0.1c0,0,0,0.1,0,0.1
c0,0,0,0,0,0c0,0,0,0.1,0,0.1c0,0,0,0,0,0.1c0,0,0,0.1,0,0.1
s0,0.05,0,0.1l0,0c0,0,0,0.1,0,0.1c0,0,0,0.05,0,0.1
c0,0,0,0,0,0.1c0,0,0,0,0,0c0,0,0,0,0,0.1c0,0,0,0.05,0,0.1
c0,0,0,0,0,0.1c0,0,0,0.1,0,0.1l0,0c0,0,0,0.05,0,0.1
c0,0,0,0.1,0,0.1c0,0,0,0,0,0.1c0,0,0,0.05,0,0.1v0
c0,0,0,0,0,0.1c0,0,0,0.1,0,0.1c0.05,0,0.1,0.05,0.1,0.1
c0,0,0,0,0.1,0c0,0,0,0,0,0.1c0,0,0.1,0.1,0.1,0.1c0,0,0,0.1,0,0.1
c0,0,0.1,0.05,0.1,0.1c0,0,0.1,0,0.1,0c0,0,0,0.05,0.1,0.1
c0,0,0,0.05,0,0.1c0,0,0.1,0.05,0.1,0.1c0,0,0,0.05,0,0.1s0,0.05,0,0.1
c0,0,0,0,0,0.1c0,0,0,0.05,0,0.1c0,0,0,0.05,0,0.1s0,0,0,0.1c-0,0-0,0-0,0
c-0,0-0,0-0,0.1c0,0,0.1,0,0.1,0c0,0.05,0,0.1,0,0.1c0,0,0,0.05,0,0.1
l0,0c0,0,0,0.1,0,0.1c-0,0-0.05,0.1-0.1,0.1c0,0,0,0.05,0,0.1
c-0,0-0,0-0,0.1c0,0-0,0-0,0.1c-0,0-0,0-0.1,0.1
c0,0,0,0.05,0,0.1c-0,0-0,0.1-0.1,0.1c0,0-0,0-0,0.1
c-0,0-0.1,0-0.1,0c0,0,0,0.05,0,0.1c0,0.05,0,0.1,0,0.1c-0,0-0,0-0,0.1v0
c0,0-0,0.05-0,0.1c-0,0-0,0-0.1,0c-0.05,0-0.1,0-0.1,0
c-0,0-0,0-0.1,0c-0.05,0-0.1,0-0.1,0c-0.6,0-1.2,0-1.8,0c-0.05-0-0.1-0-0.1-0
c-0-0-0.05-0-0.1-0.1c-0-0-0-0.05-0-0.1c0-0,0-0.1,0-0.1c0-0,0-0.05,0-0.1
c0-0,0-0,0-0.1v-0c0-0,0-0.1,0-0.1c0-0,0-0,0-0.1c0-0,0-0,0-0.1
c0-0,0-0.1,0-0.1c0-0,0-0.05,0-0.1v-0c0-0,0-0,0-0.1c0-0,0-0.1,0-0.1
c0-0,0-0.1,0-0.1v-0c0-0,0-0,0-0.1s0-0,0-0.1s0-0.05,0-0.1c0-0,0-0.05,0-0.1
c0-0,0-0.05,0-0.1c0-0,0-0,0-0.1c0-0,0-0.05,0-0.1c0-0,0-0.1,0-0.1c0-0,0-0.05,0-0.1v-0
c0-0,0-0.1,0-0.1c0-0,0.05-0.1,0.1-0.1c0-0,0-0.05,0-0.1c0-0,0-0,0-0.1
c0-0,0-0.05,0-0.1l0-0c0,0,0.05-0,0.1-0c0,0,0.1-0,0.1-0
c0,0,0.1-0,0.1-0h0l-0-0v-0c0-0,0-0.1,0-0.1s0-0,0-0.1
c-0-0-0-0-0-0.1c-0-0-0-0.1-0-0.1c0-0,0-0.1,0-0.1
c-0-0-0-0.05-0-0.1c-0-0-0-0-0.1-0.1c0-0-0-0.05-0-0.1
c0-0-0-0.05-0-0.1c-0,0-0-0-0.1-0c0-0,0-0,0-0.1c0-0,0-0.05,0-0.1
c0-0.1,0-0.1,0-0.1l-0-0c-0-0-0-0.05-0-0.1c-0-0-0-0.1-0.1-0.1
c0-0,0-0.05,0-0.1c0-0,0-0,0-0.1l-0-0c-0-0.05-0-0.1-0-0.1
c-0-0-0-0-0-0.1c-0-0-0-0-0-0.1c0-0-0-0.1-0-0.1v-0
c0-0-0-0.05-0-0.1c0-0-0-0-0-0.1c-0-0.1-0-0.1-0-0.1l-0-0
c-0-0-0-0-0-0.1c0-0,0-0,0-0.1c0-0-0-0-0-0.1c0-0-0-0.05-0-0.1
c-0-0-0.1-0-0.1-0c0-0.05,0-0.1,0-0.1c0-0,0-0.05,0-0.1c0-0,0-0,0-0.1
l0-0c-0.6,0-1.2,0-1.83,0c-0,0-0.1,0.05-0.2,0.1c-0.1,0-0.2,0-0.3,0
c-0-0-0.1-0-0.1-0h-0c-0,0-0.1,0-0.1,0c-0.1-0-0.1-0-0.2-0.1
c0-0.1-0-0.1-0.1-0.1c0-0,0-0.1,0-0.11c0-0.1,0-0.1,0-0.1c0-0.05,0-0.1,0-0.1
c0-0,0-0.1,0-0.1c0-0,0-0.1,0-0.1c0-0,0-0.1,0-0.1v-0.1c0-0,0-0.1,0-0.1
c0-0,0-0.1,0-0.1c0-0,0-0.05,0-0.1c0-0,0-0.1,0-0.1c0-0.05,0-0.1,0-0.11
c0-0.1,0-0.1,0-0.1c0-0-0-0.1-0-0.11c0-0,0-0.1,0-0.1
c0-0,0.05-0,0.1-0.1c0-0,0-0,0-0.1c0-0,0.1-0.1,0.1-0.1
c0.05-0,0.1-0,0.1-0.1c0.2,0,0.4-0,0.56-0v-0c0-0,0-0.1,0-0.1c0-0.05,0-0.1,0-0.1
c0-0,0-0.1,0-0.1c0-0,0-0.1,0-0.1c0-0,0-0.1,0-0.1c0-0,0-0.1,0-0.1
c-0.2,0-0.4,0-0.6,0c-0-0-0.1-0-0.1-0c-0.05-0-0.1-0.1-0.1-0.1
c0-0-0-0-0-0c0-0.05-0-0.1-0.1-0.1v-0.1c0-0,0-0.1,0-0.1c0-0.05,0-0.1,0-0.1
c0-0,0-0.1,0-0.1v-0.1c0-0,0-0.1,0-0.1c0-0,0-0.1,0-0.1c0-0,0.05-0.05,0.1-0.1v-0
c0-0-0-0.1-0.1-0.1c0-0.05,0-0.1,0-0.1c0-0,0-0.05,0-0.1c0-0,0-0.1,0-0.1
c0-0.05,0.05-0.1,0.1-0.1c0-0.1,0-0.1,0-0.1c0.1,0,0.1,0,0.2,0v-0c0.1,0,0.2,0,0.26,0
c0.1,0,0.2,0,0.3,0l-0-0c0-0,0-0.1,0-0.1c0-0,0-0.1,0-0.1c0-0,0-0.05,0-0.1
c0-0,0-0.1,0-0.1c0-0.05,0-0.1,0-0.1v-0.1c0-0,0-0.1,0-0.1c0-0.1,0-0.1,0-0.1
c0-0,0-0.1,0-0.1c0-0,0-0.1,0-0.1c0-0,0-0.1,0-0.1c0-0,0-0.1,0-0.1V18.21c0-0.05,0-0.1,0-0.11
c0-0.1,0-0.1,0-0.1c0-0,0-0,0-0.1c0-0,0-0.1,0-0.1c0-0.05,0-0.1,0-0.1c0-0,0-0.1,0-0.1
c0-0,0-0.1,0-0.1c0-0,0-0.1,0-0.1c0-0,0-0,0-0.1c0-0,0-0.05,0-0.1
c-0,0-0.1,0-0.1,0c-0.1-0-0.2-0.05-0.3-0.1c-0-0.05-0.05-0.1-0.1-0.1v-0h-0
c-0.05-0.05-0.1-0.1-0.1-0.1c-0-0.05-0.1-0.1-0.1-0.1c0-0,0-0.1,0-0.1c0-0,0-0.1,0-0.1
h-0v-0.1c0-0,0-0.05,0-0.1c0-0,0-0.05,0-0.1c0-0,0-0,0-0.1v-0.1c0-0,0-0.05,0-0.1
c0-0,0-0.05,0-0.1c0-0,0-0.05,0-0.1v-0.2c-0-0-0.05-0.1-0.1-0.1c0-0,0-0.05,0-0.1v-0
c-7.8,0-15.6-0-23.4-0c-0.05-0-0.1-0-0.1-0l-0,0c0,0-0,0.1-0,0.1
c-0,0-0,0.1-0.1,0.1c-0,0-0.1,0.1-0.1,0.1c-0.05,0-0.1,0.1-0.1,0.1
c-0,0-0,0.1-0.1,0.11c-0,0-0.05,0.1-0.1,0.1c-0,0.05-0.05,0.1-0.1,0.1
c-0,0.1-0.05,0.1-0.1,0.1c-0,0.05-0,0.1-0.1,0.1c-0,0-0.1,0.1-0.1,0.1
c-0,0-0.1,0.1-0.1,0.1c0,0-0,0.1-0,0.1c-0,0-0,0.1-0,0.1
c-0,0-0,0-0.1,0.1c-0,0-0.1,0.1-0.1,0.1c-0.05,0-0.1,0.1-0.1,0.1
c-0,0-0.05,0.05-0.1,0.1c-0,0.05-0.1,0.1-0.1,0.1c-0,0.05-0,0.1-0.1,0.1l-0,0.1
c-0.05,0.1-0.1,0.1-0.1,0.2c-0,0-0.05,0.1-0.1,0.1c-0,0-0.05,0.1-0.1,0.1
c0,0-0,0.1-0,0.1c-0,0-0.1,0.1-0.1,0.1c-0,0.05-0,0.1-0,0.1
c-0,0-0,0-0.1,0.1c-0,0-0,0.1-0,0.1c-0,0.1-0.1,0.1-0.1,0.1
c-0.1,0-0.1,0.1-0.1,0.1c-0,0-0,0.1-0.1,0.1c-0,0-0,0.1-0,0.1
c-0,0-0.05,0.05-0.1,0.1c-0,0-0,0.1-0,0.1c-0.05,0-0.1,0.1-0.1,0.1v0.1
c-0,0.05-0.1,0.1-0.1,0.1c-0,0-0.1,0.1-0.1,0.1c-0,0.05-0,0.1-0.1,0.1
c0,0-0,0.1-0,0.1c-0,0-0.05,0.1-0.1,0.1c-0,0-0.05,0.1-0.1,0.1
c-0,0-0,0-0.1,0.1c-0,0-0,0-0,0.1c-0.5,0-1.1,0-1.6,0v0
c-4.3,0-8.5,0-12.7,0c-0.1-0-0.2-0.05-0.3-0.1v0.1c-0,0-0,0-0,0V20.3h-0v0.1
l-0,0v0c-0,0-0.1,0-0.1,0v0c0,0-0,0-0,0v0.1
c-0,0-0,0-0,0v0c-0,0-0,0-0,0v0.1c0,0-0,0-0,0
c0,0-0,0-0,0v0H28.36v0.15c-0,0-0,0-0,0v0c-0,0-0,0-0,0
c-0,0-0,0-0,0v0h-0v0l-0,0v0c0,0-0,0-0,0v0.1
c0,0-0,0-0,0l-0,0v0.1l-0,0h-0c0,0-0,0.1-0,0.1l-0.5,1
l0.3,2.4c0,0.1,0,0.2-0.1,0.26c-0.1,0.1-0.1,0.1-0.2,0.1c-0.1,0-0.1-0-0.2-0
c-0,0-0,0-0.1,0.1c-0,0.1-0.1,0.1-0.2,0.15l-1.7,0.3c-0.1,0-0.1,0-0.2,0
l-2.5-1c-0.1-0.05-0.1-0.1-0.2-0.2c-0-0-0-0-0.1-0.1c-0.1-0.1-0.1-0.2-0.1-0.3
l0.1-0.7c0-0.1,0-0.2,0.11-0.2c0.1-0,0.1-0.05,0.15-0.1v-0.8c0,0,0-0,0-0v-0.5
c0,0,0-0,0-0v-0l0-0v-0.1c0-0,0-0,0.1-0v-0h0v-0.1
l0.1-0.1v-0.1c0,0,0-0,0-0c0,0,0-0,0-0h0.1v-0l0-0v-0.1
l0-0V21.42c0,0,0.05-0,0.1-0l0-0v-0c0,0,0-0,0-0l0-0v-0
l0-0h0c0-0,0-0,0-0v-0.1l0-0v-0l0-0v-0
c0,0,0-0,0-0l0-0v-0c0,0,0-0,0-0c0,0,0.1-0,0.1-0
l0.1-0.1v-0l0-0v-0.1c0,0,0.1-0,0.1-0l0-0V20.3c0,0,0-0,0-0
l0-0v-0.1c0-0,0-0,0-0l0.1-0.1v-0.1c0,0,0-0,0-0l0-0v-0
c0,0,0-0,0-0l0-0v-0l0-0v-0h0v-0.1c0-0,0-0,0-0
c0-0,0-0,0-0v-0l0-0v-0.1c0,0,0-0,0-0V19.18l0-0v-0
c0-0,0-0,0.1-0l0-0v-0l0-0V18.92l0-0v-0.1c0,0,0-0,0-0
l0-0v-0.3l-0.1-0.1v-0.1c-0,0-0-0-0-0V18.1l-0-0v-0l-0-0v-0.1
L24.5,17.8V17.39l-0-0c-0.05,0-0.1,0-0.1,0c-0.5,0-0.9,0-1.4,0c0-0-0-0-0-0v-0
c-0.1,0-0.2,0-0.3,0c-0.1-0-0.1-0-0.2-0v-0.2h-0v-0.3h-0c0,0,0,0.1,0,0.1
c0,0,0,0.1,0,0.1v0c0,0,0,0.1,0,0.1c0,0,0,0.1,0,0.1v0c-0.2,0-0.4,0-0.6,0v0h-0
v0h-0l-0,0c-0,0-0,0-0,0h-0c-0,0-0.05,0-0.1,0v0l-0,0
c0,0-0,0-0,0v0.1h-0c0,0-0,0-0,0v0c-0,0.05-0.05,0.1-0.1,0.1
l-0,0v0c-0,0-0.05,0-0.1,0v0.1c0,0,0,0.1,0,0.1c0,0,0,0.1,0,0.11v0
c-0,0-0.05,0-0.1,0v0c0,0.1,0,0.2,0,0.3l-0.4,0.6c-0.1,0.1-0.1,0.1-0.2,0.1
c-0.1,0-0.2,0-0.3,0c-0.1-0.1-0.1-0.1-0.1-0.2l-1.2,0.1c-0.1,0-0.1-0-0.2-0.1
c-0.1,0-0.2,0.1-0.3,0.1c-0.05,0-0.1,0.05-0.1,0.1c-0,0-0.05,0-0.1,0c0,0,0,0.1,0,0.1
c-0,0.1-0.1,0.2-0.2,0.2l-9.3,3.9c-0.1,0.1-0.2,0.1-0.3,0c-0.05-0-0.1-0-0.1-0.1
c-0.1,0-0.2,0-0.3,0s-0.2,0-0.3,0c0,0.05,0,0.1,0,0.1c0,0,0,0.1,0,0.1c0,0,0,0.1,0,0.1
c0,0.05,0,0.1,0,0.15c0,0.05,0,0.1,0,0.11c0,0,0,0.1,0,0.1c0,0,0,0.1,0,0.1c0,0.05,0,0.1,0,0.1
c0,0.1,0,0.1,0,0.15c0,0,0,0.1,0,0.1c0,0,0,0.1,0,0.1c0,0,0,0.1,0,0.1c0,0.05,0,0.1,0,0.1v0
c0.1,0,0.1,0,0.2,0.1c0.1,0.1,0.1,0.15,0.1,0.2v0.4c0,0.1-0,0.2-0.1,0.3
C7.65,26.1,7.6,26.1,7.5,26.1l-0,0c-0.1,0.1-0.2,0.1-0.26,0.1H5.4c-0.1,0-0.1-0-0.2-0.1
c-0,0-0.05,0-0.1,0c-0,0-0.1,0-0.1,0c-0.05,0-0.1,0-0.1,0
c-0.1-0-0.15-0-0.2-0.1c-0-0.05-0.1-0.1-0.1-0.1c0-0-0-0-0-0.1
c0-0,0-0.1,0-0.1c0-0.05,0-0.1,0-0.1c0-0,0-0,0-0.1c-1.1,0-2.3,0-3.4,0.1
c-0.1,0-0.15,0.05-0.2,0.1c-0.1,0-0.2,0-0.3,0c-0.1-0-0.2-0.1-0.3-0.1
c-0-0-0.1-0.1-0.1-0.1c-0-0-0-0.1-0.1-0.1c0-0,0-0.05,0-0.1
c0-0-0-0.1-0.1-0.1c-0,0-0-0-0.1-0.1c0-0.05,0-0.1,0-0.1c0-0,0-0.1,0-0.1
c0-0,0-0.05,0-0.1c0-0.05,0-0.1,0-0.1c0-0,0-0.1,0-0.1c0-0.05,0-0.1,0-0.1s0-0.1,0-0.1
c0-0,0-0.1,0-0.1c0-0,0-0.05,0-0.1c0-0,0-0.1,0-0.1c0-0.05,0-0.1,0-0.1c0-0.05,0-0.1,0-0.1
c0-0,0-0,0-0.1c0-0,0-0.1,0-0.1c0-0,0-0.1,0-0.1c0-0,0-0.1,0-0.1c0-0,0-0.1,0-0.1
c0-0,0-0.1,0-0.1c0-0,0-0.05,0-0.1c0-0,0-0.1,0-0.1s0-0.1,0-0.1v-0.1c0-0.05,0-0.1,0-0.1
c0-0.05,0-0.1,0-0.1c0-0.05,0-0.1,0-0.1c0-0,0-0.1,0-0.11c0-0,0-0.1,0-0.1c0-0,0-0.1,0-0.1v-0.1
c0-0,0-0.1,0-0.1c0-0,0-0.1,0-0.1c0-0,0-0.05,0-0.1c0-0,0-0.1,0-0.1c0-0,0-0.1,0-0.1
c0-0.1,0-0.1,0-0.1s0-0.1,0-0.1c0-0,0-0.1,0-0.1c0-0,0-0.05,0-0.1c0-0,0-0.1,0-0.1
c0-0.05,0-0.1,0-0.1c0-0.05,0-0.1,0-0.1c0-0,0-0,0-0.1c0-0,0-0.1,0-0.1c0-0.05,0-0.1,0-0.1
c0-0.05,0-0.1,0-0.1c0-0,0-0.1,0-0.1c0-0,0-0.1,0-0.11c0-0,0-0.1,0-0.1c0-0,0-0.1,0-0.1
c0-0.1,0-0.1,0-0.1c0-0,0-0.1,0-0.1c0-0,0-0,0-0.1c0-0,0-0.1,0-0.1c0-0.05,0-0.1,0-0.1
v-0.1c0-0,0-0.1,0-0.1c0-0,0-0.1,0-0.1c0-0,0-0.05,0-0.1c0-0,0-0.1,0-0.1
c0-0.05,0-0.1,0-0.1v-0.1c0-0,0-0.1,0-0.1c0-0.1,0-0.1,0-0.1c0-0,0-0.1,0-0.1
c0-0,0-0.1,0-0.1c0-0,0-0.1,0-0.1c0-0,0-0.1,0-0.1V18.21c0-0.05,0-0.1,0-0.11c0-0.1,0-0.1,0-0.1
c0-0,0-0,0-0.1c0-0,0-0.1,0-0.1c0-0.05,0-0.1,0-0.1c0-0,0-0.1,0-0.1c0-0,0-0.1,0-0.1
c0-0,0-0.1,0-0.1c0-0,0-0,0-0.1c0-0,0-0.1,0-0.1c0-0.05,0-0.1,0-0.1c0-0,0-0.1,0-0.11
c0-0,0-0.05,0-0.1c0-0.05,0-0.1,0-0.1c0-0,0-0.1,0-0.1v-0.1c0-0,0-0.1,0-0.1c0-0,0-0.1,0-0.1
c0-0,0-0.1,0-0.1s0-0.1,0-0.1c0-0.05,0-0.1,0-0.1v-0.1c0-0,0-0.1,0-0.1c0-0,0-0.1,0-0.1
c0-0.05,0-0.1,0-0.1s0-0.1,0-0.1c0-0,0-0.1,0-0.1c0-0,0-0.1,0-0.1v-0.1c0-0,0-0.1,0-0.1
c0-0,0-0.1,0-0.1c0-0,0-0.1,0-0.1c0-0.05,0-0.1,0-0.1c0-0,0-0.1,0-0.1c0-0.05,0-0.1,0-0.1
c0-0,0-0.1,0-0.1c0-0,0-0.1,0-0.1c0-0,0-0.05,0-0.1c0-0,0-0.1,0-0.1c0-0.05,0-0.1,0-0.1
c0-0,0-0.1,0.1-0.1c0.05-0,0.1-0.05,0.1-0.1c0.1-0,0.2-0,0.3-0v-0
c0.05,0,0.1,0,0.2,0.1c0-0,0.05-0,0.1-0c0,0,0.1,0,0.1,0v-0c1.2,0,2.3,0,3.47,0
c0,0,0.1,0,0.1,0c0-0,0-0.1,0.1-0.1c0.1-0,0.2-0,0.3-0v-0
c0.05,0,0.1,0,0.2,0.1c0.6,0,1.2,0.05,1.8,0.1c0-0,0-0.05,0-0.1v-0
c-0-0-0.1-0-0.1-0.1c-0-0-0.05-0.1-0.1-0.1c-0-0-0.1-0.1-0.1-0.1
c-0-0-0.1-0.1-0.1-0.1l-0-0.1c0-0,0-0.1,0-0.1s0-0.1,0-0.1s0-0.05,0-0.1
c0-0.05,0-0.1,0-0.1c0-0.05,0-0.1,0-0.1c0-0,0-0.1,0.1-0.1c0-0,0.05-0.1,0.1-0.1
c0-0,0-0.1,0-0.1c0-0,0-0.1,0-0.1v-0.1c0-0.05,0-0.1,0-0.1c0-0,0-0.1,0-0.1
c0-0,0-0.05,0-0.1c0-0.05,0.05-0.1,0.1-0.1c0-0.05,0.05-0.1,0.1-0.1h0
c0-0.05,0-0.1,0.1-0.1c0-0,0.05-0.1,0.1-0.1c0,0,0.05-0,0.1-0
c0,0,0.1,0,0.1,0v-0c3.8,0,7.6,0,11.4,0c0.1,0,0.1,0.05,0.2,0.1
c0,0.1,0.1,0.1,0.1,0.1c0,0,0,0.1,0,0.1c0,0,0.05,0.1,0.1,0.11l0,0
c0,0,0,0.05,0,0.1c0,0,0,0.1,0.1,0.1c0,0,0,0.1,0,0.1l-0,0.1
c-0,0.1-0,0.1-0.1,0.1c0,0,0,0,0,0.1s0,0.1,0,0.1v0c0,0.05,0,0.1,0,0.1
c0,0.05,0,0.1,0,0.1s0,0.1,0,0.1c0,0,0,0,0,0.1s0,0,0,0.1c0,0,0,0.1,0,0.11
c0,0.05,0,0.1,0,0.1s0,0,0,0.1c0,0,0,0.1,0,0.1c0,0,0,0.1,0,0.1v0c0,0,0,0.1,0,0.1
c0,0.05,0,0.1,0,0.1c0,0,0,0.1,0,0.1h-0v0c-0.05,0-0.1,0.1-0.1,0.1c0,0.1,0,0.1,0,0.1
c-0,0-0.1,0.1-0.1,0.1c-0,0-0.1,0.1-0.1,0.1v0c0,0,0,0.1,0,0.1l0,0v0
c0.6,0,1.23,0,1.8,0v-0c0,0,0,0,0.1,0v-0c0.1-0,0.2-0,0.3-0.1
c0.1,0,0.15,0,0.2,0.1c0.1,0,0.21,0,0.3,0c0.2-0,0.35-0,0.5-0
c0.1,0,0.2-0,0.3-0c0,0,0,0,0.1,0c0.05,0,0.1-0,0.1-0c0,0,0-0,0-0
c0.05,0,0.1,0,0.2,0c0-0,0-0,0-0c0-0,0.1-0,0.1-0c0,0,0-0,0-0
c0,0,0.1,0,0.1,0c0,0,0-0,0-0c0.05,0,0.1,0,0.1,0c0-0,0-0,0-0
c0,0,0.05-0,0.1-0c0,0,0.05,0,0.1,0h0c0,0,0-0,0-0c0,0,0,0,0.1,0
s0-0,0-0h0v-0c0,0,0.1,0,0.1,0c0-0,0-0,0-0
c0-0,0.1-0,0.1-0c0.05,0,0.1-0,0.1-0h0l0-0c0,0,0-0,0-0h0
c0-0,0.1-0,0.1-0c0,0,0.05-0,0.1-0h0l0-0h0c0,0,0-0,0-0
c0,0,0.1,0,0.1,0v-0c0-0,0.05-0,0.1-0c0,0,0-0,0-0h0
c0,0,0.05-0,0.1-0h0c0-0,0-0,0-0c0.1-0,0.1-0,0.15-0l0-0h0.1
c0-0,0.1-0,0.1-0L25,13.4h0l0-0c0-0,0-0,0.1-0
c0.05,0,0.1-0,0.1-0c0,0,0.1,0,0.1,0c0,0,0-0,0-0l0-0
c0-0,0-0,0-0c0.05,0,0.1-0,0.1-0c0,0,0-0,0.1-0
c0,0,0-0,0-0c0,0,0.1,0,0.1,0v-0c0-0,0.05-0,0.1-0s0-0,0-0
c0.05,0,0.1,0,0.1,0c0,0,0-0,0-0l0.1-0.1c0,0,0.1-0,0.1-0
c0,0,0-0,0.1-0c0,0,0-0,0-0h0c0-0,0-0,0-0
c0-0,0-0,0-0c0,0,0.05-0,0.1-0c0.05,0,0.1-0,0.1-0h0.1v-0l0-0
c0.1,0,0.1-0,0.1-0c0,0,0-0,0.1-0c0,0,0-0,0-0h0
c0-0,0-0,0-0v-0c0,0,0-0,0-0c0,0,0-0,0.1-0h0
c0,0,0-0,0-0c0,0,0-0,0-0c0,0,0-0,0.1-0h0
c0-0,0-0,0-0s0-0,0-0l0-0v-0h0l0-0c0,0,0,0,0.1,0
c0-0,0-0,0-0c0-0,0-0,0-0c0-0,0-0,0-0
c0,0,0-0,0.1-0c0,0,0-0,0.1-0l0-0c0,0,0,0,0.1,0l0-0
c0-0,0-0.1,0.1-0.1c0,0,0,0,0.1,0c0,0,0.1-0,0.1-0c0-0,0.05-0.1,0.1-0.1
c0-0,0-0,0-0.1c0,0,0-0,0.1-0c0,0,0.05,0,0.1,0v-0h0c0,0,0,0,0.1,0
v-0h0v-0h0c0-0,0.05-0,0.1-0c0,0,0.1-0,0.1-0h0c0.05,0,0.1,0,0.1,0
c0,0,0.1-0,0.1-0c0.1-0.1,0.2-0.1,0.3-0.1c0-0,0.1-0,0.1-0.1
c0.1,0,0.1,0,0.1,0c0.6-0,1.2-0.05,1.7-0.1c0.1-0,0.1-0,0.2-0
c0-0,0-0,0-0.1c0-0.1,0-0.1,0-0.1c-1.6,0-3.1,0-4.7,0v-0c-0,0-0.1-0-0.1-0
c-0,0-0,0-0.1,0c-0.2,0-0.4,0-0.6,0c-0.4,0-0.8,0-1.2,0v-0c-0,0-0.05-0-0.1-0v-0
c-0.05,0-0.1-0-0.2-0c-0-0-0.05-0.1-0.1-0.1v-0c0-0,0-0.1,0-0.1c0-0,0-0.05,0-0.1
c0-0,0-0.05,0-0.1c0-0,0-0.05,0-0.1V9.8c0-0,0-0,0-0.1c0-0,0-0.1,0-0.1c0-0,0-0.1,0-0.1
V9.5c0-0,0-0.1,0-0.1c0-0,0-0.05,0-0.1c0-0,0-0,0-0.1c0-0,0-0.1,0-0.1V9.18
c0-0,0-0.1,0-0.1c0-0,0-0.05,0-0.1c0-0,0-0,0-0.1c0-0,0-0.05,0-0.1V8.8c0-0,0-0.1,0-0.1
c0-0,0-0.05,0-0.1c0-0,0-0.1,0-0.1V8.51c0-0,0-0.1,0-0.1c0-0,0-0.1,0-0.1c0-0,0-0,0-0.1
c0-0-0-0-0-0.1V7.8c0,0,0-0,0-0c0-0.05,0-0.1,0-0.1c0-0,0-0.1,0-0.15V7.4
c0-0,0-0.1,0-0.1c0.1-0,0.1-0.05,0.1-0.1c0.05,0,0.1,0,0.2,0V7.2c0,0,0,0,0.1,0
V7.2h0c0-0,0-0.05,0-0.1c0-0,0.05-0.05,0.1-0.1c0-0,0-0,0-0
c0,0,0.1,0,0.1,0V6.9c0.92,0,1.8,0,2.8,0V6.9c0-0,0-0.1,0-0.1V6.8c0-0,0-0.05,0-0.1
c0-0,0-0,0-0.1c0-0,0-0.1,0-0.1V6.5c0-0,0-0,0-0.1c0-0,0-0,0-0.1s0-0.05,0-0.1
c0-0,0-0.1,0-0.1V6.2c0-0,0-0.1,0-0.1c0-0,0-0.05,0-0.1c0-0,0-0.05,0-0.1
c-0-0-0-0.05-0-0.1c-0,0-0-0-0-0c0-0,0-0.05,0-0.1c0-0,0-0,0-0.1
s0-0.1,0-0.1V5.5c0-0,0-0.05,0-0.1c0-0,0-0.05,0-0.1c0-0,0-0.05,0-0.1
c0-0,0-0.05,0-0.1V5.15c0-0,0-0,0.1-0.1l0-0C28.3,5,28.4,5,28.4,5
c0,0,0.05,0,0.1,0V5c0.7,0,1.4,0,2.1,0C30.6,5,30.6,5,30.7,5h0V5
c0,0,0.1,0.05,0.1,0.1c0,0,0,0.05,0.1,0.1c0,0,0,0,0.1,0
c0,0,0,0,0,0.1c0,0,0,0.05,0,0.1c0,0,0,0.05,0,0.1c0,0.05,0,0.1,0,0.1v0
c0,0,0,0,0,0.1c0,0,0,0,0,0.1s0,0.05,0,0.1c0,0,0,0.05,0,0.1v0c0,0.05,0,0.1,0,0.1
c0,0,0,0.05,0,0.1c0,0,0,0.05,0,0.1v0c0,0,0,0.1,0,0.1s0,0.05,0,0.1c0,0,0,0,0,0.1
c0,0,0,0.1,0,0.1v0c0,0,0,0,0,0.1c0,0,0,0.05,0,0.1s0,0.05,0,0.1s0,0.05,0,0.1v0
c0,0,0,0,0,0.1c2.1,0,4.3,0,6.3,0V6.9c0-0,0-0.1,0-0.1V6.8c0-0,0-0.05,0-0.1
c0-0,0-0,0-0.1c0-0,0-0.1,0-0.1V6.5c0-0,0-0,0-0.1c0-0,0-0,0-0.1s0-0.05,0-0.1
c0-0,0-0.1,0-0.1V6.2c0-0,0-0.1,0-0.1c0-0,0-0.05,0-0.1c0-0,0-0.05,0-0.1c0-0,0-0.05,0-0.1
V5.8c0-0,0-0.05,0-0.1c0-0,0-0,0-0.1s0-0.1,0-0.1V5.5c0-0,0-0.05,0-0.1c0-0,0-0.05,0-0.1
c0-0,0-0.05,0-0.1s0-0.05,0-0.1V5.15c0-0,0-0,0-0.1c0-0.1,0-0.1,0-0.1c0-0,0-0,0-0.1
c0-0,0-0.05,0-0.1V4.8c0-0,0-0.05,0-0.1c0-0,0-0,0-0.1s0-0,0-0.1V4.5c0-0,0-0.05,0-0.1
c0-0,0-0.05,0-0.1c0-0,0-0,0.1-0.1C37.5,4.2,37.5,4.2,37.5,4.18z M71.6,18.1
c0-0,0-0.1,0-0.1c0-0-0-0.05-0-0.1c0,0,0,0.05,0,0.1c0,0,0,0.1,0,0.1L71.6,18.1z
 M31,17.6c0,0,0,0.1,0,0.1c0,0,0,0.1,0,0.1c0,0,0,0.1,0,0.1c0,0,0,0,0,0.1
c0,0,0,0.1,0,0.1c0,0,0,0,0,0.1v0c0.05,0,0.1,0.05,0.1,0.1c0,0,0.05,0,0.1,0.1
c0,0,0,0.1,0,0.1c0,0,0,0.1,0,0.1c0.1-0,0.2-0,0.3-0c0.1,0,0.1-0,0.2-0
v-0c0,0,0.1,0,0.2,0c0.1-0,0.1-0.05,0.2-0.1c0.1-0,0.1-0.1,0.2-0.1
c0,0,0.05-0,0.1-0.1c0-0,0.1-0.05,0.1-0.1l0-0c0.05-0,0.1-0.1,0.1-0.1
c0-0.05,0.05-0.1,0.1-0.1c0-0,0.1-0.1,0.1-0.1c0-0,0.1-0.1,0.1-0.1
c0-0.05,0-0.1,0-0.1c0-0,0-0.1,0-0.11c0-0,0-0.1,0-0.1
c0-0,0-0.1,0-0.1v-0.1c0-0.05,0-0.1,0-0.1c-0.7,0-1.48,0-2.2,0l-0,0
c0,0.05,0,0.1,0,0.1c0,0,0,0,0,0.1c0,0.05,0,0.1,0,0.1C31,17.5,31,17.6,31,17.6z
 M29.9,18.6c-0.1-0-0.1-0.1-0.15-0.1c-0-0-0.1-0.1-0.1-0.1c-0-0-0.05-0.05-0.1-0.1
c0-0,0-0.1,0-0.1c0-0,0-0.1,0-0.1c0-0.05,0-0.1,0-0.1c0-0,0-0,0-0.1c0-0.05,0-0.1,0-0.1
c0-0.05,0-0.1,0-0.2v-0.1c0-0,0-0.1,0-0.1c0-0,0-0.1,0-0.1c0-0,0-0.05,0-0.1
c-0,0-0.1,0-0.1,0c0,0-0,0-0,0.1c0,0-0,0.05-0,0.1l-0,0
c-0,0-0.1,0-0.1,0l-0,0c-0.05,0-0.1,0.1-0.1,0.1c-0,0-0.1,0.1-0.1,0.1
c0,0,0,0.1,0,0.1c0,0,0,0.1,0,0.1s0,0.1,0,0.1c0,0,0,0.05,0,0.1c0.05,0,0.1,0,0.1,0
c0,0,0.1,0,0.1,0.1c0,0,0.05,0.1,0.1,0.1c0,0.1,0,0.1,0,0.1v0
c0.2,0,0.4,0,0.56,0V18.6z M23.9,16.9c0.1,0,0.2,0,0.3,0c0,0,0.1,0,0.1,0v-0
c-0.1,0-0.1,0-0.2,0c-0.1,0-0.2,0-0.26,0V16.9z M25,17.4v-0c-0,0-0.1,0-0.11,0v0
C24.9,17.4,25,17.4,25,17.4z M9.1,19.33c0,0-0,0-0,0c0,0-0,0-0,0v0.1
c0,0,0,0,0,0.1v0.1c0,0,0,0.05,0,0.1v0.1c0,0,0,0.05,0,0.1c0,0,0,0.05,0,0.1v0.1
c0,0,0,0.05,0,0.1c0,0,0,0.05,0,0.1v0c0,0,0,0,0,0.1V20.3c0,0,0,0.05,0,0.1v0
c0,0,0.1,0,0.1,0c0.05,0,0.1,0,0.15,0.1c0.2,0,0.36,0.1,0.6,0.1
c0,0,0.1,0.1,0.1,0.1l0-0.1h0c0,0,0.05-0,0.1-0h0c0-0,0-0,0-0
c0-0,0.05-0,0.1-0c0-0,0-0,0-0v-0c0,0,0-0,0-0
c0,0,0.1-0,0.1-0h0c0-0,0-0,0-0h0c0,0,0,0,0.1,0l0-0h0
c0,0,0-0,0-0c0,0,0-0,0-0v-0h0c0-0,0-0,0-0h0
c0,0,0.05,0,0.1,0c0-0,0.1-0,0.1-0c0,0,0-0,0.1-0c0,0,0.1-0,0.1-0
h0c0-0,0.05-0,0.1-0c0,0,0-0,0-0c0,0,0.1,0,0.1,0c0-0,0-0,0-0.1
c0-0.05,0.1-0.1,0.1-0.1c0-0.1,0-0.1,0.1-0.1c0-0,0-0.1,0-0.1c0-0,0-0.1,0-0.1
c0-0,0-0,0-0.1v-0c-0.9,0-1.8,0-2.7,0v0C9.2,19.3,9.2,19.33,9.1,19.33z M5.4,25.6
c-0,0-0.1,0-0.1,0l0,0C5.4,25.6,5.4,25.6,5.4,25.6z M22.9,24.6h0l-0-0V24.6z"/>
</g>
</g>
</g>
<g id="guides">
</g>
</svg>
