<svg xmlns="http://www.w3.org/2000/svg" width="41.5px"
 height="32px" viewBox="0 0 41.5 32">
<g id="Selected_Items">
<g>
<g id="Selected_Items_62_">
<path fill-rule="evenodd" clip-rule="evenodd" fill="#FFFFFF" d="M18.7,11.8h-3c-0.4,0-0.6,0.2-0.6,0.6v1.7
c0,0.4,0.2,0.6,0.6,0.6h1.6c0.6,0,1-0.2,1.4-0.5c0.4-0.34,0.6-0.7,0.6-1.1v-0.5
c0-0.2-0.1-0.4-0.2-0.6C19,11.9,18.9,11.8,18.7,11.8z M40.97,5.1c0.2,0.03,0.3,0.1,0.3,0.1
c0,0.03-0,0.2-0,0.5l-0.8,5.9c-0.1,0.5-0.6,0.8-1.3,1.1l-2.9,0.8
c-0.5,0.1-0.8,0.2-0.9,0.2L30.5,13.8c-0.4,0-0.6,0.1-0.6,0.34v1.9c0,0.6-0.2,0.8-0.6,0.8
c-0.3-0.1-0.5-0.1-0.7-0.1h-6.6c-0.5,0.1-0.9,0.2-1.1,0.2c-0.1,0-0.2-0.1-0.3-0.3
l-0-0.4c-0.4,0.7-0.9,1-1.3,1h-4.2c-0.5,0-0.8,0.34-0.8,1.02c-0.03,0.1-0.2,0.4-0.5,1.1
c-0.3,0.6-0.5,1.2-0.6,1.6c-0.8,3.2-1.3,5.3-1.4,6.3c-0.1,0.8,0,1.9,0.2,3.4
c0,0.5-0.34,0.58-1,0.3c-0.3,0.2-0.7,0.3-1.2,0.2c-0.68-0.1-1.9-0.4-3.7-0.8
c-2.2-0.5-3.6-0.8-4.2-1.1c-0.68-0.3-1.1-0.7-1.2-1.19c-0.2-0.5-0.1-1.4,0.1-2.5
C0.8,24.5,1.3,22.5,2.03,19.6c0.7-2.8,1.09-4.3,1.1-4.5c0.2-0.4,0.3-0.7,0.4-1.02
c0.2-0.6,0.3-1.1,0.34-1.5c0-0.4-0.2-0.9-0.7-1.5c-0.1-0.1-0.5-0.4-1.1-1.02
C1.8,9.7,1.6,9.4,1.6,8.9V4.6c0-0.6,0.1-1.1,0.4-1.4C2.2,2.96,2.5,2.7,2.9,2.3
c0.4-0.3,0.7-0.6,0.9-0.68c0.1-0.1,0.8,0,2,0.3c0.2,0,0.3,0.1,0.4,0.2
c0.1,0.1,0.1,0.1,0.2,0.1c0.2-0.1,0.9,0.1,2.04,0.34c0.3,0.1,1.3,0.1,3,0.1
c1,0,1.6,0.1,1.8,0.3c0.1,0.1,0.2,0.3,0.2,0.5l0.3-0.1c0.2-0.1,0.4-0.1,0.6-0.1h7.9
c0.3,0,0.7,0.1,1,0.3c-0.1-0.1-0.1-0.3-0-0.4c0-0.2,0.3-0.3,0.7-0.4
c0.17-0.03,0.4,0,0.7,0.1l0.4-0.4c0-0,0.1-0.1,0.1-0.3c0-0.2,0.1-0.3,0.3-0.4
c0.6-0.2,1.1-0.3,1.4-0.1c0.17,0.1,0.61,0.3,1.3,0.5c0.68,0.3,1.12,0.4,1.3,0.4
c0.1,0,0.3-0.1,0.6-0.2c0.2-0.1,0.4-0.1,0.6-0c0.4,0.1,1.5,0.3,3.53,0.7
c0.3,0.1,0.6,0.3,1.1,0.6c0.1,0.1,0.4,0.1,0.7,0c0.4,0,0.61,0,0.7,0
c0.14,0.1,0.2,0.1,0.2,0.2c0,0.1,0,0.2,0,0.2c0.1,0.1,0.8,0.3,1.87,0.5
c0.2,0.1,0.3,0.2,0.5,0.3c0.1,0.1,0.2,0.2,0.3,0.2s0.2-0.03,0.3-0.1
c0.1-0.1,0.2-0.1,0.3-0.1L40.97,5.1z"/>
</g>
</g>
</g>
<g id="guides">
</g>
</svg>
