<svg xmlns="http://www.w3.org/2000/svg"
 width="52.4px" height="32px" viewBox="0 0 52.4 32">
<g id="Selected_Items">
<g>
<g id="Selected_Items_49_">
<path fill-rule="evenodd" clip-rule="evenodd" fill="#FFFFFF" d="M24.6,2c0-0,0-0,0-0
c0.1-0,0.1-0,0.2-0l0-0c0-0.03,0.1-0,0.1-0l0-0
c0-0.03,0.1-0,0.1-0c0-0,0-0,0-0h0V1.6c0,0,0.1-0,0.09-0l0.1-0.1
c0,0,0-0,0-0c0,0,0-0,0-0c0.1,0,0.1-0,0.1-0
c0-0.03,0.1-0,0.1-0c0.1,0,0.19,0,0.3,0c0-0,0-0.1,0-0.1h0V1.21
c0.2,0,0.3,0,0.5,0v0c0.03,0.03,0.1,0,0.1,0v0c0,0,0.1,0,0.1,0l0,0
c0,0,0.1,0,0.1,0v0c0,0,0,0,0,0c0.1,0,0.1,0,0.1,0
c0.03,0,0.1,0,0.1,0c0,0,0,0,0,0c0.03,0,0.1,0,0.1,0
c0,0,0,0,0,0h0.1l0,0c0.03,0,0.06,0,0.1,0l0,0.1l0.1,0
c0.1,0,0.1,0,0.1,0c0,0,0.1,0.1,0.1,0.1V2.26c0,0,0,0.1,0,0.13v0.1
c0,0.06,0,0.1,0,0.1V2.87c0,0.1,0,0.1,0,0.1c0,0,0,0.1,0,0.1v0.1c0,0.1,0,0.1,0,0.13
c6.3,0,12.5,0,18.79,0V3.3c0-0,0-0.1,0-0.1c0-0,0-0.1,0-0.1c0-0,0-0.1,0-0.1
c0-0,0-0.06,0-0.1c0-0,0-0.06,0-0.1h0c0,0,0.1,0,0.1,0c0-0,0-0.1,0-0.1
c0.03,0,0-0,0-0h0c0-0,0-0.1,0-0.1h0c0-0.03,0-0.1,0-0.1
c0,0,0.1-0,0.1-0h0c0-0,0-0.1,0-0.1c0,0,0-0,0-0
c0,0,0-0,0-0V2.3c0-0,0-0,0-0l0-0V2.2c0.4,0,0.8,0,1.3,0v0
l0.1,0.1c0,0,0,0,0,0c0,0,0,0,0,0v0c0,0,0,0.1,0,0.1h0
l0,0c0,0,0.1,0.1,0.1,0.1c0,0,0,0.1,0,0.1c0.03,0,0.1,0,0.1,0
c0,0,0,0,0,0c0,0,0,0.1,0,0.1c0,0,0.1,0,0.1,0c0,0.1,0,0.1,0,0.1
c0,0,0,0.1,0,0.1v0.1c0,0.03,0,0.1,0,0.1c0.03,0,0.06,0,0.1,0c0,0.03,0,0.1,0,0.1
c0.1,0,0.2,0,0.3,0c0,0.06,0,0.1,0,0.13v0.09C49.5,3.73,49.6,3.8,49.6,3.79c0,0,0.1,0,0.1,0
c0,0,0,0.1,0,0.1h0c0,0,0.1,0,0.2,0v0.1c0,0.1,0,0.1,0,0.13v0.2
c0,0.06,0,0.1,0,0.1v0.1c0,0,0,0.1,0,0.1S50,4.75,50.08,4.75c0,0.06,0,0.1,0,0.1v0.1
c0,0,0.1,0,0.1,0c0,0.03,0,0.1,0,0.1c0,0,0,0.1,0,0.1c0,0,0,0.1,0,0.1
c0,0.03,0,0.1,0,0.1c0,0,0,0.06,0,0.1v0c0.06,0,0.1,0,0.2,0v0.1c0,0.03,0,0.1,0,0.1
c0.5,0,0.9,0,1.4,0c0,0,0,0.07,0,0.13c0.1,0,0.2,0,0.3,0c0,0,0,0.1,0,0.1c0,0,0,0.1,0,0.1
s0,0.1,0,0.1c0,0,0,0.1,0,0.1c0,0,0,0.1,0,0.1c0,0,0,0.06,0,0.1c0,0.03,0,0.1,0,0.1
c0,0,0,0.1,0,0.1c0,0,0,0.1,0,0.1c0,0.03,0,0.06,0,0.1c0,0.03,0,0.06,0,0.1c0,0.03,0,0.1,0,0.1
c0,0,0,0.1,0,0.1c0,0,0,0.1,0,0.1c0,0,0,0.1,0,0.1c0,0,0,0.1,0,0.1c0,0.03,0,0.1,0,0.1
s0,0.1,0,0.1c0,0.03,0,0.1,0,0.1c0,0,0,0.1,0,0.1c0,0,0,0.1,0,0.1c0,0,0,0.1,0,0.1v0.1
c0,0.03,0,0.1,0,0.1c0,0,0,0.1,0,0.1v0c-0.1,0-0.1,0-0.1,0c-0.5-0.03-1.1-0-1.6-0v0
c-0.1,0-0.1,0-0.1,0c0,0.1,0,0.1,0,0.1c0,0.03,0,0.1,0,0.1V8.42c-0.1,0-0.1,0-0.1,0
c0,0.1,0,0.1,0,0.13c0,0,0,0.1,0,0.1c0,0,0,0.06,0,0.1v0c-0,0.1-0.1,0.1-0.1,0.1
c0,0.03-0,0.1-0,0.1c-0,0-0.1,0.1-0.1,0.1c0,0,0,0.1,0,0.1v0
c-0.1,0-0.1,0-0.2,0c0,0.1,0,0.1,0,0.1v0c0,0-0,0-0,0
c0,0.03-0,0-0,0c0,0,0,0.1,0,0.1l-0,0c0,0.03-0,0-0,0v0L49.47,9.8v0.1
c-0,0-0,0-0,0c-0,0-0.1,0-0.2,0V9.95c0,0.1,0,0.1,0,0.13v0.1l-0,0v0
c-0.2,0-0.4,0-0.7,0v-0c-4.2-0-8.39-0.1-12.6-0.1v0c-0.3,0-0.5,0-0.7,0c0,0,0,0.1,0,0.1
V10.3c0,0.1,0,0.1,0,0.13c0,0,0,0.1,0,0.1c0,0.03,0,0.1,0,0.1s0,0.1,0,0.1c0,0,0,0.1,0,0.1
c0,0.03,0,0.1,0,0.1c0,0.03,0,0.1,0,0.1c0,0,0,0.1,0,0.1c0,0.03,0,0.06,0,0.1c0,0.03,0,0.1,0,0.1
c0,0,0,0.06,0,0.1c0,0,0,0.06,0,0.1c0,0,0,0.1,0,0.1c0,0,0,0.1,0,0.1c0,0.03,0,0.1,0,0.09
c0,0,0,0.1,0,0.1c0,0,0,0.1,0,0.1c0,0,0,0.1,0,0.1c0,0,0,0.1,0,0.1s0,0.1,0,0.1
c0,0,0,0.1,0,0.1c0,0,0,0.1,0,0.1c0,0,0,0.06,0,0.1c0,0,0,0.1,0,0.1c0,0,0,0.1,0,0.1
c0,0.03,0,0.1,0,0.1c0,0.03,0,0.1,0,0.1s0,0.1,0,0.1c0,0,0,0.1,0,0.1c-0.1,0-0.1,0-0.2,0v0.1
c-0.3,0.03-0.6,0.1-1,0.1v0c-0.3,0-0.5-0-0.8-0c-0.06,0-0.1,0-0.1,0c-0.1,0-0.1,0-0.2,0
v0.1c-0,0-0.1,0-0.1,0c-0.03,0-0.1,0-0.1,0c0,0,0,0.1,0,0.1c-0,0-0.1,0-0.1,0
c0,0,0,0.1,0,0.1v0h-0c-0.03,0-0,0.1-0,0.1h-0c0,0,0,0.1,0,0.1l-0,0h-0
c-0,0-0,0.1-0,0.1v0h-0c-0,0.03-0,0.06-0,0.1l-0.1,0.1c0,0,0,0.1,0,0.1
c-0,0-0,0-0,0h-0c-0,0.03-0,0.1-0,0.1v0.1c-0,0-0.1,0-0.1,0H31.99
c0,0,0,0.1,0,0.1c-0,0-0,0-0,0c-0,0-0,0-0,0v0
c-0,0.03-0.1,0-0.1,0l-0,0v0h-0c0,0,0,0.1,0,0.1c-0,0-0.1,0-0.1,0
v0c-0,0-0,0-0,0c-0.1,0-0.1,0-0.2,0l-0,0.1v0l-0.1,0.1v0.2
c0,0,0,0.1,0,0.1v0.1c0,0,0,0.1,0,0.1v0c0,0,0,0.1,0,0.1v0c0,0.03,0,0.06,0,0.1
c0,0.03,0,0.06,0,0.1v0.2c0,0.03,0,0.1,0,0.1c0,0.03,0,0.1,0,0.1v0.3c0,0,0,0.1,0,0.1v0.26
c0,0,0,0.1,0,0.1v0.3c0,0,0,0.1,0,0.1v0.3c0,0,0,0.1,0,0.1v0.3c0,0,0,0.1,0,0.1
c0.1,0,0.2,0,0.4,0c0,0.03,0.1,0.06,0.1,0.1c0,0.1,0,0.1,0,0.1c0,0,0,0.1,0,0.1
c0,0,0,0.1,0,0.1v0.1c0,0,0,0.1,0,0.1c0,0.03,0,0.1,0,0.1v0.13c0,0,0,0.1,0,0.1l0,0v0.4
c0,0-0,0-0,0v0l-0,0v0.3l-0,0V20c-0,0-0,0-0,0
c0,0.03-0,0-0,0v0c-0,0-0,0-0,0c0,0,0,0.1,0,0.1v0.1
c-0.1,0-0.1,0-0.1,0c-0,0-0.1,0-0.1,0c0,0-0,0-0,0
c-0,0-0.1,0-0.1,0v0h-0c-0,0-0.1,0-0.1,0c-0,0-0.1,0-0.1,0
c-0,0-0.06,0-0.1,0c0,0.03-0,0-0,0v0c0,0,0,0.1,0,0.1v0c-0,0-0.1,0-0.1,0
c0,0,0,0.1,0,0.1v0c0,0,0,0.06,0,0.1c0,0.03-0,0.1-0,0.1l-0,0v0
c0,0,0,0.1,0,0.1c0,0.03,0,0.06,0,0.1c0,0,0,0.1,0,0.1c0,0,0,0.06,0,0.1c0,0.03,0,0.1,0,0.09
c0,0,0,0.1,0,0.1s0,0.1,0,0.1c0,0,0,0.1,0,0.1c0,0,0,0.1,0,0.1c0,0.03,0,0.1,0,0.1
c0,0.03,0,0.1,0,0.1c0,0,0,0.1,0,0.1c0,0,0,0.1,0,0.1c0,0,0,0.1,0,0.1c0,0.03,0,0.1,0,0.1
c0,0,0,0.1,0,0.1s0,0.1,0,0.1c0,0,0,0.1,0,0.1c0,0,0,0.06,0,0.1c0,0.03,0,0.1,0,0.1v0.1
c0,0,0,0.1,0,0.1c0,0.03,0,0.1,0,0.09s0,0.1,0,0.1v0.1c0,0,0,0.1,0,0.1c0,0,0,0.1,0,0.1v0.1
c0,0,0,0.1,0,0.1c0,0,0,0.1,0,0.13v0.1c0,0,0,0.1,0,0.1V24.5c0,0.1,0,0.1,0,0.13v0.2
c0,0.1,0,0.1,0,0.1v0.2c0,0.1,0,0.1,0,0.1v0.1c0,0.03,0,0.1,0,0.1v0c0,0.1,0,0.1,0,0.1v0.1
c0,0,0,0.1,0,0.1v0c0,0.1,0,0.1,0,0.1v0.1c0,0,0,0.1,0,0.1c0,0,0,0.06,0,0.09
c0,0,0,0.1,0,0.1c0,0,0,0.1,0,0.1v1.5c0,0.03,0,0.1,0,0.1v0.5c0,0,0,0.06,0,0.1
c0,0.03,0,0.1,0,0.1v0.2c0,0,0,0.1,0,0.1c0,0.03,0,0.1,0,0.1v0c0,0.03,0,0.1,0,0.1v0.1
c0,0.03,0,0.06,0,0.1v0.2c0,0,0,0.1,0,0.1v0.3c0,0,0,0.1,0,0.1c0,0,0,0.1,0,0.1v0.2
c0,0.03,0,0.1,0,0.1s0,0.1,0,0.1v0.3c0,0,0,0.1,0,0.1v0.2c-2.3,0-4.69,0-7,0v-0.2
c0-0,0-0.1,0-0.1v-0.6c0-0,0-0.1,0-0.1c0-0.03,0-0.06,0-0.1v-0.2c0-0,0-0.1,0-0.1
c0-0,0-0.1,0-0.1v-0.2c0-0,0-0.1,0-0.1c0-0,0-0.1,0-0.1v-0.2c0-0,0-0.1,0-0.1
c0-0,0-0.1,0-0.1v-0.2c0-0,0-0.1,0-0.1c0-0,0-0.1,0-0.1v-0.2c0-0,0-0.1,0-0.1
c0-0,0-0.1,0-0.1V28.04c0-0.03,0-0.1,0-0.1v-1.5c0-0,0-0.1,0-0.1c0-0,0-0.1,0-0.1
c0-0.03,0-0.1,0-0.09c0-0,0-0.1,0-0.1V26.03c0-0.03,0-0.1,0-0.1v-0c0-0.03,0-0.06,0-0.1V25.68
c0-0,0-0.1,0-0.1v-0c0-0.03,0-0.1,0-0.1v-0.1c0-0,0-0.1,0-0.1v-0.2c0-0,0-0.1,0-0.1V24.63
c0-0,0-0.1,0-0.13v-0.2c0-0.1,0-0.1,0-0.1V24.02c0-0.1,0-0.1,0-0.13c0-0,0-0.06,0-0.1V23.67
c0-0.1,0-0.1,0-0.1c0-0,0-0.1,0-0.1v-0.1c0-0.03,0-0.1,0-0.1s0-0.06,0-0.09c0-0,0-0.1,0-0.1v-0.1
c0-0.03,0-0.06,0-0.1c0-0,0-0.1,0-0.1c0-0,0-0.1,0-0.1c0-0.03,0-0.1,0-0.1s0-0.1,0-0.1
c0-0,0-0.1,0-0.1c0-0,0-0.06,0-0.1c0-0,0-0.06,0-0.1c0-0,0-0.1,0-0.1c0-0.03,0-0.1,0-0.1
c0-0,0-0.1,0-0.1c0-0,0-0.1,0-0.1c0-0,0-0.1,0-0.1c0-0.03,0-0.1,0-0.1s0-0.1,0-0.1
c0-0.03,0-0.06,0-0.09c0-0,0-0.1,0-0.1c0-0,0-0.1,0-0.1c0-0,0-0.1,0-0.1c0-0,0-0.1,0-0.1
c0-0,0-0.06,0-0.1c0-0.03,0-0.06,0-0.1c0-0,0-0.1,0-0.1c0-0,0-0.1,0-0.1v-0.1h-0
c-0,0-0,0-0,0c0,0,0,0.1,0,0.1c-0.03,0-0.06,0.1-0.1,0.1
c-0,0.03-0,0.1-0,0.1v0c-0.03,0-0.1,0.1-0.1,0.1c-0.03,0-0,0.1-0,0.1
c-0,0.03-0,0.06-0,0.1c-0.4,0-0.7,0-1.1,0c0-0,0-0.1,0-0.1c-0.1-0-0.2-0-0.3-0
c-0-0-0-0.1-0-0.1c-0.1-0-0.2-0-0.3-0c0-0.03,0-0.06,0-0.1v-0
c-0,0-0.1,0-0.1,0c0-0.03,0-0.1,0-0.1c0-0.03,0-0.06,0-0.1c0-0.03,0-0.1,0-0.1c0-0,0-0.1,0-0.1
c0-0,0-0.1,0-0.1c0-0,0-0.1,0-0.1c0-0,0-0.1,0-0.1c0-0.03,0-0.1,0-0.1c0-0.03,0-0.1,0-0.1
c0-0,0-0.1,0-0.1c0-0,0-0.1,0-0.1c0-0.03,0-0.1,0-0.1c0-0.03,0-0.1,0-0.1c0-0,0-0.1,0-0.1
c0-0,0-0.1,0-0.1c0-0,0-0.1,0-0.1c0-0.03,0-0.1,0-0.1s0-0.1,0-0.1c0-0.03,0-0.1,0-0.1
c0-0,0-0.1,0-0.1c0-0,0-0.1,0-0.1v-0c0-0,0-0.1,0-0.1c0-0.03,0-0.1,0-0.09c0-0,0-0.07,0-0.13
v-0.1c0-0,0-0.1,0-0.1c-1.7,0-3.4,0-5.2,0c0,0,0,0.1,0,0.1c0,0.03,0,0.1,0,0.1v0.13
c0,0,0,0.1,0,0.1V19.3c0,0.1,0,0.1,0,0.1v0.1c-0.99-0-2-0-3-0v0l-0,0.1
c-0.03,0.1-0,0.1-0,0.1c-0,0-0.1,0-0.1,0.1l-0,0c0,0.1-0,0.1-0,0.1
c-0.03,0.1-0.1,0.1-0.1,0.1v0.1c-0.03,0-0,0.1-0,0.1l-0,0c0,0.1,0,0.1,0,0.1v0.2
c-0.1,0-0.1,0-0.1,0c0,0,0,0.1,0,0.1c0,0-0,0.1-0,0.1
c-0,0-0.06,0.1-0.1,0.1c0,0-0,0.1-0,0.1c0,0.03-0,0.1-0,0.1c0,0,0,0.1,0,0.1
c0,0,0,0.1,0,0.1c0,0,0,0.1,0,0.1c-0.03,0-0.1,0-0.1,0c-0,0-0,0.1-0,0.1
c0,0-0,0.1-0,0.1c-0,0-0.1,0.1-0.1,0.13l-0,0c0,0,0,0.06,0,0.1
c0,0,0,0.1,0,0.1c-0,0-0,0.1-0,0.1v0l-0,0.1l-0.1,0.1c0,0.03,0,0.1,0,0.1
c-0,0-0.1,0-0.1,0c0,0.1-0,0.1-0.1,0.1v0.1c0,0,0,0.1,0,0.1l-0,0v0.1
c0,0.06,0,0.1,0,0.1v0.13c-0.06,0-0.1,0-0.1,0c0,0,0,0.1,0,0.1l-0,0.1
c-0.06,0-0.1,0.1-0.1,0.1c0,0,0,0.1,0,0.1v0l-0,0.1c0,0,0,0.1,0,0.1
c0,0,0,0.1,0,0.13c-0.1,0-0.1,0-0.1,0v0.1c-0,0-0,0.1-0,0.1
c-0,0-0.1,0-0.1,0.1l-0,0V24.5c0,0.03,0,0.1,0,0.1v0c-0,0-0.1,0-0.1,0
c0,0,0,0.1,0,0.1c-0,0-0,0.1-0,0.1c-0,0-0,0.1-0,0.1c0,0.03,0,0.1,0,0.1
c0,0,0,0.1,0,0.1c-0.1,0-0.1,0-0.1,0c0,0,0,0.06,0,0.1v0.1c0,0.03,0,0.1,0,0.1
c-0.1,0-0.1,0-0.13,0c0,0.03,0,0.1,0,0.1c-0.03,0.06-0.1,0.1-0.1,0.1c0,0,0,0.1,0,0.1v0
c0,0.03,0,0.1,0,0.1l-0,0.1c-0.1,0-0.1,0.1-0.1,0.13v0.1c0,0.1-0,0.1-0,0.1
c-0.06,0-0.1,0.1-0.1,0.1v0.1c0,0.06,0.1,0.1,0.1,0.1c0,0,0,0.1,0,0.1
c0,0.03,0.1,0,0.1,0c0,0,0,0.1,0,0.1l0,0c0,0.03,0,0.1,0,0.1
c0,0,0,0.1,0,0.1c0,0,0.1,0.1,0.1,0.1c0,0,0,0,0,0v0.2c0,0,0,0.1,0,0.1
v0.2c0,0.03,0,0.1,0,0.1v0.1c0,0.1,0,0.1,0,0.1v0.1c-0.1,0-0.1,0-0.13,0c0,0,0,0.1,0,0.1
c0,0,0,0.1,0,0.1c0,0.03,0,0.06,0,0.1c-0.1,0.03-0.1,0.1-0.2,0.1c-0,0-0,0.1-0,0.1
c-0.3-0-0.6-0-0.9-0H9.5c0-0,0-0.1,0-0.1c-0.4,0-0.8-0-1.2-0V28.65
c-0.6-0-1.12-0.1-1.7-0.1c0-0.03-0-0-0-0c-0.6-0-1.2-0-1.8-0
c0-0.03,0-0.1,0-0.1c-0.2,0-0.4-0-0.5-0l-0-0c-0.5,0-1,0-1.5,0
c-0.1,0-0.1-0-0.1-0c-0.1-0.03-0.2-0-0.3-0c0-0-0-0-0.1-0
c-0.4-0.03-0.7-0.1-1.1-0.1c-0.03-0-0.06-0-0.1-0c0-0.1,0-0.1,0-0.1v-0.13
c-0.2,0-0.3-0-0.5-0c-0-0-0.1-0-0.1-0c0-0.1,0-0.1,0-0.1
c-0,0-0.06-0-0.1-0.1c-0,0-0.1-0-0.1-0.1v-0c0-0.1,0-0.1,0-0.1c0-0,0-0.06,0-0.1
c0-0,0-0.1,0-0.1v-0c0-0.1,0-0.1,0-0.1c0-0,0-0.1,0-0.1c0-0,0-0.1,0-0.1v-0
c0-0.1,0-0.1,0-0.1c0-0,0-0.1,0-0.1c0-0,0-0.1,0-0.1c0-0.03,0-0.06,0-0.1c0-0,0-0.1,0-0.1
c0-0,0-0.1,0-0.1c0-0.03,0-0.1,0-0.1c0-0,0-0.06,0-0.1c0-0,0-0.1,0-0.1
c0-0,0.1-0.06,0.1-0.1c0-0,0.1-0.06,0.1-0.09c0-0,0-0.1,0-0.1c0-0,0-0.1,0-0.1
c0-0,0.1-0.1,0.1-0.1c0-0,0-0.1,0-0.1c0-0.03,0-0.1,0-0.1c0-0,0-0.1,0-0.1
c0-0,0-0.1,0-0.1c0-0,0-0.1,0-0.1c0-0,0-0.1,0-0.1c0-0.03,0-0.06,0-0.1
c0-0.03,0-0.1,0-0.1c0-0.03,0-0.06,0-0.09c0-0,0-0.1,0-0.1c0-0,0-0.1,0-0.1v-0c0,0,0.1,0,0.1,0
v-0.1c0-0.1,0-0.1,0-0.1v-0.1c0-0,0.1-0,0.1-0c0-0.1,0-0.1,0-0.13
c0-0,0-0.06,0-0.1v-0.1c0-0.03,0.1-0,0.1-0c0-0.1,0-0.1,0-0.1c0-0,0-0.1,0-0.1
v-0.1c0-0,0.1-0,0.1-0v-0.09c0-0,0-0.1,0-0.1c0.1-0,0.1-0.1,0.2-0.1
c0-0.03,0-0.06,0-0.1c0-0,0-0.1,0-0.1c0-0,0-0.1,0-0.1c0.1-0.03,0.09-0.1,0.09-0.1s0-0.1,0-0.1
c0-0,0-0.1,0-0.1c0-0,0.1-0.06,0.1-0.1c0-0,0.1-0.06,0.1-0.1
c0-0,0.1-0.1,0.1-0.1c0-0.03,0-0.1,0-0.1c0.1,0,0.1,0,0.1,0c0-0.1,0-0.1,0-0.1
c0-0,0-0.06,0-0.1c0-0,0.1-0.1,0.1-0.1c0-0,0-0,0-0
c0-0.1,0-0.1,0-0.13c0-0,0-0.1,0-0.1c0.1-0,0.1-0.1,0.13-0.1v-0
c0-0.1,0-0.1,0-0.1c0-0,0-0.1,0-0.1c0-0,0-0.1,0-0.1v-0
c0.1-0,0.1-0,0.1-0c0-0.1,0-0.1,0-0.1c0-0.06,0-0.1,0-0.1l0-0.1
c0-0.03,0-0,0-0c0-0.1,0-0.1,0-0.1c0-0.1,0-0.1,0-0.13v-0.1
c0.1-0,0.1-0.06,0.1-0.1V20.26c0-0.1,0-0.1,0-0.13c0,0,0.1-0,0.1-0.1
c0-0,0-0.1,0-0.1c0-0,0.1-0.1,0.1-0.1c0-0,0-0.1,0-0.1
c0-0,0.1-0.1,0.1-0.09c0-0,0-0.1,0-0.1c0-0,0-0.1,0-0.1
c0.03-0,0-0.1,0-0.1c0-0,0-0.1,0-0.1c0-0,0.1-0.06,0.1-0.1
c0-0.03,0-0.1,0-0.1c0-0,0.1-0.1,0.1-0.1c0-0,0-0.1,0-0.1
c0-0,0.1-0.1,0.13-0.1c0-0,0-0.1,0-0.1h0.1c0-0.1,0-0.1,0-0.1
c0-0,0-0.1,0-0.1c0,0,0.06-0.03,0.1-0.1c0.1-0,0.1-0,0.1-0c0-0.06,0-0.1,0-0.1
v-0.1c0.06,0,0.1-0,0.1-0c0-0,0-0.1,0-0.1c0-0,0.1-0.1,0.1-0.1c0-0,0-0.1,0-0.1
c0.1-0,0.1-0.1,0.1-0.1c0-0,0-0.1,0-0.1c0-0.03,0-0.1,0-0.1c0.1,0,0.1-0,0.1-0
c0-0,0-0.1,0-0.1c0-0.03,0.1-0.1,0.1-0.1c0-0.03,0-0.1,0-0.1c0.1-0,0.1-0.1,0.13-0.1
c0-0,0-0.1,0-0.1c0-0,0.1-0.1,0.1-0.1c0-0,0-0.06,0-0.1c0.03-0.03,0.1-0.1,0.1-0.1
c0-0,0-0.1,0-0.1c0-0,0-0.1,0-0.1c0.1-0,0.1-0.1,0.1-0.1c0-0,0-0.06,0-0.1v-0.1
c0.1-0.03,0.1-0,0.13-0c0-0,0-0.1,0-0.1l0-0.1v-0c0-0.1,0-0.1,0-0.1
c0.1-0.1,0.1-0.1,0.1-0.1v-0.1c0.1-0.1,0.1-0.1,0.1-0.1c0-0.1,0-0.1,0-0.1l0-0.1
l0-0v-0.1c0-0.06,0-0.1,0-0.1c0,0,0.1-0,0.1-0.1c0-0,0-0.1,0-0.1v-0
c0-0,0-0.1,0-0.1c0.03-0,0.1-0,0.1-0c0-0,0-0.1,0-0.13v-0.2c-0.06-0.03-0.1-0.1-0.1-0.1
v-0.13c-0.1-0.03-0.1-0.1-0.1-0.1c0-0,0-0.1,0-0.1c0-0,0-0.1,0-0.1
c-0-0-0.06-0.1-0.1-0.1c-0,0-0.1-0-0.1-0c0-0,0-0.1,0-0.1c0-0,0-0.1,0-0.1
c-0-0-0.1-0.1-0.1-0.13v-0.1c-0-0-0.1-0.1-0.1-0.1c-0.03-0-0.1-0.1-0.13-0.1
c-0,0-0.1-0-0.1-0v-0.2c-0-0-0.1-0.1-0.1-0.1V12.79c0-0.1,0-0.1,0-0.1V12.44
c0-0,0-0.06,0-0.1c-0.7,0-1.4,0-2.1,0c0-0,0-0.1,0-0.1c-0.1-0-0.16-0-0.22-0v-0
c-0-0.03-0.1-0-0.1-0c-0.03-0-0.1-0.06-0.1-0.1C2.1,11.99,2.09,11.96,2.06,11.96
c-0.1-0.03-0.1-0.1-0.1-0.1c-0-0.03-0-0.1-0-0.1c-0,0-0.1-0-0.1-0
c0-0.03,0-0.1,0-0.1c-0-0-0.1-0.1-0.1-0.1v-0c-0-0-0.1-0.1-0.13-0.1
c-0,0-0.1-0-0.1-0v-0.1c0-0.03,0-0.1,0-0.1l-0.09-0.1c-0.1,0-0.1-0-0.2-0
c0-0.03,0-0.1,0-0.1c-0.03-0-0.06-0.1-0.1-0.1c0-0,0-0.1,0-0.1c0-0,0-0.1,0-0.1H1v-0.1
c0-0.1,0-0.1,0-0.1v-0.2c0-0.1,0-0.1,0-0.1V10c0-0,0-0.1,0-0.1V9.9c0-0.1,0-0.1,0-0.13V9.6
c0-0,0-0.1,0-0.1c0-0.03,0-0.1,0-0.1c0-0,0-0.06,0-0.1V9.3c0-0,0-0.06,0-0.1c0-0.03,0-0.1,0-0.1
s0-0.1,0-0.1c0-0,0-0.1,0-0.1c0-0,0-0.1,0-0.1c0-0,0-0.1,0-0.1c0-0.03,0-0.1,0-0.1
c0-0,0-0.1,0-0.1c0-0,0-0.1,0-0.1c0-0,0-0.1,0-0.1c0-0,0-0.1,0-0.1c0-0.03,0-0.1,0-0.1
c0-0,0-0.1,0-0.1c0-0,0-0.1,0-0.1c0-0.03,0-0.1,0-0.1c0-0,0-0.1,0-0.1c0-0,0-0.1,0-0.1
s0-0.1,0-0.1c0-0,0-0.06,0-0.1c0-0.03,0-0.06,0-0.1V7.5c0-0,0-0.1,0-0.1c0-0,0-0.1,0-0.1
c0-0,0-0.1,0-0.1V7.1c0-0,0-0.1,0-0.1c0-0,0-0.06,0-0.1c0-0,0-0.1,0-0.1V6.8
c0-0,0-0.1,0-0.1c0-0.03,0-0.1,0-0.1V6.41c0-0,0-0.1,0-0.1V6.1c0-0,0-0.06,0-0.1h0.1V6
c0-0,0-0.1,0-0.1c0-0.03,0-0.06,0-0.1s0-0.06,0-0.1c0-0,0-0.1,0-0.1s0-0.1,0-0.1
c0-0,0-0.1,0-0.1V5.4c0,0,0.1,0,0.1,0c0-0,0-0.06,0-0.1c0.1-0.03,0.2-0.1,0.3-0.1
c0-0.03,0-0.1,0-0.1c0-0.03,0-0.06,0-0.1h0c0.1,0,0.13-0,0.2-0
c0-0.03,0-0.1,0-0.1V4.9C1.8,4.9,1.9,4.8,1.9,4.75c0.1,0,0.1-0,0.2-0
c0-0,0.1-0.06,0.1-0.1C2.2,4.59,2.2,4.56,2.2,4.5c0.1-0,0.1-0.1,0.2-0.1
c0-0,0-0.06,0.09-0.1V4.3l0-0c0.1,0,0.1-0,0.1-0V4.2c0.1-0,0.1-0.1,0.2-0.1
l0-0c0.06-0,0.1-0.1,0.1-0.1C3.1,3.9,3.2,3.92,3.24,3.92c0-0.03,0-0.1,0-0.1
C3.3,3.8,3.4,3.8,3.5,3.7C3.5,3.7,3.5,3.7,3.59,3.7C3.6,3.6,3.6,3.6,3.6,3.57
c0.1,0,0.2,0,0.3,0c0-0,0-0.1,0-0.1c0.06-0,0.1-0.1,0.1-0.1V3.4
c0.1-0,0.1-0.1,0.2-0.1c0.1-0.03,0.1-0,0.1-0c0-0,0-0.1,0-0.1V3.1
c0.1,0,0.1-0,0.1-0H4.55V3h0V3c0-0,0-0.06,0-0.1V2.7c0.1,0,0.3,0,0.4,0
c0-0,0-0.1,0-0.1c0-0,0-0.1,0-0.1c0-0,0-0.06,0-0.1s0-0.1,0-0.1V2.39h0
c0-0,0.1-0,0.1-0c0-0,0-0.1,0-0.1h0c0.03-0.03,0-0.1,0-0.1
c0-0,0-0,0-0c0-0,0-0.1,0-0.1c0.3,0,0.6,0,0.9,0v0
c0.1,0,0.2,0,0.35,0V2.26c0,0,0,0.1,0,0.13v0.1c0,0.03,0,0,0,0
c0,0.06,0,0.1,0,0.1l0,0.1V2.87c0,0.1,0,0.1,0,0.1c0,0,0,0.1,0,0.1
c5.94,0,11.9,0,17.8,0V3.1c0-0,0-0.1,0-0.1c0-0.03,0-0.1,0-0.1V2.7c0-0.03,0-0.1,0-0.1V2.39
c0-0.1,0-0.1,0-0.13V2.04h0C24.5,2.04,24.5,2,24.6,2z M21.94,14.8c-0-0-0.1-0.1-0.1-0.1
c0-0,0-0.06,0-0.1c0-0,0-0.1,0-0.1c-0-0-0.06-0.1-0.1-0.1c0-0,0-0.1,0-0.1
c0-0,0-0.06,0-0.1v-0.1c-0.03-0.03-0.1-0.1-0.1-0.1v-0.1c-0,0-0.1-0-0.1-0
c0-0,0-0.1,0-0.1c-0-0-0.1-0.1-0.1-0.1c-0-0-0.1-0.1-0.1-0.1
c-0.2,0-0.41-0-0.6-0c-0.8,0-1.6,0-2.36,0l0,0c0,0.03,0,0.1,0,0.1v0c0,0.03,0,0.1,0,0.1
h0v0l0,0c0,0,0,0,0,0c0,0,0,0.06,0,0.1l0,0
c0,0,0,0.1,0,0.1h0c0,0,0,0.1,0,0.1h0c0,0,0,0,0,0
c0,0,0.1,0.1,0.1,0.1v0c0,0,0,0.1,0,0.1h0.1c0,0,0,0.1,0,0.1
c0,0,0.1,0,0.1,0l0,0c0,0,0,0.1,0,0.1h0v0.1c0,0,0.06,0,0.1,0
c0.03,0,0,0,0,0l0,0v0h0l0,0c0,0,0.1,0,0.1,0v0
c0,0,0,0,0,0h0c0,0.03,0.1,0,0.1,0s0.1,0,0.1,0
c0,0,0.1,0,0.1,0v0.1l0,0h0.1c0.03,0.03,0.1,0.06,0.1,0.1l0,0
c0,0,0,0.1,0,0.1l-0,0c-0,0-0,0.1-0,0.1l-0,0v0.1h-0c0,0,0,0.1,0,0.1
c-0,0-0,0-0,0c-0,0-0,0-0,0h-0l-0,0h-0c-0.1,0-0.3,0-0.35,0
c-0.1,0-0.1-0-0.1-0c-0.1,0-0.1,0-0.1,0c-0.03-0-0.1-0-0.1-0c-0,0-0.1,0-0.1,0
c-0-0-0.1-0-0.1-0l-0-0v-0c-0.03,0-0.1,0-0.13,0h-0.1c-0-0-0.1-0-0.13-0
c0-0-0-0-0-0l-0-0c-0,0-0-0-0-0c-0,0-0-0-0-0
c-0,0-0.1,0-0.1,0l-0-0v-0c0-0-0-0-0-0l-0-0
c-0.03-0-0.06-0-0.1-0c0-0-0-0-0-0c-0.03,0-0-0-0-0
c0-0-0-0-0-0l-0-0v-0c0-0-0-0-0-0l-0-0
c-0-0-0.1-0-0.1-0c0-0-0-0-0-0c-0.03,0-0-0-0-0
s-0-0-0-0l-0-0v-0c0-0-0-0-0-0c-0,0-0-0-0-0l-0-0
c-0.03-0-0.1-0-0.1-0c0-0-0-0-0-0c0-0.03-0-0.06-0-0.1h-0v-0.1
l-0-0v-0c-0-0.03-0.1-0-0.1-0v-0c0-0.03-0-0.06-0-0.1c0-0.03-0-0-0-0
c0-0-0-0-0-0v-0c0-0.03,0-0.1,0-0.1l-0-0c0-0,0-0.1,0-0.1v-0.1l-0-0
c0-0-0-0.1-0-0.1v-0c0-0,0-0.1,0-0.1c-0.03,0-0.1,0-0.1,0l-0,0
c-0.06,0.03-0.1,0.1-0.1,0.1v0c-0,0.03-0.1,0.1-0.1,0.1l-0,0
c-0,0.03-0,0.1-0,0.1c-0,0.06-0.1,0.1-0.13,0.1c0,0.1,0,0.1,0,0.1
c0,0-0,0.1-0,0.1c-0.1,0-0.1,0.1-0.1,0.1c0,0.1,0,0.1,0,0.1c0,0,0,0.1,0,0.1
c-0,0-0.1,0.1-0.1,0.13c-0,0-0.1,0.1-0.1,0.1c-0.03,0.1-0,0.1-0,0.1
s-0.03,0.1-0.1,0.1c0,0.03-0,0.1-0,0.13c0,0,0,0.1,0,0.1c0,0,0,0.1,0,0.1
c-0,0-0.1,0.1-0.13,0.1c0,0.03,0,0.1,0,0.13c-0,0-0,0.1-0,0.1
c-0,0-0.1,0.1-0.13,0.1c0,0,0,0.1,0,0.1c0,0,0,0.1,0,0.1c-0,0-0,0-0,0.1
c-0,0-0.1,0.1-0.1,0.1c0,0,0,0.1,0,0.1c2.2,0,4.3,0.1,6.4,0.1c0-0,0-0.1,0-0.1
c0-0,0-0.06,0-0.1c0-0,0-0.1,0-0.1c0-0.03,0-0.1,0-0.1c0.1-0,0.1-0.1,0.1-0.1
c0-0.03,0.1-0.1,0.1-0.1v-0.1c0-0,0.1-0,0.1-0c0-0.1,0-0.1,0-0.1v-0.1
c0.1,0,0.1-0,0.2-0c0-0,0-0.1,0-0.1c0-0.03,0-0.1,0-0.1c0-0,0-0.1,0-0.1
c0-0,0.06-0.1,0.1-0.1c0-0-0-0.1-0-0.1c-0-0-0-0.06-0-0.1
c0-0,0-0.1,0-0.1c0-0,0-0.1,0-0.1c-0-0-0-0.1-0-0.1c-0-0-0.1-0.1-0.1-0.1
c0-0,0-0.1,0-0.1C21.94,14.9,21.94,14.8,21.94,14.8z M6.3,15.9v-0H6.3v0H6.3z"/>
</g>
</g>
</g>
<g id="guides">
</g>
</svg>
