<svg xmlns="http://www.w3.org/2000/svg" width="83.5px"
 height="32px" viewBox="0 0 83.5 32">
<g id="Selected_Items">
<g>
<g id="Selected_Items_64_">
<path fill-rule="evenodd" clip-rule="evenodd" fill="#FFFFFF" d="M78.1,3.5c0,0.1,0.1,0.2,0.2,0.3
c0.1,0.3,0.2,0.7,0.4,1.2c0.1,0.5,0.2,1.1,0.3,1.6v1.4c0.1,0.1,0.2,0.2,0.2,0.3
c0.03,0.2,0.1,0.3,0.2,0.5h0.3c0.2,0,0.3-0,0.4-0c0.1,0,0.1,0,0.3,0l2.4,0l0.1,0.17
c0,0.1,0,0.3,0.1,0.4c0.1,0.2,0.2,0.4,0.2,0.6c0.1,0.3,0.1,0.5,0,0.7
c-0.1,0.2-0.2,0.4-0.4,0.47c-0.3,0.1-0.6,0.2-0.9,0.2c-0.3,0.1-0.6,0.1-0.7,0.1
c-0,0-0.2,0-0.4,0.1c-0.17,0-0.3,0.1-0.4,0.1h-0.3c-0.1,0-0.3-0-0.5-0.1
c0,0.3-0,0.5-0.1,0.7c-0.1,0.3-0.2,0.4-0.6,0.5c-0.1,0-0.2,0-0.3,0
c-0,0.1-0.1,0.1-0.1,0.1l-0.1,0v0.7l-0.2,0.7h-0.1c-0.3,0-0.7,0-1.3,0
c-0.6,0-1.1-0.1-1.3-0.3c-0.1,0-0.2,0.1-0.3,0.2l-0.13,0.1h-0.1
c-0.3,0-0.5,0.1-0.77,0.3c-0.2,0.2-0.37,0.3-0.4,0.5c0,0.1,0,0.3,0,0.6
c0,0.3,0,0.7,0.1,1.2c0,0.5,0,1.1,0,1.8c0,0.7,0,1.4,0,2.1c0,0.7,0,1.3,0,1.9
c-0,0.6-0.1,1.1-0.1,1.5c-0.1,0.6-0.2,1-0.2,1.4c-0.1,0.3-0.2,0.6-0.3,0.8
c-0.1,0.17-0.1,0.3-0.1,0.5l-0.1,0.2H72.79c-0.2,0.1-0.6,0.1-1.2,0.1
c-0.5,0-0.9-0.1-1.2-0.3v-0.1c-0.1-0.1-0.2-0.2-0.3-0.4c-0.1-0.1-0.2-0.3-0.2-0.6
c-0.1-0.4-0.1-0.7-0.1-0.77v-0.17l-0.2-0.1c0.1-1.8,0.2-3.2,0.3-4.4
c0.1-1.1,0.1-2,0.2-2.7c0.1-0.7,0.1-1.2,0.2-1.5c0.1-0.3,0.1-0.5,0.1-0.6
c-0.1,0-0.2-0-0.3-0.1c-0.1-0.1-0.1-0.2-0.3-0.3L69.71,14.92c-0.1-0-0.1-0.1-0.17-0.1
c-0-0.1-0.1-0.1-0.2-0.1c0-0.1-0.1-0.2-0.3-0.3c-0.2-0.1-0.3-0.2-0.4-0.2
c-0.1,0-0.2-0-0.3-0.1c-0.1,0-0.1-0-0.1-0c-0,0-0.1,0-0.1,0l-0.6,0.1
c-0,0-0.1-0-0.2-0.1c-0.1,0-0.1-0-0.2-0c-0.1,0-0.2,0-0.2,0c-0,0-0.1,0-0.2,0
c-0.1,0.03-0.2,0-0.3,0c-0.1,0.1-0.3,0.1-0.4,0.1h-2.6c0-0.1,0-0.2,0-0.4
c0-0.1,0-0.3,0-0.4c0-0.1,0-0.2,0-0.3c-0.3,0.1-0.6,0.34-1.2,0.7
c-0.5,0.3-0.9,0.4-1.1,0.4h-1.8c0.1,0.2,0.1,0.5,0.2,0.9c0.1,0.4,0.2,0.8,0.3,1.3
c0.1,0.5,0.1,1.1,0.3,1.7c-0.1,0-0.2,0-0.3,0l-0.5,0.3c0,0.1,0.1,0.4,0.2,1
c0.2,0.6,0.4,1.4,0.6,2.3c0.2,0.94,0.4,2,0.6,3.1c0.2,1.2,0.5,2.38,0.8,3.5
c0.1,0.6,0.3,1.2,0.4,1.8c0,0.1,0,0.2,0.1,0.3c-0.1,0-0.1,0-0.2,0
c-0.1,0-0.2,0-0.3,0c-0.1,0-0.2,0-0.3,0c-0.1,0-0.1,0.1-0.2,0.1
c-0.2,0-0.5,0-0.7,0c-0.1,0-0.2,0-0.3,0c-0.1,0-0.2,0-0.3,0
c-0.1,0.03-0.1,0.1-0.2,0.1c-0.4,0-0.87,0-1.3,0c-0.1,0-0.2,0-0.3,0
c-0.1,0-0.2,0-0.3,0c-0.1,0-0.1,0.1-0.2,0.1c-0.2,0-0.5,0-0.7,0l-0.2-0.9
c-0-0-0-0,0-0c-0.3-1.4-0.6-2.65-0.9-3.9c-0.3-1.3-0.6-2.5-0.9-3.55
c-0.2-1.1-0.4-1.9-0.6-2.5c-0.2-0.6-0.3-1-0.3-1h-1.2c-0.3,0-0.6,0-0.9,0
c-0.2,0-0.4,0-0.6,0c-0.3,0-0.4,0.1-0.6,0.2c-0.3,0.1-0.4,0.3-0.6,0.4
c-0.1,0.2-0.3,0.37-0.3,0.5c-0.1,0.1-0.1,0.3-0.3,0.4c-0.1,0.1-0.2,0.2-0.3,0.3
c-0.1,0.1-0.5,0.2-1,0.2c-0.6,0.1-1.3,0.1-1.9,0.1c-0.7,0-1.4,0-2.1,0
c-0.6,0-1-0.1-1.2-0.2c-0.3-0.1-0.7-0.2-1.2-0.43c-0.5-0.2-0.8-0.4-1-0.6
c-0.57,0.8-0.9,1.34-0.9,1.6c0.1,0.3,0.2,0.44,0.3,0.6c0.1,0.1,0.1,0.2,0.1,0.3h0.1l-0.5,0.5
c-0-0-0.1-0-0.1-0c-0.1,0-0.2,0-0.3,0c-0.1,0.1-0.2,0.3-0.4,0.6
c-0.2,0.3-0.4,0.7-0.7,1.2c-0.2,0.5-0.4,0.9-0.6,1.3c-0.2,0.3-0.3,0.6-0.3,0.7v0.9
c0.1,0.1,0.1,0.2-0.1,0.4c-0.2,0.17-0.6,0.2-1,0.17c-0.2-0.1-0.5-0.2-1-0.5
c-0.5-0.3-1-0.6-1.6-0.9c-0.6-0.3-1.1-0.6-1.5-0.9c-0.5-0.4-0.8-0.6-0.8-0.77
c0-0.1,0-0.3,0.1-0.5c0.1-0.1,0.2-0.5,0.6-1c0.3-0.5,0.7-1.3,1.24-2.4
c0.6-1,1.4-2.4,2.4-4.1c0-0.3-0.1-0.7-0.3-1.4c-0.1-0.7-0.6-1.1-1.5-1.4l-1.8-0.7
c-0.4-0.1-0.7-0.1-0.94-0.2c-0.3-0.1-0.5-0.1-0.8-0.1c-0.3-0.1-0.57-0.1-0.9-0.1
c-0.4-0.1-0.9-0.1-1.3-0.1c-0.5-0.03-0.9-0.03-1.3,0c-0.4,0-0.7,0-0.9,0.1L4.2,21.7H4.1
c-0.1,0-0.2,0-0.47,0c-0.3,0.1-0.7,0.1-1,0.1c-0.3,0-0.7-0-1.1-0
c-0.4-0.1-0.7-0.1-0.9-0.3c-0.2-0.2-0.3-0.4-0.3-0.6v-3c0-0.7,0-1.5,0-2.2
c0-0.7-0.1-1.3-0.2-1.7v-2.1c0-0.3-0-0.6-0-0.9c-0.1-0.3-0.1-0.6-0.1-0.8
c-0.1-0.4-0.1-0.7-0.1-1.1c0-0.3,0.2-0.6,0.6-0.7c0-0,0.3-0.07,0.9-0.1
c0.5,0,1.1-0,1.8-0c0.7,0,1.4-0,2.2-0c0.7,0,1.3,0,1.8,0h15.6
c0.2-0.1,0.5-0.17,0.9-0.3c0.4-0.1,0.8-0.2,1.2-0.3c0.4-0.1,0.8-0.3,1.2-0.3
c0.3-0.1,0.47-0.2,0.6-0.3l0.9-0.6c0.2-0.1,0.4-0.2,0.5-0.3c0.2-0,0.3-0.1,0.4-0.1
c0.2-0.1,0.7-0.3,1.7-0.4c0.3,0,0.5-0,0.5-0.1c0.1,0,0.2-0,0.3-0.1
c0.1-0.1,0.5-0.4,1.1-1c0.5-0.6,1-1.1,1.5-1.6c0.3-0.2,0.7-0.3,1.3-0.2
c0.57,0.1,1,0.1,1.3,0.2c0.1,0,0.2-0,0.3-0c0.1,0,0.1-0,0.1-0
c0.1,0,0.1,0,0.2,0c0.2,0.1,0.3,0.2,0.4,0.2h1L38.24,3.63v1.8h0.17V4.4h2.2V3.8h1.2
v0.6h0.8V3.8h1.1v0.6h0.8V3.8h1.2v0.6h0.9V3.8h1.1v0.6h0.94V3.8h1.2v0.6h0.9V3.8h1.2
v0.6h0.7V3.8h1.3v0.6h0.7V3.8h1.2v0.6h1.2v1.1h15.7c0.3-0.2,0.6-0.5,1.1-0.9
c0.5-0.4,0.8-0.7,0.9-0.9c0-0.3,0-0.5,0-0.6c0-0.1,0-0.2,0-0.3
c0.1-0.3,0.2-0.5,0.3-0.7c0.1-0.2,0.3-0.4,0.6-0.4h0.3c0.3-0.1,0.5-0.2,0.8-0.2
c0.2,0,0.4,0.2,0.6,0.5c0.3,0.4,0.5,0.8,0.6,1.2C78,3.2,78.1,3.4,78.1,3.5z M56.3,5
H39.1v0.47h17.2V5z M42.6,19c0.2,0.2,0.5,0.3,0.8,0.3h4c0.3,0,0.5-0.1,0.9-0.3
c0.2-0.2,0.3-0.4,0.3-0.6c0-0.4-0.1-0.8-0.3-1c-0.3-0.17-0.6-0.3-0.9-0.3h-4
c-0.3,0-0.6,0.1-0.8,0.3c-0.3,0.2-0.4,0.6-0.4,1C42.13,18.6,42.3,18.8,42.6,19z
 M20.2,12.8c0-0.7-0.3-1.1-1-1.1h-1.88c-0.3,0-0.5,0.1-0.6,0.3c-0.2,0.2-0.3,0.5-0.3,0.8
c0,0.2,0.1,0.4,0.3,0.6c0.2,0.2,0.4,0.3,0.6,0.3h1.88c0.3,0,0.57-0.1,0.77-0.3
C20.1,13.2,20.2,13.1,20.2,12.8z M5.9,11c-0.5-0.1-0.9-0.1-1.4-0.2c-0.5,0-0.8-0.03-1-0.1
c0,0.4,0,0.9,0,1.5c0.1,0.7,0.1,1.3,0.2,2.01c0,0.7,0,1.34,0.1,2
c0,0.6,0,1,0,1.2c0.1,0.1,0.4,0.3,0.9,0.5c0.5,0.17,1,0.3,1.5,0.3
C6.5,18.1,6.98,18,7.58,17.8c0.5-0.2,1.1-0.4,1.71-0.6c0.57-0.3,1.14-0.5,1.7-0.8
c0.5-0.3,0.9-0.47,1.2-0.6c0.2-0.2,0.3-0.5,0.3-0.8c0-0.3-0.1-0.8-0.3-1.3
c-0.2-0.5-0.3-1-0.47-1.4c-0.2,0-0.6-0.1-1.2-0.2c-0.5-0.1-1.2-0.3-1.9-0.5
c-0.3-0.1-0.8-0.2-1.3-0.3C6.9,11.1,6.4,11,5.9,11z"/>
</g>
</g>
</g>
<g id="guides">
</g>
</svg>
