<svg xmlns="http://www.w3.org/2000/svg" width="69.25px"
 height="32px" viewBox="0 0 69.25 32">
<g id="Selected_Items">
<g>
<g id="Selected_Items_52_">
<path fill-rule="evenodd" clip-rule="evenodd" fill="#FFFFFF" d="M68.96,6.6c0,0.7-0,1.3-0.1,1.7
c-0,0.3-0.12,0.61-0.3,0.9c-0.1,0.1-0.1,0.3-0.2,0.4h-13.87l-0.2-0.1l-0.3,0.1h-10.66l-0.3,0.18
l-0.4-0.1h-4.5V8.8h-1.5V8.18h-0.9v1.56l0.2,0.2v0.8l-0.2,0.2l-0.1,1.5H25.6
c-0.06,0-0.1,0-0.2,0.1c-0.1,0.1-0.3,0.3-0.4,0.5c-0.1,0.3-0.7,1.8-1.8,4.37
c-0.2,0.3-0.3,0.43-0.4,0.5c-0.1,0.06-0.3,0.1-0.7,0.1l-4.6,0.2c-0.2-0.1-0.4-0.2-0.67-0.3
c-0.5-0.2-0.9-0.3-1.16-0.4c-0.3-0.06-0.55-0.1-0.7-0.1c-0.12,0-0.3,0.1-0.7,0.1
c-0.3,0.1-0.5,0.12-0.8,0.1l-0.3-0.1l-2.3,9.6l-0.1,1.1l0.5,0.7l-9.6-0.1
c0-0.6,0.03-1.3,0.09-2.2c0.2-1.8,0.46-3.5,0.8-5.1c0.4-1.6,1-3.2,1.6-4.6
c0-0.1,0.2-0.5,0.6-1.3c0.2-0.4,0.3-0.7,0.3-0.8c0.1-0.4,0-0.6-0.2-0.8
c-0.2-0.2-0.6-0.4-1.2-0.6c-0.6-0.2-1-0.3-1.16-0.4c-0.2-0.09-0.4-0.2-0.4-0.4
c-0-0.2-0-0.6,0-1l0.1-0.7l-1.7-0.2c-0.1,0-0.2-0-0.3-0.1
c-0.2-0.1-0.3-0.34-0.3-0.6c0.06-0.3,0.3-0.4,0.6-0.4c0.2-0,0.3-0,0.49,0L1.48,8.6
l1.3,0.8l0.58-2.9l0.9-1.8V4.03l0.7,0.4l2.9,0l0.3,0.2h9.7v0.18h5.44V4.7h9.4V3.5h2.2
l0.3,0.3v0.8l0.3-0l0.3,0.4v0.7h0.9V5.1h1.3V3.8h4.6l0.3-0.2l0.4,0.2h10.66l0.3,0
l0.3-0.1h13.7l0.2,0.3c0.1,0.3,0.2,0.6,0.3,0.9C68.9,5.4,68.9,5.9,68.96,6.6z M23,12.46
l-5.1,0c-0.5,0.5-0.9,0.9-1.07,1.1c-0.3,0.4-0.5,0.7-0.5,0.7c-0.2,0.3-0.3,0.7-0.4,1.1
c-0,0.2,0,0.5,0.1,0.9c0.1,0.2,0.1,0.33,0.2,0.4l-0.3,0.2c-0.1-0.2-0.3-0.46-0.4-0.8
c-0.2-0.5-0.3-1-0.3-1.3c0.06-0.6,0.3-1.1,0.67-1.65c0.1-0.2,0.3-0.4,0.5-0.6
c-0.2,0-0.4,0.1-0.7,0.2c-0.5,0.2-0.9,0.4-1.2,0.6c-0.3,0.4-0.5,0.7-0.6,1.2
c-0.1,0.4-0.09,0.9,0.09,1.2c0.2,0.4,0.4,0.7,0.8,0.9c0.3,0.2,0.7,0.4,1.16,0.5
c0.3,0,0.7,0,1.3,0c0.5-0,0.8,0,0.98,0.1c0.2,0.06,0.9,0.1,2.2,0.1
c1.2-0,1.8-0.1,2-0.1c0.1-0.1,0.4-0.8,0.9-2l0.67-1.9c0-0.1,0-0.2,0-0.3
c0-0.2-0-0.3-0.09-0.4c-0.12-0.1-0.3-0.2-0.5-0.3L23,12.46z"/>
</g>
</g>
</g>
<g id="guides">
</g>
</svg>
