<svg xmlns="http://www.w3.org/2000/svg"
 width="97.9px" height="32px" viewBox="0 0 97.9 32">
<g id="Selected_Items">
<g>
<g id="Selected_Items_53_">
<path fill-rule="evenodd" clip-rule="evenodd" fill="#FFFFFF" d="M97.6,8.7c0,0.3-0,0.5-0,0.8
c-0,0.4-0.1,0.6-0.2,0.8c-0.16,0.2-0.5,0.3-1.1,0.3c-0.6,0-1.2,0-1.75,0v0.3h0.1
c0.1,0,0.1,0.1,0.1,0.2c0.2,0,0.49-0,0.9-0.07c0.5-0,0.8,0,1.1,0.24
c0.2,0.1,0.4,0.32,0.5,0.8c0.1,0.4,0.17,0.8,0.1,1.2c-0.2,0.5-0.6,0.9-1.2,1.1H71.7
c-0.1,0-0.5,0.1-1.2,0.4c-0.7,0.2-1.7,0.3-3.1,0.3h-0.4c-0.7,0-1.7,0-2.9,0
c-1.2,0-2.6,0-4,0c-1.5,0-3,0.1-4.5,0.1c-1.5,0-2.9,0-4.3,0c-1.3,0-2.4,0-3.2,0
c-0.9,0-1.4-0-1.5-0.1c-0.3-0.1-0.5-0.2-0.8-0.2c-0.3,0-0.5,0-0.8,0h-1.2
c-0.16-0.1-0.4-0.1-0.8-0.1c-0.4-0-0.8-0-1.3-0.1c-0.4,0-0.8,0-1.1,0
c-0.32,0-0.5,0.01-0.7,0c-0.16,0-0.4,0.1-0.6,0.3c-0.6,0.4-1,0.6-1.2,0.6
c-0.1,0-0.3-0.1-0.5-0.2c-0.2-0.1-0.5-0.1-0.9-0.2c-0.3-0.1-0.7-0.2-1.2-0.2
c-0.4-0.1-0.7-0.1-0.8-0.1c-0.2,0-0.7,0-1.3,0c-0.6,0-1,0.16-1.2,0.3
c-0.1,0-0.3,0.2-0.5,0.6c-0.3,0.3-0.5,0.6-0.9,0.9c-0.3,0.3-0.7,0.56-1,0.65h-0.6
c-0.2,0.1-0.32,0.2-0.4,0.2c-0.1,0-0.1,0-0.24,0c-0.2,0-0.5,0-1,0
c-0.5,0-0.9,0-1.4,0.1c-0.5,0-1,0.1-1.44,0.1c-0.4,0.1-0.7,0.2-0.8,0.3
c-0.1,0-0.2,0.3-0.3,0.7c-0.2,0.4-0.4,0.9-0.7,1.51c-0.3,0.6-0.6,1.2-0.9,1.9
c-0.3,0.6-0.63,1.2-0.9,1.8c0,0.5,0,0.8,0.1,1c0,0.2,0.1,0.3,0.1,0.4l0.2,0.2
c0,0.1,0.1,0.2,0.3,0.3c0.1,0.1,0.2,0.2,0.2,0.4L21.7,26.5c-0.1,0.1-0.25,0.1-0.48,0.1
c-0.3,0-0.5,0.1-0.72,0.1c-0.3,0-0.6-0-0.9-0.1c-0.4-0.09-0.9-0.2-1.4-0.3
c-0.6-0.1-1.1-0.2-1.6-0.3c-0.48-0.16-0.9-0.3-1.3-0.4c-0.4-0.1-0.7-0.2-0.7-0.3l-0.1-0.1
v-0h-0c-0.1-0.1-0.2-0.3-0.2-0.5v-0.2c0-0.1,0.2-0.4,0.6-1
c0.3-0.6,0.7-1.3,1.1-2c0.4-0.7,0.8-1.4,1.13-2.1c0.32-0.6,0.5-1,0.5-1.1
c0-0.2-0-0.4-0-0.7c-0-0.3-0.1-0.5-0.3-0.65c-0.3-0.1-0.7-0.2-1.1-0.2
c-0.4-0.1-0.8-0.1-0.96,0c-0.5,0-0.7-0-0.7-0.1h-0.1c0-0.1,0-0.2,0-0.3
c0-0.1,0-0.2,0-0.2c0-0,0.1-0.09,0.1-0.1c-0.1,0-0.5,0.1-1.3,0.2
c-0.8,0.1-1.6,0.32-2.4,0.55c-0.8,0.2-1.6,0.4-2.3,0.6c-0.7,0.16-1.1,0.2-1.1,0.2
c-0.1,0-0.2,0.1-0.3,0.3c-0.1,0.16-0.3,0.4-0.5,0.7c-0.2,0.2-0.3,0.4-0.4,0.7
c-0.1,0.3-0.3,0.6-0.4,0.9c-0.1,0.3-0.3,0.55-0.3,0.8c-0.1,0.2-0.2,0.4-0.2,0.4
c-0.1,0-0.24,0.1-0.5,0.4c-0.2,0.1-0.6,0.3-1.2,0.6c-0.6,0.3-1.4,0.64-2.4,1H0.9
l-0.7-0.2L0,10l5.35-0.79C5.5,9.16,5.7,9.1,5.8,9c0.09-0.1,0.2-0.1,0.24-0.2
c0.1-0.1,0.2-0.2,0.24-0.3l17.5-1.6v0.2c0.1,0.2,0.2,0.3,0.3,0.5
c0.1,0.1,0.2,0.2,0.3,0.2c0,0.1,0.1,0.1,0.1,0.1c0.1,0,0.1-0,0.2-0.1l0.2-0.2V7.1
h0.1c0.5-0.8,0.9-1.3,1.1-1.6V5.5h0.1c0.03-0,0.1-0.1,0.1-0.1
c0-0,0-0,0-0c0.4,0,0.7,0,1,0c0,0.04,0.1,0.1,0.12,0.1h0.2v0.3
c0.2,0.2,0.4,0.3,0.6,0.3l0.3,0.2h1.1c0.4,0,0.7,0,0.9,0.1c0.2,0,0.3,0.1,0.3,0.3
c0.1,0,0.2,0.2,0.2,0.6v0.3c0,0,0.1,0,0.1,0c0,0,0.1,0.07,0.1,0.07l0.1,0V6.5
h12.2V5.9h0.7v0.7h1.8v0.24c0,0.2,0,0.5,0.1,0.7c0.1,0.2,0.2,0.3,0.2,0.3h45
c0.1-0.1,0.3-0.2,0.48-0.4c0.2-0.2,0.24-0.4,0.24-0.6l0.1-0.4c0-0.2,0-0.4,0.1-0.7
c0.1-0.3,0.3-0.4,0.4-0.4c0.1,0,0.4,0.1,0.8,0.3c0.3,0.2,0.7,0.39,1.1,0.6
c0.4,0.2,0.7,0.5,1,0.72c0.3,0.3,0.5,0.5,0.5,0.7c0.1,0.09,0.2,0.2,0.2,0.2
c0.1,0,0.1,0,0.1,0.1c0.1,0,0.1,0,0.2,0h0.2l0.6,0.2V8.7z M92,10.69h-1.1
l-0.2-0.24H71.7c-0.3,0.2-0.4,0.4-0.4,0.6v0.2c0.3,0,1.1,0.1,2.5,0.1c1.4,0,3.2,0,5.2,0
c2.1-0,4.2-0.1,6.5-0.1c2.4-0,4.5-0.1,6.4-0.1h0.48C92.3,10.8,92.2,10.69,92,10.69z
 M28.2,5.9c0,0,0,0,0.1,0c0,0,0,0,0.1,0c0,0,0,0,0,0h-0.2V5.9z
 M29.5,15.5c0-0.4-0.08-0.7-0.24-0.9c-0.2-0.2-0.4-0.3-0.8-0.3h-2.5c-0.3,0-0.56,0.1-0.8,0.3
c-0.2,0.2-0.3,0.5-0.3,0.9c0,0.3,0.1,0.5,0.3,0.7c0.2,0.2,0.5,0.3,0.8,0.3h2.5
c0.3,0,0.6-0.1,0.8-0.3C29.4,15.9,29.5,15.7,29.5,15.5z M25.6,6
c0-0,0-0,0.1-0h0v0H25.6z"/>
</g>
</g>
</g>
<g id="guides">
</g>
</svg>
